solid OpenSCAD_Model
  facet normal 0 -0.30905 -0.951046
    outer loop
      vertex 2.45 2.51319 2.45702
      vertex 4.45 2.52513 2.45314
      vertex 4.45 2.51319 2.45702
    endloop
  endfacet
  facet normal -0 -0.30905 -0.951046
    outer loop
      vertex 4.45 2.52513 2.45314
      vertex 2.45 2.51319 2.45702
      vertex 2.45 2.52513 2.45314
    endloop
  endfacet
  facet normal 0 1 -0
    outer loop
      vertex 4.45 35.5498 2.54372
      vertex 2.45 35.5498 26.4563
      vertex 4.45 35.5498 26.4563
    endloop
  endfacet
  facet normal 0 1 0
    outer loop
      vertex 2.45 35.5498 26.4563
      vertex 4.45 35.5498 2.54372
      vertex 2.45 35.5498 2.54372
    endloop
  endfacet
  facet normal 0 0.636265 -0.771471
    outer loop
      vertex 2.45 35.5088 2.4691
      vertex 4.45 35.5185 2.4771
      vertex 4.45 35.5088 2.4691
    endloop
  endfacet
  facet normal 0 0.636265 -0.771471
    outer loop
      vertex 4.45 35.5185 2.4771
      vertex 2.45 35.5088 2.4691
      vertex 2.45 35.5185 2.4771
    endloop
  endfacet
  facet normal -0 0.534293 0.845299
    outer loop
      vertex 2.45 35.5088 26.5309
      vertex 4.45 35.4982 26.5376
      vertex 4.45 35.5088 26.5309
    endloop
  endfacet
  facet normal 0 0.534293 0.845299
    outer loop
      vertex 4.45 35.4982 26.5376
      vertex 2.45 35.5088 26.5309
      vertex 2.45 35.4982 26.5376
    endloop
  endfacet
  facet normal 0 0.930441 -0.366441
    outer loop
      vertex 4.45 35.5405 2.50742
      vertex 2.45 35.5451 2.5191
      vertex 4.45 35.5451 2.5191
    endloop
  endfacet
  facet normal 0 0.930441 -0.366441
    outer loop
      vertex 2.45 35.5451 2.5191
      vertex 4.45 35.5405 2.50742
      vertex 2.45 35.5405 2.50742
    endloop
  endfacet
  facet normal 0 -0.429008 0.903301
    outer loop
      vertex 2.45 2.51319 26.543
      vertex 4.45 2.50182 26.5376
      vertex 4.45 2.51319 26.543
    endloop
  endfacet
  facet normal 0 -0.429008 0.903301
    outer loop
      vertex 4.45 2.50182 26.5376
      vertex 2.45 2.51319 26.543
      vertex 2.45 2.50182 26.5376
    endloop
  endfacet
  facet normal 0 -0.18323 0.98307
    outer loop
      vertex 2.45 2.53747 26.5492
      vertex 4.45 2.52513 26.5469
      vertex 4.45 2.53747 26.5492
    endloop
  endfacet
  facet normal 0 -0.18323 0.98307
    outer loop
      vertex 4.45 2.52513 26.5469
      vertex 2.45 2.53747 26.5492
      vertex 2.45 2.52513 26.5469
    endloop
  endfacet
  facet normal 0 0.991856 -0.127365
    outer loop
      vertex 4.45 35.5482 2.53126
      vertex 2.45 35.5498 2.54372
      vertex 4.45 35.5498 2.54372
    endloop
  endfacet
  facet normal 0 0.991856 -0.127365
    outer loop
      vertex 2.45 35.5498 2.54372
      vertex 4.45 35.5482 2.53126
      vertex 2.45 35.5482 2.53126
    endloop
  endfacet
  facet normal 0 0.810468 0.585783
    outer loop
      vertex 4.45 35.5344 26.5036
      vertex 2.45 35.5271 26.5137
      vertex 4.45 35.5271 26.5137
    endloop
  endfacet
  facet normal 0 0.810468 0.585783
    outer loop
      vertex 2.45 35.5271 26.5137
      vertex 4.45 35.5344 26.5036
      vertex 2.45 35.5344 26.5036
    endloop
  endfacet
  facet normal 0 0 -1
    outer loop
      vertex 2.45 2.55 2.45
      vertex 4.45 35.45 2.45
      vertex 4.45 2.55 2.45
    endloop
  endfacet
  facet normal -0 0 -1
    outer loop
      vertex 4.45 35.45 2.45
      vertex 2.45 2.55 2.45
      vertex 2.45 35.45 2.45
    endloop
  endfacet
  facet normal 0 0.969201 0.246272
    outer loop
      vertex 4.45 35.5482 26.4687
      vertex 2.45 35.5451 26.4809
      vertex 4.45 35.5451 26.4809
    endloop
  endfacet
  facet normal 0 0.969201 0.246272
    outer loop
      vertex 2.45 35.5451 26.4809
      vertex 4.45 35.5482 26.4687
      vertex 2.45 35.5482 26.4687
    endloop
  endfacet
  facet normal 0 0.730527 0.682884
    outer loop
      vertex 4.45 35.5271 26.5137
      vertex 2.45 35.5185 26.5229
      vertex 4.45 35.5185 26.5229
    endloop
  endfacet
  facet normal 0 0.730527 0.682884
    outer loop
      vertex 2.45 35.5185 26.5229
      vertex 4.45 35.5271 26.5137
      vertex 2.45 35.5271 26.5137
    endloop
  endfacet
  facet normal 0 -0.929841 0.367963
    outer loop
      vertex 2.45 2.45489 26.4809
      vertex 4.45 2.45952 26.4926
      vertex 2.45 2.45952 26.4926
    endloop
  endfacet
  facet normal 0 -0.929841 0.367963
    outer loop
      vertex 4.45 2.45952 26.4926
      vertex 2.45 2.45489 26.4809
      vertex 4.45 2.45489 26.4809
    endloop
  endfacet
  facet normal 0 0.969007 -0.247033
    outer loop
      vertex 4.45 35.5451 2.5191
      vertex 2.45 35.5482 2.53126
      vertex 4.45 35.5482 2.53126
    endloop
  endfacet
  facet normal 0 0.969007 -0.247033
    outer loop
      vertex 2.45 35.5482 2.53126
      vertex 4.45 35.5451 2.5191
      vertex 2.45 35.5451 2.5191
    endloop
  endfacet
  facet normal -0 0 1
    outer loop
      vertex 2.45 35.45 26.55
      vertex 4.45 2.55 26.55
      vertex 4.45 35.45 26.55
    endloop
  endfacet
  facet normal 0 0 1
    outer loop
      vertex 4.45 2.55 26.55
      vertex 2.45 35.45 26.55
      vertex 2.45 2.55 26.55
    endloop
  endfacet
  facet normal 0 -0.729041 -0.68447
    outer loop
      vertex 2.45 2.48155 2.4771
      vertex 4.45 2.47295 2.48626
      vertex 2.45 2.47295 2.48626
    endloop
  endfacet
  facet normal 0 -0.729041 -0.68447
    outer loop
      vertex 4.45 2.47295 2.48626
      vertex 2.45 2.48155 2.4771
      vertex 4.45 2.48155 2.4771
    endloop
  endfacet
  facet normal -0 0.428086 0.903738
    outer loop
      vertex 2.45 35.4982 26.5376
      vertex 4.45 35.4868 26.543
      vertex 4.45 35.4982 26.5376
    endloop
  endfacet
  facet normal 0 0.428086 0.903738
    outer loop
      vertex 4.45 35.4868 26.543
      vertex 2.45 35.4982 26.5376
      vertex 2.45 35.4868 26.543
    endloop
  endfacet
  facet normal 0 -0.968625 -0.248529
    outer loop
      vertex 2.45 2.45489 2.5191
      vertex 4.45 2.45177 2.53126
      vertex 2.45 2.45177 2.53126
    endloop
  endfacet
  facet normal 0 -0.968625 -0.248529
    outer loop
      vertex 4.45 2.45177 2.53126
      vertex 2.45 2.45489 2.5191
      vertex 4.45 2.45489 2.5191
    endloop
  endfacet
  facet normal 0 0.991778 0.127971
    outer loop
      vertex 4.45 35.5498 26.4563
      vertex 2.45 35.5482 26.4687
      vertex 4.45 35.5482 26.4687
    endloop
  endfacet
  facet normal 0 0.991778 0.127971
    outer loop
      vertex 2.45 35.5482 26.4687
      vertex 4.45 35.5498 26.4563
      vertex 2.45 35.5498 26.4563
    endloop
  endfacet
  facet normal 0 -0.534293 0.845299
    outer loop
      vertex 2.45 2.50182 26.5376
      vertex 4.45 2.49122 26.5309
      vertex 4.45 2.50182 26.5376
    endloop
  endfacet
  facet normal 0 -0.534293 0.845299
    outer loop
      vertex 4.45 2.49122 26.5309
      vertex 2.45 2.50182 26.5376
      vertex 2.45 2.49122 26.5309
    endloop
  endfacet
  facet normal 0 -0.535999 -0.844219
    outer loop
      vertex 2.45 2.49122 2.4691
      vertex 4.45 2.50182 2.46237
      vertex 4.45 2.49122 2.4691
    endloop
  endfacet
  facet normal -0 -0.535999 -0.844219
    outer loop
      vertex 4.45 2.50182 2.46237
      vertex 2.45 2.49122 2.4691
      vertex 2.45 2.50182 2.46237
    endloop
  endfacet
  facet normal 0 -0.96882 0.247764
    outer loop
      vertex 2.45 2.45177 26.4687
      vertex 4.45 2.45489 26.4809
      vertex 2.45 2.45489 26.4809
    endloop
  endfacet
  facet normal 0 -0.96882 0.247764
    outer loop
      vertex 4.45 2.45489 26.4809
      vertex 2.45 2.45177 26.4687
      vertex 4.45 2.45177 26.4687
    endloop
  endfacet
  facet normal 0 -0.425759 -0.904837
    outer loop
      vertex 2.45 2.50182 2.46237
      vertex 4.45 2.51319 2.45702
      vertex 4.45 2.50182 2.46237
    endloop
  endfacet
  facet normal -0 -0.425759 -0.904837
    outer loop
      vertex 4.45 2.51319 2.45702
      vertex 2.45 2.50182 2.46237
      vertex 2.45 2.51319 2.45702
    endloop
  endfacet
  facet normal 0 0.535999 -0.844219
    outer loop
      vertex 2.45 35.4982 2.46237
      vertex 4.45 35.5088 2.4691
      vertex 4.45 35.4982 2.46237
    endloop
  endfacet
  facet normal 0 0.535999 -0.844219
    outer loop
      vertex 4.45 35.5088 2.4691
      vertex 2.45 35.4982 2.46237
      vertex 2.45 35.5088 2.4691
    endloop
  endfacet
  facet normal 0 -1 0
    outer loop
      vertex 2.45 2.4502 2.54372
      vertex 4.45 2.4502 26.4563
      vertex 2.45 2.4502 26.4563
    endloop
  endfacet
  facet normal 0 -1 -0
    outer loop
      vertex 4.45 2.4502 26.4563
      vertex 2.45 2.4502 2.54372
      vertex 4.45 2.4502 2.54372
    endloop
  endfacet
  facet normal 0 -0.80742 0.589977
    outer loop
      vertex 2.45 2.46557 26.5036
      vertex 4.45 2.47295 26.5137
      vertex 2.45 2.47295 26.5137
    endloop
  endfacet
  facet normal 0 -0.80742 0.589977
    outer loop
      vertex 4.45 2.47295 26.5137
      vertex 2.45 2.46557 26.5036
      vertex 4.45 2.46557 26.5036
    endloop
  endfacet
  facet normal 0 -0.0629237 -0.998018
    outer loop
      vertex 2.45 2.53747 2.45079
      vertex 4.45 2.55 2.45
      vertex 4.45 2.53747 2.45079
    endloop
  endfacet
  facet normal -0 -0.0629237 -0.998018
    outer loop
      vertex 4.45 2.55 2.45
      vertex 2.45 2.53747 2.45079
      vertex 2.45 2.55 2.45
    endloop
  endfacet
  facet normal 0 0.874532 -0.484968
    outer loop
      vertex 4.45 35.5344 2.49642
      vertex 2.45 35.5405 2.50742
      vertex 4.45 35.5405 2.50742
    endloop
  endfacet
  facet normal 0 0.874532 -0.484968
    outer loop
      vertex 2.45 35.5405 2.50742
      vertex 4.45 35.5344 2.49642
      vertex 2.45 35.5344 2.49642
    endloop
  endfacet
  facet normal 0 0.930655 0.365898
    outer loop
      vertex 4.45 35.5451 26.4809
      vertex 2.45 35.5405 26.4926
      vertex 4.45 35.5405 26.4926
    endloop
  endfacet
  facet normal 0 0.930655 0.365898
    outer loop
      vertex 2.45 35.5405 26.4926
      vertex 4.45 35.5451 26.4809
      vertex 2.45 35.5451 26.4809
    endloop
  endfacet
  facet normal 0 -0.637437 0.770502
    outer loop
      vertex 2.45 2.49122 26.5309
      vertex 4.45 2.48155 26.5229
      vertex 4.45 2.49122 26.5309
    endloop
  endfacet
  facet normal 0 -0.637437 0.770502
    outer loop
      vertex 4.45 2.48155 26.5229
      vertex 2.45 2.49122 26.5309
      vertex 2.45 2.48155 26.5229
    endloop
  endfacet
  facet normal 0 0.0630742 -0.998009
    outer loop
      vertex 2.45 35.45 2.45
      vertex 4.45 35.4625 2.45079
      vertex 4.45 35.45 2.45
    endloop
  endfacet
  facet normal 0 0.0630742 -0.998009
    outer loop
      vertex 4.45 35.4625 2.45079
      vertex 2.45 35.45 2.45
      vertex 2.45 35.4625 2.45079
    endloop
  endfacet
  facet normal -0 0.311432 0.950268
    outer loop
      vertex 2.45 35.4868 26.543
      vertex 4.45 35.4749 26.5469
      vertex 4.45 35.4868 26.543
    endloop
  endfacet
  facet normal 0 0.311432 0.950268
    outer loop
      vertex 4.45 35.4749 26.5469
      vertex 2.45 35.4868 26.543
      vertex 2.45 35.4749 26.5469
    endloop
  endfacet
  facet normal 0 -0.876216 0.481919
    outer loop
      vertex 2.45 2.45952 26.4926
      vertex 4.45 2.46557 26.5036
      vertex 2.45 2.46557 26.5036
    endloop
  endfacet
  facet normal 0 -0.876216 0.481919
    outer loop
      vertex 4.45 2.46557 26.5036
      vertex 2.45 2.45952 26.4926
      vertex 4.45 2.45952 26.4926
    endloop
  endfacet
  facet normal 0 -0.992155 -0.125015
    outer loop
      vertex 2.45 2.45177 2.53126
      vertex 4.45 2.4502 2.54372
      vertex 2.45 2.4502 2.54372
    endloop
  endfacet
  facet normal 0 -0.992155 -0.125015
    outer loop
      vertex 4.45 2.4502 2.54372
      vertex 2.45 2.45177 2.53126
      vertex 4.45 2.45177 2.53126
    endloop
  endfacet
  facet normal 0 0.81211 -0.583504
    outer loop
      vertex 4.45 35.5271 2.48626
      vertex 2.45 35.5344 2.49642
      vertex 4.45 35.5344 2.49642
    endloop
  endfacet
  facet normal 0 0.81211 -0.583504
    outer loop
      vertex 2.45 35.5344 2.49642
      vertex 4.45 35.5271 2.48626
      vertex 2.45 35.5271 2.48626
    endloop
  endfacet
  facet normal 0 0.309989 -0.95074
    outer loop
      vertex 2.45 35.4749 2.45314
      vertex 4.45 35.4868 2.45702
      vertex 4.45 35.4749 2.45314
    endloop
  endfacet
  facet normal 0 0.309989 -0.95074
    outer loop
      vertex 4.45 35.4868 2.45702
      vertex 2.45 35.4749 2.45314
      vertex 2.45 35.4868 2.45702
    endloop
  endfacet
  facet normal 0 -0.730527 0.682884
    outer loop
      vertex 2.45 2.47295 26.5137
      vertex 4.45 2.48155 26.5229
      vertex 2.45 2.48155 26.5229
    endloop
  endfacet
  facet normal 0 -0.730527 0.682884
    outer loop
      vertex 4.45 2.48155 26.5229
      vertex 2.45 2.47295 26.5137
      vertex 4.45 2.47295 26.5137
    endloop
  endfacet
  facet normal -0 0.636265 0.771471
    outer loop
      vertex 2.45 35.5185 26.5229
      vertex 4.45 35.5088 26.5309
      vertex 4.45 35.5185 26.5229
    endloop
  endfacet
  facet normal 0 0.636265 0.771471
    outer loop
      vertex 4.45 35.5088 26.5309
      vertex 2.45 35.5185 26.5229
      vertex 2.45 35.5088 26.5309
    endloop
  endfacet
  facet normal 0 -0.929625 -0.368507
    outer loop
      vertex 2.45 2.45952 2.50742
      vertex 4.45 2.45489 2.5191
      vertex 2.45 2.45489 2.5191
    endloop
  endfacet
  facet normal 0 -0.929625 -0.368507
    outer loop
      vertex 4.45 2.45489 2.5191
      vertex 2.45 2.45952 2.50742
      vertex 4.45 2.45952 2.50742
    endloop
  endfacet
  facet normal 0 0.186202 -0.982512
    outer loop
      vertex 2.45 35.4625 2.45079
      vertex 4.45 35.4749 2.45314
      vertex 4.45 35.4625 2.45079
    endloop
  endfacet
  facet normal 0 0.186202 -0.982512
    outer loop
      vertex 4.45 35.4749 2.45314
      vertex 2.45 35.4625 2.45079
      vertex 2.45 35.4749 2.45314
    endloop
  endfacet
  facet normal 0 0.729041 -0.68447
    outer loop
      vertex 4.45 35.5185 2.4771
      vertex 2.45 35.5271 2.48626
      vertex 4.45 35.5271 2.48626
    endloop
  endfacet
  facet normal 0 0.729041 -0.68447
    outer loop
      vertex 2.45 35.5271 2.48626
      vertex 4.45 35.5185 2.4771
      vertex 2.45 35.5185 2.4771
    endloop
  endfacet
  facet normal 0 -0.187076 -0.982346
    outer loop
      vertex 2.45 2.52513 2.45314
      vertex 4.45 2.53747 2.45079
      vertex 4.45 2.52513 2.45314
    endloop
  endfacet
  facet normal -0 -0.187076 -0.982346
    outer loop
      vertex 4.45 2.53747 2.45079
      vertex 2.45 2.52513 2.45314
      vertex 2.45 2.53747 2.45079
    endloop
  endfacet
  facet normal 0 -0.99208 0.12561
    outer loop
      vertex 2.45 2.4502 26.4563
      vertex 4.45 2.45177 26.4687
      vertex 2.45 2.45177 26.4687
    endloop
  endfacet
  facet normal 0 -0.99208 0.12561
    outer loop
      vertex 4.45 2.45177 26.4687
      vertex 2.45 2.4502 26.4563
      vertex 4.45 2.4502 26.4563
    endloop
  endfacet
  facet normal 0 -0.063717 0.997968
    outer loop
      vertex 2.45 2.55 26.55
      vertex 4.45 2.53747 26.5492
      vertex 4.45 2.55 26.55
    endloop
  endfacet
  facet normal 0 -0.063717 0.997968
    outer loop
      vertex 4.45 2.53747 26.5492
      vertex 2.45 2.55 26.55
      vertex 2.45 2.53747 26.5492
    endloop
  endfacet
  facet normal -0 0.0638693 0.997958
    outer loop
      vertex 2.45 35.4625 26.5492
      vertex 4.45 35.45 26.55
      vertex 4.45 35.4625 26.5492
    endloop
  endfacet
  facet normal 0 0.0638693 0.997958
    outer loop
      vertex 4.45 35.45 26.55
      vertex 2.45 35.4625 26.5492
      vertex 2.45 35.45 26.55
    endloop
  endfacet
  facet normal -0 0.182373 0.983229
    outer loop
      vertex 2.45 35.4749 26.5469
      vertex 4.45 35.4625 26.5492
      vertex 4.45 35.4749 26.5469
    endloop
  endfacet
  facet normal 0 0.182373 0.983229
    outer loop
      vertex 4.45 35.4625 26.5492
      vertex 2.45 35.4749 26.5469
      vertex 2.45 35.4625 26.5492
    endloop
  endfacet
  facet normal 0 -0.637437 -0.770502
    outer loop
      vertex 2.45 2.48155 2.4771
      vertex 4.45 2.49122 2.4691
      vertex 4.45 2.48155 2.4771
    endloop
  endfacet
  facet normal -0 -0.637437 -0.770502
    outer loop
      vertex 4.45 2.49122 2.4691
      vertex 2.45 2.48155 2.4771
      vertex 2.45 2.49122 2.4691
    endloop
  endfacet
  facet normal 0 0.874532 0.484968
    outer loop
      vertex 4.45 35.5405 26.4926
      vertex 2.45 35.5344 26.5036
      vertex 4.45 35.5344 26.5036
    endloop
  endfacet
  facet normal 0 0.874532 0.484968
    outer loop
      vertex 2.45 35.5344 26.5036
      vertex 4.45 35.5405 26.4926
      vertex 2.45 35.5405 26.4926
    endloop
  endfacet
  facet normal 0 -0.31049 0.950577
    outer loop
      vertex 2.45 2.52513 26.5469
      vertex 4.45 2.51319 26.543
      vertex 4.45 2.52513 26.5469
    endloop
  endfacet
  facet normal 0 -0.31049 0.950577
    outer loop
      vertex 4.45 2.51319 26.543
      vertex 2.45 2.52513 26.5469
      vertex 2.45 2.51319 26.543
    endloop
  endfacet
  facet normal 0 0.424841 -0.905268
    outer loop
      vertex 2.45 35.4868 2.45702
      vertex 4.45 35.4982 2.46237
      vertex 4.45 35.4868 2.45702
    endloop
  endfacet
  facet normal 0 0.424841 -0.905268
    outer loop
      vertex 4.45 35.4982 2.46237
      vertex 2.45 35.4868 2.45702
      vertex 2.45 35.4982 2.46237
    endloop
  endfacet
  facet normal 0 -0.876216 -0.481919
    outer loop
      vertex 2.45 2.46557 2.49642
      vertex 4.45 2.45952 2.50742
      vertex 2.45 2.45952 2.50742
    endloop
  endfacet
  facet normal 0 -0.876216 -0.481919
    outer loop
      vertex 4.45 2.45952 2.50742
      vertex 2.45 2.46557 2.49642
      vertex 4.45 2.46557 2.49642
    endloop
  endfacet
  facet normal 0 -0.80908 -0.587698
    outer loop
      vertex 2.45 2.47295 2.48626
      vertex 4.45 2.46557 2.49642
      vertex 2.45 2.46557 2.49642
    endloop
  endfacet
  facet normal 0 -0.80908 -0.587698
    outer loop
      vertex 4.45 2.46557 2.49642
      vertex 2.45 2.47295 2.48626
      vertex 4.45 2.47295 2.48626
    endloop
  endfacet
  facet normal -1 0 0
    outer loop
      vertex 2.45 35.45 2.45
      vertex 2.45 35.5498 2.54372
      vertex 2.45 35.5482 2.53126
    endloop
  endfacet
  facet normal -1 0 0
    outer loop
      vertex 2.45 35.5498 2.54372
      vertex 2.45 21.7446 14.3273
      vertex 2.45 35.5498 26.4563
    endloop
  endfacet
  facet normal -1 0 0
    outer loop
      vertex 2.45 35.45 2.45
      vertex 2.45 35.5482 2.53126
      vertex 2.45 35.5451 2.5191
    endloop
  endfacet
  facet normal -1 0 0
    outer loop
      vertex 2.45 21.7446 14.6727
      vertex 2.45 35.5498 26.4563
      vertex 2.45 21.7446 14.3273
    endloop
  endfacet
  facet normal -1 0 0
    outer loop
      vertex 2.45 35.45 2.45
      vertex 2.45 35.5451 2.5191
      vertex 2.45 35.5405 2.50742
    endloop
  endfacet
  facet normal -1 0 0
    outer loop
      vertex 2.45 21.7013 15.0153
      vertex 2.45 35.5498 26.4563
      vertex 2.45 21.7446 14.6727
    endloop
  endfacet
  facet normal -1 0 0
    outer loop
      vertex 2.45 35.45 2.45
      vertex 2.45 35.5405 2.50742
      vertex 2.45 35.5344 2.49642
    endloop
  endfacet
  facet normal -1 0 0
    outer loop
      vertex 2.45 21.6154 15.3498
      vertex 2.45 35.5498 26.4563
      vertex 2.45 21.7013 15.0153
    endloop
  endfacet
  facet normal -1 0 0
    outer loop
      vertex 2.45 35.45 2.45
      vertex 2.45 35.5344 2.49642
      vertex 2.45 35.5271 2.48626
    endloop
  endfacet
  facet normal -1 0 0
    outer loop
      vertex 2.45 21.4883 15.6709
      vertex 2.45 35.5498 26.4563
      vertex 2.45 21.6154 15.3498
    endloop
  endfacet
  facet normal -1 0 0
    outer loop
      vertex 2.45 35.45 2.45
      vertex 2.45 35.5271 2.48626
      vertex 2.45 35.5185 2.4771
    endloop
  endfacet
  facet normal -1 0 -0
    outer loop
      vertex 2.45 35.45 26.55
      vertex 2.45 35.5498 26.4563
      vertex 2.45 21.4883 15.6709
    endloop
  endfacet
  facet normal -1 0 0
    outer loop
      vertex 2.45 35.45 2.45
      vertex 2.45 35.5185 2.4771
      vertex 2.45 35.5088 2.4691
    endloop
  endfacet
  facet normal -1 0 0
    outer loop
      vertex 2.45 35.5498 26.4563
      vertex 2.45 35.45 26.55
      vertex 2.45 35.5482 26.4687
    endloop
  endfacet
  facet normal -1 0 0
    outer loop
      vertex 2.45 35.45 2.45
      vertex 2.45 35.5088 2.4691
      vertex 2.45 35.4982 2.46237
    endloop
  endfacet
  facet normal -1 0 0
    outer loop
      vertex 2.45 35.5451 26.4809
      vertex 2.45 35.45 26.55
      vertex 2.45 35.5405 26.4926
    endloop
  endfacet
  facet normal -1 0 0
    outer loop
      vertex 2.45 35.45 2.45
      vertex 2.45 35.4982 2.46237
      vertex 2.45 35.4868 2.45702
    endloop
  endfacet
  facet normal -1 0 0
    outer loop
      vertex 2.45 35.5344 26.5036
      vertex 2.45 35.45 26.55
      vertex 2.45 35.5271 26.5137
    endloop
  endfacet
  facet normal -1 0 0
    outer loop
      vertex 2.45 35.45 2.45
      vertex 2.45 35.4868 2.45702
      vertex 2.45 35.4749 2.45314
    endloop
  endfacet
  facet normal -1 -0 0
    outer loop
      vertex 2.45 35.5498 2.54372
      vertex 2.45 35.45 2.45
      vertex 2.45 21.4883 13.3291
    endloop
  endfacet
  facet normal -1 0 0
    outer loop
      vertex 2.45 35.45 2.45
      vertex 2.45 35.4749 2.45314
      vertex 2.45 35.4625 2.45079
    endloop
  endfacet
  facet normal -1 0 0
    outer loop
      vertex 2.45 35.5271 26.5137
      vertex 2.45 35.45 26.55
      vertex 2.45 35.5185 26.5229
    endloop
  endfacet
  facet normal -1 0 0
    outer loop
      vertex 2.45 35.4868 26.543
      vertex 2.45 35.45 26.55
      vertex 2.45 35.4749 26.5469
    endloop
  endfacet
  facet normal -1 0 0
    outer loop
      vertex 2.45 35.4749 26.5469
      vertex 2.45 35.45 26.55
      vertex 2.45 35.4625 26.5492
    endloop
  endfacet
  facet normal -1 0 0
    outer loop
      vertex 2.45 35.5088 26.5309
      vertex 2.45 35.45 26.55
      vertex 2.45 35.4982 26.5376
    endloop
  endfacet
  facet normal -1 0 0
    outer loop
      vertex 2.45 35.5498 2.54372
      vertex 2.45 21.7013 13.9847
      vertex 2.45 21.7446 14.3273
    endloop
  endfacet
  facet normal -1 0 0
    outer loop
      vertex 2.45 35.5498 2.54372
      vertex 2.45 21.6154 13.6502
      vertex 2.45 21.7013 13.9847
    endloop
  endfacet
  facet normal -1 0 0
    outer loop
      vertex 2.45 35.5498 2.54372
      vertex 2.45 21.4883 13.3291
      vertex 2.45 21.6154 13.6502
    endloop
  endfacet
  facet normal -1 0 0
    outer loop
      vertex 2.45 35.45 2.45
      vertex 2.45 21.3219 13.0265
      vertex 2.45 21.4883 13.3291
    endloop
  endfacet
  facet normal -1 0 0
    outer loop
      vertex 2.45 35.45 2.45
      vertex 2.45 21.1189 12.7471
      vertex 2.45 21.3219 13.0265
    endloop
  endfacet
  facet normal -1 0 0
    outer loop
      vertex 2.45 35.45 2.45
      vertex 2.45 20.8825 12.4953
      vertex 2.45 21.1189 12.7471
    endloop
  endfacet
  facet normal -1 0 0
    outer loop
      vertex 2.45 35.45 2.45
      vertex 2.45 20.6164 12.2752
      vertex 2.45 20.8825 12.4953
    endloop
  endfacet
  facet normal -1 0 0
    outer loop
      vertex 2.45 35.45 2.45
      vertex 2.45 20.3248 12.0902
      vertex 2.45 20.6164 12.2752
    endloop
  endfacet
  facet normal -1 0 0
    outer loop
      vertex 2.45 35.45 2.45
      vertex 2.45 20.0123 11.9431
      vertex 2.45 20.3248 12.0902
    endloop
  endfacet
  facet normal -1 0 0
    outer loop
      vertex 2.45 35.45 2.45
      vertex 2.45 19.6839 11.8364
      vertex 2.45 20.0123 11.9431
    endloop
  endfacet
  facet normal -1 0 0
    outer loop
      vertex 2.45 35.45 2.45
      vertex 2.45 19.3447 11.7717
      vertex 2.45 19.6839 11.8364
    endloop
  endfacet
  facet normal -1 0 0
    outer loop
      vertex 2.45 35.45 2.45
      vertex 2.45 19 11.75
      vertex 2.45 19.3447 11.7717
    endloop
  endfacet
  facet normal -1 0 0
    outer loop
      vertex 2.45 2.55 2.45
      vertex 2.45 19 11.75
      vertex 2.45 35.45 2.45
    endloop
  endfacet
  facet normal -1 -0 0
    outer loop
      vertex 2.45 19 11.75
      vertex 2.45 2.55 2.45
      vertex 2.45 18.6553 11.7717
    endloop
  endfacet
  facet normal -1 -0 0
    outer loop
      vertex 2.45 18.6553 11.7717
      vertex 2.45 2.55 2.45
      vertex 2.45 18.3161 11.8364
    endloop
  endfacet
  facet normal -1 -0 0
    outer loop
      vertex 2.45 18.3161 11.8364
      vertex 2.45 2.55 2.45
      vertex 2.45 17.9877 11.9431
    endloop
  endfacet
  facet normal -1 -0 0
    outer loop
      vertex 2.45 16.2987 13.9847
      vertex 2.45 2.4502 2.54372
      vertex 2.45 16.2554 14.3273
    endloop
  endfacet
  facet normal -1 -0 0
    outer loop
      vertex 2.45 16.3846 13.6502
      vertex 2.45 2.4502 2.54372
      vertex 2.45 16.2987 13.9847
    endloop
  endfacet
  facet normal -1 -0 0
    outer loop
      vertex 2.45 16.5117 13.3291
      vertex 2.45 2.4502 2.54372
      vertex 2.45 16.3846 13.6502
    endloop
  endfacet
  facet normal -1 0 0
    outer loop
      vertex 2.45 2.4502 2.54372
      vertex 2.45 16.5117 13.3291
      vertex 2.45 2.55 2.45
    endloop
  endfacet
  facet normal -1 -0 0
    outer loop
      vertex 2.45 16.6781 13.0265
      vertex 2.45 2.55 2.45
      vertex 2.45 16.5117 13.3291
    endloop
  endfacet
  facet normal -1 -0 0
    outer loop
      vertex 2.45 16.8811 12.7471
      vertex 2.45 2.55 2.45
      vertex 2.45 16.6781 13.0265
    endloop
  endfacet
  facet normal -1 -0 0
    outer loop
      vertex 2.45 17.1175 12.4953
      vertex 2.45 2.55 2.45
      vertex 2.45 16.8811 12.7471
    endloop
  endfacet
  facet normal -1 -0 0
    outer loop
      vertex 2.45 17.3836 12.2752
      vertex 2.45 2.55 2.45
      vertex 2.45 17.1175 12.4953
    endloop
  endfacet
  facet normal -1 -0 0
    outer loop
      vertex 2.45 17.6752 12.0902
      vertex 2.45 2.55 2.45
      vertex 2.45 17.3836 12.2752
    endloop
  endfacet
  facet normal -1 -0 0
    outer loop
      vertex 2.45 17.9877 11.9431
      vertex 2.45 2.55 2.45
      vertex 2.45 17.6752 12.0902
    endloop
  endfacet
  facet normal -1 0 0
    outer loop
      vertex 2.45 35.4982 26.5376
      vertex 2.45 35.45 26.55
      vertex 2.45 35.4868 26.543
    endloop
  endfacet
  facet normal -1 0 0
    outer loop
      vertex 2.45 35.5185 26.5229
      vertex 2.45 35.45 26.55
      vertex 2.45 35.5088 26.5309
    endloop
  endfacet
  facet normal -1 0 0
    outer loop
      vertex 2.45 35.5405 26.4926
      vertex 2.45 35.45 26.55
      vertex 2.45 35.5344 26.5036
    endloop
  endfacet
  facet normal -1 0 0
    outer loop
      vertex 2.45 35.5482 26.4687
      vertex 2.45 35.45 26.55
      vertex 2.45 35.5451 26.4809
    endloop
  endfacet
  facet normal -1 0 0
    outer loop
      vertex 2.45 21.3219 15.9735
      vertex 2.45 35.45 26.55
      vertex 2.45 21.4883 15.6709
    endloop
  endfacet
  facet normal -1 0 0
    outer loop
      vertex 2.45 21.1189 16.2529
      vertex 2.45 35.45 26.55
      vertex 2.45 21.3219 15.9735
    endloop
  endfacet
  facet normal -1 0 0
    outer loop
      vertex 2.45 20.8825 16.5047
      vertex 2.45 35.45 26.55
      vertex 2.45 21.1189 16.2529
    endloop
  endfacet
  facet normal -1 0 0
    outer loop
      vertex 2.45 20.6164 16.7248
      vertex 2.45 35.45 26.55
      vertex 2.45 20.8825 16.5047
    endloop
  endfacet
  facet normal -1 0 0
    outer loop
      vertex 2.45 20.3248 16.9098
      vertex 2.45 35.45 26.55
      vertex 2.45 20.6164 16.7248
    endloop
  endfacet
  facet normal -1 0 0
    outer loop
      vertex 2.45 20.0123 17.0569
      vertex 2.45 35.45 26.55
      vertex 2.45 20.3248 16.9098
    endloop
  endfacet
  facet normal -1 0 0
    outer loop
      vertex 2.45 19.6839 17.1636
      vertex 2.45 35.45 26.55
      vertex 2.45 20.0123 17.0569
    endloop
  endfacet
  facet normal -1 0 0
    outer loop
      vertex 2.45 19.3447 17.2283
      vertex 2.45 35.45 26.55
      vertex 2.45 19.6839 17.1636
    endloop
  endfacet
  facet normal -1 0 0
    outer loop
      vertex 2.45 19 17.25
      vertex 2.45 35.45 26.55
      vertex 2.45 19.3447 17.2283
    endloop
  endfacet
  facet normal -1 0 0
    outer loop
      vertex 2.45 2.55 26.55
      vertex 2.45 19 17.25
      vertex 2.45 18.6553 17.2283
    endloop
  endfacet
  facet normal -1 0 0
    outer loop
      vertex 2.45 2.55 26.55
      vertex 2.45 18.6553 17.2283
      vertex 2.45 18.3161 17.1636
    endloop
  endfacet
  facet normal -1 0 0
    outer loop
      vertex 2.45 2.55 26.55
      vertex 2.45 18.3161 17.1636
      vertex 2.45 17.9877 17.0569
    endloop
  endfacet
  facet normal -1 0 0
    outer loop
      vertex 2.45 2.55 26.55
      vertex 2.45 17.9877 17.0569
      vertex 2.45 17.6752 16.9098
    endloop
  endfacet
  facet normal -1 -0 0
    outer loop
      vertex 2.45 16.2554 14.3273
      vertex 2.45 2.4502 2.54372
      vertex 2.45 16.2554 14.6727
    endloop
  endfacet
  facet normal -1 0 0
    outer loop
      vertex 2.45 2.4502 26.4563
      vertex 2.45 16.2554 14.6727
      vertex 2.45 2.4502 2.54372
    endloop
  endfacet
  facet normal -1 0 0
    outer loop
      vertex 2.45 16.2554 14.6727
      vertex 2.45 2.4502 26.4563
      vertex 2.45 16.2987 15.0153
    endloop
  endfacet
  facet normal -1 0 0
    outer loop
      vertex 2.45 16.2987 15.0153
      vertex 2.45 2.4502 26.4563
      vertex 2.45 16.3846 15.3498
    endloop
  endfacet
  facet normal -1 0 0
    outer loop
      vertex 2.45 16.3846 15.3498
      vertex 2.45 2.4502 26.4563
      vertex 2.45 16.5117 15.6709
    endloop
  endfacet
  facet normal -1 0 -0
    outer loop
      vertex 2.45 2.55 26.55
      vertex 2.45 16.5117 15.6709
      vertex 2.45 2.4502 26.4563
    endloop
  endfacet
  facet normal -1 0 0
    outer loop
      vertex 2.45 19 17.25
      vertex 2.45 2.55 26.55
      vertex 2.45 35.45 26.55
    endloop
  endfacet
  facet normal -1 0 0
    outer loop
      vertex 2.45 17.3836 16.7248
      vertex 2.45 2.55 26.55
      vertex 2.45 17.6752 16.9098
    endloop
  endfacet
  facet normal -1 0 0
    outer loop
      vertex 2.45 17.1175 16.5047
      vertex 2.45 2.55 26.55
      vertex 2.45 17.3836 16.7248
    endloop
  endfacet
  facet normal -1 0 0
    outer loop
      vertex 2.45 16.5117 15.6709
      vertex 2.45 2.55 26.55
      vertex 2.45 16.6781 15.9735
    endloop
  endfacet
  facet normal -1 0 0
    outer loop
      vertex 2.45 2.4502 2.54372
      vertex 2.45 2.55 2.45
      vertex 2.45 2.53747 2.45079
    endloop
  endfacet
  facet normal -1 0 0
    outer loop
      vertex 2.45 16.6781 15.9735
      vertex 2.45 2.55 26.55
      vertex 2.45 16.8811 16.2529
    endloop
  endfacet
  facet normal -1 0 0
    outer loop
      vertex 2.45 2.4502 2.54372
      vertex 2.45 2.53747 2.45079
      vertex 2.45 2.52513 2.45314
    endloop
  endfacet
  facet normal -1 0 0
    outer loop
      vertex 2.45 16.8811 16.2529
      vertex 2.45 2.55 26.55
      vertex 2.45 17.1175 16.5047
    endloop
  endfacet
  facet normal -1 0 0
    outer loop
      vertex 2.45 2.4502 2.54372
      vertex 2.45 2.52513 2.45314
      vertex 2.45 2.51319 2.45702
    endloop
  endfacet
  facet normal -1 0 0
    outer loop
      vertex 2.45 2.55 26.55
      vertex 2.45 2.4502 26.4563
      vertex 2.45 2.53747 26.5492
    endloop
  endfacet
  facet normal -1 0 0
    outer loop
      vertex 2.45 2.4502 2.54372
      vertex 2.45 2.51319 2.45702
      vertex 2.45 2.50182 2.46237
    endloop
  endfacet
  facet normal -1 0 0
    outer loop
      vertex 2.45 2.53747 26.5492
      vertex 2.45 2.4502 26.4563
      vertex 2.45 2.52513 26.5469
    endloop
  endfacet
  facet normal -1 0 0
    outer loop
      vertex 2.45 2.4502 2.54372
      vertex 2.45 2.50182 2.46237
      vertex 2.45 2.49122 2.4691
    endloop
  endfacet
  facet normal -1 0 0
    outer loop
      vertex 2.45 2.52513 26.5469
      vertex 2.45 2.4502 26.4563
      vertex 2.45 2.51319 26.543
    endloop
  endfacet
  facet normal -1 0 0
    outer loop
      vertex 2.45 2.4502 2.54372
      vertex 2.45 2.49122 2.4691
      vertex 2.45 2.48155 2.4771
    endloop
  endfacet
  facet normal -1 0 0
    outer loop
      vertex 2.45 2.51319 26.543
      vertex 2.45 2.4502 26.4563
      vertex 2.45 2.50182 26.5376
    endloop
  endfacet
  facet normal -1 0 0
    outer loop
      vertex 2.45 2.4502 2.54372
      vertex 2.45 2.48155 2.4771
      vertex 2.45 2.47295 2.48626
    endloop
  endfacet
  facet normal -1 0 0
    outer loop
      vertex 2.45 2.50182 26.5376
      vertex 2.45 2.4502 26.4563
      vertex 2.45 2.49122 26.5309
    endloop
  endfacet
  facet normal -1 0 0
    outer loop
      vertex 2.45 2.4502 2.54372
      vertex 2.45 2.47295 2.48626
      vertex 2.45 2.46557 2.49642
    endloop
  endfacet
  facet normal -1 0 0
    outer loop
      vertex 2.45 2.49122 26.5309
      vertex 2.45 2.4502 26.4563
      vertex 2.45 2.48155 26.5229
    endloop
  endfacet
  facet normal -1 0 0
    outer loop
      vertex 2.45 2.4502 2.54372
      vertex 2.45 2.46557 2.49642
      vertex 2.45 2.45952 2.50742
    endloop
  endfacet
  facet normal -1 0 0
    outer loop
      vertex 2.45 2.48155 26.5229
      vertex 2.45 2.4502 26.4563
      vertex 2.45 2.47295 26.5137
    endloop
  endfacet
  facet normal -1 0 0
    outer loop
      vertex 2.45 2.4502 2.54372
      vertex 2.45 2.45952 2.50742
      vertex 2.45 2.45489 2.5191
    endloop
  endfacet
  facet normal -1 0 0
    outer loop
      vertex 2.45 2.47295 26.5137
      vertex 2.45 2.4502 26.4563
      vertex 2.45 2.46557 26.5036
    endloop
  endfacet
  facet normal -1 0 0
    outer loop
      vertex 2.45 2.4502 2.54372
      vertex 2.45 2.45489 2.5191
      vertex 2.45 2.45177 2.53126
    endloop
  endfacet
  facet normal -1 0 0
    outer loop
      vertex 2.45 2.46557 26.5036
      vertex 2.45 2.4502 26.4563
      vertex 2.45 2.45952 26.4926
    endloop
  endfacet
  facet normal -1 0 0
    outer loop
      vertex 2.45 2.45952 26.4926
      vertex 2.45 2.4502 26.4563
      vertex 2.45 2.45489 26.4809
    endloop
  endfacet
  facet normal -1 0 0
    outer loop
      vertex 2.45 2.45489 26.4809
      vertex 2.45 2.4502 26.4563
      vertex 2.45 2.45177 26.4687
    endloop
  endfacet
  facet normal 1 0 0
    outer loop
      vertex 4.45 35.45 26.55
      vertex 4.45 35.5498 26.4563
      vertex 4.45 35.5482 26.4687
    endloop
  endfacet
  facet normal 1 0 0
    outer loop
      vertex 4.45 35.5498 26.4563
      vertex 4.45 21.7446 14.6727
      vertex 4.45 35.5498 2.54372
    endloop
  endfacet
  facet normal 1 0 0
    outer loop
      vertex 4.45 35.45 26.55
      vertex 4.45 35.5482 26.4687
      vertex 4.45 35.5451 26.4809
    endloop
  endfacet
  facet normal 1 -0 0
    outer loop
      vertex 4.45 21.7446 14.3273
      vertex 4.45 35.5498 2.54372
      vertex 4.45 21.7446 14.6727
    endloop
  endfacet
  facet normal 1 0 0
    outer loop
      vertex 4.45 35.45 26.55
      vertex 4.45 35.5451 26.4809
      vertex 4.45 35.5405 26.4926
    endloop
  endfacet
  facet normal 1 -0 0
    outer loop
      vertex 4.45 21.7013 13.9847
      vertex 4.45 35.5498 2.54372
      vertex 4.45 21.7446 14.3273
    endloop
  endfacet
  facet normal 1 0 0
    outer loop
      vertex 4.45 35.45 26.55
      vertex 4.45 35.5405 26.4926
      vertex 4.45 35.5344 26.5036
    endloop
  endfacet
  facet normal 1 -0 0
    outer loop
      vertex 4.45 21.6154 13.6502
      vertex 4.45 35.5498 2.54372
      vertex 4.45 21.7013 13.9847
    endloop
  endfacet
  facet normal 1 0 0
    outer loop
      vertex 4.45 35.45 26.55
      vertex 4.45 35.5344 26.5036
      vertex 4.45 35.5271 26.5137
    endloop
  endfacet
  facet normal 1 -0 0
    outer loop
      vertex 4.45 21.4883 13.3291
      vertex 4.45 35.5498 2.54372
      vertex 4.45 21.6154 13.6502
    endloop
  endfacet
  facet normal 1 0 0
    outer loop
      vertex 4.45 35.45 26.55
      vertex 4.45 35.5271 26.5137
      vertex 4.45 35.5185 26.5229
    endloop
  endfacet
  facet normal 1 0 -0
    outer loop
      vertex 4.45 35.45 2.45
      vertex 4.45 35.5498 2.54372
      vertex 4.45 21.4883 13.3291
    endloop
  endfacet
  facet normal 1 0 0
    outer loop
      vertex 4.45 35.45 26.55
      vertex 4.45 35.5185 26.5229
      vertex 4.45 35.5088 26.5309
    endloop
  endfacet
  facet normal 1 0 0
    outer loop
      vertex 4.45 35.5498 2.54372
      vertex 4.45 35.45 2.45
      vertex 4.45 35.5482 2.53126
    endloop
  endfacet
  facet normal 1 0 0
    outer loop
      vertex 4.45 35.45 26.55
      vertex 4.45 35.5088 26.5309
      vertex 4.45 35.4982 26.5376
    endloop
  endfacet
  facet normal 1 0 0
    outer loop
      vertex 4.45 35.5451 2.5191
      vertex 4.45 35.45 2.45
      vertex 4.45 35.5405 2.50742
    endloop
  endfacet
  facet normal 1 0 0
    outer loop
      vertex 4.45 35.45 26.55
      vertex 4.45 35.4982 26.5376
      vertex 4.45 35.4868 26.543
    endloop
  endfacet
  facet normal 1 0 0
    outer loop
      vertex 4.45 35.5344 2.49642
      vertex 4.45 35.45 2.45
      vertex 4.45 35.5271 2.48626
    endloop
  endfacet
  facet normal 1 0 0
    outer loop
      vertex 4.45 35.45 26.55
      vertex 4.45 35.4868 26.543
      vertex 4.45 35.4749 26.5469
    endloop
  endfacet
  facet normal 1 0 0
    outer loop
      vertex 4.45 35.5498 26.4563
      vertex 4.45 35.45 26.55
      vertex 4.45 21.4883 15.6709
    endloop
  endfacet
  facet normal 1 0 0
    outer loop
      vertex 4.45 35.45 26.55
      vertex 4.45 35.4749 26.5469
      vertex 4.45 35.4625 26.5492
    endloop
  endfacet
  facet normal 1 0 0
    outer loop
      vertex 4.45 35.5271 2.48626
      vertex 4.45 35.45 2.45
      vertex 4.45 35.5185 2.4771
    endloop
  endfacet
  facet normal 1 0 0
    outer loop
      vertex 4.45 35.4868 2.45702
      vertex 4.45 35.45 2.45
      vertex 4.45 35.4749 2.45314
    endloop
  endfacet
  facet normal 1 0 0
    outer loop
      vertex 4.45 35.4749 2.45314
      vertex 4.45 35.45 2.45
      vertex 4.45 35.4625 2.45079
    endloop
  endfacet
  facet normal 1 0 0
    outer loop
      vertex 4.45 35.5088 2.4691
      vertex 4.45 35.45 2.45
      vertex 4.45 35.4982 2.46237
    endloop
  endfacet
  facet normal 1 0 0
    outer loop
      vertex 4.45 35.5498 26.4563
      vertex 4.45 21.7013 15.0153
      vertex 4.45 21.7446 14.6727
    endloop
  endfacet
  facet normal 1 0 0
    outer loop
      vertex 4.45 35.5498 26.4563
      vertex 4.45 21.6154 15.3498
      vertex 4.45 21.7013 15.0153
    endloop
  endfacet
  facet normal 1 0 0
    outer loop
      vertex 4.45 35.5498 26.4563
      vertex 4.45 21.4883 15.6709
      vertex 4.45 21.6154 15.3498
    endloop
  endfacet
  facet normal 1 0 0
    outer loop
      vertex 4.45 35.45 26.55
      vertex 4.45 21.3219 15.9735
      vertex 4.45 21.4883 15.6709
    endloop
  endfacet
  facet normal 1 0 0
    outer loop
      vertex 4.45 35.45 26.55
      vertex 4.45 21.1189 16.2529
      vertex 4.45 21.3219 15.9735
    endloop
  endfacet
  facet normal 1 0 0
    outer loop
      vertex 4.45 35.45 26.55
      vertex 4.45 20.8825 16.5047
      vertex 4.45 21.1189 16.2529
    endloop
  endfacet
  facet normal 1 0 0
    outer loop
      vertex 4.45 35.45 26.55
      vertex 4.45 20.6164 16.7248
      vertex 4.45 20.8825 16.5047
    endloop
  endfacet
  facet normal 1 0 0
    outer loop
      vertex 4.45 35.45 26.55
      vertex 4.45 20.3248 16.9098
      vertex 4.45 20.6164 16.7248
    endloop
  endfacet
  facet normal 1 0 0
    outer loop
      vertex 4.45 35.45 26.55
      vertex 4.45 20.0123 17.0569
      vertex 4.45 20.3248 16.9098
    endloop
  endfacet
  facet normal 1 0 0
    outer loop
      vertex 4.45 35.45 26.55
      vertex 4.45 19.6839 17.1636
      vertex 4.45 20.0123 17.0569
    endloop
  endfacet
  facet normal 1 0 0
    outer loop
      vertex 4.45 35.45 26.55
      vertex 4.45 19.3447 17.2283
      vertex 4.45 19.6839 17.1636
    endloop
  endfacet
  facet normal 1 0 0
    outer loop
      vertex 4.45 35.45 26.55
      vertex 4.45 19 17.25
      vertex 4.45 19.3447 17.2283
    endloop
  endfacet
  facet normal 1 -0 0
    outer loop
      vertex 4.45 2.55 26.55
      vertex 4.45 19 17.25
      vertex 4.45 35.45 26.55
    endloop
  endfacet
  facet normal 1 0 0
    outer loop
      vertex 4.45 19 17.25
      vertex 4.45 2.55 26.55
      vertex 4.45 18.6553 17.2283
    endloop
  endfacet
  facet normal 1 0 0
    outer loop
      vertex 4.45 18.6553 17.2283
      vertex 4.45 2.55 26.55
      vertex 4.45 18.3161 17.1636
    endloop
  endfacet
  facet normal 1 0 0
    outer loop
      vertex 4.45 18.3161 17.1636
      vertex 4.45 2.55 26.55
      vertex 4.45 17.9877 17.0569
    endloop
  endfacet
  facet normal 1 0 0
    outer loop
      vertex 4.45 16.2987 15.0153
      vertex 4.45 2.4502 26.4563
      vertex 4.45 16.2554 14.6727
    endloop
  endfacet
  facet normal 1 0 0
    outer loop
      vertex 4.45 16.3846 15.3498
      vertex 4.45 2.4502 26.4563
      vertex 4.45 16.2987 15.0153
    endloop
  endfacet
  facet normal 1 0 0
    outer loop
      vertex 4.45 16.5117 15.6709
      vertex 4.45 2.4502 26.4563
      vertex 4.45 16.3846 15.3498
    endloop
  endfacet
  facet normal 1 -0 0
    outer loop
      vertex 4.45 2.4502 26.4563
      vertex 4.45 16.5117 15.6709
      vertex 4.45 2.55 26.55
    endloop
  endfacet
  facet normal 1 0 0
    outer loop
      vertex 4.45 16.6781 15.9735
      vertex 4.45 2.55 26.55
      vertex 4.45 16.5117 15.6709
    endloop
  endfacet
  facet normal 1 0 0
    outer loop
      vertex 4.45 16.8811 16.2529
      vertex 4.45 2.55 26.55
      vertex 4.45 16.6781 15.9735
    endloop
  endfacet
  facet normal 1 0 0
    outer loop
      vertex 4.45 17.1175 16.5047
      vertex 4.45 2.55 26.55
      vertex 4.45 16.8811 16.2529
    endloop
  endfacet
  facet normal 1 0 0
    outer loop
      vertex 4.45 17.3836 16.7248
      vertex 4.45 2.55 26.55
      vertex 4.45 17.1175 16.5047
    endloop
  endfacet
  facet normal 1 0 0
    outer loop
      vertex 4.45 17.6752 16.9098
      vertex 4.45 2.55 26.55
      vertex 4.45 17.3836 16.7248
    endloop
  endfacet
  facet normal 1 0 0
    outer loop
      vertex 4.45 17.9877 17.0569
      vertex 4.45 2.55 26.55
      vertex 4.45 17.6752 16.9098
    endloop
  endfacet
  facet normal 1 0 0
    outer loop
      vertex 4.45 35.4982 2.46237
      vertex 4.45 35.45 2.45
      vertex 4.45 35.4868 2.45702
    endloop
  endfacet
  facet normal 1 0 0
    outer loop
      vertex 4.45 35.5185 2.4771
      vertex 4.45 35.45 2.45
      vertex 4.45 35.5088 2.4691
    endloop
  endfacet
  facet normal 1 0 0
    outer loop
      vertex 4.45 35.5405 2.50742
      vertex 4.45 35.45 2.45
      vertex 4.45 35.5344 2.49642
    endloop
  endfacet
  facet normal 1 0 0
    outer loop
      vertex 4.45 35.5482 2.53126
      vertex 4.45 35.45 2.45
      vertex 4.45 35.5451 2.5191
    endloop
  endfacet
  facet normal 1 -0 0
    outer loop
      vertex 4.45 21.3219 13.0265
      vertex 4.45 35.45 2.45
      vertex 4.45 21.4883 13.3291
    endloop
  endfacet
  facet normal 1 -0 0
    outer loop
      vertex 4.45 21.1189 12.7471
      vertex 4.45 35.45 2.45
      vertex 4.45 21.3219 13.0265
    endloop
  endfacet
  facet normal 1 -0 0
    outer loop
      vertex 4.45 20.8825 12.4953
      vertex 4.45 35.45 2.45
      vertex 4.45 21.1189 12.7471
    endloop
  endfacet
  facet normal 1 -0 0
    outer loop
      vertex 4.45 20.6164 12.2752
      vertex 4.45 35.45 2.45
      vertex 4.45 20.8825 12.4953
    endloop
  endfacet
  facet normal 1 -0 0
    outer loop
      vertex 4.45 20.3248 12.0902
      vertex 4.45 35.45 2.45
      vertex 4.45 20.6164 12.2752
    endloop
  endfacet
  facet normal 1 -0 0
    outer loop
      vertex 4.45 20.0123 11.9431
      vertex 4.45 35.45 2.45
      vertex 4.45 20.3248 12.0902
    endloop
  endfacet
  facet normal 1 -0 0
    outer loop
      vertex 4.45 19.6839 11.8364
      vertex 4.45 35.45 2.45
      vertex 4.45 20.0123 11.9431
    endloop
  endfacet
  facet normal 1 -0 0
    outer loop
      vertex 4.45 19.3447 11.7717
      vertex 4.45 35.45 2.45
      vertex 4.45 19.6839 11.8364
    endloop
  endfacet
  facet normal 1 -0 0
    outer loop
      vertex 4.45 19 11.75
      vertex 4.45 35.45 2.45
      vertex 4.45 19.3447 11.7717
    endloop
  endfacet
  facet normal 1 0 0
    outer loop
      vertex 4.45 2.55 2.45
      vertex 4.45 19 11.75
      vertex 4.45 18.6553 11.7717
    endloop
  endfacet
  facet normal 1 0 0
    outer loop
      vertex 4.45 2.55 2.45
      vertex 4.45 18.6553 11.7717
      vertex 4.45 18.3161 11.8364
    endloop
  endfacet
  facet normal 1 0 0
    outer loop
      vertex 4.45 2.55 2.45
      vertex 4.45 18.3161 11.8364
      vertex 4.45 17.9877 11.9431
    endloop
  endfacet
  facet normal 1 0 0
    outer loop
      vertex 4.45 2.55 2.45
      vertex 4.45 17.9877 11.9431
      vertex 4.45 17.6752 12.0902
    endloop
  endfacet
  facet normal 1 0 0
    outer loop
      vertex 4.45 16.2554 14.6727
      vertex 4.45 2.4502 26.4563
      vertex 4.45 16.2554 14.3273
    endloop
  endfacet
  facet normal 1 0 0
    outer loop
      vertex 4.45 2.4502 2.54372
      vertex 4.45 16.2554 14.3273
      vertex 4.45 2.4502 26.4563
    endloop
  endfacet
  facet normal 1 0 0
    outer loop
      vertex 4.45 16.2554 14.3273
      vertex 4.45 2.4502 2.54372
      vertex 4.45 16.2987 13.9847
    endloop
  endfacet
  facet normal 1 0 0
    outer loop
      vertex 4.45 16.2987 13.9847
      vertex 4.45 2.4502 2.54372
      vertex 4.45 16.3846 13.6502
    endloop
  endfacet
  facet normal 1 0 0
    outer loop
      vertex 4.45 16.3846 13.6502
      vertex 4.45 2.4502 2.54372
      vertex 4.45 16.5117 13.3291
    endloop
  endfacet
  facet normal 1 0 -0
    outer loop
      vertex 4.45 2.55 2.45
      vertex 4.45 16.5117 13.3291
      vertex 4.45 2.4502 2.54372
    endloop
  endfacet
  facet normal 1 0 0
    outer loop
      vertex 4.45 19 11.75
      vertex 4.45 2.55 2.45
      vertex 4.45 35.45 2.45
    endloop
  endfacet
  facet normal 1 0 0
    outer loop
      vertex 4.45 17.3836 12.2752
      vertex 4.45 2.55 2.45
      vertex 4.45 17.6752 12.0902
    endloop
  endfacet
  facet normal 1 0 0
    outer loop
      vertex 4.45 17.1175 12.4953
      vertex 4.45 2.55 2.45
      vertex 4.45 17.3836 12.2752
    endloop
  endfacet
  facet normal 1 0 0
    outer loop
      vertex 4.45 16.5117 13.3291
      vertex 4.45 2.55 2.45
      vertex 4.45 16.6781 13.0265
    endloop
  endfacet
  facet normal 1 0 0
    outer loop
      vertex 4.45 2.4502 26.4563
      vertex 4.45 2.55 26.55
      vertex 4.45 2.53747 26.5492
    endloop
  endfacet
  facet normal 1 0 0
    outer loop
      vertex 4.45 16.6781 13.0265
      vertex 4.45 2.55 2.45
      vertex 4.45 16.8811 12.7471
    endloop
  endfacet
  facet normal 1 0 0
    outer loop
      vertex 4.45 2.4502 26.4563
      vertex 4.45 2.53747 26.5492
      vertex 4.45 2.52513 26.5469
    endloop
  endfacet
  facet normal 1 0 0
    outer loop
      vertex 4.45 16.8811 12.7471
      vertex 4.45 2.55 2.45
      vertex 4.45 17.1175 12.4953
    endloop
  endfacet
  facet normal 1 0 0
    outer loop
      vertex 4.45 2.4502 26.4563
      vertex 4.45 2.52513 26.5469
      vertex 4.45 2.51319 26.543
    endloop
  endfacet
  facet normal 1 0 0
    outer loop
      vertex 4.45 2.55 2.45
      vertex 4.45 2.4502 2.54372
      vertex 4.45 2.53747 2.45079
    endloop
  endfacet
  facet normal 1 0 0
    outer loop
      vertex 4.45 2.4502 26.4563
      vertex 4.45 2.51319 26.543
      vertex 4.45 2.50182 26.5376
    endloop
  endfacet
  facet normal 1 0 0
    outer loop
      vertex 4.45 2.53747 2.45079
      vertex 4.45 2.4502 2.54372
      vertex 4.45 2.52513 2.45314
    endloop
  endfacet
  facet normal 1 0 0
    outer loop
      vertex 4.45 2.4502 26.4563
      vertex 4.45 2.50182 26.5376
      vertex 4.45 2.49122 26.5309
    endloop
  endfacet
  facet normal 1 0 0
    outer loop
      vertex 4.45 2.52513 2.45314
      vertex 4.45 2.4502 2.54372
      vertex 4.45 2.51319 2.45702
    endloop
  endfacet
  facet normal 1 0 0
    outer loop
      vertex 4.45 2.4502 26.4563
      vertex 4.45 2.49122 26.5309
      vertex 4.45 2.48155 26.5229
    endloop
  endfacet
  facet normal 1 0 0
    outer loop
      vertex 4.45 2.51319 2.45702
      vertex 4.45 2.4502 2.54372
      vertex 4.45 2.50182 2.46237
    endloop
  endfacet
  facet normal 1 0 0
    outer loop
      vertex 4.45 2.4502 26.4563
      vertex 4.45 2.48155 26.5229
      vertex 4.45 2.47295 26.5137
    endloop
  endfacet
  facet normal 1 0 0
    outer loop
      vertex 4.45 2.50182 2.46237
      vertex 4.45 2.4502 2.54372
      vertex 4.45 2.49122 2.4691
    endloop
  endfacet
  facet normal 1 0 0
    outer loop
      vertex 4.45 2.4502 26.4563
      vertex 4.45 2.47295 26.5137
      vertex 4.45 2.46557 26.5036
    endloop
  endfacet
  facet normal 1 0 0
    outer loop
      vertex 4.45 2.49122 2.4691
      vertex 4.45 2.4502 2.54372
      vertex 4.45 2.48155 2.4771
    endloop
  endfacet
  facet normal 1 0 0
    outer loop
      vertex 4.45 2.4502 26.4563
      vertex 4.45 2.46557 26.5036
      vertex 4.45 2.45952 26.4926
    endloop
  endfacet
  facet normal 1 0 0
    outer loop
      vertex 4.45 2.48155 2.4771
      vertex 4.45 2.4502 2.54372
      vertex 4.45 2.47295 2.48626
    endloop
  endfacet
  facet normal 1 0 0
    outer loop
      vertex 4.45 2.4502 26.4563
      vertex 4.45 2.45952 26.4926
      vertex 4.45 2.45489 26.4809
    endloop
  endfacet
  facet normal 1 0 0
    outer loop
      vertex 4.45 2.47295 2.48626
      vertex 4.45 2.4502 2.54372
      vertex 4.45 2.46557 2.49642
    endloop
  endfacet
  facet normal 1 0 0
    outer loop
      vertex 4.45 2.4502 26.4563
      vertex 4.45 2.45489 26.4809
      vertex 4.45 2.45177 26.4687
    endloop
  endfacet
  facet normal 1 0 0
    outer loop
      vertex 4.45 2.46557 2.49642
      vertex 4.45 2.4502 2.54372
      vertex 4.45 2.45952 2.50742
    endloop
  endfacet
  facet normal 1 0 0
    outer loop
      vertex 4.45 2.45952 2.50742
      vertex 4.45 2.4502 2.54372
      vertex 4.45 2.45489 2.5191
    endloop
  endfacet
  facet normal 1 0 0
    outer loop
      vertex 4.45 2.45489 2.5191
      vertex 4.45 2.4502 2.54372
      vertex 4.45 2.45177 2.53126
    endloop
  endfacet
  facet normal 0 -0.309007 0.95106
    outer loop
      vertex 2.45 20.0123 11.9431
      vertex 4.45 19.6839 11.8364
      vertex 4.45 20.0123 11.9431
    endloop
  endfacet
  facet normal 0 -0.309007 0.95106
    outer loop
      vertex 4.45 19.6839 11.8364
      vertex 2.45 20.0123 11.9431
      vertex 2.45 19.6839 11.8364
    endloop
  endfacet
  facet normal 0 0.187365 -0.98229
    outer loop
      vertex 2.45 18.3161 17.1636
      vertex 4.45 18.6553 17.2283
      vertex 4.45 18.3161 17.1636
    endloop
  endfacet
  facet normal 0 0.187365 -0.98229
    outer loop
      vertex 4.45 18.6553 17.2283
      vertex 2.45 18.3161 17.1636
      vertex 2.45 18.6553 17.2283
    endloop
  endfacet
  facet normal -0 0.187365 0.98229
    outer loop
      vertex 2.45 18.6553 11.7717
      vertex 4.45 18.3161 11.8364
      vertex 4.45 18.6553 11.7717
    endloop
  endfacet
  facet normal 0 0.187365 0.98229
    outer loop
      vertex 4.45 18.3161 11.8364
      vertex 2.45 18.6553 11.7717
      vertex 2.45 18.3161 11.8364
    endloop
  endfacet
  facet normal 0 0.968573 0.248731
    outer loop
      vertex 4.45 16.3846 13.6502
      vertex 2.45 16.2987 13.9847
      vertex 4.45 16.2987 13.9847
    endloop
  endfacet
  facet normal 0 0.968573 0.248731
    outer loop
      vertex 2.45 16.2987 13.9847
      vertex 4.45 16.3846 13.6502
      vertex 2.45 16.3846 13.6502
    endloop
  endfacet
  facet normal 0 0.929809 -0.368043
    outer loop
      vertex 4.45 16.3846 15.3498
      vertex 2.45 16.5117 15.6709
      vertex 4.45 16.5117 15.6709
    endloop
  endfacet
  facet normal 0 0.929809 -0.368043
    outer loop
      vertex 2.45 16.5117 15.6709
      vertex 4.45 16.3846 15.3498
      vertex 2.45 16.3846 15.3498
    endloop
  endfacet
  facet normal 0 0.992108 -0.125389
    outer loop
      vertex 4.45 16.2554 14.6727
      vertex 2.45 16.2987 15.0153
      vertex 4.45 16.2987 15.0153
    endloop
  endfacet
  facet normal 0 0.992108 -0.125389
    outer loop
      vertex 2.45 16.2987 15.0153
      vertex 4.45 16.2554 14.6727
      vertex 2.45 16.2554 14.6727
    endloop
  endfacet
  facet normal 0 -0.425895 -0.904773
    outer loop
      vertex 2.45 20.0123 17.0569
      vertex 4.45 20.3248 16.9098
      vertex 4.45 20.0123 17.0569
    endloop
  endfacet
  facet normal -0 -0.425895 -0.904773
    outer loop
      vertex 4.45 20.3248 16.9098
      vertex 2.45 20.0123 17.0569
      vertex 2.45 20.3248 16.9098
    endloop
  endfacet
  facet normal 0 -0.0628289 -0.998024
    outer loop
      vertex 2.45 19 17.25
      vertex 4.45 19.3447 17.2283
      vertex 4.45 19 17.25
    endloop
  endfacet
  facet normal -0 -0.0628289 -0.998024
    outer loop
      vertex 4.45 19.3447 17.2283
      vertex 2.45 19 17.25
      vertex 2.45 19.3447 17.2283
    endloop
  endfacet
  facet normal 0 0.992108 0.125389
    outer loop
      vertex 4.45 16.2987 13.9847
      vertex 2.45 16.2554 14.3273
      vertex 4.45 16.2554 14.3273
    endloop
  endfacet
  facet normal 0 0.992108 0.125389
    outer loop
      vertex 2.45 16.2554 14.3273
      vertex 4.45 16.2987 13.9847
      vertex 2.45 16.2987 13.9847
    endloop
  endfacet
  facet normal 0 0.729049 0.684461
    outer loop
      vertex 4.45 17.1175 12.4953
      vertex 2.45 16.8811 12.7471
      vertex 4.45 16.8811 12.7471
    endloop
  endfacet
  facet normal 0 0.729049 0.684461
    outer loop
      vertex 2.45 16.8811 12.7471
      vertex 4.45 17.1175 12.4953
      vertex 2.45 17.1175 12.4953
    endloop
  endfacet
  facet normal 0 0.309007 -0.95106
    outer loop
      vertex 2.45 17.9877 17.0569
      vertex 4.45 18.3161 17.1636
      vertex 4.45 17.9877 17.0569
    endloop
  endfacet
  facet normal 0 0.309007 -0.95106
    outer loop
      vertex 4.45 18.3161 17.1636
      vertex 2.45 17.9877 17.0569
      vertex 2.45 18.3161 17.1636
    endloop
  endfacet
  facet normal 0 0.729049 -0.684461
    outer loop
      vertex 4.45 16.8811 16.2529
      vertex 2.45 17.1175 16.5047
      vertex 4.45 17.1175 16.5047
    endloop
  endfacet
  facet normal 0 0.729049 -0.684461
    outer loop
      vertex 2.45 17.1175 16.5047
      vertex 4.45 16.8811 16.2529
      vertex 2.45 16.8811 16.2529
    endloop
  endfacet
  facet normal 0 -0.309007 -0.95106
    outer loop
      vertex 2.45 19.6839 17.1636
      vertex 4.45 20.0123 17.0569
      vertex 4.45 19.6839 17.1636
    endloop
  endfacet
  facet normal -0 -0.309007 -0.95106
    outer loop
      vertex 4.45 20.0123 17.0569
      vertex 2.45 19.6839 17.1636
      vertex 2.45 20.0123 17.0569
    endloop
  endfacet
  facet normal 0 -0.187365 0.98229
    outer loop
      vertex 2.45 19.6839 11.8364
      vertex 4.45 19.3447 11.7717
      vertex 4.45 19.6839 11.8364
    endloop
  endfacet
  facet normal 0 -0.187365 0.98229
    outer loop
      vertex 4.45 19.3447 11.7717
      vertex 2.45 19.6839 11.8364
      vertex 2.45 19.3447 11.7717
    endloop
  endfacet
  facet normal 0 -0.968573 -0.248731
    outer loop
      vertex 2.45 21.7013 15.0153
      vertex 4.45 21.6154 15.3498
      vertex 2.45 21.6154 15.3498
    endloop
  endfacet
  facet normal 0 -0.968573 -0.248731
    outer loop
      vertex 4.45 21.6154 15.3498
      vertex 2.45 21.7013 15.0153
      vertex 4.45 21.7013 15.0153
    endloop
  endfacet
  facet normal 0 -0.63736 0.770566
    outer loop
      vertex 2.45 20.8825 12.4953
      vertex 4.45 20.6164 12.2752
      vertex 4.45 20.8825 12.4953
    endloop
  endfacet
  facet normal 0 -0.63736 0.770566
    outer loop
      vertex 4.45 20.6164 12.2752
      vertex 2.45 20.8825 12.4953
      vertex 2.45 20.6164 12.2752
    endloop
  endfacet
  facet normal 0 0.968573 -0.248731
    outer loop
      vertex 4.45 16.2987 15.0153
      vertex 2.45 16.3846 15.3498
      vertex 4.45 16.3846 15.3498
    endloop
  endfacet
  facet normal 0 0.968573 -0.248731
    outer loop
      vertex 2.45 16.3846 15.3498
      vertex 4.45 16.2987 15.0153
      vertex 2.45 16.2987 15.0153
    endloop
  endfacet
  facet normal 0 -0.876253 0.481852
    outer loop
      vertex 2.45 21.3219 13.0265
      vertex 4.45 21.4883 13.3291
      vertex 2.45 21.4883 13.3291
    endloop
  endfacet
  facet normal 0 -0.876253 0.481852
    outer loop
      vertex 4.45 21.4883 13.3291
      vertex 2.45 21.3219 13.0265
      vertex 4.45 21.3219 13.0265
    endloop
  endfacet
  facet normal 0 -0.729049 -0.684461
    outer loop
      vertex 2.45 21.1189 16.2529
      vertex 4.45 20.8825 16.5047
      vertex 2.45 20.8825 16.5047
    endloop
  endfacet
  facet normal 0 -0.729049 -0.684461
    outer loop
      vertex 4.45 20.8825 16.5047
      vertex 2.45 21.1189 16.2529
      vertex 4.45 21.1189 16.2529
    endloop
  endfacet
  facet normal 0 -0.968573 0.248731
    outer loop
      vertex 2.45 21.6154 13.6502
      vertex 4.45 21.7013 13.9847
      vertex 2.45 21.7013 13.9847
    endloop
  endfacet
  facet normal 0 -0.968573 0.248731
    outer loop
      vertex 4.45 21.7013 13.9847
      vertex 2.45 21.6154 13.6502
      vertex 4.45 21.6154 13.6502
    endloop
  endfacet
  facet normal 0 0.876253 0.481852
    outer loop
      vertex 4.45 16.6781 13.0265
      vertex 2.45 16.5117 13.3291
      vertex 4.45 16.5117 13.3291
    endloop
  endfacet
  facet normal 0 0.876253 0.481852
    outer loop
      vertex 2.45 16.5117 13.3291
      vertex 4.45 16.6781 13.0265
      vertex 2.45 16.6781 13.0265
    endloop
  endfacet
  facet normal 0 1 -0
    outer loop
      vertex 4.45 16.2554 14.3273
      vertex 2.45 16.2554 14.6727
      vertex 4.45 16.2554 14.6727
    endloop
  endfacet
  facet normal 0 1 0
    outer loop
      vertex 2.45 16.2554 14.6727
      vertex 4.45 16.2554 14.3273
      vertex 2.45 16.2554 14.3273
    endloop
  endfacet
  facet normal -0 0.425895 0.904773
    outer loop
      vertex 2.45 17.9877 11.9431
      vertex 4.45 17.6752 12.0902
      vertex 4.45 17.9877 11.9431
    endloop
  endfacet
  facet normal 0 0.425895 0.904773
    outer loop
      vertex 4.45 17.6752 12.0902
      vertex 2.45 17.9877 11.9431
      vertex 2.45 17.6752 12.0902
    endloop
  endfacet
  facet normal 0 -0.876253 -0.481852
    outer loop
      vertex 2.45 21.4883 15.6709
      vertex 4.45 21.3219 15.9735
      vertex 2.45 21.3219 15.9735
    endloop
  endfacet
  facet normal 0 -0.876253 -0.481852
    outer loop
      vertex 4.45 21.3219 15.9735
      vertex 2.45 21.4883 15.6709
      vertex 4.45 21.4883 15.6709
    endloop
  endfacet
  facet normal 0 -0.535713 -0.8444
    outer loop
      vertex 2.45 20.3248 16.9098
      vertex 4.45 20.6164 16.7248
      vertex 4.45 20.3248 16.9098
    endloop
  endfacet
  facet normal -0 -0.535713 -0.8444
    outer loop
      vertex 4.45 20.6164 16.7248
      vertex 2.45 20.3248 16.9098
      vertex 2.45 20.6164 16.7248
    endloop
  endfacet
  facet normal -0 0.535713 0.8444
    outer loop
      vertex 2.45 17.6752 12.0902
      vertex 4.45 17.3836 12.2752
      vertex 4.45 17.6752 12.0902
    endloop
  endfacet
  facet normal 0 0.535713 0.8444
    outer loop
      vertex 4.45 17.3836 12.2752
      vertex 2.45 17.6752 12.0902
      vertex 2.45 17.3836 12.2752
    endloop
  endfacet
  facet normal 0 -0.809011 0.587793
    outer loop
      vertex 2.45 21.1189 12.7471
      vertex 4.45 21.3219 13.0265
      vertex 2.45 21.3219 13.0265
    endloop
  endfacet
  facet normal 0 -0.809011 0.587793
    outer loop
      vertex 4.45 21.3219 13.0265
      vertex 2.45 21.1189 12.7471
      vertex 4.45 21.1189 12.7471
    endloop
  endfacet
  facet normal 0 -0.63736 -0.770566
    outer loop
      vertex 2.45 20.6164 16.7248
      vertex 4.45 20.8825 16.5047
      vertex 4.45 20.6164 16.7248
    endloop
  endfacet
  facet normal -0 -0.63736 -0.770566
    outer loop
      vertex 4.45 20.8825 16.5047
      vertex 2.45 20.6164 16.7248
      vertex 2.45 20.8825 16.5047
    endloop
  endfacet
  facet normal 0 -0.187365 -0.98229
    outer loop
      vertex 2.45 19.3447 17.2283
      vertex 4.45 19.6839 17.1636
      vertex 4.45 19.3447 17.2283
    endloop
  endfacet
  facet normal -0 -0.187365 -0.98229
    outer loop
      vertex 4.45 19.6839 17.1636
      vertex 2.45 19.3447 17.2283
      vertex 2.45 19.6839 17.1636
    endloop
  endfacet
  facet normal 0 -0.992108 0.125389
    outer loop
      vertex 2.45 21.7013 13.9847
      vertex 4.45 21.7446 14.3273
      vertex 2.45 21.7446 14.3273
    endloop
  endfacet
  facet normal 0 -0.992108 0.125389
    outer loop
      vertex 4.45 21.7446 14.3273
      vertex 2.45 21.7013 13.9847
      vertex 4.45 21.7013 13.9847
    endloop
  endfacet
  facet normal 0 0.425895 -0.904773
    outer loop
      vertex 2.45 17.6752 16.9098
      vertex 4.45 17.9877 17.0569
      vertex 4.45 17.6752 16.9098
    endloop
  endfacet
  facet normal 0 0.425895 -0.904773
    outer loop
      vertex 4.45 17.9877 17.0569
      vertex 2.45 17.6752 16.9098
      vertex 2.45 17.9877 17.0569
    endloop
  endfacet
  facet normal 0 0.809011 -0.587793
    outer loop
      vertex 4.45 16.6781 15.9735
      vertex 2.45 16.8811 16.2529
      vertex 4.45 16.8811 16.2529
    endloop
  endfacet
  facet normal 0 0.809011 -0.587793
    outer loop
      vertex 2.45 16.8811 16.2529
      vertex 4.45 16.6781 15.9735
      vertex 2.45 16.6781 15.9735
    endloop
  endfacet
  facet normal 0 -0.535713 0.8444
    outer loop
      vertex 2.45 20.6164 12.2752
      vertex 4.45 20.3248 12.0902
      vertex 4.45 20.6164 12.2752
    endloop
  endfacet
  facet normal 0 -0.535713 0.8444
    outer loop
      vertex 4.45 20.3248 12.0902
      vertex 2.45 20.6164 12.2752
      vertex 2.45 20.3248 12.0902
    endloop
  endfacet
  facet normal 0 0.63736 -0.770566
    outer loop
      vertex 2.45 17.1175 16.5047
      vertex 4.45 17.3836 16.7248
      vertex 4.45 17.1175 16.5047
    endloop
  endfacet
  facet normal 0 0.63736 -0.770566
    outer loop
      vertex 4.45 17.3836 16.7248
      vertex 2.45 17.1175 16.5047
      vertex 2.45 17.3836 16.7248
    endloop
  endfacet
  facet normal 0 0.809011 0.587793
    outer loop
      vertex 4.45 16.8811 12.7471
      vertex 2.45 16.6781 13.0265
      vertex 4.45 16.6781 13.0265
    endloop
  endfacet
  facet normal 0 0.809011 0.587793
    outer loop
      vertex 2.45 16.6781 13.0265
      vertex 4.45 16.8811 12.7471
      vertex 2.45 16.8811 12.7471
    endloop
  endfacet
  facet normal 0 0.876253 -0.481852
    outer loop
      vertex 4.45 16.5117 15.6709
      vertex 2.45 16.6781 15.9735
      vertex 4.45 16.6781 15.9735
    endloop
  endfacet
  facet normal 0 0.876253 -0.481852
    outer loop
      vertex 2.45 16.6781 15.9735
      vertex 4.45 16.5117 15.6709
      vertex 2.45 16.5117 15.6709
    endloop
  endfacet
  facet normal 0 0.0628289 -0.998024
    outer loop
      vertex 2.45 18.6553 17.2283
      vertex 4.45 19 17.25
      vertex 4.45 18.6553 17.2283
    endloop
  endfacet
  facet normal 0 0.0628289 -0.998024
    outer loop
      vertex 4.45 19 17.25
      vertex 2.45 18.6553 17.2283
      vertex 2.45 19 17.25
    endloop
  endfacet
  facet normal 0 -0.929809 -0.368043
    outer loop
      vertex 2.45 21.6154 15.3498
      vertex 4.45 21.4883 15.6709
      vertex 2.45 21.4883 15.6709
    endloop
  endfacet
  facet normal 0 -0.929809 -0.368043
    outer loop
      vertex 4.45 21.4883 15.6709
      vertex 2.45 21.6154 15.3498
      vertex 4.45 21.6154 15.3498
    endloop
  endfacet
  facet normal 0 -0.425895 0.904773
    outer loop
      vertex 2.45 20.3248 12.0902
      vertex 4.45 20.0123 11.9431
      vertex 4.45 20.3248 12.0902
    endloop
  endfacet
  facet normal 0 -0.425895 0.904773
    outer loop
      vertex 4.45 20.0123 11.9431
      vertex 2.45 20.3248 12.0902
      vertex 2.45 20.0123 11.9431
    endloop
  endfacet
  facet normal 0 0.929809 0.368043
    outer loop
      vertex 4.45 16.5117 13.3291
      vertex 2.45 16.3846 13.6502
      vertex 4.45 16.3846 13.6502
    endloop
  endfacet
  facet normal 0 0.929809 0.368043
    outer loop
      vertex 2.45 16.3846 13.6502
      vertex 4.45 16.5117 13.3291
      vertex 2.45 16.5117 13.3291
    endloop
  endfacet
  facet normal 0 -0.929809 0.368043
    outer loop
      vertex 2.45 21.4883 13.3291
      vertex 4.45 21.6154 13.6502
      vertex 2.45 21.6154 13.6502
    endloop
  endfacet
  facet normal 0 -0.929809 0.368043
    outer loop
      vertex 4.45 21.6154 13.6502
      vertex 2.45 21.4883 13.3291
      vertex 4.45 21.4883 13.3291
    endloop
  endfacet
  facet normal 0 -0.729049 0.684461
    outer loop
      vertex 2.45 20.8825 12.4953
      vertex 4.45 21.1189 12.7471
      vertex 2.45 21.1189 12.7471
    endloop
  endfacet
  facet normal 0 -0.729049 0.684461
    outer loop
      vertex 4.45 21.1189 12.7471
      vertex 2.45 20.8825 12.4953
      vertex 4.45 20.8825 12.4953
    endloop
  endfacet
  facet normal 0 -0.809011 -0.587793
    outer loop
      vertex 2.45 21.3219 15.9735
      vertex 4.45 21.1189 16.2529
      vertex 2.45 21.1189 16.2529
    endloop
  endfacet
  facet normal 0 -0.809011 -0.587793
    outer loop
      vertex 4.45 21.1189 16.2529
      vertex 2.45 21.3219 15.9735
      vertex 4.45 21.3219 15.9735
    endloop
  endfacet
  facet normal 0 -0.0628289 0.998024
    outer loop
      vertex 2.45 19.3447 11.7717
      vertex 4.45 19 11.75
      vertex 4.45 19.3447 11.7717
    endloop
  endfacet
  facet normal 0 -0.0628289 0.998024
    outer loop
      vertex 4.45 19 11.75
      vertex 2.45 19.3447 11.7717
      vertex 2.45 19 11.75
    endloop
  endfacet
  facet normal -0 0.63736 0.770566
    outer loop
      vertex 2.45 17.3836 12.2752
      vertex 4.45 17.1175 12.4953
      vertex 4.45 17.3836 12.2752
    endloop
  endfacet
  facet normal 0 0.63736 0.770566
    outer loop
      vertex 4.45 17.1175 12.4953
      vertex 2.45 17.3836 12.2752
      vertex 2.45 17.1175 12.4953
    endloop
  endfacet
  facet normal 0 0.535713 -0.8444
    outer loop
      vertex 2.45 17.3836 16.7248
      vertex 4.45 17.6752 16.9098
      vertex 4.45 17.3836 16.7248
    endloop
  endfacet
  facet normal 0 0.535713 -0.8444
    outer loop
      vertex 4.45 17.6752 16.9098
      vertex 2.45 17.3836 16.7248
      vertex 2.45 17.6752 16.9098
    endloop
  endfacet
  facet normal -0 0.0628289 0.998024
    outer loop
      vertex 2.45 19 11.75
      vertex 4.45 18.6553 11.7717
      vertex 4.45 19 11.75
    endloop
  endfacet
  facet normal 0 0.0628289 0.998024
    outer loop
      vertex 4.45 18.6553 11.7717
      vertex 2.45 19 11.75
      vertex 2.45 18.6553 11.7717
    endloop
  endfacet
  facet normal 0 -0.992108 -0.125389
    outer loop
      vertex 2.45 21.7446 14.6727
      vertex 4.45 21.7013 15.0153
      vertex 2.45 21.7013 15.0153
    endloop
  endfacet
  facet normal 0 -0.992108 -0.125389
    outer loop
      vertex 4.45 21.7013 15.0153
      vertex 2.45 21.7446 14.6727
      vertex 4.45 21.7446 14.6727
    endloop
  endfacet
  facet normal -0 0.309007 0.95106
    outer loop
      vertex 2.45 18.3161 11.8364
      vertex 4.45 17.9877 11.9431
      vertex 4.45 18.3161 11.8364
    endloop
  endfacet
  facet normal 0 0.309007 0.95106
    outer loop
      vertex 4.45 17.9877 11.9431
      vertex 2.45 18.3161 11.8364
      vertex 2.45 17.9877 11.9431
    endloop
  endfacet
  facet normal 0 -1 0
    outer loop
      vertex 2.45 21.7446 14.3273
      vertex 4.45 21.7446 14.6727
      vertex 2.45 21.7446 14.6727
    endloop
  endfacet
  facet normal 0 -1 -0
    outer loop
      vertex 4.45 21.7446 14.6727
      vertex 2.45 21.7446 14.3273
      vertex 4.45 21.7446 14.3273
    endloop
  endfacet
endsolid OpenSCAD_Model
