solid OpenSCAD_Model
  facet normal 0 -0.729041 -0.68447
    outer loop
      vertex 3.45 3.48155 3.4771
      vertex 6.45 3.47295 3.48626
      vertex 3.45 3.47295 3.48626
    endloop
  endfacet
  facet normal 0 -0.729041 -0.68447
    outer loop
      vertex 6.45 3.47295 3.48626
      vertex 3.45 3.48155 3.4771
      vertex 6.45 3.48155 3.4771
    endloop
  endfacet
  facet normal 0 0.186202 -0.982512
    outer loop
      vertex 3.45 43.6625 3.45079
      vertex 6.45 43.6749 3.45314
      vertex 6.45 43.6625 3.45079
    endloop
  endfacet
  facet normal 0 0.186202 -0.982512
    outer loop
      vertex 6.45 43.6749 3.45314
      vertex 3.45 43.6625 3.45079
      vertex 3.45 43.6749 3.45314
    endloop
  endfacet
  facet normal 0 -1 0
    outer loop
      vertex 3.45 3.4502 3.54372
      vertex 6.45 3.4502 27.4563
      vertex 3.45 3.4502 27.4563
    endloop
  endfacet
  facet normal 0 -1 -0
    outer loop
      vertex 6.45 3.4502 27.4563
      vertex 3.45 3.4502 3.54372
      vertex 6.45 3.4502 3.54372
    endloop
  endfacet
  facet normal 0 -0.31049 0.950577
    outer loop
      vertex 3.45 3.52513 27.5469
      vertex 6.45 3.51319 27.543
      vertex 6.45 3.52513 27.5469
    endloop
  endfacet
  facet normal 0 -0.31049 0.950577
    outer loop
      vertex 6.45 3.51319 27.543
      vertex 3.45 3.52513 27.5469
      vertex 3.45 3.51319 27.543
    endloop
  endfacet
  facet normal -0 0 1
    outer loop
      vertex 3.45 43.65 27.55
      vertex 6.45 3.55 27.55
      vertex 6.45 43.65 27.55
    endloop
  endfacet
  facet normal 0 0 1
    outer loop
      vertex 6.45 3.55 27.55
      vertex 3.45 43.65 27.55
      vertex 3.45 3.55 27.55
    endloop
  endfacet
  facet normal 0 -0.992155 -0.125015
    outer loop
      vertex 3.45 3.45177 3.53126
      vertex 6.45 3.4502 3.54372
      vertex 3.45 3.4502 3.54372
    endloop
  endfacet
  facet normal 0 -0.992155 -0.125015
    outer loop
      vertex 6.45 3.4502 3.54372
      vertex 3.45 3.45177 3.53126
      vertex 6.45 3.45177 3.53126
    endloop
  endfacet
  facet normal 0 -0.187076 -0.982346
    outer loop
      vertex 3.45 3.52513 3.45314
      vertex 6.45 3.53747 3.45079
      vertex 6.45 3.52513 3.45314
    endloop
  endfacet
  facet normal -0 -0.187076 -0.982346
    outer loop
      vertex 6.45 3.53747 3.45079
      vertex 3.45 3.52513 3.45314
      vertex 3.45 3.53747 3.45079
    endloop
  endfacet
  facet normal 0 0.969007 -0.247033
    outer loop
      vertex 6.45 43.7451 3.5191
      vertex 3.45 43.7482 3.53126
      vertex 6.45 43.7482 3.53126
    endloop
  endfacet
  facet normal 0 0.969007 -0.247033
    outer loop
      vertex 3.45 43.7482 3.53126
      vertex 6.45 43.7451 3.5191
      vertex 3.45 43.7451 3.5191
    endloop
  endfacet
  facet normal 0 -0.876216 0.481919
    outer loop
      vertex 3.45 3.45952 27.4926
      vertex 6.45 3.46557 27.5036
      vertex 3.45 3.46557 27.5036
    endloop
  endfacet
  facet normal 0 -0.876216 0.481919
    outer loop
      vertex 6.45 3.46557 27.5036
      vertex 3.45 3.45952 27.4926
      vertex 6.45 3.45952 27.4926
    endloop
  endfacet
  facet normal 0 0.969201 0.246272
    outer loop
      vertex 6.45 43.7482 27.4687
      vertex 3.45 43.7451 27.4809
      vertex 6.45 43.7451 27.4809
    endloop
  endfacet
  facet normal 0 0.969201 0.246272
    outer loop
      vertex 3.45 43.7451 27.4809
      vertex 6.45 43.7482 27.4687
      vertex 3.45 43.7482 27.4687
    endloop
  endfacet
  facet normal 0 -0.80742 0.589977
    outer loop
      vertex 3.45 3.46557 27.5036
      vertex 6.45 3.47295 27.5137
      vertex 3.45 3.47295 27.5137
    endloop
  endfacet
  facet normal 0 -0.80742 0.589977
    outer loop
      vertex 6.45 3.47295 27.5137
      vertex 3.45 3.46557 27.5036
      vertex 6.45 3.46557 27.5036
    endloop
  endfacet
  facet normal 0 -0.637437 -0.770502
    outer loop
      vertex 3.45 3.48155 3.4771
      vertex 6.45 3.49122 3.4691
      vertex 6.45 3.48155 3.4771
    endloop
  endfacet
  facet normal -0 -0.637437 -0.770502
    outer loop
      vertex 6.45 3.49122 3.4691
      vertex 3.45 3.48155 3.4771
      vertex 3.45 3.49122 3.4691
    endloop
  endfacet
  facet normal 0 0.991778 0.127971
    outer loop
      vertex 6.45 43.7498 27.4563
      vertex 3.45 43.7482 27.4687
      vertex 6.45 43.7482 27.4687
    endloop
  endfacet
  facet normal 0 0.991778 0.127971
    outer loop
      vertex 3.45 43.7482 27.4687
      vertex 6.45 43.7498 27.4563
      vertex 3.45 43.7498 27.4563
    endloop
  endfacet
  facet normal 0 0.730527 0.682884
    outer loop
      vertex 6.45 43.7271 27.5137
      vertex 3.45 43.7185 27.5229
      vertex 6.45 43.7185 27.5229
    endloop
  endfacet
  facet normal 0 0.730527 0.682884
    outer loop
      vertex 3.45 43.7185 27.5229
      vertex 6.45 43.7271 27.5137
      vertex 3.45 43.7271 27.5137
    endloop
  endfacet
  facet normal 0 0.930655 0.365898
    outer loop
      vertex 6.45 43.7451 27.4809
      vertex 3.45 43.7405 27.4926
      vertex 6.45 43.7405 27.4926
    endloop
  endfacet
  facet normal 0 0.930655 0.365898
    outer loop
      vertex 3.45 43.7405 27.4926
      vertex 6.45 43.7451 27.4809
      vertex 3.45 43.7451 27.4809
    endloop
  endfacet
  facet normal -0 0.534293 0.845299
    outer loop
      vertex 3.45 43.7088 27.5309
      vertex 6.45 43.6982 27.5376
      vertex 6.45 43.7088 27.5309
    endloop
  endfacet
  facet normal 0 0.534293 0.845299
    outer loop
      vertex 6.45 43.6982 27.5376
      vertex 3.45 43.7088 27.5309
      vertex 3.45 43.6982 27.5376
    endloop
  endfacet
  facet normal 0 -0.0629237 -0.998018
    outer loop
      vertex 3.45 3.53747 3.45079
      vertex 6.45 3.55 3.45
      vertex 6.45 3.53747 3.45079
    endloop
  endfacet
  facet normal -0 -0.0629237 -0.998018
    outer loop
      vertex 6.45 3.55 3.45
      vertex 3.45 3.53747 3.45079
      vertex 3.45 3.55 3.45
    endloop
  endfacet
  facet normal 0 0 -1
    outer loop
      vertex 3.45 3.55 3.45
      vertex 6.45 43.65 3.45
      vertex 6.45 3.55 3.45
    endloop
  endfacet
  facet normal -0 0 -1
    outer loop
      vertex 6.45 43.65 3.45
      vertex 3.45 3.55 3.45
      vertex 3.45 43.65 3.45
    endloop
  endfacet
  facet normal 0 -0.429008 0.903301
    outer loop
      vertex 3.45 3.51319 27.543
      vertex 6.45 3.50182 27.5376
      vertex 6.45 3.51319 27.543
    endloop
  endfacet
  facet normal 0 -0.429008 0.903301
    outer loop
      vertex 6.45 3.50182 27.5376
      vertex 3.45 3.51319 27.543
      vertex 3.45 3.50182 27.5376
    endloop
  endfacet
  facet normal 0 0.874532 0.484968
    outer loop
      vertex 6.45 43.7405 27.4926
      vertex 3.45 43.7344 27.5036
      vertex 6.45 43.7344 27.5036
    endloop
  endfacet
  facet normal 0 0.874532 0.484968
    outer loop
      vertex 3.45 43.7344 27.5036
      vertex 6.45 43.7405 27.4926
      vertex 3.45 43.7405 27.4926
    endloop
  endfacet
  facet normal -0 0.182373 0.983229
    outer loop
      vertex 3.45 43.6749 27.5469
      vertex 6.45 43.6625 27.5492
      vertex 6.45 43.6749 27.5469
    endloop
  endfacet
  facet normal 0 0.182373 0.983229
    outer loop
      vertex 6.45 43.6625 27.5492
      vertex 3.45 43.6749 27.5469
      vertex 3.45 43.6625 27.5492
    endloop
  endfacet
  facet normal -1 0 0
    outer loop
      vertex 3.45 43.65 3.45
      vertex 3.45 43.7498 3.54372
      vertex 3.45 43.7482 3.53126
    endloop
  endfacet
  facet normal -1 0 0
    outer loop
      vertex 3.45 43.7498 3.54372
      vertex 3.45 26.3446 15.3273
      vertex 3.45 43.7498 27.4563
    endloop
  endfacet
  facet normal -1 0 0
    outer loop
      vertex 3.45 43.65 3.45
      vertex 3.45 43.7482 3.53126
      vertex 3.45 43.7451 3.5191
    endloop
  endfacet
  facet normal -1 0 0
    outer loop
      vertex 3.45 26.3446 15.6727
      vertex 3.45 43.7498 27.4563
      vertex 3.45 26.3446 15.3273
    endloop
  endfacet
  facet normal -1 0 0
    outer loop
      vertex 3.45 43.65 3.45
      vertex 3.45 43.7451 3.5191
      vertex 3.45 43.7405 3.50742
    endloop
  endfacet
  facet normal -1 0 0
    outer loop
      vertex 3.45 26.3013 16.0153
      vertex 3.45 43.7498 27.4563
      vertex 3.45 26.3446 15.6727
    endloop
  endfacet
  facet normal -1 0 0
    outer loop
      vertex 3.45 43.65 3.45
      vertex 3.45 43.7405 3.50742
      vertex 3.45 43.7344 3.49642
    endloop
  endfacet
  facet normal -1 0 0
    outer loop
      vertex 3.45 26.2154 16.3498
      vertex 3.45 43.7498 27.4563
      vertex 3.45 26.3013 16.0153
    endloop
  endfacet
  facet normal -1 0 0
    outer loop
      vertex 3.45 43.65 3.45
      vertex 3.45 43.7344 3.49642
      vertex 3.45 43.7271 3.48626
    endloop
  endfacet
  facet normal -1 0 -0
    outer loop
      vertex 3.45 43.65 27.55
      vertex 3.45 43.7498 27.4563
      vertex 3.45 26.2154 16.3498
    endloop
  endfacet
  facet normal -1 0 0
    outer loop
      vertex 3.45 43.65 3.45
      vertex 3.45 43.7271 3.48626
      vertex 3.45 43.7185 3.4771
    endloop
  endfacet
  facet normal -1 0 0
    outer loop
      vertex 3.45 43.7482 27.4687
      vertex 3.45 43.65 27.55
      vertex 3.45 43.7451 27.4809
    endloop
  endfacet
  facet normal -1 0 0
    outer loop
      vertex 3.45 43.65 3.45
      vertex 3.45 43.7185 3.4771
      vertex 3.45 43.7088 3.4691
    endloop
  endfacet
  facet normal -1 -0 0
    outer loop
      vertex 3.45 43.7498 3.54372
      vertex 3.45 43.65 3.45
      vertex 3.45 26.2154 14.6502
    endloop
  endfacet
  facet normal -1 0 0
    outer loop
      vertex 3.45 43.65 3.45
      vertex 3.45 43.7088 3.4691
      vertex 3.45 43.6982 3.46237
    endloop
  endfacet
  facet normal -1 0 0
    outer loop
      vertex 3.45 43.7405 27.4926
      vertex 3.45 43.65 27.55
      vertex 3.45 43.7344 27.5036
    endloop
  endfacet
  facet normal -1 0 0
    outer loop
      vertex 3.45 43.65 3.45
      vertex 3.45 43.6982 3.46237
      vertex 3.45 43.6868 3.45702
    endloop
  endfacet
  facet normal -1 0 0
    outer loop
      vertex 3.45 43.7185 27.5229
      vertex 3.45 43.65 27.55
      vertex 3.45 43.7088 27.5309
    endloop
  endfacet
  facet normal -1 0 0
    outer loop
      vertex 3.45 43.65 3.45
      vertex 3.45 43.6868 3.45702
      vertex 3.45 43.6749 3.45314
    endloop
  endfacet
  facet normal -1 0 0
    outer loop
      vertex 3.45 43.7088 27.5309
      vertex 3.45 43.65 27.55
      vertex 3.45 43.6982 27.5376
    endloop
  endfacet
  facet normal -1 0 0
    outer loop
      vertex 3.45 43.65 3.45
      vertex 3.45 43.6749 3.45314
      vertex 3.45 43.6625 3.45079
    endloop
  endfacet
  facet normal -1 0 0
    outer loop
      vertex 3.45 43.6982 27.5376
      vertex 3.45 43.65 27.55
      vertex 3.45 43.6868 27.543
    endloop
  endfacet
  facet normal -1 0 0
    outer loop
      vertex 3.45 43.6868 27.543
      vertex 3.45 43.65 27.55
      vertex 3.45 43.6749 27.5469
    endloop
  endfacet
  facet normal -1 0 0
    outer loop
      vertex 3.45 43.6749 27.5469
      vertex 3.45 43.65 27.55
      vertex 3.45 43.6625 27.5492
    endloop
  endfacet
  facet normal -1 0 0
    outer loop
      vertex 3.45 43.7344 27.5036
      vertex 3.45 43.65 27.55
      vertex 3.45 43.7271 27.5137
    endloop
  endfacet
  facet normal -1 0 0
    outer loop
      vertex 3.45 43.7498 3.54372
      vertex 3.45 26.3013 14.9847
      vertex 3.45 26.3446 15.3273
    endloop
  endfacet
  facet normal -1 0 0
    outer loop
      vertex 3.45 43.7498 3.54372
      vertex 3.45 26.2154 14.6502
      vertex 3.45 26.3013 14.9847
    endloop
  endfacet
  facet normal -1 0 0
    outer loop
      vertex 3.45 43.65 3.45
      vertex 3.45 26.0883 14.3291
      vertex 3.45 26.2154 14.6502
    endloop
  endfacet
  facet normal -1 0 0
    outer loop
      vertex 3.45 43.65 3.45
      vertex 3.45 25.9219 14.0265
      vertex 3.45 26.0883 14.3291
    endloop
  endfacet
  facet normal -1 0 0
    outer loop
      vertex 3.45 43.65 3.45
      vertex 3.45 25.7189 13.7471
      vertex 3.45 25.9219 14.0265
    endloop
  endfacet
  facet normal -1 0 0
    outer loop
      vertex 3.45 43.65 3.45
      vertex 3.45 25.4825 13.4953
      vertex 3.45 25.7189 13.7471
    endloop
  endfacet
  facet normal -1 0 0
    outer loop
      vertex 3.45 43.65 3.45
      vertex 3.45 25.2164 13.2752
      vertex 3.45 25.4825 13.4953
    endloop
  endfacet
  facet normal -1 0 0
    outer loop
      vertex 3.45 43.65 3.45
      vertex 3.45 24.9248 13.0902
      vertex 3.45 25.2164 13.2752
    endloop
  endfacet
  facet normal -1 0 0
    outer loop
      vertex 3.45 43.65 3.45
      vertex 3.45 24.6123 12.9431
      vertex 3.45 24.9248 13.0902
    endloop
  endfacet
  facet normal -1 0 0
    outer loop
      vertex 3.45 43.65 3.45
      vertex 3.45 24.2839 12.8364
      vertex 3.45 24.6123 12.9431
    endloop
  endfacet
  facet normal -1 0 0
    outer loop
      vertex 3.45 43.65 3.45
      vertex 3.45 23.9447 12.7717
      vertex 3.45 24.2839 12.8364
    endloop
  endfacet
  facet normal -1 0 0
    outer loop
      vertex 3.45 43.65 3.45
      vertex 3.45 23.6 12.75
      vertex 3.45 23.9447 12.7717
    endloop
  endfacet
  facet normal -1 0 0
    outer loop
      vertex 3.45 3.55 3.45
      vertex 3.45 23.6 12.75
      vertex 3.45 43.65 3.45
    endloop
  endfacet
  facet normal -1 -0 0
    outer loop
      vertex 3.45 23.6 12.75
      vertex 3.45 3.55 3.45
      vertex 3.45 23.2553 12.7717
    endloop
  endfacet
  facet normal -1 -0 0
    outer loop
      vertex 3.45 23.2553 12.7717
      vertex 3.45 3.55 3.45
      vertex 3.45 22.9161 12.8364
    endloop
  endfacet
  facet normal -1 -0 0
    outer loop
      vertex 3.45 20.8987 14.9847
      vertex 3.45 3.4502 3.54372
      vertex 3.45 20.8554 15.3273
    endloop
  endfacet
  facet normal -1 -0 0
    outer loop
      vertex 3.45 20.9846 14.6502
      vertex 3.45 3.4502 3.54372
      vertex 3.45 20.8987 14.9847
    endloop
  endfacet
  facet normal -1 0 0
    outer loop
      vertex 3.45 3.4502 3.54372
      vertex 3.45 20.9846 14.6502
      vertex 3.45 3.55 3.45
    endloop
  endfacet
  facet normal -1 -0 0
    outer loop
      vertex 3.45 21.1117 14.3291
      vertex 3.45 3.55 3.45
      vertex 3.45 20.9846 14.6502
    endloop
  endfacet
  facet normal -1 -0 0
    outer loop
      vertex 3.45 21.2781 14.0265
      vertex 3.45 3.55 3.45
      vertex 3.45 21.1117 14.3291
    endloop
  endfacet
  facet normal -1 -0 0
    outer loop
      vertex 3.45 21.4811 13.7471
      vertex 3.45 3.55 3.45
      vertex 3.45 21.2781 14.0265
    endloop
  endfacet
  facet normal -1 -0 0
    outer loop
      vertex 3.45 21.7175 13.4953
      vertex 3.45 3.55 3.45
      vertex 3.45 21.4811 13.7471
    endloop
  endfacet
  facet normal -1 -0 0
    outer loop
      vertex 3.45 21.9836 13.2752
      vertex 3.45 3.55 3.45
      vertex 3.45 21.7175 13.4953
    endloop
  endfacet
  facet normal -1 -0 0
    outer loop
      vertex 3.45 22.2752 13.0902
      vertex 3.45 3.55 3.45
      vertex 3.45 21.9836 13.2752
    endloop
  endfacet
  facet normal -1 -0 0
    outer loop
      vertex 3.45 22.5877 12.9431
      vertex 3.45 3.55 3.45
      vertex 3.45 22.2752 13.0902
    endloop
  endfacet
  facet normal -1 -0 0
    outer loop
      vertex 3.45 22.9161 12.8364
      vertex 3.45 3.55 3.45
      vertex 3.45 22.5877 12.9431
    endloop
  endfacet
  facet normal -1 0 0
    outer loop
      vertex 3.45 43.7271 27.5137
      vertex 3.45 43.65 27.55
      vertex 3.45 43.7185 27.5229
    endloop
  endfacet
  facet normal -1 0 0
    outer loop
      vertex 3.45 43.7451 27.4809
      vertex 3.45 43.65 27.55
      vertex 3.45 43.7405 27.4926
    endloop
  endfacet
  facet normal -1 0 0
    outer loop
      vertex 3.45 43.7498 27.4563
      vertex 3.45 43.65 27.55
      vertex 3.45 43.7482 27.4687
    endloop
  endfacet
  facet normal -1 0 0
    outer loop
      vertex 3.45 26.0883 16.6709
      vertex 3.45 43.65 27.55
      vertex 3.45 26.2154 16.3498
    endloop
  endfacet
  facet normal -1 0 0
    outer loop
      vertex 3.45 25.9219 16.9735
      vertex 3.45 43.65 27.55
      vertex 3.45 26.0883 16.6709
    endloop
  endfacet
  facet normal -1 0 0
    outer loop
      vertex 3.45 25.7189 17.2529
      vertex 3.45 43.65 27.55
      vertex 3.45 25.9219 16.9735
    endloop
  endfacet
  facet normal -1 0 0
    outer loop
      vertex 3.45 25.4825 17.5047
      vertex 3.45 43.65 27.55
      vertex 3.45 25.7189 17.2529
    endloop
  endfacet
  facet normal -1 0 0
    outer loop
      vertex 3.45 25.2164 17.7248
      vertex 3.45 43.65 27.55
      vertex 3.45 25.4825 17.5047
    endloop
  endfacet
  facet normal -1 0 0
    outer loop
      vertex 3.45 24.9248 17.9098
      vertex 3.45 43.65 27.55
      vertex 3.45 25.2164 17.7248
    endloop
  endfacet
  facet normal -1 0 0
    outer loop
      vertex 3.45 24.6123 18.0569
      vertex 3.45 43.65 27.55
      vertex 3.45 24.9248 17.9098
    endloop
  endfacet
  facet normal -1 0 0
    outer loop
      vertex 3.45 24.2839 18.1636
      vertex 3.45 43.65 27.55
      vertex 3.45 24.6123 18.0569
    endloop
  endfacet
  facet normal -1 0 0
    outer loop
      vertex 3.45 23.9447 18.2283
      vertex 3.45 43.65 27.55
      vertex 3.45 24.2839 18.1636
    endloop
  endfacet
  facet normal -1 0 0
    outer loop
      vertex 3.45 23.6 18.25
      vertex 3.45 43.65 27.55
      vertex 3.45 23.9447 18.2283
    endloop
  endfacet
  facet normal -1 0 0
    outer loop
      vertex 3.45 3.55 27.55
      vertex 3.45 23.6 18.25
      vertex 3.45 23.2553 18.2283
    endloop
  endfacet
  facet normal -1 0 0
    outer loop
      vertex 3.45 3.55 27.55
      vertex 3.45 23.2553 18.2283
      vertex 3.45 22.9161 18.1636
    endloop
  endfacet
  facet normal -1 0 0
    outer loop
      vertex 3.45 3.55 27.55
      vertex 3.45 22.9161 18.1636
      vertex 3.45 22.5877 18.0569
    endloop
  endfacet
  facet normal -1 -0 0
    outer loop
      vertex 3.45 20.8554 15.3273
      vertex 3.45 3.4502 3.54372
      vertex 3.45 20.8554 15.6727
    endloop
  endfacet
  facet normal -1 0 0
    outer loop
      vertex 3.45 3.4502 27.4563
      vertex 3.45 20.8554 15.6727
      vertex 3.45 3.4502 3.54372
    endloop
  endfacet
  facet normal -1 0 0
    outer loop
      vertex 3.45 20.8554 15.6727
      vertex 3.45 3.4502 27.4563
      vertex 3.45 20.8987 16.0153
    endloop
  endfacet
  facet normal -1 0 0
    outer loop
      vertex 3.45 20.8987 16.0153
      vertex 3.45 3.4502 27.4563
      vertex 3.45 20.9846 16.3498
    endloop
  endfacet
  facet normal -1 0 -0
    outer loop
      vertex 3.45 3.55 27.55
      vertex 3.45 20.9846 16.3498
      vertex 3.45 3.4502 27.4563
    endloop
  endfacet
  facet normal -1 0 0
    outer loop
      vertex 3.45 20.9846 16.3498
      vertex 3.45 3.55 27.55
      vertex 3.45 21.1117 16.6709
    endloop
  endfacet
  facet normal -1 0 0
    outer loop
      vertex 3.45 21.1117 16.6709
      vertex 3.45 3.55 27.55
      vertex 3.45 21.2781 16.9735
    endloop
  endfacet
  facet normal -1 0 0
    outer loop
      vertex 3.45 23.6 18.25
      vertex 3.45 3.55 27.55
      vertex 3.45 43.65 27.55
    endloop
  endfacet
  facet normal -1 0 0
    outer loop
      vertex 3.45 22.2752 17.9098
      vertex 3.45 3.55 27.55
      vertex 3.45 22.5877 18.0569
    endloop
  endfacet
  facet normal -1 0 0
    outer loop
      vertex 3.45 21.9836 17.7248
      vertex 3.45 3.55 27.55
      vertex 3.45 22.2752 17.9098
    endloop
  endfacet
  facet normal -1 0 0
    outer loop
      vertex 3.45 21.2781 16.9735
      vertex 3.45 3.55 27.55
      vertex 3.45 21.4811 17.2529
    endloop
  endfacet
  facet normal -1 0 0
    outer loop
      vertex 3.45 3.4502 3.54372
      vertex 3.45 3.55 3.45
      vertex 3.45 3.53747 3.45079
    endloop
  endfacet
  facet normal -1 0 0
    outer loop
      vertex 3.45 21.4811 17.2529
      vertex 3.45 3.55 27.55
      vertex 3.45 21.7175 17.5047
    endloop
  endfacet
  facet normal -1 0 0
    outer loop
      vertex 3.45 3.4502 3.54372
      vertex 3.45 3.53747 3.45079
      vertex 3.45 3.52513 3.45314
    endloop
  endfacet
  facet normal -1 0 0
    outer loop
      vertex 3.45 21.7175 17.5047
      vertex 3.45 3.55 27.55
      vertex 3.45 21.9836 17.7248
    endloop
  endfacet
  facet normal -1 0 0
    outer loop
      vertex 3.45 3.4502 3.54372
      vertex 3.45 3.52513 3.45314
      vertex 3.45 3.51319 3.45702
    endloop
  endfacet
  facet normal -1 0 0
    outer loop
      vertex 3.45 3.55 27.55
      vertex 3.45 3.4502 27.4563
      vertex 3.45 3.53747 27.5492
    endloop
  endfacet
  facet normal -1 0 0
    outer loop
      vertex 3.45 3.4502 3.54372
      vertex 3.45 3.51319 3.45702
      vertex 3.45 3.50182 3.46237
    endloop
  endfacet
  facet normal -1 0 0
    outer loop
      vertex 3.45 3.53747 27.5492
      vertex 3.45 3.4502 27.4563
      vertex 3.45 3.52513 27.5469
    endloop
  endfacet
  facet normal -1 0 0
    outer loop
      vertex 3.45 3.4502 3.54372
      vertex 3.45 3.50182 3.46237
      vertex 3.45 3.49122 3.4691
    endloop
  endfacet
  facet normal -1 0 0
    outer loop
      vertex 3.45 3.52513 27.5469
      vertex 3.45 3.4502 27.4563
      vertex 3.45 3.51319 27.543
    endloop
  endfacet
  facet normal -1 0 0
    outer loop
      vertex 3.45 3.4502 3.54372
      vertex 3.45 3.49122 3.4691
      vertex 3.45 3.48155 3.4771
    endloop
  endfacet
  facet normal -1 0 0
    outer loop
      vertex 3.45 3.51319 27.543
      vertex 3.45 3.4502 27.4563
      vertex 3.45 3.50182 27.5376
    endloop
  endfacet
  facet normal -1 0 0
    outer loop
      vertex 3.45 3.4502 3.54372
      vertex 3.45 3.48155 3.4771
      vertex 3.45 3.47295 3.48626
    endloop
  endfacet
  facet normal -1 0 0
    outer loop
      vertex 3.45 3.50182 27.5376
      vertex 3.45 3.4502 27.4563
      vertex 3.45 3.49122 27.5309
    endloop
  endfacet
  facet normal -1 0 0
    outer loop
      vertex 3.45 3.4502 3.54372
      vertex 3.45 3.47295 3.48626
      vertex 3.45 3.46557 3.49642
    endloop
  endfacet
  facet normal -1 0 0
    outer loop
      vertex 3.45 3.49122 27.5309
      vertex 3.45 3.4502 27.4563
      vertex 3.45 3.48155 27.5229
    endloop
  endfacet
  facet normal -1 0 0
    outer loop
      vertex 3.45 3.4502 3.54372
      vertex 3.45 3.46557 3.49642
      vertex 3.45 3.45952 3.50742
    endloop
  endfacet
  facet normal -1 0 0
    outer loop
      vertex 3.45 3.48155 27.5229
      vertex 3.45 3.4502 27.4563
      vertex 3.45 3.47295 27.5137
    endloop
  endfacet
  facet normal -1 0 0
    outer loop
      vertex 3.45 3.4502 3.54372
      vertex 3.45 3.45952 3.50742
      vertex 3.45 3.45489 3.5191
    endloop
  endfacet
  facet normal -1 0 0
    outer loop
      vertex 3.45 3.47295 27.5137
      vertex 3.45 3.4502 27.4563
      vertex 3.45 3.46557 27.5036
    endloop
  endfacet
  facet normal -1 0 0
    outer loop
      vertex 3.45 3.4502 3.54372
      vertex 3.45 3.45489 3.5191
      vertex 3.45 3.45177 3.53126
    endloop
  endfacet
  facet normal -1 0 0
    outer loop
      vertex 3.45 3.46557 27.5036
      vertex 3.45 3.4502 27.4563
      vertex 3.45 3.45952 27.4926
    endloop
  endfacet
  facet normal -1 0 0
    outer loop
      vertex 3.45 3.45952 27.4926
      vertex 3.45 3.4502 27.4563
      vertex 3.45 3.45489 27.4809
    endloop
  endfacet
  facet normal -1 0 0
    outer loop
      vertex 3.45 3.45489 27.4809
      vertex 3.45 3.4502 27.4563
      vertex 3.45 3.45177 27.4687
    endloop
  endfacet
  facet normal 0 -0.535999 -0.844219
    outer loop
      vertex 3.45 3.49122 3.4691
      vertex 6.45 3.50182 3.46237
      vertex 6.45 3.49122 3.4691
    endloop
  endfacet
  facet normal -0 -0.535999 -0.844219
    outer loop
      vertex 6.45 3.50182 3.46237
      vertex 3.45 3.49122 3.4691
      vertex 3.45 3.50182 3.46237
    endloop
  endfacet
  facet normal -0 0.0638693 0.997958
    outer loop
      vertex 3.45 43.6625 27.5492
      vertex 6.45 43.65 27.55
      vertex 6.45 43.6625 27.5492
    endloop
  endfacet
  facet normal 0 0.0638693 0.997958
    outer loop
      vertex 6.45 43.65 27.55
      vertex 3.45 43.6625 27.5492
      vertex 3.45 43.65 27.55
    endloop
  endfacet
  facet normal 0 -0.18323 0.98307
    outer loop
      vertex 3.45 3.53747 27.5492
      vertex 6.45 3.52513 27.5469
      vertex 6.45 3.53747 27.5492
    endloop
  endfacet
  facet normal 0 -0.18323 0.98307
    outer loop
      vertex 6.45 3.52513 27.5469
      vertex 3.45 3.53747 27.5492
      vertex 3.45 3.52513 27.5469
    endloop
  endfacet
  facet normal 0 0.636265 -0.771471
    outer loop
      vertex 3.45 43.7088 3.4691
      vertex 6.45 43.7185 3.4771
      vertex 6.45 43.7088 3.4691
    endloop
  endfacet
  facet normal 0 0.636265 -0.771471
    outer loop
      vertex 6.45 43.7185 3.4771
      vertex 3.45 43.7088 3.4691
      vertex 3.45 43.7185 3.4771
    endloop
  endfacet
  facet normal 0 0.535999 -0.844219
    outer loop
      vertex 3.45 43.6982 3.46237
      vertex 6.45 43.7088 3.4691
      vertex 6.45 43.6982 3.46237
    endloop
  endfacet
  facet normal 0 0.535999 -0.844219
    outer loop
      vertex 6.45 43.7088 3.4691
      vertex 3.45 43.6982 3.46237
      vertex 3.45 43.7088 3.4691
    endloop
  endfacet
  facet normal -0 0.311432 0.950268
    outer loop
      vertex 3.45 43.6868 27.543
      vertex 6.45 43.6749 27.5469
      vertex 6.45 43.6868 27.543
    endloop
  endfacet
  facet normal 0 0.311432 0.950268
    outer loop
      vertex 6.45 43.6749 27.5469
      vertex 3.45 43.6868 27.543
      vertex 3.45 43.6749 27.5469
    endloop
  endfacet
  facet normal 0 -0.968625 -0.248529
    outer loop
      vertex 3.45 3.45489 3.5191
      vertex 6.45 3.45177 3.53126
      vertex 3.45 3.45177 3.53126
    endloop
  endfacet
  facet normal 0 -0.968625 -0.248529
    outer loop
      vertex 6.45 3.45177 3.53126
      vertex 3.45 3.45489 3.5191
      vertex 6.45 3.45489 3.5191
    endloop
  endfacet
  facet normal 0 0.810468 0.585783
    outer loop
      vertex 6.45 43.7344 27.5036
      vertex 3.45 43.7271 27.5137
      vertex 6.45 43.7271 27.5137
    endloop
  endfacet
  facet normal 0 0.810468 0.585783
    outer loop
      vertex 3.45 43.7271 27.5137
      vertex 6.45 43.7344 27.5036
      vertex 3.45 43.7344 27.5036
    endloop
  endfacet
  facet normal 0 -0.929625 -0.368507
    outer loop
      vertex 3.45 3.45952 3.50742
      vertex 6.45 3.45489 3.5191
      vertex 3.45 3.45489 3.5191
    endloop
  endfacet
  facet normal 0 -0.929625 -0.368507
    outer loop
      vertex 6.45 3.45489 3.5191
      vertex 3.45 3.45952 3.50742
      vertex 6.45 3.45952 3.50742
    endloop
  endfacet
  facet normal 0 -0.425759 -0.904837
    outer loop
      vertex 3.45 3.50182 3.46237
      vertex 6.45 3.51319 3.45702
      vertex 6.45 3.50182 3.46237
    endloop
  endfacet
  facet normal -0 -0.425759 -0.904837
    outer loop
      vertex 6.45 3.51319 3.45702
      vertex 3.45 3.50182 3.46237
      vertex 3.45 3.51319 3.45702
    endloop
  endfacet
  facet normal 0 -0.063717 0.997968
    outer loop
      vertex 3.45 3.55 27.55
      vertex 6.45 3.53747 27.5492
      vertex 6.45 3.55 27.55
    endloop
  endfacet
  facet normal 0 -0.063717 0.997968
    outer loop
      vertex 6.45 3.53747 27.5492
      vertex 3.45 3.55 27.55
      vertex 3.45 3.53747 27.5492
    endloop
  endfacet
  facet normal 0 -0.96882 0.247764
    outer loop
      vertex 3.45 3.45177 27.4687
      vertex 6.45 3.45489 27.4809
      vertex 3.45 3.45489 27.4809
    endloop
  endfacet
  facet normal 0 -0.96882 0.247764
    outer loop
      vertex 6.45 3.45489 27.4809
      vertex 3.45 3.45177 27.4687
      vertex 6.45 3.45177 27.4687
    endloop
  endfacet
  facet normal 0 1 -0
    outer loop
      vertex 6.45 43.7498 3.54372
      vertex 3.45 43.7498 27.4563
      vertex 6.45 43.7498 27.4563
    endloop
  endfacet
  facet normal 0 1 0
    outer loop
      vertex 3.45 43.7498 27.4563
      vertex 6.45 43.7498 3.54372
      vertex 3.45 43.7498 3.54372
    endloop
  endfacet
  facet normal 0 0.309989 -0.95074
    outer loop
      vertex 3.45 43.6749 3.45314
      vertex 6.45 43.6868 3.45702
      vertex 6.45 43.6749 3.45314
    endloop
  endfacet
  facet normal 0 0.309989 -0.95074
    outer loop
      vertex 6.45 43.6868 3.45702
      vertex 3.45 43.6749 3.45314
      vertex 3.45 43.6868 3.45702
    endloop
  endfacet
  facet normal 0 0.729041 -0.68447
    outer loop
      vertex 6.45 43.7185 3.4771
      vertex 3.45 43.7271 3.48626
      vertex 6.45 43.7271 3.48626
    endloop
  endfacet
  facet normal 0 0.729041 -0.68447
    outer loop
      vertex 3.45 43.7271 3.48626
      vertex 6.45 43.7185 3.4771
      vertex 3.45 43.7185 3.4771
    endloop
  endfacet
  facet normal 0 0.81211 -0.583504
    outer loop
      vertex 6.45 43.7271 3.48626
      vertex 3.45 43.7344 3.49642
      vertex 6.45 43.7344 3.49642
    endloop
  endfacet
  facet normal 0 0.81211 -0.583504
    outer loop
      vertex 3.45 43.7344 3.49642
      vertex 6.45 43.7271 3.48626
      vertex 3.45 43.7271 3.48626
    endloop
  endfacet
  facet normal 0 0.874532 -0.484968
    outer loop
      vertex 6.45 43.7344 3.49642
      vertex 3.45 43.7405 3.50742
      vertex 6.45 43.7405 3.50742
    endloop
  endfacet
  facet normal 0 0.874532 -0.484968
    outer loop
      vertex 3.45 43.7405 3.50742
      vertex 6.45 43.7344 3.49642
      vertex 3.45 43.7344 3.49642
    endloop
  endfacet
  facet normal 0 -0.30905 -0.951046
    outer loop
      vertex 3.45 3.51319 3.45702
      vertex 6.45 3.52513 3.45314
      vertex 6.45 3.51319 3.45702
    endloop
  endfacet
  facet normal -0 -0.30905 -0.951046
    outer loop
      vertex 6.45 3.52513 3.45314
      vertex 3.45 3.51319 3.45702
      vertex 3.45 3.52513 3.45314
    endloop
  endfacet
  facet normal 0 -0.730527 0.682884
    outer loop
      vertex 3.45 3.47295 27.5137
      vertex 6.45 3.48155 27.5229
      vertex 3.45 3.48155 27.5229
    endloop
  endfacet
  facet normal 0 -0.730527 0.682884
    outer loop
      vertex 6.45 3.48155 27.5229
      vertex 3.45 3.47295 27.5137
      vertex 6.45 3.47295 27.5137
    endloop
  endfacet
  facet normal 0 0.991856 -0.127365
    outer loop
      vertex 6.45 43.7482 3.53126
      vertex 3.45 43.7498 3.54372
      vertex 6.45 43.7498 3.54372
    endloop
  endfacet
  facet normal 0 0.991856 -0.127365
    outer loop
      vertex 3.45 43.7498 3.54372
      vertex 6.45 43.7482 3.53126
      vertex 3.45 43.7482 3.53126
    endloop
  endfacet
  facet normal -0 0.428086 0.903738
    outer loop
      vertex 3.45 43.6982 27.5376
      vertex 6.45 43.6868 27.543
      vertex 6.45 43.6982 27.5376
    endloop
  endfacet
  facet normal 0 0.428086 0.903738
    outer loop
      vertex 6.45 43.6868 27.543
      vertex 3.45 43.6982 27.5376
      vertex 3.45 43.6868 27.543
    endloop
  endfacet
  facet normal 0 -0.534293 0.845299
    outer loop
      vertex 3.45 3.50182 27.5376
      vertex 6.45 3.49122 27.5309
      vertex 6.45 3.50182 27.5376
    endloop
  endfacet
  facet normal 0 -0.534293 0.845299
    outer loop
      vertex 6.45 3.49122 27.5309
      vertex 3.45 3.50182 27.5376
      vertex 3.45 3.49122 27.5309
    endloop
  endfacet
  facet normal 0 -0.99208 0.12561
    outer loop
      vertex 3.45 3.4502 27.4563
      vertex 6.45 3.45177 27.4687
      vertex 3.45 3.45177 27.4687
    endloop
  endfacet
  facet normal 0 -0.99208 0.12561
    outer loop
      vertex 6.45 3.45177 27.4687
      vertex 3.45 3.4502 27.4563
      vertex 6.45 3.4502 27.4563
    endloop
  endfacet
  facet normal -0 0.636265 0.771471
    outer loop
      vertex 3.45 43.7185 27.5229
      vertex 6.45 43.7088 27.5309
      vertex 6.45 43.7185 27.5229
    endloop
  endfacet
  facet normal 0 0.636265 0.771471
    outer loop
      vertex 6.45 43.7088 27.5309
      vertex 3.45 43.7185 27.5229
      vertex 3.45 43.7088 27.5309
    endloop
  endfacet
  facet normal 0 -0.876216 -0.481919
    outer loop
      vertex 3.45 3.46557 3.49642
      vertex 6.45 3.45952 3.50742
      vertex 3.45 3.45952 3.50742
    endloop
  endfacet
  facet normal 0 -0.876216 -0.481919
    outer loop
      vertex 6.45 3.45952 3.50742
      vertex 3.45 3.46557 3.49642
      vertex 6.45 3.46557 3.49642
    endloop
  endfacet
  facet normal 0 -0.80908 -0.587698
    outer loop
      vertex 3.45 3.47295 3.48626
      vertex 6.45 3.46557 3.49642
      vertex 3.45 3.46557 3.49642
    endloop
  endfacet
  facet normal 0 -0.80908 -0.587698
    outer loop
      vertex 6.45 3.46557 3.49642
      vertex 3.45 3.47295 3.48626
      vertex 6.45 3.47295 3.48626
    endloop
  endfacet
  facet normal 0 -0.637437 0.770502
    outer loop
      vertex 3.45 3.49122 27.5309
      vertex 6.45 3.48155 27.5229
      vertex 6.45 3.49122 27.5309
    endloop
  endfacet
  facet normal 0 -0.637437 0.770502
    outer loop
      vertex 6.45 3.48155 27.5229
      vertex 3.45 3.49122 27.5309
      vertex 3.45 3.48155 27.5229
    endloop
  endfacet
  facet normal 0 -0.929841 0.367963
    outer loop
      vertex 3.45 3.45489 27.4809
      vertex 6.45 3.45952 27.4926
      vertex 3.45 3.45952 27.4926
    endloop
  endfacet
  facet normal 0 -0.929841 0.367963
    outer loop
      vertex 6.45 3.45952 27.4926
      vertex 3.45 3.45489 27.4809
      vertex 6.45 3.45489 27.4809
    endloop
  endfacet
  facet normal 0 0.930441 -0.366441
    outer loop
      vertex 6.45 43.7405 3.50742
      vertex 3.45 43.7451 3.5191
      vertex 6.45 43.7451 3.5191
    endloop
  endfacet
  facet normal 0 0.930441 -0.366441
    outer loop
      vertex 3.45 43.7451 3.5191
      vertex 6.45 43.7405 3.50742
      vertex 3.45 43.7405 3.50742
    endloop
  endfacet
  facet normal 0 0.424841 -0.905268
    outer loop
      vertex 3.45 43.6868 3.45702
      vertex 6.45 43.6982 3.46237
      vertex 6.45 43.6868 3.45702
    endloop
  endfacet
  facet normal 0 0.424841 -0.905268
    outer loop
      vertex 6.45 43.6982 3.46237
      vertex 3.45 43.6868 3.45702
      vertex 3.45 43.6982 3.46237
    endloop
  endfacet
  facet normal 0 0.0630742 -0.998009
    outer loop
      vertex 3.45 43.65 3.45
      vertex 6.45 43.6625 3.45079
      vertex 6.45 43.65 3.45
    endloop
  endfacet
  facet normal 0 0.0630742 -0.998009
    outer loop
      vertex 6.45 43.6625 3.45079
      vertex 3.45 43.65 3.45
      vertex 3.45 43.6625 3.45079
    endloop
  endfacet
  facet normal 1 0 0
    outer loop
      vertex 6.45 43.65 27.55
      vertex 6.45 43.7498 27.4563
      vertex 6.45 43.7482 27.4687
    endloop
  endfacet
  facet normal 1 0 0
    outer loop
      vertex 6.45 43.7498 27.4563
      vertex 6.45 26.3446 15.6727
      vertex 6.45 43.7498 3.54372
    endloop
  endfacet
  facet normal 1 0 0
    outer loop
      vertex 6.45 43.65 27.55
      vertex 6.45 43.7482 27.4687
      vertex 6.45 43.7451 27.4809
    endloop
  endfacet
  facet normal 1 -0 0
    outer loop
      vertex 6.45 26.3446 15.3273
      vertex 6.45 43.7498 3.54372
      vertex 6.45 26.3446 15.6727
    endloop
  endfacet
  facet normal 1 0 0
    outer loop
      vertex 6.45 43.65 27.55
      vertex 6.45 43.7451 27.4809
      vertex 6.45 43.7405 27.4926
    endloop
  endfacet
  facet normal 1 -0 0
    outer loop
      vertex 6.45 26.3013 14.9847
      vertex 6.45 43.7498 3.54372
      vertex 6.45 26.3446 15.3273
    endloop
  endfacet
  facet normal 1 0 0
    outer loop
      vertex 6.45 43.65 27.55
      vertex 6.45 43.7405 27.4926
      vertex 6.45 43.7344 27.5036
    endloop
  endfacet
  facet normal 1 -0 0
    outer loop
      vertex 6.45 26.2154 14.6502
      vertex 6.45 43.7498 3.54372
      vertex 6.45 26.3013 14.9847
    endloop
  endfacet
  facet normal 1 0 0
    outer loop
      vertex 6.45 43.65 27.55
      vertex 6.45 43.7344 27.5036
      vertex 6.45 43.7271 27.5137
    endloop
  endfacet
  facet normal 1 0 -0
    outer loop
      vertex 6.45 43.65 3.45
      vertex 6.45 43.7498 3.54372
      vertex 6.45 26.2154 14.6502
    endloop
  endfacet
  facet normal 1 0 0
    outer loop
      vertex 6.45 43.65 27.55
      vertex 6.45 43.7271 27.5137
      vertex 6.45 43.7185 27.5229
    endloop
  endfacet
  facet normal 1 0 0
    outer loop
      vertex 6.45 43.7482 3.53126
      vertex 6.45 43.65 3.45
      vertex 6.45 43.7451 3.5191
    endloop
  endfacet
  facet normal 1 0 0
    outer loop
      vertex 6.45 43.65 27.55
      vertex 6.45 43.7185 27.5229
      vertex 6.45 43.7088 27.5309
    endloop
  endfacet
  facet normal 1 0 0
    outer loop
      vertex 6.45 43.7498 27.4563
      vertex 6.45 43.65 27.55
      vertex 6.45 26.2154 16.3498
    endloop
  endfacet
  facet normal 1 0 0
    outer loop
      vertex 6.45 43.65 27.55
      vertex 6.45 43.7088 27.5309
      vertex 6.45 43.6982 27.5376
    endloop
  endfacet
  facet normal 1 0 0
    outer loop
      vertex 6.45 43.7405 3.50742
      vertex 6.45 43.65 3.45
      vertex 6.45 43.7344 3.49642
    endloop
  endfacet
  facet normal 1 0 0
    outer loop
      vertex 6.45 43.65 27.55
      vertex 6.45 43.6982 27.5376
      vertex 6.45 43.6868 27.543
    endloop
  endfacet
  facet normal 1 0 0
    outer loop
      vertex 6.45 43.7185 3.4771
      vertex 6.45 43.65 3.45
      vertex 6.45 43.7088 3.4691
    endloop
  endfacet
  facet normal 1 0 0
    outer loop
      vertex 6.45 43.65 27.55
      vertex 6.45 43.6868 27.543
      vertex 6.45 43.6749 27.5469
    endloop
  endfacet
  facet normal 1 0 0
    outer loop
      vertex 6.45 43.7088 3.4691
      vertex 6.45 43.65 3.45
      vertex 6.45 43.6982 3.46237
    endloop
  endfacet
  facet normal 1 0 0
    outer loop
      vertex 6.45 43.65 27.55
      vertex 6.45 43.6749 27.5469
      vertex 6.45 43.6625 27.5492
    endloop
  endfacet
  facet normal 1 0 0
    outer loop
      vertex 6.45 43.6982 3.46237
      vertex 6.45 43.65 3.45
      vertex 6.45 43.6868 3.45702
    endloop
  endfacet
  facet normal 1 0 0
    outer loop
      vertex 6.45 43.6868 3.45702
      vertex 6.45 43.65 3.45
      vertex 6.45 43.6749 3.45314
    endloop
  endfacet
  facet normal 1 0 0
    outer loop
      vertex 6.45 43.6749 3.45314
      vertex 6.45 43.65 3.45
      vertex 6.45 43.6625 3.45079
    endloop
  endfacet
  facet normal 1 0 0
    outer loop
      vertex 6.45 43.7344 3.49642
      vertex 6.45 43.65 3.45
      vertex 6.45 43.7271 3.48626
    endloop
  endfacet
  facet normal 1 0 0
    outer loop
      vertex 6.45 43.7498 27.4563
      vertex 6.45 26.3013 16.0153
      vertex 6.45 26.3446 15.6727
    endloop
  endfacet
  facet normal 1 0 0
    outer loop
      vertex 6.45 43.7498 27.4563
      vertex 6.45 26.2154 16.3498
      vertex 6.45 26.3013 16.0153
    endloop
  endfacet
  facet normal 1 0 0
    outer loop
      vertex 6.45 43.65 27.55
      vertex 6.45 26.0883 16.6709
      vertex 6.45 26.2154 16.3498
    endloop
  endfacet
  facet normal 1 0 0
    outer loop
      vertex 6.45 43.65 27.55
      vertex 6.45 25.9219 16.9735
      vertex 6.45 26.0883 16.6709
    endloop
  endfacet
  facet normal 1 0 0
    outer loop
      vertex 6.45 43.65 27.55
      vertex 6.45 25.7189 17.2529
      vertex 6.45 25.9219 16.9735
    endloop
  endfacet
  facet normal 1 0 0
    outer loop
      vertex 6.45 43.65 27.55
      vertex 6.45 25.4825 17.5047
      vertex 6.45 25.7189 17.2529
    endloop
  endfacet
  facet normal 1 0 0
    outer loop
      vertex 6.45 43.65 27.55
      vertex 6.45 25.2164 17.7248
      vertex 6.45 25.4825 17.5047
    endloop
  endfacet
  facet normal 1 0 0
    outer loop
      vertex 6.45 43.65 27.55
      vertex 6.45 24.9248 17.9098
      vertex 6.45 25.2164 17.7248
    endloop
  endfacet
  facet normal 1 0 0
    outer loop
      vertex 6.45 43.65 27.55
      vertex 6.45 24.6123 18.0569
      vertex 6.45 24.9248 17.9098
    endloop
  endfacet
  facet normal 1 0 0
    outer loop
      vertex 6.45 43.65 27.55
      vertex 6.45 24.2839 18.1636
      vertex 6.45 24.6123 18.0569
    endloop
  endfacet
  facet normal 1 0 0
    outer loop
      vertex 6.45 43.65 27.55
      vertex 6.45 23.9447 18.2283
      vertex 6.45 24.2839 18.1636
    endloop
  endfacet
  facet normal 1 0 0
    outer loop
      vertex 6.45 43.65 27.55
      vertex 6.45 23.6 18.25
      vertex 6.45 23.9447 18.2283
    endloop
  endfacet
  facet normal 1 -0 0
    outer loop
      vertex 6.45 3.55 27.55
      vertex 6.45 23.6 18.25
      vertex 6.45 43.65 27.55
    endloop
  endfacet
  facet normal 1 0 0
    outer loop
      vertex 6.45 23.6 18.25
      vertex 6.45 3.55 27.55
      vertex 6.45 23.2553 18.2283
    endloop
  endfacet
  facet normal 1 0 0
    outer loop
      vertex 6.45 23.2553 18.2283
      vertex 6.45 3.55 27.55
      vertex 6.45 22.9161 18.1636
    endloop
  endfacet
  facet normal 1 0 0
    outer loop
      vertex 6.45 20.8987 16.0153
      vertex 6.45 3.4502 27.4563
      vertex 6.45 20.8554 15.6727
    endloop
  endfacet
  facet normal 1 0 0
    outer loop
      vertex 6.45 20.9846 16.3498
      vertex 6.45 3.4502 27.4563
      vertex 6.45 20.8987 16.0153
    endloop
  endfacet
  facet normal 1 -0 0
    outer loop
      vertex 6.45 3.4502 27.4563
      vertex 6.45 20.9846 16.3498
      vertex 6.45 3.55 27.55
    endloop
  endfacet
  facet normal 1 0 0
    outer loop
      vertex 6.45 21.1117 16.6709
      vertex 6.45 3.55 27.55
      vertex 6.45 20.9846 16.3498
    endloop
  endfacet
  facet normal 1 0 0
    outer loop
      vertex 6.45 21.2781 16.9735
      vertex 6.45 3.55 27.55
      vertex 6.45 21.1117 16.6709
    endloop
  endfacet
  facet normal 1 0 0
    outer loop
      vertex 6.45 21.4811 17.2529
      vertex 6.45 3.55 27.55
      vertex 6.45 21.2781 16.9735
    endloop
  endfacet
  facet normal 1 0 0
    outer loop
      vertex 6.45 21.7175 17.5047
      vertex 6.45 3.55 27.55
      vertex 6.45 21.4811 17.2529
    endloop
  endfacet
  facet normal 1 0 0
    outer loop
      vertex 6.45 21.9836 17.7248
      vertex 6.45 3.55 27.55
      vertex 6.45 21.7175 17.5047
    endloop
  endfacet
  facet normal 1 0 0
    outer loop
      vertex 6.45 22.2752 17.9098
      vertex 6.45 3.55 27.55
      vertex 6.45 21.9836 17.7248
    endloop
  endfacet
  facet normal 1 0 0
    outer loop
      vertex 6.45 22.5877 18.0569
      vertex 6.45 3.55 27.55
      vertex 6.45 22.2752 17.9098
    endloop
  endfacet
  facet normal 1 0 0
    outer loop
      vertex 6.45 22.9161 18.1636
      vertex 6.45 3.55 27.55
      vertex 6.45 22.5877 18.0569
    endloop
  endfacet
  facet normal 1 0 0
    outer loop
      vertex 6.45 43.7271 3.48626
      vertex 6.45 43.65 3.45
      vertex 6.45 43.7185 3.4771
    endloop
  endfacet
  facet normal 1 0 0
    outer loop
      vertex 6.45 43.7451 3.5191
      vertex 6.45 43.65 3.45
      vertex 6.45 43.7405 3.50742
    endloop
  endfacet
  facet normal 1 0 0
    outer loop
      vertex 6.45 43.7498 3.54372
      vertex 6.45 43.65 3.45
      vertex 6.45 43.7482 3.53126
    endloop
  endfacet
  facet normal 1 -0 0
    outer loop
      vertex 6.45 26.0883 14.3291
      vertex 6.45 43.65 3.45
      vertex 6.45 26.2154 14.6502
    endloop
  endfacet
  facet normal 1 -0 0
    outer loop
      vertex 6.45 25.9219 14.0265
      vertex 6.45 43.65 3.45
      vertex 6.45 26.0883 14.3291
    endloop
  endfacet
  facet normal 1 -0 0
    outer loop
      vertex 6.45 25.7189 13.7471
      vertex 6.45 43.65 3.45
      vertex 6.45 25.9219 14.0265
    endloop
  endfacet
  facet normal 1 -0 0
    outer loop
      vertex 6.45 25.4825 13.4953
      vertex 6.45 43.65 3.45
      vertex 6.45 25.7189 13.7471
    endloop
  endfacet
  facet normal 1 -0 0
    outer loop
      vertex 6.45 25.2164 13.2752
      vertex 6.45 43.65 3.45
      vertex 6.45 25.4825 13.4953
    endloop
  endfacet
  facet normal 1 -0 0
    outer loop
      vertex 6.45 24.9248 13.0902
      vertex 6.45 43.65 3.45
      vertex 6.45 25.2164 13.2752
    endloop
  endfacet
  facet normal 1 -0 0
    outer loop
      vertex 6.45 24.6123 12.9431
      vertex 6.45 43.65 3.45
      vertex 6.45 24.9248 13.0902
    endloop
  endfacet
  facet normal 1 -0 0
    outer loop
      vertex 6.45 24.2839 12.8364
      vertex 6.45 43.65 3.45
      vertex 6.45 24.6123 12.9431
    endloop
  endfacet
  facet normal 1 -0 0
    outer loop
      vertex 6.45 23.9447 12.7717
      vertex 6.45 43.65 3.45
      vertex 6.45 24.2839 12.8364
    endloop
  endfacet
  facet normal 1 -0 0
    outer loop
      vertex 6.45 23.6 12.75
      vertex 6.45 43.65 3.45
      vertex 6.45 23.9447 12.7717
    endloop
  endfacet
  facet normal 1 0 0
    outer loop
      vertex 6.45 3.55 3.45
      vertex 6.45 23.6 12.75
      vertex 6.45 23.2553 12.7717
    endloop
  endfacet
  facet normal 1 0 0
    outer loop
      vertex 6.45 3.55 3.45
      vertex 6.45 23.2553 12.7717
      vertex 6.45 22.9161 12.8364
    endloop
  endfacet
  facet normal 1 0 0
    outer loop
      vertex 6.45 3.55 3.45
      vertex 6.45 22.9161 12.8364
      vertex 6.45 22.5877 12.9431
    endloop
  endfacet
  facet normal 1 0 0
    outer loop
      vertex 6.45 20.8554 15.6727
      vertex 6.45 3.4502 27.4563
      vertex 6.45 20.8554 15.3273
    endloop
  endfacet
  facet normal 1 0 0
    outer loop
      vertex 6.45 3.4502 3.54372
      vertex 6.45 20.8554 15.3273
      vertex 6.45 3.4502 27.4563
    endloop
  endfacet
  facet normal 1 0 0
    outer loop
      vertex 6.45 20.8554 15.3273
      vertex 6.45 3.4502 3.54372
      vertex 6.45 20.8987 14.9847
    endloop
  endfacet
  facet normal 1 0 0
    outer loop
      vertex 6.45 20.8987 14.9847
      vertex 6.45 3.4502 3.54372
      vertex 6.45 20.9846 14.6502
    endloop
  endfacet
  facet normal 1 0 -0
    outer loop
      vertex 6.45 3.55 3.45
      vertex 6.45 20.9846 14.6502
      vertex 6.45 3.4502 3.54372
    endloop
  endfacet
  facet normal 1 0 0
    outer loop
      vertex 6.45 20.9846 14.6502
      vertex 6.45 3.55 3.45
      vertex 6.45 21.1117 14.3291
    endloop
  endfacet
  facet normal 1 0 0
    outer loop
      vertex 6.45 21.1117 14.3291
      vertex 6.45 3.55 3.45
      vertex 6.45 21.2781 14.0265
    endloop
  endfacet
  facet normal 1 0 0
    outer loop
      vertex 6.45 23.6 12.75
      vertex 6.45 3.55 3.45
      vertex 6.45 43.65 3.45
    endloop
  endfacet
  facet normal 1 0 0
    outer loop
      vertex 6.45 22.2752 13.0902
      vertex 6.45 3.55 3.45
      vertex 6.45 22.5877 12.9431
    endloop
  endfacet
  facet normal 1 0 0
    outer loop
      vertex 6.45 21.9836 13.2752
      vertex 6.45 3.55 3.45
      vertex 6.45 22.2752 13.0902
    endloop
  endfacet
  facet normal 1 0 0
    outer loop
      vertex 6.45 21.2781 14.0265
      vertex 6.45 3.55 3.45
      vertex 6.45 21.4811 13.7471
    endloop
  endfacet
  facet normal 1 0 0
    outer loop
      vertex 6.45 3.4502 27.4563
      vertex 6.45 3.55 27.55
      vertex 6.45 3.53747 27.5492
    endloop
  endfacet
  facet normal 1 0 0
    outer loop
      vertex 6.45 21.4811 13.7471
      vertex 6.45 3.55 3.45
      vertex 6.45 21.7175 13.4953
    endloop
  endfacet
  facet normal 1 0 0
    outer loop
      vertex 6.45 3.4502 27.4563
      vertex 6.45 3.53747 27.5492
      vertex 6.45 3.52513 27.5469
    endloop
  endfacet
  facet normal 1 0 0
    outer loop
      vertex 6.45 21.7175 13.4953
      vertex 6.45 3.55 3.45
      vertex 6.45 21.9836 13.2752
    endloop
  endfacet
  facet normal 1 0 0
    outer loop
      vertex 6.45 3.4502 27.4563
      vertex 6.45 3.52513 27.5469
      vertex 6.45 3.51319 27.543
    endloop
  endfacet
  facet normal 1 0 0
    outer loop
      vertex 6.45 3.55 3.45
      vertex 6.45 3.4502 3.54372
      vertex 6.45 3.53747 3.45079
    endloop
  endfacet
  facet normal 1 0 0
    outer loop
      vertex 6.45 3.4502 27.4563
      vertex 6.45 3.51319 27.543
      vertex 6.45 3.50182 27.5376
    endloop
  endfacet
  facet normal 1 0 0
    outer loop
      vertex 6.45 3.53747 3.45079
      vertex 6.45 3.4502 3.54372
      vertex 6.45 3.52513 3.45314
    endloop
  endfacet
  facet normal 1 0 0
    outer loop
      vertex 6.45 3.4502 27.4563
      vertex 6.45 3.50182 27.5376
      vertex 6.45 3.49122 27.5309
    endloop
  endfacet
  facet normal 1 0 0
    outer loop
      vertex 6.45 3.52513 3.45314
      vertex 6.45 3.4502 3.54372
      vertex 6.45 3.51319 3.45702
    endloop
  endfacet
  facet normal 1 0 0
    outer loop
      vertex 6.45 3.4502 27.4563
      vertex 6.45 3.49122 27.5309
      vertex 6.45 3.48155 27.5229
    endloop
  endfacet
  facet normal 1 0 0
    outer loop
      vertex 6.45 3.51319 3.45702
      vertex 6.45 3.4502 3.54372
      vertex 6.45 3.50182 3.46237
    endloop
  endfacet
  facet normal 1 0 0
    outer loop
      vertex 6.45 3.4502 27.4563
      vertex 6.45 3.48155 27.5229
      vertex 6.45 3.47295 27.5137
    endloop
  endfacet
  facet normal 1 0 0
    outer loop
      vertex 6.45 3.50182 3.46237
      vertex 6.45 3.4502 3.54372
      vertex 6.45 3.49122 3.4691
    endloop
  endfacet
  facet normal 1 0 0
    outer loop
      vertex 6.45 3.4502 27.4563
      vertex 6.45 3.47295 27.5137
      vertex 6.45 3.46557 27.5036
    endloop
  endfacet
  facet normal 1 0 0
    outer loop
      vertex 6.45 3.49122 3.4691
      vertex 6.45 3.4502 3.54372
      vertex 6.45 3.48155 3.4771
    endloop
  endfacet
  facet normal 1 0 0
    outer loop
      vertex 6.45 3.4502 27.4563
      vertex 6.45 3.46557 27.5036
      vertex 6.45 3.45952 27.4926
    endloop
  endfacet
  facet normal 1 0 0
    outer loop
      vertex 6.45 3.48155 3.4771
      vertex 6.45 3.4502 3.54372
      vertex 6.45 3.47295 3.48626
    endloop
  endfacet
  facet normal 1 0 0
    outer loop
      vertex 6.45 3.4502 27.4563
      vertex 6.45 3.45952 27.4926
      vertex 6.45 3.45489 27.4809
    endloop
  endfacet
  facet normal 1 0 0
    outer loop
      vertex 6.45 3.47295 3.48626
      vertex 6.45 3.4502 3.54372
      vertex 6.45 3.46557 3.49642
    endloop
  endfacet
  facet normal 1 0 0
    outer loop
      vertex 6.45 3.4502 27.4563
      vertex 6.45 3.45489 27.4809
      vertex 6.45 3.45177 27.4687
    endloop
  endfacet
  facet normal 1 0 0
    outer loop
      vertex 6.45 3.46557 3.49642
      vertex 6.45 3.4502 3.54372
      vertex 6.45 3.45952 3.50742
    endloop
  endfacet
  facet normal 1 0 0
    outer loop
      vertex 6.45 3.45952 3.50742
      vertex 6.45 3.4502 3.54372
      vertex 6.45 3.45489 3.5191
    endloop
  endfacet
  facet normal 1 0 0
    outer loop
      vertex 6.45 3.45489 3.5191
      vertex 6.45 3.4502 3.54372
      vertex 6.45 3.45177 3.53126
    endloop
  endfacet
  facet normal -0 0.425895 0.904773
    outer loop
      vertex 3.45 22.5877 12.9431
      vertex 6.45 22.2752 13.0902
      vertex 6.45 22.5877 12.9431
    endloop
  endfacet
  facet normal 0 0.425895 0.904773
    outer loop
      vertex 6.45 22.2752 13.0902
      vertex 3.45 22.5877 12.9431
      vertex 3.45 22.2752 13.0902
    endloop
  endfacet
  facet normal 0 -0.809011 0.587793
    outer loop
      vertex 3.45 25.7189 13.7471
      vertex 6.45 25.9219 14.0265
      vertex 3.45 25.9219 14.0265
    endloop
  endfacet
  facet normal 0 -0.809011 0.587793
    outer loop
      vertex 6.45 25.9219 14.0265
      vertex 3.45 25.7189 13.7471
      vertex 6.45 25.7189 13.7471
    endloop
  endfacet
  facet normal 0 0.929809 0.368043
    outer loop
      vertex 6.45 21.1117 14.3291
      vertex 3.45 20.9846 14.6502
      vertex 6.45 20.9846 14.6502
    endloop
  endfacet
  facet normal 0 0.929809 0.368043
    outer loop
      vertex 3.45 20.9846 14.6502
      vertex 6.45 21.1117 14.3291
      vertex 3.45 21.1117 14.3291
    endloop
  endfacet
  facet normal 0 -0.729049 0.684461
    outer loop
      vertex 3.45 25.4825 13.4953
      vertex 6.45 25.7189 13.7471
      vertex 3.45 25.7189 13.7471
    endloop
  endfacet
  facet normal 0 -0.729049 0.684461
    outer loop
      vertex 6.45 25.7189 13.7471
      vertex 3.45 25.4825 13.4953
      vertex 6.45 25.4825 13.4953
    endloop
  endfacet
  facet normal 0 0.968573 0.248731
    outer loop
      vertex 6.45 20.9846 14.6502
      vertex 3.45 20.8987 14.9847
      vertex 6.45 20.8987 14.9847
    endloop
  endfacet
  facet normal 0 0.968573 0.248731
    outer loop
      vertex 3.45 20.8987 14.9847
      vertex 6.45 20.9846 14.6502
      vertex 3.45 20.9846 14.6502
    endloop
  endfacet
  facet normal 0 -0.0628289 -0.998024
    outer loop
      vertex 3.45 23.6 18.25
      vertex 6.45 23.9447 18.2283
      vertex 6.45 23.6 18.25
    endloop
  endfacet
  facet normal -0 -0.0628289 -0.998024
    outer loop
      vertex 6.45 23.9447 18.2283
      vertex 3.45 23.6 18.25
      vertex 3.45 23.9447 18.2283
    endloop
  endfacet
  facet normal 0 -0.876253 0.481852
    outer loop
      vertex 3.45 25.9219 14.0265
      vertex 6.45 26.0883 14.3291
      vertex 3.45 26.0883 14.3291
    endloop
  endfacet
  facet normal 0 -0.876253 0.481852
    outer loop
      vertex 6.45 26.0883 14.3291
      vertex 3.45 25.9219 14.0265
      vertex 6.45 25.9219 14.0265
    endloop
  endfacet
  facet normal 0 0.876253 0.481852
    outer loop
      vertex 6.45 21.2781 14.0265
      vertex 3.45 21.1117 14.3291
      vertex 6.45 21.1117 14.3291
    endloop
  endfacet
  facet normal 0 0.876253 0.481852
    outer loop
      vertex 3.45 21.1117 14.3291
      vertex 6.45 21.2781 14.0265
      vertex 3.45 21.2781 14.0265
    endloop
  endfacet
  facet normal 0 0.309007 -0.95106
    outer loop
      vertex 3.45 22.5877 18.0569
      vertex 6.45 22.9161 18.1636
      vertex 6.45 22.5877 18.0569
    endloop
  endfacet
  facet normal 0 0.309007 -0.95106
    outer loop
      vertex 6.45 22.9161 18.1636
      vertex 3.45 22.5877 18.0569
      vertex 3.45 22.9161 18.1636
    endloop
  endfacet
  facet normal 0 0.729049 0.684461
    outer loop
      vertex 6.45 21.7175 13.4953
      vertex 3.45 21.4811 13.7471
      vertex 6.45 21.4811 13.7471
    endloop
  endfacet
  facet normal 0 0.729049 0.684461
    outer loop
      vertex 3.45 21.4811 13.7471
      vertex 6.45 21.7175 13.4953
      vertex 3.45 21.7175 13.4953
    endloop
  endfacet
  facet normal 0 -0.309007 -0.95106
    outer loop
      vertex 3.45 24.2839 18.1636
      vertex 6.45 24.6123 18.0569
      vertex 6.45 24.2839 18.1636
    endloop
  endfacet
  facet normal -0 -0.309007 -0.95106
    outer loop
      vertex 6.45 24.6123 18.0569
      vertex 3.45 24.2839 18.1636
      vertex 3.45 24.6123 18.0569
    endloop
  endfacet
  facet normal 0 0.535713 -0.8444
    outer loop
      vertex 3.45 21.9836 17.7248
      vertex 6.45 22.2752 17.9098
      vertex 6.45 21.9836 17.7248
    endloop
  endfacet
  facet normal 0 0.535713 -0.8444
    outer loop
      vertex 6.45 22.2752 17.9098
      vertex 3.45 21.9836 17.7248
      vertex 3.45 22.2752 17.9098
    endloop
  endfacet
  facet normal 0 0.968573 -0.248731
    outer loop
      vertex 6.45 20.8987 16.0153
      vertex 3.45 20.9846 16.3498
      vertex 6.45 20.9846 16.3498
    endloop
  endfacet
  facet normal 0 0.968573 -0.248731
    outer loop
      vertex 3.45 20.9846 16.3498
      vertex 6.45 20.8987 16.0153
      vertex 3.45 20.8987 16.0153
    endloop
  endfacet
  facet normal 0 -0.63736 0.770566
    outer loop
      vertex 3.45 25.4825 13.4953
      vertex 6.45 25.2164 13.2752
      vertex 6.45 25.4825 13.4953
    endloop
  endfacet
  facet normal 0 -0.63736 0.770566
    outer loop
      vertex 6.45 25.2164 13.2752
      vertex 3.45 25.4825 13.4953
      vertex 3.45 25.2164 13.2752
    endloop
  endfacet
  facet normal 0 0.809011 -0.587793
    outer loop
      vertex 6.45 21.2781 16.9735
      vertex 3.45 21.4811 17.2529
      vertex 6.45 21.4811 17.2529
    endloop
  endfacet
  facet normal 0 0.809011 -0.587793
    outer loop
      vertex 3.45 21.4811 17.2529
      vertex 6.45 21.2781 16.9735
      vertex 3.45 21.2781 16.9735
    endloop
  endfacet
  facet normal 0 0.425895 -0.904773
    outer loop
      vertex 3.45 22.2752 17.9098
      vertex 6.45 22.5877 18.0569
      vertex 6.45 22.2752 17.9098
    endloop
  endfacet
  facet normal 0 0.425895 -0.904773
    outer loop
      vertex 6.45 22.5877 18.0569
      vertex 3.45 22.2752 17.9098
      vertex 3.45 22.5877 18.0569
    endloop
  endfacet
  facet normal 0 -0.729049 -0.684461
    outer loop
      vertex 3.45 25.7189 17.2529
      vertex 6.45 25.4825 17.5047
      vertex 3.45 25.4825 17.5047
    endloop
  endfacet
  facet normal 0 -0.729049 -0.684461
    outer loop
      vertex 6.45 25.4825 17.5047
      vertex 3.45 25.7189 17.2529
      vertex 6.45 25.7189 17.2529
    endloop
  endfacet
  facet normal 0 -0.425895 -0.904773
    outer loop
      vertex 3.45 24.6123 18.0569
      vertex 6.45 24.9248 17.9098
      vertex 6.45 24.6123 18.0569
    endloop
  endfacet
  facet normal -0 -0.425895 -0.904773
    outer loop
      vertex 6.45 24.9248 17.9098
      vertex 3.45 24.6123 18.0569
      vertex 3.45 24.9248 17.9098
    endloop
  endfacet
  facet normal 0 0.929809 -0.368043
    outer loop
      vertex 6.45 20.9846 16.3498
      vertex 3.45 21.1117 16.6709
      vertex 6.45 21.1117 16.6709
    endloop
  endfacet
  facet normal 0 0.929809 -0.368043
    outer loop
      vertex 3.45 21.1117 16.6709
      vertex 6.45 20.9846 16.3498
      vertex 3.45 20.9846 16.3498
    endloop
  endfacet
  facet normal 0 -1 0
    outer loop
      vertex 3.45 26.3446 15.3273
      vertex 6.45 26.3446 15.6727
      vertex 3.45 26.3446 15.6727
    endloop
  endfacet
  facet normal 0 -1 -0
    outer loop
      vertex 6.45 26.3446 15.6727
      vertex 3.45 26.3446 15.3273
      vertex 6.45 26.3446 15.3273
    endloop
  endfacet
  facet normal 0 0.992108 -0.125389
    outer loop
      vertex 6.45 20.8554 15.6727
      vertex 3.45 20.8987 16.0153
      vertex 6.45 20.8987 16.0153
    endloop
  endfacet
  facet normal 0 0.992108 -0.125389
    outer loop
      vertex 3.45 20.8987 16.0153
      vertex 6.45 20.8554 15.6727
      vertex 3.45 20.8554 15.6727
    endloop
  endfacet
  facet normal 0 -0.425895 0.904773
    outer loop
      vertex 3.45 24.9248 13.0902
      vertex 6.45 24.6123 12.9431
      vertex 6.45 24.9248 13.0902
    endloop
  endfacet
  facet normal 0 -0.425895 0.904773
    outer loop
      vertex 6.45 24.6123 12.9431
      vertex 3.45 24.9248 13.0902
      vertex 3.45 24.6123 12.9431
    endloop
  endfacet
  facet normal 0 0.63736 -0.770566
    outer loop
      vertex 3.45 21.7175 17.5047
      vertex 6.45 21.9836 17.7248
      vertex 6.45 21.7175 17.5047
    endloop
  endfacet
  facet normal 0 0.63736 -0.770566
    outer loop
      vertex 6.45 21.9836 17.7248
      vertex 3.45 21.7175 17.5047
      vertex 3.45 21.9836 17.7248
    endloop
  endfacet
  facet normal 0 -0.535713 -0.8444
    outer loop
      vertex 3.45 24.9248 17.9098
      vertex 6.45 25.2164 17.7248
      vertex 6.45 24.9248 17.9098
    endloop
  endfacet
  facet normal -0 -0.535713 -0.8444
    outer loop
      vertex 6.45 25.2164 17.7248
      vertex 3.45 24.9248 17.9098
      vertex 3.45 25.2164 17.7248
    endloop
  endfacet
  facet normal 0 -0.535713 0.8444
    outer loop
      vertex 3.45 25.2164 13.2752
      vertex 6.45 24.9248 13.0902
      vertex 6.45 25.2164 13.2752
    endloop
  endfacet
  facet normal 0 -0.535713 0.8444
    outer loop
      vertex 6.45 24.9248 13.0902
      vertex 3.45 25.2164 13.2752
      vertex 3.45 24.9248 13.0902
    endloop
  endfacet
  facet normal -0 0.309007 0.95106
    outer loop
      vertex 3.45 22.9161 12.8364
      vertex 6.45 22.5877 12.9431
      vertex 6.45 22.9161 12.8364
    endloop
  endfacet
  facet normal 0 0.309007 0.95106
    outer loop
      vertex 6.45 22.5877 12.9431
      vertex 3.45 22.9161 12.8364
      vertex 3.45 22.5877 12.9431
    endloop
  endfacet
  facet normal 0 -0.187365 0.98229
    outer loop
      vertex 3.45 24.2839 12.8364
      vertex 6.45 23.9447 12.7717
      vertex 6.45 24.2839 12.8364
    endloop
  endfacet
  facet normal 0 -0.187365 0.98229
    outer loop
      vertex 6.45 23.9447 12.7717
      vertex 3.45 24.2839 12.8364
      vertex 3.45 23.9447 12.7717
    endloop
  endfacet
  facet normal 0 0.876253 -0.481852
    outer loop
      vertex 6.45 21.1117 16.6709
      vertex 3.45 21.2781 16.9735
      vertex 6.45 21.2781 16.9735
    endloop
  endfacet
  facet normal 0 0.876253 -0.481852
    outer loop
      vertex 3.45 21.2781 16.9735
      vertex 6.45 21.1117 16.6709
      vertex 3.45 21.1117 16.6709
    endloop
  endfacet
  facet normal 0 -0.63736 -0.770566
    outer loop
      vertex 3.45 25.2164 17.7248
      vertex 6.45 25.4825 17.5047
      vertex 6.45 25.2164 17.7248
    endloop
  endfacet
  facet normal -0 -0.63736 -0.770566
    outer loop
      vertex 6.45 25.4825 17.5047
      vertex 3.45 25.2164 17.7248
      vertex 3.45 25.4825 17.5047
    endloop
  endfacet
  facet normal 0 0.992108 0.125389
    outer loop
      vertex 6.45 20.8987 14.9847
      vertex 3.45 20.8554 15.3273
      vertex 6.45 20.8554 15.3273
    endloop
  endfacet
  facet normal 0 0.992108 0.125389
    outer loop
      vertex 3.45 20.8554 15.3273
      vertex 6.45 20.8987 14.9847
      vertex 3.45 20.8987 14.9847
    endloop
  endfacet
  facet normal 0 -0.968573 0.248731
    outer loop
      vertex 3.45 26.2154 14.6502
      vertex 6.45 26.3013 14.9847
      vertex 3.45 26.3013 14.9847
    endloop
  endfacet
  facet normal 0 -0.968573 0.248731
    outer loop
      vertex 6.45 26.3013 14.9847
      vertex 3.45 26.2154 14.6502
      vertex 6.45 26.2154 14.6502
    endloop
  endfacet
  facet normal 0 -0.992108 -0.125389
    outer loop
      vertex 3.45 26.3446 15.6727
      vertex 6.45 26.3013 16.0153
      vertex 3.45 26.3013 16.0153
    endloop
  endfacet
  facet normal 0 -0.992108 -0.125389
    outer loop
      vertex 6.45 26.3013 16.0153
      vertex 3.45 26.3446 15.6727
      vertex 6.45 26.3446 15.6727
    endloop
  endfacet
  facet normal 0 -0.876253 -0.481852
    outer loop
      vertex 3.45 26.0883 16.6709
      vertex 6.45 25.9219 16.9735
      vertex 3.45 25.9219 16.9735
    endloop
  endfacet
  facet normal 0 -0.876253 -0.481852
    outer loop
      vertex 6.45 25.9219 16.9735
      vertex 3.45 26.0883 16.6709
      vertex 6.45 26.0883 16.6709
    endloop
  endfacet
  facet normal 0 -0.187365 -0.98229
    outer loop
      vertex 3.45 23.9447 18.2283
      vertex 6.45 24.2839 18.1636
      vertex 6.45 23.9447 18.2283
    endloop
  endfacet
  facet normal -0 -0.187365 -0.98229
    outer loop
      vertex 6.45 24.2839 18.1636
      vertex 3.45 23.9447 18.2283
      vertex 3.45 24.2839 18.1636
    endloop
  endfacet
  facet normal 0 -0.929809 -0.368043
    outer loop
      vertex 3.45 26.2154 16.3498
      vertex 6.45 26.0883 16.6709
      vertex 3.45 26.0883 16.6709
    endloop
  endfacet
  facet normal 0 -0.929809 -0.368043
    outer loop
      vertex 6.45 26.0883 16.6709
      vertex 3.45 26.2154 16.3498
      vertex 6.45 26.2154 16.3498
    endloop
  endfacet
  facet normal 0 0.187365 -0.98229
    outer loop
      vertex 3.45 22.9161 18.1636
      vertex 6.45 23.2553 18.2283
      vertex 6.45 22.9161 18.1636
    endloop
  endfacet
  facet normal 0 0.187365 -0.98229
    outer loop
      vertex 6.45 23.2553 18.2283
      vertex 3.45 22.9161 18.1636
      vertex 3.45 23.2553 18.2283
    endloop
  endfacet
  facet normal -0 0.535713 0.8444
    outer loop
      vertex 3.45 22.2752 13.0902
      vertex 6.45 21.9836 13.2752
      vertex 6.45 22.2752 13.0902
    endloop
  endfacet
  facet normal 0 0.535713 0.8444
    outer loop
      vertex 6.45 21.9836 13.2752
      vertex 3.45 22.2752 13.0902
      vertex 3.45 21.9836 13.2752
    endloop
  endfacet
  facet normal 0 0.729049 -0.684461
    outer loop
      vertex 6.45 21.4811 17.2529
      vertex 3.45 21.7175 17.5047
      vertex 6.45 21.7175 17.5047
    endloop
  endfacet
  facet normal 0 0.729049 -0.684461
    outer loop
      vertex 3.45 21.7175 17.5047
      vertex 6.45 21.4811 17.2529
      vertex 3.45 21.4811 17.2529
    endloop
  endfacet
  facet normal 0 -0.0628289 0.998024
    outer loop
      vertex 3.45 23.9447 12.7717
      vertex 6.45 23.6 12.75
      vertex 6.45 23.9447 12.7717
    endloop
  endfacet
  facet normal 0 -0.0628289 0.998024
    outer loop
      vertex 6.45 23.6 12.75
      vertex 3.45 23.9447 12.7717
      vertex 3.45 23.6 12.75
    endloop
  endfacet
  facet normal 0 -0.809011 -0.587793
    outer loop
      vertex 3.45 25.9219 16.9735
      vertex 6.45 25.7189 17.2529
      vertex 3.45 25.7189 17.2529
    endloop
  endfacet
  facet normal 0 -0.809011 -0.587793
    outer loop
      vertex 6.45 25.7189 17.2529
      vertex 3.45 25.9219 16.9735
      vertex 6.45 25.9219 16.9735
    endloop
  endfacet
  facet normal 0 0.0628289 -0.998024
    outer loop
      vertex 3.45 23.2553 18.2283
      vertex 6.45 23.6 18.25
      vertex 6.45 23.2553 18.2283
    endloop
  endfacet
  facet normal 0 0.0628289 -0.998024
    outer loop
      vertex 6.45 23.6 18.25
      vertex 3.45 23.2553 18.2283
      vertex 3.45 23.6 18.25
    endloop
  endfacet
  facet normal 0 -0.968573 -0.248731
    outer loop
      vertex 3.45 26.3013 16.0153
      vertex 6.45 26.2154 16.3498
      vertex 3.45 26.2154 16.3498
    endloop
  endfacet
  facet normal 0 -0.968573 -0.248731
    outer loop
      vertex 6.45 26.2154 16.3498
      vertex 3.45 26.3013 16.0153
      vertex 6.45 26.3013 16.0153
    endloop
  endfacet
  facet normal -0 0.187365 0.98229
    outer loop
      vertex 3.45 23.2553 12.7717
      vertex 6.45 22.9161 12.8364
      vertex 6.45 23.2553 12.7717
    endloop
  endfacet
  facet normal 0 0.187365 0.98229
    outer loop
      vertex 6.45 22.9161 12.8364
      vertex 3.45 23.2553 12.7717
      vertex 3.45 22.9161 12.8364
    endloop
  endfacet
  facet normal 0 1 -0
    outer loop
      vertex 6.45 20.8554 15.3273
      vertex 3.45 20.8554 15.6727
      vertex 6.45 20.8554 15.6727
    endloop
  endfacet
  facet normal 0 1 0
    outer loop
      vertex 3.45 20.8554 15.6727
      vertex 6.45 20.8554 15.3273
      vertex 3.45 20.8554 15.3273
    endloop
  endfacet
  facet normal 0 -0.992108 0.125389
    outer loop
      vertex 3.45 26.3013 14.9847
      vertex 6.45 26.3446 15.3273
      vertex 3.45 26.3446 15.3273
    endloop
  endfacet
  facet normal 0 -0.992108 0.125389
    outer loop
      vertex 6.45 26.3446 15.3273
      vertex 3.45 26.3013 14.9847
      vertex 6.45 26.3013 14.9847
    endloop
  endfacet
  facet normal 0 -0.929809 0.368043
    outer loop
      vertex 3.45 26.0883 14.3291
      vertex 6.45 26.2154 14.6502
      vertex 3.45 26.2154 14.6502
    endloop
  endfacet
  facet normal 0 -0.929809 0.368043
    outer loop
      vertex 6.45 26.2154 14.6502
      vertex 3.45 26.0883 14.3291
      vertex 6.45 26.0883 14.3291
    endloop
  endfacet
  facet normal 0 0.809011 0.587793
    outer loop
      vertex 6.45 21.4811 13.7471
      vertex 3.45 21.2781 14.0265
      vertex 6.45 21.2781 14.0265
    endloop
  endfacet
  facet normal 0 0.809011 0.587793
    outer loop
      vertex 3.45 21.2781 14.0265
      vertex 6.45 21.4811 13.7471
      vertex 3.45 21.4811 13.7471
    endloop
  endfacet
  facet normal -0 0.63736 0.770566
    outer loop
      vertex 3.45 21.9836 13.2752
      vertex 6.45 21.7175 13.4953
      vertex 6.45 21.9836 13.2752
    endloop
  endfacet
  facet normal 0 0.63736 0.770566
    outer loop
      vertex 6.45 21.7175 13.4953
      vertex 3.45 21.9836 13.2752
      vertex 3.45 21.7175 13.4953
    endloop
  endfacet
  facet normal -0 0.0628289 0.998024
    outer loop
      vertex 3.45 23.6 12.75
      vertex 6.45 23.2553 12.7717
      vertex 6.45 23.6 12.75
    endloop
  endfacet
  facet normal 0 0.0628289 0.998024
    outer loop
      vertex 6.45 23.2553 12.7717
      vertex 3.45 23.6 12.75
      vertex 3.45 23.2553 12.7717
    endloop
  endfacet
  facet normal 0 -0.309007 0.95106
    outer loop
      vertex 3.45 24.6123 12.9431
      vertex 6.45 24.2839 12.8364
      vertex 6.45 24.6123 12.9431
    endloop
  endfacet
  facet normal 0 -0.309007 0.95106
    outer loop
      vertex 6.45 24.2839 12.8364
      vertex 3.45 24.6123 12.9431
      vertex 3.45 24.2839 12.8364
    endloop
  endfacet
endsolid OpenSCAD_Model
