solid OpenSCAD_Model
  facet normal -0 0 1
    outer loop
      vertex 71.55 31.45 22.55
      vertex 73.55 2.55 22.55
      vertex 73.55 31.45 22.55
    endloop
  endfacet
  facet normal 0 0 1
    outer loop
      vertex 73.55 2.55 22.55
      vertex 71.55 31.45 22.55
      vertex 71.55 2.55 22.55
    endloop
  endfacet
  facet normal 0 0.969007 -0.247033
    outer loop
      vertex 73.55 31.5451 2.5191
      vertex 71.55 31.5482 2.53126
      vertex 73.55 31.5482 2.53126
    endloop
  endfacet
  facet normal 0 0.969007 -0.247033
    outer loop
      vertex 71.55 31.5482 2.53126
      vertex 73.55 31.5451 2.5191
      vertex 71.55 31.5451 2.5191
    endloop
  endfacet
  facet normal 0 0.81211 -0.583504
    outer loop
      vertex 73.55 31.5271 2.48626
      vertex 71.55 31.5344 2.49642
      vertex 73.55 31.5344 2.49642
    endloop
  endfacet
  facet normal 0 0.81211 -0.583504
    outer loop
      vertex 71.55 31.5344 2.49642
      vertex 73.55 31.5271 2.48626
      vertex 71.55 31.5271 2.48626
    endloop
  endfacet
  facet normal 0 -0.876216 0.481919
    outer loop
      vertex 71.55 2.45952 22.4926
      vertex 73.55 2.46557 22.5036
      vertex 71.55 2.46557 22.5036
    endloop
  endfacet
  facet normal 0 -0.876216 0.481919
    outer loop
      vertex 73.55 2.46557 22.5036
      vertex 71.55 2.45952 22.4926
      vertex 73.55 2.45952 22.4926
    endloop
  endfacet
  facet normal 0 -1 0
    outer loop
      vertex 71.55 2.4502 2.54372
      vertex 73.55 2.4502 22.4563
      vertex 71.55 2.4502 22.4563
    endloop
  endfacet
  facet normal 0 -1 -0
    outer loop
      vertex 73.55 2.4502 22.4563
      vertex 71.55 2.4502 2.54372
      vertex 73.55 2.4502 2.54372
    endloop
  endfacet
  facet normal 0 0.535999 -0.844219
    outer loop
      vertex 71.55 31.4982 2.46237
      vertex 73.55 31.5088 2.4691
      vertex 73.55 31.4982 2.46237
    endloop
  endfacet
  facet normal 0 0.535999 -0.844219
    outer loop
      vertex 73.55 31.5088 2.4691
      vertex 71.55 31.4982 2.46237
      vertex 71.55 31.5088 2.4691
    endloop
  endfacet
  facet normal 0 1 -0
    outer loop
      vertex 73.55 31.5498 2.54372
      vertex 71.55 31.5498 22.4563
      vertex 73.55 31.5498 22.4563
    endloop
  endfacet
  facet normal 0 1 0
    outer loop
      vertex 71.55 31.5498 22.4563
      vertex 73.55 31.5498 2.54372
      vertex 71.55 31.5498 2.54372
    endloop
  endfacet
  facet normal 0 -0.929897 -0.367819
    outer loop
      vertex 71.55 2.45952 2.50742
      vertex 73.55 2.4549 2.5191
      vertex 71.55 2.4549 2.5191
    endloop
  endfacet
  facet normal 0 -0.929897 -0.367819
    outer loop
      vertex 73.55 2.4549 2.5191
      vertex 71.55 2.45952 2.50742
      vertex 73.55 2.45952 2.50742
    endloop
  endfacet
  facet normal 0 -0.99208 0.12561
    outer loop
      vertex 71.55 2.4502 22.4563
      vertex 73.55 2.45177 22.4687
      vertex 71.55 2.45177 22.4687
    endloop
  endfacet
  facet normal 0 -0.99208 0.12561
    outer loop
      vertex 73.55 2.45177 22.4687
      vertex 71.55 2.4502 22.4563
      vertex 73.55 2.4502 22.4563
    endloop
  endfacet
  facet normal 0 -0.96863 0.248509
    outer loop
      vertex 71.55 2.45177 22.4687
      vertex 73.55 2.4549 22.4809
      vertex 71.55 2.4549 22.4809
    endloop
  endfacet
  facet normal 0 -0.96863 0.248509
    outer loop
      vertex 73.55 2.4549 22.4809
      vertex 71.55 2.45177 22.4687
      vertex 73.55 2.45177 22.4687
    endloop
  endfacet
  facet normal 0 0.810468 0.585783
    outer loop
      vertex 73.55 31.5344 22.5036
      vertex 71.55 31.5271 22.5137
      vertex 73.55 31.5271 22.5137
    endloop
  endfacet
  facet normal 0 0.810468 0.585783
    outer loop
      vertex 71.55 31.5271 22.5137
      vertex 73.55 31.5344 22.5036
      vertex 71.55 31.5344 22.5036
    endloop
  endfacet
  facet normal 0 -0.187076 -0.982346
    outer loop
      vertex 71.55 2.52513 2.45314
      vertex 73.55 2.53747 2.45079
      vertex 73.55 2.52513 2.45314
    endloop
  endfacet
  facet normal -0 -0.187076 -0.982346
    outer loop
      vertex 73.55 2.53747 2.45079
      vertex 71.55 2.52513 2.45314
      vertex 71.55 2.53747 2.45079
    endloop
  endfacet
  facet normal 0 0.969201 0.246272
    outer loop
      vertex 73.55 31.5482 22.4687
      vertex 71.55 31.5451 22.4809
      vertex 73.55 31.5451 22.4809
    endloop
  endfacet
  facet normal 0 0.969201 0.246272
    outer loop
      vertex 71.55 31.5451 22.4809
      vertex 73.55 31.5482 22.4687
      vertex 71.55 31.5482 22.4687
    endloop
  endfacet
  facet normal 0 0.186202 -0.982512
    outer loop
      vertex 71.55 31.4625 2.45079
      vertex 73.55 31.4749 2.45314
      vertex 73.55 31.4625 2.45079
    endloop
  endfacet
  facet normal 0 0.186202 -0.982512
    outer loop
      vertex 73.55 31.4749 2.45314
      vertex 71.55 31.4625 2.45079
      vertex 71.55 31.4749 2.45314
    endloop
  endfacet
  facet normal 0 -0.637437 0.770502
    outer loop
      vertex 71.55 2.49122 22.5309
      vertex 73.55 2.48155 22.5229
      vertex 73.55 2.49122 22.5309
    endloop
  endfacet
  facet normal 0 -0.637437 0.770502
    outer loop
      vertex 73.55 2.48155 22.5229
      vertex 71.55 2.49122 22.5309
      vertex 71.55 2.48155 22.5229
    endloop
  endfacet
  facet normal 0 -0.930112 0.367275
    outer loop
      vertex 71.55 2.4549 22.4809
      vertex 73.55 2.45952 22.4926
      vertex 71.55 2.45952 22.4926
    endloop
  endfacet
  facet normal 0 -0.930112 0.367275
    outer loop
      vertex 73.55 2.45952 22.4926
      vertex 71.55 2.4549 22.4809
      vertex 73.55 2.4549 22.4809
    endloop
  endfacet
  facet normal 0 -0.80908 -0.587698
    outer loop
      vertex 71.55 2.47295 2.48626
      vertex 73.55 2.46557 2.49642
      vertex 71.55 2.46557 2.49642
    endloop
  endfacet
  facet normal 0 -0.80908 -0.587698
    outer loop
      vertex 73.55 2.46557 2.49642
      vertex 71.55 2.47295 2.48626
      vertex 73.55 2.47295 2.48626
    endloop
  endfacet
  facet normal -0 0.182373 0.983229
    outer loop
      vertex 71.55 31.4749 22.5469
      vertex 73.55 31.4625 22.5492
      vertex 73.55 31.4749 22.5469
    endloop
  endfacet
  facet normal 0 0.182373 0.983229
    outer loop
      vertex 73.55 31.4625 22.5492
      vertex 71.55 31.4749 22.5469
      vertex 71.55 31.4625 22.5492
    endloop
  endfacet
  facet normal 0 -0.992155 -0.125015
    outer loop
      vertex 71.55 2.45177 2.53126
      vertex 73.55 2.4502 2.54372
      vertex 71.55 2.4502 2.54372
    endloop
  endfacet
  facet normal 0 -0.992155 -0.125015
    outer loop
      vertex 73.55 2.4502 2.54372
      vertex 71.55 2.45177 2.53126
      vertex 73.55 2.45177 2.53126
    endloop
  endfacet
  facet normal 0 0.424841 -0.905268
    outer loop
      vertex 71.55 31.4868 2.45702
      vertex 73.55 31.4982 2.46237
      vertex 73.55 31.4868 2.45702
    endloop
  endfacet
  facet normal 0 0.424841 -0.905268
    outer loop
      vertex 73.55 31.4982 2.46237
      vertex 71.55 31.4868 2.45702
      vertex 71.55 31.4982 2.46237
    endloop
  endfacet
  facet normal -0 0.311432 0.950268
    outer loop
      vertex 71.55 31.4868 22.543
      vertex 73.55 31.4749 22.5469
      vertex 73.55 31.4868 22.543
    endloop
  endfacet
  facet normal 0 0.311432 0.950268
    outer loop
      vertex 73.55 31.4749 22.5469
      vertex 71.55 31.4868 22.543
      vertex 71.55 31.4749 22.5469
    endloop
  endfacet
  facet normal 0 0 -1
    outer loop
      vertex 71.55 2.55 2.45
      vertex 73.55 31.45 2.45
      vertex 73.55 2.55 2.45
    endloop
  endfacet
  facet normal -0 0 -1
    outer loop
      vertex 73.55 31.45 2.45
      vertex 71.55 2.55 2.45
      vertex 71.55 31.45 2.45
    endloop
  endfacet
  facet normal 0 -0.729041 -0.68447
    outer loop
      vertex 71.55 2.48155 2.4771
      vertex 73.55 2.47295 2.48626
      vertex 71.55 2.47295 2.48626
    endloop
  endfacet
  facet normal 0 -0.729041 -0.68447
    outer loop
      vertex 73.55 2.47295 2.48626
      vertex 71.55 2.48155 2.4771
      vertex 73.55 2.48155 2.4771
    endloop
  endfacet
  facet normal 0 0.991778 0.127971
    outer loop
      vertex 73.55 31.5498 22.4563
      vertex 71.55 31.5482 22.4687
      vertex 73.55 31.5482 22.4687
    endloop
  endfacet
  facet normal 0 0.991778 0.127971
    outer loop
      vertex 71.55 31.5482 22.4687
      vertex 73.55 31.5498 22.4563
      vertex 71.55 31.5498 22.4563
    endloop
  endfacet
  facet normal 0 -0.30905 -0.951046
    outer loop
      vertex 71.55 2.51319 2.45702
      vertex 73.55 2.52513 2.45314
      vertex 73.55 2.51319 2.45702
    endloop
  endfacet
  facet normal -0 -0.30905 -0.951046
    outer loop
      vertex 73.55 2.52513 2.45314
      vertex 71.55 2.51319 2.45702
      vertex 71.55 2.52513 2.45314
    endloop
  endfacet
  facet normal 0 -0.426065 -0.904692
    outer loop
      vertex 71.55 2.50183 2.46237
      vertex 73.55 2.51319 2.45702
      vertex 73.55 2.50183 2.46237
    endloop
  endfacet
  facet normal -0 -0.426065 -0.904692
    outer loop
      vertex 73.55 2.51319 2.45702
      vertex 71.55 2.50183 2.46237
      vertex 71.55 2.51319 2.45702
    endloop
  endfacet
  facet normal 0 -0.31049 0.950577
    outer loop
      vertex 71.55 2.52513 22.5469
      vertex 73.55 2.51319 22.543
      vertex 73.55 2.52513 22.5469
    endloop
  endfacet
  facet normal 0 -0.31049 0.950577
    outer loop
      vertex 73.55 2.51319 22.543
      vertex 71.55 2.52513 22.5469
      vertex 71.55 2.51319 22.543
    endloop
  endfacet
  facet normal 0 -0.968433 -0.249276
    outer loop
      vertex 71.55 2.4549 2.5191
      vertex 73.55 2.45177 2.53126
      vertex 71.55 2.45177 2.53126
    endloop
  endfacet
  facet normal 0 -0.968433 -0.249276
    outer loop
      vertex 73.55 2.45177 2.53126
      vertex 71.55 2.4549 2.5191
      vertex 73.55 2.4549 2.5191
    endloop
  endfacet
  facet normal 0 -0.18323 0.98307
    outer loop
      vertex 71.55 2.53747 22.5492
      vertex 73.55 2.52513 22.5469
      vertex 73.55 2.53747 22.5492
    endloop
  endfacet
  facet normal 0 -0.18323 0.98307
    outer loop
      vertex 73.55 2.52513 22.5469
      vertex 71.55 2.53747 22.5492
      vertex 71.55 2.52513 22.5469
    endloop
  endfacet
  facet normal 0 -0.80742 0.589977
    outer loop
      vertex 71.55 2.46557 22.5036
      vertex 73.55 2.47295 22.5137
      vertex 71.55 2.47295 22.5137
    endloop
  endfacet
  facet normal 0 -0.80742 0.589977
    outer loop
      vertex 73.55 2.47295 22.5137
      vertex 71.55 2.46557 22.5036
      vertex 73.55 2.46557 22.5036
    endloop
  endfacet
  facet normal 0 -0.730527 0.682884
    outer loop
      vertex 71.55 2.47295 22.5137
      vertex 73.55 2.48155 22.5229
      vertex 71.55 2.48155 22.5229
    endloop
  endfacet
  facet normal 0 -0.730527 0.682884
    outer loop
      vertex 73.55 2.48155 22.5229
      vertex 71.55 2.47295 22.5137
      vertex 73.55 2.47295 22.5137
    endloop
  endfacet
  facet normal -0 0.636265 0.771471
    outer loop
      vertex 71.55 31.5185 22.5229
      vertex 73.55 31.5088 22.5309
      vertex 73.55 31.5185 22.5229
    endloop
  endfacet
  facet normal 0 0.636265 0.771471
    outer loop
      vertex 73.55 31.5088 22.5309
      vertex 71.55 31.5185 22.5229
      vertex 71.55 31.5088 22.5309
    endloop
  endfacet
  facet normal 0 -0.876216 -0.481919
    outer loop
      vertex 71.55 2.46557 2.49642
      vertex 73.55 2.45952 2.50742
      vertex 71.55 2.45952 2.50742
    endloop
  endfacet
  facet normal 0 -0.876216 -0.481919
    outer loop
      vertex 73.55 2.45952 2.50742
      vertex 71.55 2.46557 2.49642
      vertex 73.55 2.46557 2.49642
    endloop
  endfacet
  facet normal 0 -0.637437 -0.770502
    outer loop
      vertex 71.55 2.48155 2.4771
      vertex 73.55 2.49122 2.4691
      vertex 73.55 2.48155 2.4771
    endloop
  endfacet
  facet normal -0 -0.637437 -0.770502
    outer loop
      vertex 73.55 2.49122 2.4691
      vertex 71.55 2.48155 2.4771
      vertex 71.55 2.49122 2.4691
    endloop
  endfacet
  facet normal 0 0.991856 -0.127365
    outer loop
      vertex 73.55 31.5482 2.53126
      vertex 71.55 31.5498 2.54372
      vertex 73.55 31.5498 2.54372
    endloop
  endfacet
  facet normal 0 0.991856 -0.127365
    outer loop
      vertex 71.55 31.5498 2.54372
      vertex 73.55 31.5482 2.53126
      vertex 71.55 31.5482 2.53126
    endloop
  endfacet
  facet normal 0 0.930441 -0.366441
    outer loop
      vertex 73.55 31.5405 2.50742
      vertex 71.55 31.5451 2.5191
      vertex 73.55 31.5451 2.5191
    endloop
  endfacet
  facet normal 0 0.930441 -0.366441
    outer loop
      vertex 71.55 31.5451 2.5191
      vertex 73.55 31.5405 2.50742
      vertex 71.55 31.5405 2.50742
    endloop
  endfacet
  facet normal 0 -0.535639 -0.844447
    outer loop
      vertex 71.55 2.49122 2.4691
      vertex 73.55 2.50183 2.46237
      vertex 73.55 2.49122 2.4691
    endloop
  endfacet
  facet normal -0 -0.535639 -0.844447
    outer loop
      vertex 73.55 2.50183 2.46237
      vertex 71.55 2.49122 2.4691
      vertex 71.55 2.50183 2.46237
    endloop
  endfacet
  facet normal 0 0.874532 -0.484968
    outer loop
      vertex 73.55 31.5344 2.49642
      vertex 71.55 31.5405 2.50742
      vertex 73.55 31.5405 2.50742
    endloop
  endfacet
  facet normal 0 0.874532 -0.484968
    outer loop
      vertex 71.55 31.5405 2.50742
      vertex 73.55 31.5344 2.49642
      vertex 71.55 31.5344 2.49642
    endloop
  endfacet
  facet normal 0 0.0630742 -0.998009
    outer loop
      vertex 71.55 31.45 2.45
      vertex 73.55 31.4625 2.45079
      vertex 73.55 31.45 2.45
    endloop
  endfacet
  facet normal 0 0.0630742 -0.998009
    outer loop
      vertex 73.55 31.4625 2.45079
      vertex 71.55 31.45 2.45
      vertex 71.55 31.4625 2.45079
    endloop
  endfacet
  facet normal 0 0.636265 -0.771471
    outer loop
      vertex 71.55 31.5088 2.4691
      vertex 73.55 31.5185 2.4771
      vertex 73.55 31.5088 2.4691
    endloop
  endfacet
  facet normal 0 0.636265 -0.771471
    outer loop
      vertex 73.55 31.5185 2.4771
      vertex 71.55 31.5088 2.4691
      vertex 71.55 31.5185 2.4771
    endloop
  endfacet
  facet normal 0 0.729041 -0.68447
    outer loop
      vertex 73.55 31.5185 2.4771
      vertex 71.55 31.5271 2.48626
      vertex 73.55 31.5271 2.48626
    endloop
  endfacet
  facet normal 0 0.729041 -0.68447
    outer loop
      vertex 71.55 31.5271 2.48626
      vertex 73.55 31.5185 2.4771
      vertex 71.55 31.5185 2.4771
    endloop
  endfacet
  facet normal 1 0 0
    outer loop
      vertex 73.55 31.45 22.55
      vertex 73.55 31.5498 22.4563
      vertex 73.55 31.5482 22.4687
    endloop
  endfacet
  facet normal 1 0 0
    outer loop
      vertex 73.55 31.5498 22.4563
      vertex 73.55 20.9921 12.7512
      vertex 73.55 31.5498 2.54372
    endloop
  endfacet
  facet normal 1 0 0
    outer loop
      vertex 73.55 31.45 22.55
      vertex 73.55 31.5482 22.4687
      vertex 73.55 31.5451 22.4809
    endloop
  endfacet
  facet normal 1 -0 0
    outer loop
      vertex 73.55 20.9921 12.2488
      vertex 73.55 31.5498 2.54372
      vertex 73.55 20.9921 12.7512
    endloop
  endfacet
  facet normal 1 0 0
    outer loop
      vertex 73.55 31.45 22.55
      vertex 73.55 31.5451 22.4809
      vertex 73.55 31.5405 22.4926
    endloop
  endfacet
  facet normal 1 -0 0
    outer loop
      vertex 73.55 20.9291 11.7505
      vertex 73.55 31.5498 2.54372
      vertex 73.55 20.9921 12.2488
    endloop
  endfacet
  facet normal 1 0 0
    outer loop
      vertex 73.55 31.45 22.55
      vertex 73.55 31.5405 22.4926
      vertex 73.55 31.5344 22.5036
    endloop
  endfacet
  facet normal 1 -0 0
    outer loop
      vertex 73.55 20.8042 11.2639
      vertex 73.55 31.5498 2.54372
      vertex 73.55 20.9291 11.7505
    endloop
  endfacet
  facet normal 1 0 0
    outer loop
      vertex 73.55 31.45 22.55
      vertex 73.55 31.5344 22.5036
      vertex 73.55 31.5271 22.5137
    endloop
  endfacet
  facet normal 1 -0 0
    outer loop
      vertex 73.55 20.6193 10.7969
      vertex 73.55 31.5498 2.54372
      vertex 73.55 20.8042 11.2639
    endloop
  endfacet
  facet normal 1 0 0
    outer loop
      vertex 73.55 31.45 22.55
      vertex 73.55 31.5271 22.5137
      vertex 73.55 31.5185 22.5229
    endloop
  endfacet
  facet normal 1 0 -0
    outer loop
      vertex 73.55 31.45 2.45
      vertex 73.55 31.5498 2.54372
      vertex 73.55 20.6193 10.7969
    endloop
  endfacet
  facet normal 1 0 0
    outer loop
      vertex 73.55 31.45 22.55
      vertex 73.55 31.5185 22.5229
      vertex 73.55 31.5088 22.5309
    endloop
  endfacet
  facet normal 1 0 0
    outer loop
      vertex 73.55 31.5498 2.54372
      vertex 73.55 31.45 2.45
      vertex 73.55 31.5482 2.53126
    endloop
  endfacet
  facet normal 1 0 0
    outer loop
      vertex 73.55 31.45 22.55
      vertex 73.55 31.5088 22.5309
      vertex 73.55 31.4982 22.5376
    endloop
  endfacet
  facet normal 1 0 0
    outer loop
      vertex 73.55 31.5451 2.5191
      vertex 73.55 31.45 2.45
      vertex 73.55 31.5405 2.50742
    endloop
  endfacet
  facet normal 1 0 0
    outer loop
      vertex 73.55 31.45 22.55
      vertex 73.55 31.4982 22.5376
      vertex 73.55 31.4868 22.543
    endloop
  endfacet
  facet normal 1 0 0
    outer loop
      vertex 73.55 31.5405 2.50742
      vertex 73.55 31.45 2.45
      vertex 73.55 31.5344 2.49642
    endloop
  endfacet
  facet normal 1 0 0
    outer loop
      vertex 73.55 31.45 22.55
      vertex 73.55 31.4868 22.543
      vertex 73.55 31.4749 22.5469
    endloop
  endfacet
  facet normal 1 0 0
    outer loop
      vertex 73.55 31.5271 2.48626
      vertex 73.55 31.45 2.45
      vertex 73.55 31.5185 2.4771
    endloop
  endfacet
  facet normal 1 0 0
    outer loop
      vertex 73.55 31.45 22.55
      vertex 73.55 31.4749 22.5469
      vertex 73.55 31.4625 22.5492
    endloop
  endfacet
  facet normal 1 0 0
    outer loop
      vertex 73.55 31.5185 2.4771
      vertex 73.55 31.45 2.45
      vertex 73.55 31.5088 2.4691
    endloop
  endfacet
  facet normal 1 0 0
    outer loop
      vertex 73.55 31.5498 22.4563
      vertex 73.55 31.45 22.55
      vertex 73.55 20.6193 14.2031
    endloop
  endfacet
  facet normal 1 0 0
    outer loop
      vertex 73.55 31.4982 2.46237
      vertex 73.55 31.45 2.45
      vertex 73.55 31.4868 2.45702
    endloop
  endfacet
  facet normal 1 0 0
    outer loop
      vertex 73.55 31.4868 2.45702
      vertex 73.55 31.45 2.45
      vertex 73.55 31.4749 2.45314
    endloop
  endfacet
  facet normal 1 0 0
    outer loop
      vertex 73.55 31.5498 22.4563
      vertex 73.55 20.9291 13.2495
      vertex 73.55 20.9921 12.7512
    endloop
  endfacet
  facet normal 1 0 0
    outer loop
      vertex 73.55 31.5498 22.4563
      vertex 73.55 20.8042 13.7361
      vertex 73.55 20.9291 13.2495
    endloop
  endfacet
  facet normal 1 0 0
    outer loop
      vertex 73.55 31.5498 22.4563
      vertex 73.55 20.6193 14.2031
      vertex 73.55 20.8042 13.7361
    endloop
  endfacet
  facet normal 1 0 0
    outer loop
      vertex 73.55 31.45 22.55
      vertex 73.55 20.3773 14.6433
      vertex 73.55 20.6193 14.2031
    endloop
  endfacet
  facet normal 1 0 0
    outer loop
      vertex 73.55 31.45 22.55
      vertex 73.55 20.0821 15.0497
      vertex 73.55 20.3773 14.6433
    endloop
  endfacet
  facet normal 1 0 0
    outer loop
      vertex 73.55 31.45 22.55
      vertex 73.55 19.7382 15.4159
      vertex 73.55 20.0821 15.0497
    endloop
  endfacet
  facet normal 1 0 0
    outer loop
      vertex 73.55 31.45 22.55
      vertex 73.55 19.3511 15.7361
      vertex 73.55 19.7382 15.4159
    endloop
  endfacet
  facet normal 1 0 0
    outer loop
      vertex 73.55 31.45 22.55
      vertex 73.55 18.927 16.0052
      vertex 73.55 19.3511 15.7361
    endloop
  endfacet
  facet normal 1 0 0
    outer loop
      vertex 73.55 31.45 22.55
      vertex 73.55 18.4725 16.2191
      vertex 73.55 18.927 16.0052
    endloop
  endfacet
  facet normal 1 0 0
    outer loop
      vertex 73.55 31.45 22.55
      vertex 73.55 17.9948 16.3743
      vertex 73.55 18.4725 16.2191
    endloop
  endfacet
  facet normal 1 0 0
    outer loop
      vertex 73.55 31.45 22.55
      vertex 73.55 17.5013 16.4685
      vertex 73.55 17.9948 16.3743
    endloop
  endfacet
  facet normal 1 0 0
    outer loop
      vertex 73.55 31.45 22.55
      vertex 73.55 17 16.5
      vertex 73.55 17.5013 16.4685
    endloop
  endfacet
  facet normal 1 -0 0
    outer loop
      vertex 73.55 2.55 22.55
      vertex 73.55 17 16.5
      vertex 73.55 31.45 22.55
    endloop
  endfacet
  facet normal 1 0 0
    outer loop
      vertex 73.55 17 16.5
      vertex 73.55 2.55 22.55
      vertex 73.55 16.4987 16.4685
    endloop
  endfacet
  facet normal 1 0 0
    outer loop
      vertex 73.55 16.4987 16.4685
      vertex 73.55 2.55 22.55
      vertex 73.55 16.0052 16.3743
    endloop
  endfacet
  facet normal 1 0 0
    outer loop
      vertex 73.55 13.0709 13.2495
      vertex 73.55 2.4502 22.4563
      vertex 73.55 13.0079 12.7512
    endloop
  endfacet
  facet normal 1 0 0
    outer loop
      vertex 73.55 13.1958 13.7361
      vertex 73.55 2.4502 22.4563
      vertex 73.55 13.0709 13.2495
    endloop
  endfacet
  facet normal 1 0 0
    outer loop
      vertex 73.55 13.3807 14.2031
      vertex 73.55 2.4502 22.4563
      vertex 73.55 13.1958 13.7361
    endloop
  endfacet
  facet normal 1 -0 0
    outer loop
      vertex 73.55 2.4502 22.4563
      vertex 73.55 13.3807 14.2031
      vertex 73.55 2.55 22.55
    endloop
  endfacet
  facet normal 1 0 0
    outer loop
      vertex 73.55 13.6227 14.6433
      vertex 73.55 2.55 22.55
      vertex 73.55 13.3807 14.2031
    endloop
  endfacet
  facet normal 1 0 0
    outer loop
      vertex 73.55 13.9179 15.0497
      vertex 73.55 2.55 22.55
      vertex 73.55 13.6227 14.6433
    endloop
  endfacet
  facet normal 1 0 0
    outer loop
      vertex 73.55 14.2618 15.4159
      vertex 73.55 2.55 22.55
      vertex 73.55 13.9179 15.0497
    endloop
  endfacet
  facet normal 1 0 0
    outer loop
      vertex 73.55 14.6489 15.7361
      vertex 73.55 2.55 22.55
      vertex 73.55 14.2618 15.4159
    endloop
  endfacet
  facet normal 1 0 0
    outer loop
      vertex 73.55 15.073 16.0052
      vertex 73.55 2.55 22.55
      vertex 73.55 14.6489 15.7361
    endloop
  endfacet
  facet normal 1 0 0
    outer loop
      vertex 73.55 15.5275 16.2191
      vertex 73.55 2.55 22.55
      vertex 73.55 15.073 16.0052
    endloop
  endfacet
  facet normal 1 0 0
    outer loop
      vertex 73.55 16.0052 16.3743
      vertex 73.55 2.55 22.55
      vertex 73.55 15.5275 16.2191
    endloop
  endfacet
  facet normal 1 0 0
    outer loop
      vertex 73.55 31.4749 2.45314
      vertex 73.55 31.45 2.45
      vertex 73.55 31.4625 2.45079
    endloop
  endfacet
  facet normal 1 0 0
    outer loop
      vertex 73.55 31.5088 2.4691
      vertex 73.55 31.45 2.45
      vertex 73.55 31.4982 2.46237
    endloop
  endfacet
  facet normal 1 0 0
    outer loop
      vertex 73.55 31.5344 2.49642
      vertex 73.55 31.45 2.45
      vertex 73.55 31.5271 2.48626
    endloop
  endfacet
  facet normal 1 0 0
    outer loop
      vertex 73.55 31.5482 2.53126
      vertex 73.55 31.45 2.45
      vertex 73.55 31.5451 2.5191
    endloop
  endfacet
  facet normal 1 -0 0
    outer loop
      vertex 73.55 20.3773 10.3567
      vertex 73.55 31.45 2.45
      vertex 73.55 20.6193 10.7969
    endloop
  endfacet
  facet normal 1 -0 0
    outer loop
      vertex 73.55 20.0821 9.9503
      vertex 73.55 31.45 2.45
      vertex 73.55 20.3773 10.3567
    endloop
  endfacet
  facet normal 1 -0 0
    outer loop
      vertex 73.55 19.7382 9.58412
      vertex 73.55 31.45 2.45
      vertex 73.55 20.0821 9.9503
    endloop
  endfacet
  facet normal 1 -0 0
    outer loop
      vertex 73.55 19.3511 9.26393
      vertex 73.55 31.45 2.45
      vertex 73.55 19.7382 9.58412
    endloop
  endfacet
  facet normal 1 -0 0
    outer loop
      vertex 73.55 18.927 8.99477
      vertex 73.55 31.45 2.45
      vertex 73.55 19.3511 9.26393
    endloop
  endfacet
  facet normal 1 -0 0
    outer loop
      vertex 73.55 18.4725 8.78089
      vertex 73.55 31.45 2.45
      vertex 73.55 18.927 8.99477
    endloop
  endfacet
  facet normal 1 -0 0
    outer loop
      vertex 73.55 17.9948 8.62567
      vertex 73.55 31.45 2.45
      vertex 73.55 18.4725 8.78089
    endloop
  endfacet
  facet normal 1 -0 0
    outer loop
      vertex 73.55 17.5013 8.53154
      vertex 73.55 31.45 2.45
      vertex 73.55 17.9948 8.62567
    endloop
  endfacet
  facet normal 1 -0 0
    outer loop
      vertex 73.55 17 8.5
      vertex 73.55 31.45 2.45
      vertex 73.55 17.5013 8.53154
    endloop
  endfacet
  facet normal 1 0 0
    outer loop
      vertex 73.55 2.55 2.45
      vertex 73.55 17 8.5
      vertex 73.55 16.4987 8.53154
    endloop
  endfacet
  facet normal 1 0 0
    outer loop
      vertex 73.55 2.55 2.45
      vertex 73.55 16.4987 8.53154
      vertex 73.55 16.0052 8.62567
    endloop
  endfacet
  facet normal 1 0 0
    outer loop
      vertex 73.55 2.55 2.45
      vertex 73.55 16.0052 8.62567
      vertex 73.55 15.5275 8.78089
    endloop
  endfacet
  facet normal 1 0 0
    outer loop
      vertex 73.55 13.0079 12.7512
      vertex 73.55 2.4502 22.4563
      vertex 73.55 13.0079 12.2488
    endloop
  endfacet
  facet normal 1 0 0
    outer loop
      vertex 73.55 2.4502 2.54372
      vertex 73.55 13.0079 12.2488
      vertex 73.55 2.4502 22.4563
    endloop
  endfacet
  facet normal 1 0 0
    outer loop
      vertex 73.55 13.0079 12.2488
      vertex 73.55 2.4502 2.54372
      vertex 73.55 13.0709 11.7505
    endloop
  endfacet
  facet normal 1 0 0
    outer loop
      vertex 73.55 13.0709 11.7505
      vertex 73.55 2.4502 2.54372
      vertex 73.55 13.1958 11.2639
    endloop
  endfacet
  facet normal 1 0 0
    outer loop
      vertex 73.55 13.1958 11.2639
      vertex 73.55 2.4502 2.54372
      vertex 73.55 13.3807 10.7969
    endloop
  endfacet
  facet normal 1 0 0
    outer loop
      vertex 73.55 17 8.5
      vertex 73.55 2.55 2.45
      vertex 73.55 31.45 2.45
    endloop
  endfacet
  facet normal 1 0 0
    outer loop
      vertex 73.55 15.073 8.99477
      vertex 73.55 2.55 2.45
      vertex 73.55 15.5275 8.78089
    endloop
  endfacet
  facet normal 1 0 0
    outer loop
      vertex 73.55 14.6489 9.26393
      vertex 73.55 2.55 2.45
      vertex 73.55 15.073 8.99477
    endloop
  endfacet
  facet normal 1 0 0
    outer loop
      vertex 73.55 14.2618 9.58412
      vertex 73.55 2.55 2.45
      vertex 73.55 14.6489 9.26393
    endloop
  endfacet
  facet normal 1 0 0
    outer loop
      vertex 73.55 13.9179 9.9503
      vertex 73.55 2.55 2.45
      vertex 73.55 14.2618 9.58412
    endloop
  endfacet
  facet normal 1 0 -0
    outer loop
      vertex 73.55 2.55 2.45
      vertex 73.55 13.3807 10.7969
      vertex 73.55 2.4502 2.54372
    endloop
  endfacet
  facet normal 1 0 0
    outer loop
      vertex 73.55 2.4502 22.4563
      vertex 73.55 2.55 22.55
      vertex 73.55 2.53747 22.5492
    endloop
  endfacet
  facet normal 1 0 0
    outer loop
      vertex 73.55 13.3807 10.7969
      vertex 73.55 2.55 2.45
      vertex 73.55 13.6227 10.3567
    endloop
  endfacet
  facet normal 1 0 0
    outer loop
      vertex 73.55 2.4502 22.4563
      vertex 73.55 2.53747 22.5492
      vertex 73.55 2.52513 22.5469
    endloop
  endfacet
  facet normal 1 0 0
    outer loop
      vertex 73.55 13.6227 10.3567
      vertex 73.55 2.55 2.45
      vertex 73.55 13.9179 9.9503
    endloop
  endfacet
  facet normal 1 0 0
    outer loop
      vertex 73.55 2.4502 22.4563
      vertex 73.55 2.52513 22.5469
      vertex 73.55 2.51319 22.543
    endloop
  endfacet
  facet normal 1 0 0
    outer loop
      vertex 73.55 2.55 2.45
      vertex 73.55 2.4502 2.54372
      vertex 73.55 2.53747 2.45079
    endloop
  endfacet
  facet normal 1 0 0
    outer loop
      vertex 73.55 2.4502 22.4563
      vertex 73.55 2.51319 22.543
      vertex 73.55 2.50183 22.5376
    endloop
  endfacet
  facet normal 1 0 0
    outer loop
      vertex 73.55 2.53747 2.45079
      vertex 73.55 2.4502 2.54372
      vertex 73.55 2.52513 2.45314
    endloop
  endfacet
  facet normal 1 0 0
    outer loop
      vertex 73.55 2.4502 22.4563
      vertex 73.55 2.50183 22.5376
      vertex 73.55 2.49122 22.5309
    endloop
  endfacet
  facet normal 1 0 0
    outer loop
      vertex 73.55 2.52513 2.45314
      vertex 73.55 2.4502 2.54372
      vertex 73.55 2.51319 2.45702
    endloop
  endfacet
  facet normal 1 0 0
    outer loop
      vertex 73.55 2.4502 22.4563
      vertex 73.55 2.49122 22.5309
      vertex 73.55 2.48155 22.5229
    endloop
  endfacet
  facet normal 1 0 0
    outer loop
      vertex 73.55 2.51319 2.45702
      vertex 73.55 2.4502 2.54372
      vertex 73.55 2.50183 2.46237
    endloop
  endfacet
  facet normal 1 0 0
    outer loop
      vertex 73.55 2.4502 22.4563
      vertex 73.55 2.48155 22.5229
      vertex 73.55 2.47295 22.5137
    endloop
  endfacet
  facet normal 1 0 0
    outer loop
      vertex 73.55 2.50183 2.46237
      vertex 73.55 2.4502 2.54372
      vertex 73.55 2.49122 2.4691
    endloop
  endfacet
  facet normal 1 0 0
    outer loop
      vertex 73.55 2.4502 22.4563
      vertex 73.55 2.47295 22.5137
      vertex 73.55 2.46557 22.5036
    endloop
  endfacet
  facet normal 1 0 0
    outer loop
      vertex 73.55 2.49122 2.4691
      vertex 73.55 2.4502 2.54372
      vertex 73.55 2.48155 2.4771
    endloop
  endfacet
  facet normal 1 0 0
    outer loop
      vertex 73.55 2.4502 22.4563
      vertex 73.55 2.46557 22.5036
      vertex 73.55 2.45952 22.4926
    endloop
  endfacet
  facet normal 1 0 0
    outer loop
      vertex 73.55 2.48155 2.4771
      vertex 73.55 2.4502 2.54372
      vertex 73.55 2.47295 2.48626
    endloop
  endfacet
  facet normal 1 0 0
    outer loop
      vertex 73.55 2.4502 22.4563
      vertex 73.55 2.45952 22.4926
      vertex 73.55 2.4549 22.4809
    endloop
  endfacet
  facet normal 1 0 0
    outer loop
      vertex 73.55 2.47295 2.48626
      vertex 73.55 2.4502 2.54372
      vertex 73.55 2.46557 2.49642
    endloop
  endfacet
  facet normal 1 0 0
    outer loop
      vertex 73.55 2.4502 22.4563
      vertex 73.55 2.4549 22.4809
      vertex 73.55 2.45177 22.4687
    endloop
  endfacet
  facet normal 1 0 0
    outer loop
      vertex 73.55 2.46557 2.49642
      vertex 73.55 2.4502 2.54372
      vertex 73.55 2.45952 2.50742
    endloop
  endfacet
  facet normal 1 0 0
    outer loop
      vertex 73.55 2.45952 2.50742
      vertex 73.55 2.4502 2.54372
      vertex 73.55 2.4549 2.5191
    endloop
  endfacet
  facet normal 1 0 0
    outer loop
      vertex 73.55 2.4549 2.5191
      vertex 73.55 2.4502 2.54372
      vertex 73.55 2.45177 2.53126
    endloop
  endfacet
  facet normal 0 0.930655 0.365898
    outer loop
      vertex 73.55 31.5451 22.4809
      vertex 71.55 31.5405 22.4926
      vertex 73.55 31.5405 22.4926
    endloop
  endfacet
  facet normal 0 0.930655 0.365898
    outer loop
      vertex 71.55 31.5405 22.4926
      vertex 73.55 31.5451 22.4809
      vertex 71.55 31.5451 22.4809
    endloop
  endfacet
  facet normal 0 -0.0629237 -0.998018
    outer loop
      vertex 71.55 2.53747 2.45079
      vertex 73.55 2.55 2.45
      vertex 73.55 2.53747 2.45079
    endloop
  endfacet
  facet normal -0 -0.0629237 -0.998018
    outer loop
      vertex 73.55 2.55 2.45
      vertex 71.55 2.53747 2.45079
      vertex 71.55 2.55 2.45
    endloop
  endfacet
  facet normal 0 -0.429316 0.903154
    outer loop
      vertex 71.55 2.51319 22.543
      vertex 73.55 2.50183 22.5376
      vertex 73.55 2.51319 22.543
    endloop
  endfacet
  facet normal 0 -0.429316 0.903154
    outer loop
      vertex 73.55 2.50183 22.5376
      vertex 71.55 2.51319 22.543
      vertex 71.55 2.50183 22.5376
    endloop
  endfacet
  facet normal 0 -0.533933 0.845527
    outer loop
      vertex 71.55 2.50183 22.5376
      vertex 73.55 2.49122 22.5309
      vertex 73.55 2.50183 22.5376
    endloop
  endfacet
  facet normal 0 -0.533933 0.845527
    outer loop
      vertex 73.55 2.49122 22.5309
      vertex 71.55 2.50183 22.5376
      vertex 71.55 2.49122 22.5309
    endloop
  endfacet
  facet normal 0 0.874532 0.484968
    outer loop
      vertex 73.55 31.5405 22.4926
      vertex 71.55 31.5344 22.5036
      vertex 73.55 31.5344 22.5036
    endloop
  endfacet
  facet normal 0 0.874532 0.484968
    outer loop
      vertex 71.55 31.5344 22.5036
      vertex 73.55 31.5405 22.4926
      vertex 71.55 31.5405 22.4926
    endloop
  endfacet
  facet normal 0 0.309989 -0.95074
    outer loop
      vertex 71.55 31.4749 2.45314
      vertex 73.55 31.4868 2.45702
      vertex 73.55 31.4749 2.45314
    endloop
  endfacet
  facet normal 0 0.309989 -0.95074
    outer loop
      vertex 73.55 31.4868 2.45702
      vertex 71.55 31.4749 2.45314
      vertex 71.55 31.4868 2.45702
    endloop
  endfacet
  facet normal -0 0.534293 0.845299
    outer loop
      vertex 71.55 31.5088 22.5309
      vertex 73.55 31.4982 22.5376
      vertex 73.55 31.5088 22.5309
    endloop
  endfacet
  facet normal 0 0.534293 0.845299
    outer loop
      vertex 73.55 31.4982 22.5376
      vertex 71.55 31.5088 22.5309
      vertex 71.55 31.4982 22.5376
    endloop
  endfacet
  facet normal -0 0.428086 0.903738
    outer loop
      vertex 71.55 31.4982 22.5376
      vertex 73.55 31.4868 22.543
      vertex 73.55 31.4982 22.5376
    endloop
  endfacet
  facet normal 0 0.428086 0.903738
    outer loop
      vertex 73.55 31.4868 22.543
      vertex 71.55 31.4982 22.5376
      vertex 71.55 31.4868 22.543
    endloop
  endfacet
  facet normal 0 0.730527 0.682884
    outer loop
      vertex 73.55 31.5271 22.5137
      vertex 71.55 31.5185 22.5229
      vertex 73.55 31.5185 22.5229
    endloop
  endfacet
  facet normal 0 0.730527 0.682884
    outer loop
      vertex 71.55 31.5185 22.5229
      vertex 73.55 31.5271 22.5137
      vertex 71.55 31.5271 22.5137
    endloop
  endfacet
  facet normal -0 0.0638693 0.997958
    outer loop
      vertex 71.55 31.4625 22.5492
      vertex 73.55 31.45 22.55
      vertex 73.55 31.4625 22.5492
    endloop
  endfacet
  facet normal 0 0.0638693 0.997958
    outer loop
      vertex 73.55 31.45 22.55
      vertex 71.55 31.4625 22.5492
      vertex 71.55 31.45 22.55
    endloop
  endfacet
  facet normal 0 -0.063717 0.997968
    outer loop
      vertex 71.55 2.55 22.55
      vertex 73.55 2.53747 22.5492
      vertex 73.55 2.55 22.55
    endloop
  endfacet
  facet normal 0 -0.063717 0.997968
    outer loop
      vertex 73.55 2.53747 22.5492
      vertex 71.55 2.55 22.55
      vertex 71.55 2.53747 22.5492
    endloop
  endfacet
  facet normal -1 0 0
    outer loop
      vertex 71.55 31.45 2.45
      vertex 71.55 31.5498 2.54372
      vertex 71.55 31.5482 2.53126
    endloop
  endfacet
  facet normal -1 0 0
    outer loop
      vertex 71.55 31.5498 2.54372
      vertex 71.55 20.9921 12.2488
      vertex 71.55 31.5498 22.4563
    endloop
  endfacet
  facet normal -1 0 0
    outer loop
      vertex 71.55 31.45 2.45
      vertex 71.55 31.5482 2.53126
      vertex 71.55 31.5451 2.5191
    endloop
  endfacet
  facet normal -1 0 0
    outer loop
      vertex 71.55 20.9921 12.7512
      vertex 71.55 31.5498 22.4563
      vertex 71.55 20.9921 12.2488
    endloop
  endfacet
  facet normal -1 0 0
    outer loop
      vertex 71.55 31.45 2.45
      vertex 71.55 31.5451 2.5191
      vertex 71.55 31.5405 2.50742
    endloop
  endfacet
  facet normal -1 0 0
    outer loop
      vertex 71.55 20.9291 13.2495
      vertex 71.55 31.5498 22.4563
      vertex 71.55 20.9921 12.7512
    endloop
  endfacet
  facet normal -1 0 0
    outer loop
      vertex 71.55 31.45 2.45
      vertex 71.55 31.5405 2.50742
      vertex 71.55 31.5344 2.49642
    endloop
  endfacet
  facet normal -1 0 0
    outer loop
      vertex 71.55 20.8042 13.7361
      vertex 71.55 31.5498 22.4563
      vertex 71.55 20.9291 13.2495
    endloop
  endfacet
  facet normal -1 0 0
    outer loop
      vertex 71.55 31.45 2.45
      vertex 71.55 31.5344 2.49642
      vertex 71.55 31.5271 2.48626
    endloop
  endfacet
  facet normal -1 0 0
    outer loop
      vertex 71.55 20.6193 14.2031
      vertex 71.55 31.5498 22.4563
      vertex 71.55 20.8042 13.7361
    endloop
  endfacet
  facet normal -1 0 0
    outer loop
      vertex 71.55 31.45 2.45
      vertex 71.55 31.5271 2.48626
      vertex 71.55 31.5185 2.4771
    endloop
  endfacet
  facet normal -1 0 -0
    outer loop
      vertex 71.55 31.45 22.55
      vertex 71.55 31.5498 22.4563
      vertex 71.55 20.6193 14.2031
    endloop
  endfacet
  facet normal -1 0 0
    outer loop
      vertex 71.55 31.45 2.45
      vertex 71.55 31.5185 2.4771
      vertex 71.55 31.5088 2.4691
    endloop
  endfacet
  facet normal -1 0 0
    outer loop
      vertex 71.55 31.5498 22.4563
      vertex 71.55 31.45 22.55
      vertex 71.55 31.5482 22.4687
    endloop
  endfacet
  facet normal -1 0 0
    outer loop
      vertex 71.55 31.45 2.45
      vertex 71.55 31.5088 2.4691
      vertex 71.55 31.4982 2.46237
    endloop
  endfacet
  facet normal -1 0 0
    outer loop
      vertex 71.55 31.5451 22.4809
      vertex 71.55 31.45 22.55
      vertex 71.55 31.5405 22.4926
    endloop
  endfacet
  facet normal -1 0 0
    outer loop
      vertex 71.55 31.45 2.45
      vertex 71.55 31.4982 2.46237
      vertex 71.55 31.4868 2.45702
    endloop
  endfacet
  facet normal -1 0 0
    outer loop
      vertex 71.55 31.5405 22.4926
      vertex 71.55 31.45 22.55
      vertex 71.55 31.5344 22.5036
    endloop
  endfacet
  facet normal -1 0 0
    outer loop
      vertex 71.55 31.45 2.45
      vertex 71.55 31.4868 2.45702
      vertex 71.55 31.4749 2.45314
    endloop
  endfacet
  facet normal -1 0 0
    outer loop
      vertex 71.55 31.5271 22.5137
      vertex 71.55 31.45 22.55
      vertex 71.55 31.5185 22.5229
    endloop
  endfacet
  facet normal -1 0 0
    outer loop
      vertex 71.55 31.45 2.45
      vertex 71.55 31.4749 2.45314
      vertex 71.55 31.4625 2.45079
    endloop
  endfacet
  facet normal -1 0 0
    outer loop
      vertex 71.55 31.5185 22.5229
      vertex 71.55 31.45 22.55
      vertex 71.55 31.5088 22.5309
    endloop
  endfacet
  facet normal -1 -0 0
    outer loop
      vertex 71.55 31.5498 2.54372
      vertex 71.55 31.45 2.45
      vertex 71.55 20.6193 10.7969
    endloop
  endfacet
  facet normal -1 0 0
    outer loop
      vertex 71.55 31.4982 22.5376
      vertex 71.55 31.45 22.55
      vertex 71.55 31.4868 22.543
    endloop
  endfacet
  facet normal -1 0 0
    outer loop
      vertex 71.55 31.4868 22.543
      vertex 71.55 31.45 22.55
      vertex 71.55 31.4749 22.5469
    endloop
  endfacet
  facet normal -1 0 0
    outer loop
      vertex 71.55 31.5498 2.54372
      vertex 71.55 20.9291 11.7505
      vertex 71.55 20.9921 12.2488
    endloop
  endfacet
  facet normal -1 0 0
    outer loop
      vertex 71.55 31.5498 2.54372
      vertex 71.55 20.8042 11.2639
      vertex 71.55 20.9291 11.7505
    endloop
  endfacet
  facet normal -1 0 0
    outer loop
      vertex 71.55 31.5498 2.54372
      vertex 71.55 20.6193 10.7969
      vertex 71.55 20.8042 11.2639
    endloop
  endfacet
  facet normal -1 0 0
    outer loop
      vertex 71.55 31.45 2.45
      vertex 71.55 20.3773 10.3567
      vertex 71.55 20.6193 10.7969
    endloop
  endfacet
  facet normal -1 0 0
    outer loop
      vertex 71.55 31.45 2.45
      vertex 71.55 20.0821 9.9503
      vertex 71.55 20.3773 10.3567
    endloop
  endfacet
  facet normal -1 0 0
    outer loop
      vertex 71.55 31.45 2.45
      vertex 71.55 19.7382 9.58412
      vertex 71.55 20.0821 9.9503
    endloop
  endfacet
  facet normal -1 0 0
    outer loop
      vertex 71.55 31.45 2.45
      vertex 71.55 19.3511 9.26393
      vertex 71.55 19.7382 9.58412
    endloop
  endfacet
  facet normal -1 0 0
    outer loop
      vertex 71.55 31.45 2.45
      vertex 71.55 18.927 8.99477
      vertex 71.55 19.3511 9.26393
    endloop
  endfacet
  facet normal -1 0 0
    outer loop
      vertex 71.55 31.45 2.45
      vertex 71.55 18.4725 8.78089
      vertex 71.55 18.927 8.99477
    endloop
  endfacet
  facet normal -1 0 0
    outer loop
      vertex 71.55 31.45 2.45
      vertex 71.55 17.9948 8.62567
      vertex 71.55 18.4725 8.78089
    endloop
  endfacet
  facet normal -1 0 0
    outer loop
      vertex 71.55 31.45 2.45
      vertex 71.55 17.5013 8.53154
      vertex 71.55 17.9948 8.62567
    endloop
  endfacet
  facet normal -1 0 0
    outer loop
      vertex 71.55 31.45 2.45
      vertex 71.55 17 8.5
      vertex 71.55 17.5013 8.53154
    endloop
  endfacet
  facet normal -1 0 0
    outer loop
      vertex 71.55 2.55 2.45
      vertex 71.55 17 8.5
      vertex 71.55 31.45 2.45
    endloop
  endfacet
  facet normal -1 -0 0
    outer loop
      vertex 71.55 17 8.5
      vertex 71.55 2.55 2.45
      vertex 71.55 16.4987 8.53154
    endloop
  endfacet
  facet normal -1 -0 0
    outer loop
      vertex 71.55 16.4987 8.53154
      vertex 71.55 2.55 2.45
      vertex 71.55 16.0052 8.62567
    endloop
  endfacet
  facet normal -1 -0 0
    outer loop
      vertex 71.55 13.0709 11.7505
      vertex 71.55 2.4502 2.54372
      vertex 71.55 13.0079 12.2488
    endloop
  endfacet
  facet normal -1 -0 0
    outer loop
      vertex 71.55 13.1958 11.2639
      vertex 71.55 2.4502 2.54372
      vertex 71.55 13.0709 11.7505
    endloop
  endfacet
  facet normal -1 -0 0
    outer loop
      vertex 71.55 13.3807 10.7969
      vertex 71.55 2.4502 2.54372
      vertex 71.55 13.1958 11.2639
    endloop
  endfacet
  facet normal -1 0 0
    outer loop
      vertex 71.55 2.4502 2.54372
      vertex 71.55 13.3807 10.7969
      vertex 71.55 2.55 2.45
    endloop
  endfacet
  facet normal -1 -0 0
    outer loop
      vertex 71.55 13.6227 10.3567
      vertex 71.55 2.55 2.45
      vertex 71.55 13.3807 10.7969
    endloop
  endfacet
  facet normal -1 -0 0
    outer loop
      vertex 71.55 13.9179 9.9503
      vertex 71.55 2.55 2.45
      vertex 71.55 13.6227 10.3567
    endloop
  endfacet
  facet normal -1 -0 0
    outer loop
      vertex 71.55 14.2618 9.58412
      vertex 71.55 2.55 2.45
      vertex 71.55 13.9179 9.9503
    endloop
  endfacet
  facet normal -1 -0 0
    outer loop
      vertex 71.55 14.6489 9.26393
      vertex 71.55 2.55 2.45
      vertex 71.55 14.2618 9.58412
    endloop
  endfacet
  facet normal -1 -0 0
    outer loop
      vertex 71.55 15.073 8.99477
      vertex 71.55 2.55 2.45
      vertex 71.55 14.6489 9.26393
    endloop
  endfacet
  facet normal -1 -0 0
    outer loop
      vertex 71.55 15.5275 8.78089
      vertex 71.55 2.55 2.45
      vertex 71.55 15.073 8.99477
    endloop
  endfacet
  facet normal -1 -0 0
    outer loop
      vertex 71.55 16.0052 8.62567
      vertex 71.55 2.55 2.45
      vertex 71.55 15.5275 8.78089
    endloop
  endfacet
  facet normal -1 0 0
    outer loop
      vertex 71.55 31.4749 22.5469
      vertex 71.55 31.45 22.55
      vertex 71.55 31.4625 22.5492
    endloop
  endfacet
  facet normal -1 0 0
    outer loop
      vertex 71.55 31.5088 22.5309
      vertex 71.55 31.45 22.55
      vertex 71.55 31.4982 22.5376
    endloop
  endfacet
  facet normal -1 0 0
    outer loop
      vertex 71.55 31.5344 22.5036
      vertex 71.55 31.45 22.55
      vertex 71.55 31.5271 22.5137
    endloop
  endfacet
  facet normal -1 0 0
    outer loop
      vertex 71.55 31.5482 22.4687
      vertex 71.55 31.45 22.55
      vertex 71.55 31.5451 22.4809
    endloop
  endfacet
  facet normal -1 0 0
    outer loop
      vertex 71.55 20.3773 14.6433
      vertex 71.55 31.45 22.55
      vertex 71.55 20.6193 14.2031
    endloop
  endfacet
  facet normal -1 0 0
    outer loop
      vertex 71.55 20.0821 15.0497
      vertex 71.55 31.45 22.55
      vertex 71.55 20.3773 14.6433
    endloop
  endfacet
  facet normal -1 0 0
    outer loop
      vertex 71.55 19.7382 15.4159
      vertex 71.55 31.45 22.55
      vertex 71.55 20.0821 15.0497
    endloop
  endfacet
  facet normal -1 0 0
    outer loop
      vertex 71.55 19.3511 15.7361
      vertex 71.55 31.45 22.55
      vertex 71.55 19.7382 15.4159
    endloop
  endfacet
  facet normal -1 0 0
    outer loop
      vertex 71.55 18.927 16.0052
      vertex 71.55 31.45 22.55
      vertex 71.55 19.3511 15.7361
    endloop
  endfacet
  facet normal -1 0 0
    outer loop
      vertex 71.55 18.4725 16.2191
      vertex 71.55 31.45 22.55
      vertex 71.55 18.927 16.0052
    endloop
  endfacet
  facet normal -1 0 0
    outer loop
      vertex 71.55 17.9948 16.3743
      vertex 71.55 31.45 22.55
      vertex 71.55 18.4725 16.2191
    endloop
  endfacet
  facet normal -1 0 0
    outer loop
      vertex 71.55 17.5013 16.4685
      vertex 71.55 31.45 22.55
      vertex 71.55 17.9948 16.3743
    endloop
  endfacet
  facet normal -1 0 0
    outer loop
      vertex 71.55 17 16.5
      vertex 71.55 31.45 22.55
      vertex 71.55 17.5013 16.4685
    endloop
  endfacet
  facet normal -1 0 0
    outer loop
      vertex 71.55 2.55 22.55
      vertex 71.55 17 16.5
      vertex 71.55 16.4987 16.4685
    endloop
  endfacet
  facet normal -1 0 0
    outer loop
      vertex 71.55 2.55 22.55
      vertex 71.55 16.4987 16.4685
      vertex 71.55 16.0052 16.3743
    endloop
  endfacet
  facet normal -1 0 0
    outer loop
      vertex 71.55 2.55 22.55
      vertex 71.55 16.0052 16.3743
      vertex 71.55 15.5275 16.2191
    endloop
  endfacet
  facet normal -1 -0 0
    outer loop
      vertex 71.55 13.0079 12.2488
      vertex 71.55 2.4502 2.54372
      vertex 71.55 13.0079 12.7512
    endloop
  endfacet
  facet normal -1 0 0
    outer loop
      vertex 71.55 2.4502 22.4563
      vertex 71.55 13.0079 12.7512
      vertex 71.55 2.4502 2.54372
    endloop
  endfacet
  facet normal -1 0 0
    outer loop
      vertex 71.55 13.0079 12.7512
      vertex 71.55 2.4502 22.4563
      vertex 71.55 13.0709 13.2495
    endloop
  endfacet
  facet normal -1 0 0
    outer loop
      vertex 71.55 13.0709 13.2495
      vertex 71.55 2.4502 22.4563
      vertex 71.55 13.1958 13.7361
    endloop
  endfacet
  facet normal -1 0 0
    outer loop
      vertex 71.55 13.1958 13.7361
      vertex 71.55 2.4502 22.4563
      vertex 71.55 13.3807 14.2031
    endloop
  endfacet
  facet normal -1 0 0
    outer loop
      vertex 71.55 17 16.5
      vertex 71.55 2.55 22.55
      vertex 71.55 31.45 22.55
    endloop
  endfacet
  facet normal -1 0 0
    outer loop
      vertex 71.55 15.073 16.0052
      vertex 71.55 2.55 22.55
      vertex 71.55 15.5275 16.2191
    endloop
  endfacet
  facet normal -1 0 0
    outer loop
      vertex 71.55 14.6489 15.7361
      vertex 71.55 2.55 22.55
      vertex 71.55 15.073 16.0052
    endloop
  endfacet
  facet normal -1 0 0
    outer loop
      vertex 71.55 14.2618 15.4159
      vertex 71.55 2.55 22.55
      vertex 71.55 14.6489 15.7361
    endloop
  endfacet
  facet normal -1 0 0
    outer loop
      vertex 71.55 13.9179 15.0497
      vertex 71.55 2.55 22.55
      vertex 71.55 14.2618 15.4159
    endloop
  endfacet
  facet normal -1 0 -0
    outer loop
      vertex 71.55 2.55 22.55
      vertex 71.55 13.3807 14.2031
      vertex 71.55 2.4502 22.4563
    endloop
  endfacet
  facet normal -1 0 0
    outer loop
      vertex 71.55 2.4502 2.54372
      vertex 71.55 2.55 2.45
      vertex 71.55 2.53747 2.45079
    endloop
  endfacet
  facet normal -1 0 0
    outer loop
      vertex 71.55 13.3807 14.2031
      vertex 71.55 2.55 22.55
      vertex 71.55 13.6227 14.6433
    endloop
  endfacet
  facet normal -1 0 0
    outer loop
      vertex 71.55 2.4502 2.54372
      vertex 71.55 2.53747 2.45079
      vertex 71.55 2.52513 2.45314
    endloop
  endfacet
  facet normal -1 0 0
    outer loop
      vertex 71.55 13.6227 14.6433
      vertex 71.55 2.55 22.55
      vertex 71.55 13.9179 15.0497
    endloop
  endfacet
  facet normal -1 0 0
    outer loop
      vertex 71.55 2.4502 2.54372
      vertex 71.55 2.52513 2.45314
      vertex 71.55 2.51319 2.45702
    endloop
  endfacet
  facet normal -1 0 0
    outer loop
      vertex 71.55 2.55 22.55
      vertex 71.55 2.4502 22.4563
      vertex 71.55 2.53747 22.5492
    endloop
  endfacet
  facet normal -1 0 0
    outer loop
      vertex 71.55 2.4502 2.54372
      vertex 71.55 2.51319 2.45702
      vertex 71.55 2.50183 2.46237
    endloop
  endfacet
  facet normal -1 0 0
    outer loop
      vertex 71.55 2.53747 22.5492
      vertex 71.55 2.4502 22.4563
      vertex 71.55 2.52513 22.5469
    endloop
  endfacet
  facet normal -1 0 0
    outer loop
      vertex 71.55 2.4502 2.54372
      vertex 71.55 2.50183 2.46237
      vertex 71.55 2.49122 2.4691
    endloop
  endfacet
  facet normal -1 0 0
    outer loop
      vertex 71.55 2.52513 22.5469
      vertex 71.55 2.4502 22.4563
      vertex 71.55 2.51319 22.543
    endloop
  endfacet
  facet normal -1 0 0
    outer loop
      vertex 71.55 2.4502 2.54372
      vertex 71.55 2.49122 2.4691
      vertex 71.55 2.48155 2.4771
    endloop
  endfacet
  facet normal -1 0 0
    outer loop
      vertex 71.55 2.51319 22.543
      vertex 71.55 2.4502 22.4563
      vertex 71.55 2.50183 22.5376
    endloop
  endfacet
  facet normal -1 0 0
    outer loop
      vertex 71.55 2.4502 2.54372
      vertex 71.55 2.48155 2.4771
      vertex 71.55 2.47295 2.48626
    endloop
  endfacet
  facet normal -1 0 0
    outer loop
      vertex 71.55 2.50183 22.5376
      vertex 71.55 2.4502 22.4563
      vertex 71.55 2.49122 22.5309
    endloop
  endfacet
  facet normal -1 0 0
    outer loop
      vertex 71.55 2.4502 2.54372
      vertex 71.55 2.47295 2.48626
      vertex 71.55 2.46557 2.49642
    endloop
  endfacet
  facet normal -1 0 0
    outer loop
      vertex 71.55 2.49122 22.5309
      vertex 71.55 2.4502 22.4563
      vertex 71.55 2.48155 22.5229
    endloop
  endfacet
  facet normal -1 0 0
    outer loop
      vertex 71.55 2.4502 2.54372
      vertex 71.55 2.46557 2.49642
      vertex 71.55 2.45952 2.50742
    endloop
  endfacet
  facet normal -1 0 0
    outer loop
      vertex 71.55 2.48155 22.5229
      vertex 71.55 2.4502 22.4563
      vertex 71.55 2.47295 22.5137
    endloop
  endfacet
  facet normal -1 0 0
    outer loop
      vertex 71.55 2.4502 2.54372
      vertex 71.55 2.45952 2.50742
      vertex 71.55 2.4549 2.5191
    endloop
  endfacet
  facet normal -1 0 0
    outer loop
      vertex 71.55 2.47295 22.5137
      vertex 71.55 2.4502 22.4563
      vertex 71.55 2.46557 22.5036
    endloop
  endfacet
  facet normal -1 0 0
    outer loop
      vertex 71.55 2.4502 2.54372
      vertex 71.55 2.4549 2.5191
      vertex 71.55 2.45177 2.53126
    endloop
  endfacet
  facet normal -1 0 0
    outer loop
      vertex 71.55 2.46557 22.5036
      vertex 71.55 2.4502 22.4563
      vertex 71.55 2.45952 22.4926
    endloop
  endfacet
  facet normal -1 0 0
    outer loop
      vertex 71.55 2.45952 22.4926
      vertex 71.55 2.4502 22.4563
      vertex 71.55 2.4549 22.4809
    endloop
  endfacet
  facet normal -1 0 0
    outer loop
      vertex 71.55 2.4549 22.4809
      vertex 71.55 2.4502 22.4563
      vertex 71.55 2.45177 22.4687
    endloop
  endfacet
  facet normal 0 -0.535852 0.844312
    outer loop
      vertex 71.55 19.3511 9.26393
      vertex 73.55 18.927 8.99477
      vertex 73.55 19.3511 9.26393
    endloop
  endfacet
  facet normal 0 -0.535852 0.844312
    outer loop
      vertex 73.55 18.927 8.99477
      vertex 71.55 19.3511 9.26393
      vertex 71.55 18.927 8.99477
    endloop
  endfacet
  facet normal 0 -0.929775 -0.368127
    outer loop
      vertex 71.55 20.8042 13.7361
      vertex 73.55 20.6193 14.2031
      vertex 71.55 20.6193 14.2031
    endloop
  endfacet
  facet normal 0 -0.929775 -0.368127
    outer loop
      vertex 73.55 20.6193 14.2031
      vertex 71.55 20.8042 13.7361
      vertex 73.55 20.8042 13.7361
    endloop
  endfacet
  facet normal 0 0.308992 -0.951065
    outer loop
      vertex 71.55 15.5275 16.2191
      vertex 73.55 16.0052 16.3743
      vertex 73.55 15.5275 16.2191
    endloop
  endfacet
  facet normal 0 0.308992 -0.951065
    outer loop
      vertex 73.55 16.0052 16.3743
      vertex 71.55 15.5275 16.2191
      vertex 71.55 16.0052 16.3743
    endloop
  endfacet
  facet normal -0 0.309028 0.951053
    outer loop
      vertex 71.55 16.0052 8.62567
      vertex 73.55 15.5275 8.78089
      vertex 73.55 16.0052 8.62567
    endloop
  endfacet
  facet normal 0 0.309028 0.951053
    outer loop
      vertex 73.55 15.5275 8.78089
      vertex 71.55 16.0052 8.62567
      vertex 71.55 15.5275 8.78089
    endloop
  endfacet
  facet normal 0 -0.63738 -0.770549
    outer loop
      vertex 71.55 19.3511 15.7361
      vertex 73.55 19.7382 15.4159
      vertex 73.55 19.3511 15.7361
    endloop
  endfacet
  facet normal -0 -0.63738 -0.770549
    outer loop
      vertex 73.55 19.7382 15.4159
      vertex 71.55 19.3511 15.7361
      vertex 71.55 19.7382 15.4159
    endloop
  endfacet
  facet normal 0 0.0627129 -0.998032
    outer loop
      vertex 71.55 16.4987 16.4685
      vertex 73.55 17 16.5
      vertex 73.55 16.4987 16.4685
    endloop
  endfacet
  facet normal 0 0.0627129 -0.998032
    outer loop
      vertex 73.55 17 16.5
      vertex 71.55 16.4987 16.4685
      vertex 71.55 17 16.5
    endloop
  endfacet
  facet normal 0 -0.992102 -0.125431
    outer loop
      vertex 71.55 20.9921 12.7512
      vertex 73.55 20.9291 13.2495
      vertex 71.55 20.9291 13.2495
    endloop
  endfacet
  facet normal 0 -0.992102 -0.125431
    outer loop
      vertex 73.55 20.9291 13.2495
      vertex 71.55 20.9921 12.7512
      vertex 73.55 20.9921 12.7512
    endloop
  endfacet
  facet normal 0 -0.0627923 0.998027
    outer loop
      vertex 71.55 17.5013 8.53154
      vertex 73.55 17 8.5
      vertex 73.55 17.5013 8.53154
    endloop
  endfacet
  facet normal 0 -0.0627923 0.998027
    outer loop
      vertex 73.55 17 8.5
      vertex 71.55 17.5013 8.53154
      vertex 71.55 17 8.5
    endloop
  endfacet
  facet normal -0 0.187362 0.982291
    outer loop
      vertex 71.55 16.4987 8.53154
      vertex 73.55 16.0052 8.62567
      vertex 73.55 16.4987 8.53154
    endloop
  endfacet
  facet normal 0 0.187362 0.982291
    outer loop
      vertex 73.55 16.0052 8.62567
      vertex 71.55 16.4987 8.53154
      vertex 71.55 16.0052 8.62567
    endloop
  endfacet
  facet normal 0 -0.876308 -0.481751
    outer loop
      vertex 71.55 20.6193 14.2031
      vertex 73.55 20.3773 14.6433
      vertex 71.55 20.3773 14.6433
    endloop
  endfacet
  facet normal 0 -0.876308 -0.481751
    outer loop
      vertex 73.55 20.3773 14.6433
      vertex 71.55 20.6193 14.2031
      vertex 73.55 20.6193 14.2031
    endloop
  endfacet
  facet normal 0 0.968601 -0.24862
    outer loop
      vertex 73.55 13.0709 13.2495
      vertex 71.55 13.1958 13.7361
      vertex 73.55 13.1958 13.7361
    endloop
  endfacet
  facet normal 0 0.968601 -0.24862
    outer loop
      vertex 71.55 13.1958 13.7361
      vertex 73.55 13.0709 13.2495
      vertex 71.55 13.0709 13.2495
    endloop
  endfacet
  facet normal 0 -0.308992 -0.951065
    outer loop
      vertex 71.55 17.9948 16.3743
      vertex 73.55 18.4725 16.2191
      vertex 73.55 17.9948 16.3743
    endloop
  endfacet
  facet normal -0 -0.308992 -0.951065
    outer loop
      vertex 73.55 18.4725 16.2191
      vertex 71.55 17.9948 16.3743
      vertex 71.55 18.4725 16.2191
    endloop
  endfacet
  facet normal 0 -0.992102 0.125431
    outer loop
      vertex 71.55 20.9291 11.7505
      vertex 73.55 20.9921 12.2488
      vertex 71.55 20.9921 12.2488
    endloop
  endfacet
  facet normal 0 -0.992102 0.125431
    outer loop
      vertex 73.55 20.9921 12.2488
      vertex 71.55 20.9291 11.7505
      vertex 73.55 20.9291 11.7505
    endloop
  endfacet
  facet normal 0 -0.309028 0.951053
    outer loop
      vertex 71.55 18.4725 8.78089
      vertex 73.55 17.9948 8.62567
      vertex 73.55 18.4725 8.78089
    endloop
  endfacet
  facet normal 0 -0.309028 0.951053
    outer loop
      vertex 73.55 17.9948 8.62567
      vertex 71.55 18.4725 8.78089
      vertex 71.55 17.9948 8.62567
    endloop
  endfacet
  facet normal 0 0.876308 -0.481751
    outer loop
      vertex 73.55 13.3807 14.2031
      vertex 71.55 13.6227 14.6433
      vertex 73.55 13.6227 14.6433
    endloop
  endfacet
  facet normal 0 0.876308 -0.481751
    outer loop
      vertex 71.55 13.6227 14.6433
      vertex 73.55 13.3807 14.2031
      vertex 71.55 13.3807 14.2031
    endloop
  endfacet
  facet normal -0 0.637368 0.770559
    outer loop
      vertex 71.55 14.6489 9.26393
      vertex 73.55 14.2618 9.58412
      vertex 73.55 14.6489 9.26393
    endloop
  endfacet
  facet normal 0 0.637368 0.770559
    outer loop
      vertex 73.55 14.2618 9.58412
      vertex 71.55 14.6489 9.26393
      vertex 71.55 14.2618 9.58412
    endloop
  endfacet
  facet normal 0 0.80908 0.587698
    outer loop
      vertex 73.55 13.9179 9.9503
      vertex 71.55 13.6227 10.3567
      vertex 73.55 13.6227 10.3567
    endloop
  endfacet
  facet normal 0 0.80908 0.587698
    outer loop
      vertex 71.55 13.6227 10.3567
      vertex 73.55 13.9179 9.9503
      vertex 71.55 13.9179 9.9503
    endloop
  endfacet
  facet normal 0 0.968601 0.24862
    outer loop
      vertex 73.55 13.1958 11.2639
      vertex 71.55 13.0709 11.7505
      vertex 73.55 13.0709 11.7505
    endloop
  endfacet
  facet normal 0 0.968601 0.24862
    outer loop
      vertex 71.55 13.0709 11.7505
      vertex 73.55 13.1958 11.2639
      vertex 71.55 13.1958 11.2639
    endloop
  endfacet
  facet normal 0 0.876308 0.481751
    outer loop
      vertex 73.55 13.6227 10.3567
      vertex 71.55 13.3807 10.7969
      vertex 73.55 13.3807 10.7969
    endloop
  endfacet
  facet normal 0 0.876308 0.481751
    outer loop
      vertex 71.55 13.3807 10.7969
      vertex 73.55 13.6227 10.3567
      vertex 71.55 13.6227 10.3567
    endloop
  endfacet
  facet normal 0 -0.425826 -0.904805
    outer loop
      vertex 71.55 18.4725 16.2191
      vertex 73.55 18.927 16.0052
      vertex 73.55 18.4725 16.2191
    endloop
  endfacet
  facet normal -0 -0.425826 -0.904805
    outer loop
      vertex 73.55 18.927 16.0052
      vertex 71.55 18.4725 16.2191
      vertex 71.55 18.927 16.0052
    endloop
  endfacet
  facet normal 0 1 -0
    outer loop
      vertex 73.55 13.0079 12.2488
      vertex 71.55 13.0079 12.7512
      vertex 73.55 13.0079 12.7512
    endloop
  endfacet
  facet normal 0 1 0
    outer loop
      vertex 71.55 13.0079 12.7512
      vertex 73.55 13.0079 12.2488
      vertex 71.55 13.0079 12.2488
    endloop
  endfacet
  facet normal 0 0.425826 -0.904805
    outer loop
      vertex 71.55 15.073 16.0052
      vertex 73.55 15.5275 16.2191
      vertex 73.55 15.073 16.0052
    endloop
  endfacet
  facet normal 0 0.425826 -0.904805
    outer loop
      vertex 73.55 15.5275 16.2191
      vertex 71.55 15.073 16.0052
      vertex 71.55 15.5275 16.2191
    endloop
  endfacet
  facet normal 0 -1 0
    outer loop
      vertex 71.55 20.9921 12.2488
      vertex 73.55 20.9921 12.7512
      vertex 71.55 20.9921 12.7512
    endloop
  endfacet
  facet normal 0 -1 -0
    outer loop
      vertex 73.55 20.9921 12.7512
      vertex 71.55 20.9921 12.2488
      vertex 73.55 20.9921 12.2488
    endloop
  endfacet
  facet normal 0 0.63738 -0.770549
    outer loop
      vertex 71.55 14.2618 15.4159
      vertex 73.55 14.6489 15.7361
      vertex 73.55 14.2618 15.4159
    endloop
  endfacet
  facet normal 0 0.63738 -0.770549
    outer loop
      vertex 73.55 14.6489 15.7361
      vertex 71.55 14.2618 15.4159
      vertex 71.55 14.6489 15.7361
    endloop
  endfacet
  facet normal 0 -0.187496 -0.982265
    outer loop
      vertex 71.55 17.5013 16.4685
      vertex 73.55 17.9948 16.3743
      vertex 73.55 17.5013 16.4685
    endloop
  endfacet
  facet normal -0 -0.187496 -0.982265
    outer loop
      vertex 73.55 17.9948 16.3743
      vertex 71.55 17.5013 16.4685
      vertex 71.55 17.9948 16.3743
    endloop
  endfacet
  facet normal 0 -0.728935 0.684583
    outer loop
      vertex 71.55 19.7382 9.58412
      vertex 73.55 20.0821 9.9503
      vertex 71.55 20.0821 9.9503
    endloop
  endfacet
  facet normal 0 -0.728935 0.684583
    outer loop
      vertex 73.55 20.0821 9.9503
      vertex 71.55 19.7382 9.58412
      vertex 73.55 19.7382 9.58412
    endloop
  endfacet
  facet normal 0 0.535767 -0.844366
    outer loop
      vertex 71.55 14.6489 15.7361
      vertex 73.55 15.073 16.0052
      vertex 73.55 14.6489 15.7361
    endloop
  endfacet
  facet normal 0 0.535767 -0.844366
    outer loop
      vertex 73.55 15.073 16.0052
      vertex 71.55 14.6489 15.7361
      vertex 71.55 15.073 16.0052
    endloop
  endfacet
  facet normal 0 -0.968601 0.24862
    outer loop
      vertex 71.55 20.8042 11.2639
      vertex 73.55 20.9291 11.7505
      vertex 71.55 20.9291 11.7505
    endloop
  endfacet
  facet normal 0 -0.968601 0.24862
    outer loop
      vertex 73.55 20.9291 11.7505
      vertex 71.55 20.8042 11.2639
      vertex 73.55 20.8042 11.2639
    endloop
  endfacet
  facet normal 0 0.187496 -0.982265
    outer loop
      vertex 71.55 16.0052 16.3743
      vertex 73.55 16.4987 16.4685
      vertex 73.55 16.0052 16.3743
    endloop
  endfacet
  facet normal 0 0.187496 -0.982265
    outer loop
      vertex 73.55 16.4987 16.4685
      vertex 71.55 16.0052 16.3743
      vertex 71.55 16.4987 16.4685
    endloop
  endfacet
  facet normal -0 0.0627923 0.998027
    outer loop
      vertex 71.55 17 8.5
      vertex 73.55 16.4987 8.53154
      vertex 73.55 17 8.5
    endloop
  endfacet
  facet normal 0 0.0627923 0.998027
    outer loop
      vertex 73.55 16.4987 8.53154
      vertex 71.55 17 8.5
      vertex 71.55 16.4987 8.53154
    endloop
  endfacet
  facet normal 0 0.80908 -0.587698
    outer loop
      vertex 73.55 13.6227 14.6433
      vertex 71.55 13.9179 15.0497
      vertex 73.55 13.9179 15.0497
    endloop
  endfacet
  facet normal 0 0.80908 -0.587698
    outer loop
      vertex 71.55 13.9179 15.0497
      vertex 73.55 13.6227 14.6433
      vertex 71.55 13.6227 14.6433
    endloop
  endfacet
  facet normal -0 0.425793 0.904821
    outer loop
      vertex 71.55 15.5275 8.78089
      vertex 73.55 15.073 8.99477
      vertex 73.55 15.5275 8.78089
    endloop
  endfacet
  facet normal 0 0.425793 0.904821
    outer loop
      vertex 73.55 15.073 8.99477
      vertex 71.55 15.5275 8.78089
      vertex 71.55 15.073 8.99477
    endloop
  endfacet
  facet normal 0 -0.968601 -0.24862
    outer loop
      vertex 71.55 20.9291 13.2495
      vertex 73.55 20.8042 13.7361
      vertex 71.55 20.8042 13.7361
    endloop
  endfacet
  facet normal 0 -0.968601 -0.24862
    outer loop
      vertex 73.55 20.8042 13.7361
      vertex 71.55 20.9291 13.2495
      vertex 73.55 20.9291 13.2495
    endloop
  endfacet
  facet normal 0 -0.187362 0.982291
    outer loop
      vertex 71.55 17.9948 8.62567
      vertex 73.55 17.5013 8.53154
      vertex 73.55 17.9948 8.62567
    endloop
  endfacet
  facet normal 0 -0.187362 0.982291
    outer loop
      vertex 73.55 17.5013 8.53154
      vertex 71.55 17.9948 8.62567
      vertex 71.55 17.5013 8.53154
    endloop
  endfacet
  facet normal 0 -0.535767 -0.844366
    outer loop
      vertex 71.55 18.927 16.0052
      vertex 73.55 19.3511 15.7361
      vertex 73.55 18.927 16.0052
    endloop
  endfacet
  facet normal -0 -0.535767 -0.844366
    outer loop
      vertex 73.55 19.3511 15.7361
      vertex 71.55 18.927 16.0052
      vertex 71.55 19.3511 15.7361
    endloop
  endfacet
  facet normal 0 -0.637368 0.770559
    outer loop
      vertex 71.55 19.7382 9.58412
      vertex 73.55 19.3511 9.26393
      vertex 73.55 19.7382 9.58412
    endloop
  endfacet
  facet normal 0 -0.637368 0.770559
    outer loop
      vertex 73.55 19.3511 9.26393
      vertex 71.55 19.7382 9.58412
      vertex 71.55 19.3511 9.26393
    endloop
  endfacet
  facet normal 0 -0.80908 0.587698
    outer loop
      vertex 71.55 20.0821 9.9503
      vertex 73.55 20.3773 10.3567
      vertex 71.55 20.3773 10.3567
    endloop
  endfacet
  facet normal 0 -0.80908 0.587698
    outer loop
      vertex 73.55 20.3773 10.3567
      vertex 71.55 20.0821 9.9503
      vertex 73.55 20.0821 9.9503
    endloop
  endfacet
  facet normal 0 -0.728953 -0.684563
    outer loop
      vertex 71.55 20.0821 15.0497
      vertex 73.55 19.7382 15.4159
      vertex 71.55 19.7382 15.4159
    endloop
  endfacet
  facet normal 0 -0.728953 -0.684563
    outer loop
      vertex 73.55 19.7382 15.4159
      vertex 71.55 20.0821 15.0497
      vertex 73.55 20.0821 15.0497
    endloop
  endfacet
  facet normal 0 -0.0627129 -0.998032
    outer loop
      vertex 71.55 17 16.5
      vertex 73.55 17.5013 16.4685
      vertex 73.55 17 16.5
    endloop
  endfacet
  facet normal -0 -0.0627129 -0.998032
    outer loop
      vertex 73.55 17.5013 16.4685
      vertex 71.55 17 16.5
      vertex 71.55 17.5013 16.4685
    endloop
  endfacet
  facet normal 0 0.929775 -0.368127
    outer loop
      vertex 73.55 13.1958 13.7361
      vertex 71.55 13.3807 14.2031
      vertex 73.55 13.3807 14.2031
    endloop
  endfacet
  facet normal 0 0.929775 -0.368127
    outer loop
      vertex 71.55 13.3807 14.2031
      vertex 73.55 13.1958 13.7361
      vertex 71.55 13.1958 13.7361
    endloop
  endfacet
  facet normal 0 0.992102 0.125431
    outer loop
      vertex 73.55 13.0709 11.7505
      vertex 71.55 13.0079 12.2488
      vertex 73.55 13.0079 12.2488
    endloop
  endfacet
  facet normal 0 0.992102 0.125431
    outer loop
      vertex 71.55 13.0079 12.2488
      vertex 73.55 13.0709 11.7505
      vertex 71.55 13.0709 11.7505
    endloop
  endfacet
  facet normal 0 0.929775 0.368127
    outer loop
      vertex 73.55 13.3807 10.7969
      vertex 71.55 13.1958 11.2639
      vertex 73.55 13.1958 11.2639
    endloop
  endfacet
  facet normal 0 0.929775 0.368127
    outer loop
      vertex 71.55 13.1958 11.2639
      vertex 73.55 13.3807 10.7969
      vertex 71.55 13.3807 10.7969
    endloop
  endfacet
  facet normal 0 -0.425793 0.904821
    outer loop
      vertex 71.55 18.927 8.99477
      vertex 73.55 18.4725 8.78089
      vertex 73.55 18.927 8.99477
    endloop
  endfacet
  facet normal 0 -0.425793 0.904821
    outer loop
      vertex 73.55 18.4725 8.78089
      vertex 71.55 18.927 8.99477
      vertex 71.55 18.4725 8.78089
    endloop
  endfacet
  facet normal 0 0.992102 -0.125431
    outer loop
      vertex 73.55 13.0079 12.7512
      vertex 71.55 13.0709 13.2495
      vertex 73.55 13.0709 13.2495
    endloop
  endfacet
  facet normal 0 0.992102 -0.125431
    outer loop
      vertex 71.55 13.0709 13.2495
      vertex 73.55 13.0079 12.7512
      vertex 71.55 13.0079 12.7512
    endloop
  endfacet
  facet normal 0 -0.876308 0.481751
    outer loop
      vertex 71.55 20.3773 10.3567
      vertex 73.55 20.6193 10.7969
      vertex 71.55 20.6193 10.7969
    endloop
  endfacet
  facet normal 0 -0.876308 0.481751
    outer loop
      vertex 73.55 20.6193 10.7969
      vertex 71.55 20.3773 10.3567
      vertex 73.55 20.3773 10.3567
    endloop
  endfacet
  facet normal 0 0.728953 -0.684563
    outer loop
      vertex 73.55 13.9179 15.0497
      vertex 71.55 14.2618 15.4159
      vertex 73.55 14.2618 15.4159
    endloop
  endfacet
  facet normal 0 0.728953 -0.684563
    outer loop
      vertex 71.55 14.2618 15.4159
      vertex 73.55 13.9179 15.0497
      vertex 71.55 13.9179 15.0497
    endloop
  endfacet
  facet normal 0 -0.80908 -0.587698
    outer loop
      vertex 71.55 20.3773 14.6433
      vertex 73.55 20.0821 15.0497
      vertex 71.55 20.0821 15.0497
    endloop
  endfacet
  facet normal 0 -0.80908 -0.587698
    outer loop
      vertex 73.55 20.0821 15.0497
      vertex 71.55 20.3773 14.6433
      vertex 73.55 20.3773 14.6433
    endloop
  endfacet
  facet normal -0 0.535852 0.844312
    outer loop
      vertex 71.55 15.073 8.99477
      vertex 73.55 14.6489 9.26393
      vertex 73.55 15.073 8.99477
    endloop
  endfacet
  facet normal 0 0.535852 0.844312
    outer loop
      vertex 73.55 14.6489 9.26393
      vertex 71.55 15.073 8.99477
      vertex 71.55 14.6489 9.26393
    endloop
  endfacet
  facet normal 0 0.728935 0.684583
    outer loop
      vertex 73.55 14.2618 9.58412
      vertex 71.55 13.9179 9.9503
      vertex 73.55 13.9179 9.9503
    endloop
  endfacet
  facet normal 0 0.728935 0.684583
    outer loop
      vertex 71.55 13.9179 9.9503
      vertex 73.55 14.2618 9.58412
      vertex 71.55 14.2618 9.58412
    endloop
  endfacet
  facet normal 0 -0.929775 0.368127
    outer loop
      vertex 71.55 20.6193 10.7969
      vertex 73.55 20.8042 11.2639
      vertex 71.55 20.8042 11.2639
    endloop
  endfacet
  facet normal 0 -0.929775 0.368127
    outer loop
      vertex 73.55 20.8042 11.2639
      vertex 71.55 20.6193 10.7969
      vertex 73.55 20.6193 10.7969
    endloop
  endfacet
endsolid OpenSCAD_Model
