solid OpenSCAD_Model
  facet normal 0 -0.187076 -0.982346
    outer loop
      vertex 3.45 3.52513 3.45314
      vertex 6.45 3.53747 3.45079
      vertex 6.45 3.52513 3.45314
    endloop
  endfacet
  facet normal -0 -0.187076 -0.982346
    outer loop
      vertex 6.45 3.53747 3.45079
      vertex 3.45 3.52513 3.45314
      vertex 3.45 3.53747 3.45079
    endloop
  endfacet
  facet normal -0 0.534293 0.845299
    outer loop
      vertex 3.45 43.7088 22.5309
      vertex 6.45 43.6982 22.5376
      vertex 6.45 43.7088 22.5309
    endloop
  endfacet
  facet normal 0 0.534293 0.845299
    outer loop
      vertex 6.45 43.6982 22.5376
      vertex 3.45 43.7088 22.5309
      vertex 3.45 43.6982 22.5376
    endloop
  endfacet
  facet normal 0 -0.31049 0.950577
    outer loop
      vertex 3.45 3.52513 22.5469
      vertex 6.45 3.51319 22.543
      vertex 6.45 3.52513 22.5469
    endloop
  endfacet
  facet normal 0 -0.31049 0.950577
    outer loop
      vertex 6.45 3.51319 22.543
      vertex 3.45 3.52513 22.5469
      vertex 3.45 3.51319 22.543
    endloop
  endfacet
  facet normal 0 0.309989 -0.95074
    outer loop
      vertex 3.45 43.6749 3.45314
      vertex 6.45 43.6868 3.45702
      vertex 6.45 43.6749 3.45314
    endloop
  endfacet
  facet normal 0 0.309989 -0.95074
    outer loop
      vertex 6.45 43.6868 3.45702
      vertex 3.45 43.6749 3.45314
      vertex 3.45 43.6868 3.45702
    endloop
  endfacet
  facet normal -0 0.311432 0.950268
    outer loop
      vertex 3.45 43.6868 22.543
      vertex 6.45 43.6749 22.5469
      vertex 6.45 43.6868 22.543
    endloop
  endfacet
  facet normal 0 0.311432 0.950268
    outer loop
      vertex 6.45 43.6749 22.5469
      vertex 3.45 43.6868 22.543
      vertex 3.45 43.6749 22.5469
    endloop
  endfacet
  facet normal 0 0.969201 0.246272
    outer loop
      vertex 6.45 43.7482 22.4687
      vertex 3.45 43.7451 22.4809
      vertex 6.45 43.7451 22.4809
    endloop
  endfacet
  facet normal 0 0.969201 0.246272
    outer loop
      vertex 3.45 43.7451 22.4809
      vertex 6.45 43.7482 22.4687
      vertex 3.45 43.7482 22.4687
    endloop
  endfacet
  facet normal 0 0 -1
    outer loop
      vertex 3.45 3.55 3.45
      vertex 6.45 43.65 3.45
      vertex 6.45 3.55 3.45
    endloop
  endfacet
  facet normal -0 0 -1
    outer loop
      vertex 6.45 43.65 3.45
      vertex 3.45 3.55 3.45
      vertex 3.45 43.65 3.45
    endloop
  endfacet
  facet normal 0 1 -0
    outer loop
      vertex 6.45 43.7498 3.54372
      vertex 3.45 43.7498 22.4563
      vertex 6.45 43.7498 22.4563
    endloop
  endfacet
  facet normal 0 1 0
    outer loop
      vertex 3.45 43.7498 22.4563
      vertex 6.45 43.7498 3.54372
      vertex 3.45 43.7498 3.54372
    endloop
  endfacet
  facet normal 0 -0.425759 -0.904837
    outer loop
      vertex 3.45 3.50182 3.46237
      vertex 6.45 3.51319 3.45702
      vertex 6.45 3.50182 3.46237
    endloop
  endfacet
  facet normal -0 -0.425759 -0.904837
    outer loop
      vertex 6.45 3.51319 3.45702
      vertex 3.45 3.50182 3.46237
      vertex 3.45 3.51319 3.45702
    endloop
  endfacet
  facet normal 0 0.991856 -0.127365
    outer loop
      vertex 6.45 43.7482 3.53126
      vertex 3.45 43.7498 3.54372
      vertex 6.45 43.7498 3.54372
    endloop
  endfacet
  facet normal 0 0.991856 -0.127365
    outer loop
      vertex 3.45 43.7498 3.54372
      vertex 6.45 43.7482 3.53126
      vertex 3.45 43.7482 3.53126
    endloop
  endfacet
  facet normal 0 0.969007 -0.247033
    outer loop
      vertex 6.45 43.7451 3.5191
      vertex 3.45 43.7482 3.53126
      vertex 6.45 43.7482 3.53126
    endloop
  endfacet
  facet normal 0 0.969007 -0.247033
    outer loop
      vertex 3.45 43.7482 3.53126
      vertex 6.45 43.7451 3.5191
      vertex 3.45 43.7451 3.5191
    endloop
  endfacet
  facet normal 0 -0.0629237 -0.998018
    outer loop
      vertex 3.45 3.53747 3.45079
      vertex 6.45 3.55 3.45
      vertex 6.45 3.53747 3.45079
    endloop
  endfacet
  facet normal -0 -0.0629237 -0.998018
    outer loop
      vertex 6.45 3.55 3.45
      vertex 3.45 3.53747 3.45079
      vertex 3.45 3.55 3.45
    endloop
  endfacet
  facet normal -0 0.0638693 0.997958
    outer loop
      vertex 3.45 43.6625 22.5492
      vertex 6.45 43.65 22.55
      vertex 6.45 43.6625 22.5492
    endloop
  endfacet
  facet normal 0 0.0638693 0.997958
    outer loop
      vertex 6.45 43.65 22.55
      vertex 3.45 43.6625 22.5492
      vertex 3.45 43.65 22.55
    endloop
  endfacet
  facet normal 0 0.730527 0.682884
    outer loop
      vertex 6.45 43.7271 22.5137
      vertex 3.45 43.7185 22.5229
      vertex 6.45 43.7185 22.5229
    endloop
  endfacet
  facet normal 0 0.730527 0.682884
    outer loop
      vertex 3.45 43.7185 22.5229
      vertex 6.45 43.7271 22.5137
      vertex 3.45 43.7271 22.5137
    endloop
  endfacet
  facet normal 0 -1 0
    outer loop
      vertex 3.45 3.4502 3.54372
      vertex 6.45 3.4502 22.4563
      vertex 3.45 3.4502 22.4563
    endloop
  endfacet
  facet normal 0 -1 -0
    outer loop
      vertex 6.45 3.4502 22.4563
      vertex 3.45 3.4502 3.54372
      vertex 6.45 3.4502 3.54372
    endloop
  endfacet
  facet normal 0 0.636265 -0.771471
    outer loop
      vertex 3.45 43.7088 3.4691
      vertex 6.45 43.7185 3.4771
      vertex 6.45 43.7088 3.4691
    endloop
  endfacet
  facet normal 0 0.636265 -0.771471
    outer loop
      vertex 6.45 43.7185 3.4771
      vertex 3.45 43.7088 3.4691
      vertex 3.45 43.7185 3.4771
    endloop
  endfacet
  facet normal 0 0.424841 -0.905268
    outer loop
      vertex 3.45 43.6868 3.45702
      vertex 6.45 43.6982 3.46237
      vertex 6.45 43.6868 3.45702
    endloop
  endfacet
  facet normal 0 0.424841 -0.905268
    outer loop
      vertex 6.45 43.6982 3.46237
      vertex 3.45 43.6868 3.45702
      vertex 3.45 43.6982 3.46237
    endloop
  endfacet
  facet normal 0 -0.30905 -0.951046
    outer loop
      vertex 3.45 3.51319 3.45702
      vertex 6.45 3.52513 3.45314
      vertex 6.45 3.51319 3.45702
    endloop
  endfacet
  facet normal -0 -0.30905 -0.951046
    outer loop
      vertex 6.45 3.52513 3.45314
      vertex 3.45 3.51319 3.45702
      vertex 3.45 3.52513 3.45314
    endloop
  endfacet
  facet normal 0 -0.968625 -0.248529
    outer loop
      vertex 3.45 3.45489 3.5191
      vertex 6.45 3.45177 3.53126
      vertex 3.45 3.45177 3.53126
    endloop
  endfacet
  facet normal 0 -0.968625 -0.248529
    outer loop
      vertex 6.45 3.45177 3.53126
      vertex 3.45 3.45489 3.5191
      vertex 6.45 3.45489 3.5191
    endloop
  endfacet
  facet normal 0 0.874532 -0.484968
    outer loop
      vertex 6.45 43.7344 3.49642
      vertex 3.45 43.7405 3.50742
      vertex 6.45 43.7405 3.50742
    endloop
  endfacet
  facet normal 0 0.874532 -0.484968
    outer loop
      vertex 3.45 43.7405 3.50742
      vertex 6.45 43.7344 3.49642
      vertex 3.45 43.7344 3.49642
    endloop
  endfacet
  facet normal -1 0 0
    outer loop
      vertex 3.45 43.65 3.45
      vertex 3.45 43.7498 3.54372
      vertex 3.45 43.7482 3.53126
    endloop
  endfacet
  facet normal -1 0 0
    outer loop
      vertex 3.45 43.7498 3.54372
      vertex 3.45 26.3446 12.8273
      vertex 3.45 43.7498 22.4563
    endloop
  endfacet
  facet normal -1 0 0
    outer loop
      vertex 3.45 43.65 3.45
      vertex 3.45 43.7482 3.53126
      vertex 3.45 43.7451 3.5191
    endloop
  endfacet
  facet normal -1 0 0
    outer loop
      vertex 3.45 26.3446 13.1727
      vertex 3.45 43.7498 22.4563
      vertex 3.45 26.3446 12.8273
    endloop
  endfacet
  facet normal -1 0 0
    outer loop
      vertex 3.45 43.65 3.45
      vertex 3.45 43.7451 3.5191
      vertex 3.45 43.7405 3.50742
    endloop
  endfacet
  facet normal -1 0 0
    outer loop
      vertex 3.45 26.3013 12.4847
      vertex 3.45 43.7498 3.54372
      vertex 3.45 43.65 3.45
    endloop
  endfacet
  facet normal -1 0 0
    outer loop
      vertex 3.45 43.65 3.45
      vertex 3.45 43.7405 3.50742
      vertex 3.45 43.7344 3.49642
    endloop
  endfacet
  facet normal -1 0 0
    outer loop
      vertex 3.45 26.3013 13.5153
      vertex 3.45 43.7498 22.4563
      vertex 3.45 26.3446 13.1727
    endloop
  endfacet
  facet normal -1 0 0
    outer loop
      vertex 3.45 43.65 3.45
      vertex 3.45 43.7344 3.49642
      vertex 3.45 43.7271 3.48626
    endloop
  endfacet
  facet normal -1 0 0
    outer loop
      vertex 3.45 43.7451 22.4809
      vertex 3.45 43.65 22.55
      vertex 3.45 43.7405 22.4926
    endloop
  endfacet
  facet normal -1 0 0
    outer loop
      vertex 3.45 43.65 3.45
      vertex 3.45 43.7271 3.48626
      vertex 3.45 43.7185 3.4771
    endloop
  endfacet
  facet normal -1 0 0
    outer loop
      vertex 3.45 43.7405 22.4926
      vertex 3.45 43.65 22.55
      vertex 3.45 43.7344 22.5036
    endloop
  endfacet
  facet normal -1 0 0
    outer loop
      vertex 3.45 43.65 3.45
      vertex 3.45 43.7185 3.4771
      vertex 3.45 43.7088 3.4691
    endloop
  endfacet
  facet normal -1 0 0
    outer loop
      vertex 3.45 43.7344 22.5036
      vertex 3.45 43.65 22.55
      vertex 3.45 43.7271 22.5137
    endloop
  endfacet
  facet normal -1 0 0
    outer loop
      vertex 3.45 43.65 3.45
      vertex 3.45 43.7088 3.4691
      vertex 3.45 43.6982 3.46237
    endloop
  endfacet
  facet normal -1 0 0
    outer loop
      vertex 3.45 43.7271 22.5137
      vertex 3.45 43.65 22.55
      vertex 3.45 43.7185 22.5229
    endloop
  endfacet
  facet normal -1 0 0
    outer loop
      vertex 3.45 43.65 3.45
      vertex 3.45 43.6982 3.46237
      vertex 3.45 43.6868 3.45702
    endloop
  endfacet
  facet normal -1 0 0
    outer loop
      vertex 3.45 43.7185 22.5229
      vertex 3.45 43.65 22.55
      vertex 3.45 43.7088 22.5309
    endloop
  endfacet
  facet normal -1 0 0
    outer loop
      vertex 3.45 43.65 3.45
      vertex 3.45 43.6868 3.45702
      vertex 3.45 43.6749 3.45314
    endloop
  endfacet
  facet normal -1 0 0
    outer loop
      vertex 3.45 43.7088 22.5309
      vertex 3.45 43.65 22.55
      vertex 3.45 43.6982 22.5376
    endloop
  endfacet
  facet normal -1 0 0
    outer loop
      vertex 3.45 43.65 3.45
      vertex 3.45 43.6749 3.45314
      vertex 3.45 43.6625 3.45079
    endloop
  endfacet
  facet normal -1 0 0
    outer loop
      vertex 3.45 43.6982 22.5376
      vertex 3.45 43.65 22.55
      vertex 3.45 43.6868 22.543
    endloop
  endfacet
  facet normal -1 0 0
    outer loop
      vertex 3.45 43.6868 22.543
      vertex 3.45 43.65 22.55
      vertex 3.45 43.6749 22.5469
    endloop
  endfacet
  facet normal -1 0 0
    outer loop
      vertex 3.45 43.6749 22.5469
      vertex 3.45 43.65 22.55
      vertex 3.45 43.6625 22.5492
    endloop
  endfacet
  facet normal -1 0 0
    outer loop
      vertex 3.45 43.7498 22.4563
      vertex 3.45 43.65 22.55
      vertex 3.45 43.7482 22.4687
    endloop
  endfacet
  facet normal -1 0 0
    outer loop
      vertex 3.45 43.7498 3.54372
      vertex 3.45 26.3013 12.4847
      vertex 3.45 26.3446 12.8273
    endloop
  endfacet
  facet normal -1 0 0
    outer loop
      vertex 3.45 43.65 3.45
      vertex 3.45 26.2154 12.1502
      vertex 3.45 26.3013 12.4847
    endloop
  endfacet
  facet normal -1 0 0
    outer loop
      vertex 3.45 43.65 3.45
      vertex 3.45 26.0883 11.8291
      vertex 3.45 26.2154 12.1502
    endloop
  endfacet
  facet normal -1 0 0
    outer loop
      vertex 3.45 43.65 3.45
      vertex 3.45 25.9219 11.5265
      vertex 3.45 26.0883 11.8291
    endloop
  endfacet
  facet normal -1 0 0
    outer loop
      vertex 3.45 43.65 3.45
      vertex 3.45 25.7189 11.2471
      vertex 3.45 25.9219 11.5265
    endloop
  endfacet
  facet normal -1 0 0
    outer loop
      vertex 3.45 43.65 3.45
      vertex 3.45 25.4825 10.9953
      vertex 3.45 25.7189 11.2471
    endloop
  endfacet
  facet normal -1 0 0
    outer loop
      vertex 3.45 43.65 3.45
      vertex 3.45 25.2164 10.7752
      vertex 3.45 25.4825 10.9953
    endloop
  endfacet
  facet normal -1 0 0
    outer loop
      vertex 3.45 43.65 3.45
      vertex 3.45 24.9248 10.5902
      vertex 3.45 25.2164 10.7752
    endloop
  endfacet
  facet normal -1 0 0
    outer loop
      vertex 3.45 43.65 3.45
      vertex 3.45 24.6123 10.4431
      vertex 3.45 24.9248 10.5902
    endloop
  endfacet
  facet normal -1 0 0
    outer loop
      vertex 3.45 43.65 3.45
      vertex 3.45 24.2839 10.3364
      vertex 3.45 24.6123 10.4431
    endloop
  endfacet
  facet normal -1 0 0
    outer loop
      vertex 3.45 43.65 3.45
      vertex 3.45 23.9447 10.2717
      vertex 3.45 24.2839 10.3364
    endloop
  endfacet
  facet normal -1 0 0
    outer loop
      vertex 3.45 43.65 3.45
      vertex 3.45 23.6 10.25
      vertex 3.45 23.9447 10.2717
    endloop
  endfacet
  facet normal -1 0 0
    outer loop
      vertex 3.45 3.55 3.45
      vertex 3.45 23.6 10.25
      vertex 3.45 43.65 3.45
    endloop
  endfacet
  facet normal -1 -0 0
    outer loop
      vertex 3.45 23.6 10.25
      vertex 3.45 3.55 3.45
      vertex 3.45 23.2553 10.2717
    endloop
  endfacet
  facet normal -1 -0 0
    outer loop
      vertex 3.45 23.2553 10.2717
      vertex 3.45 3.55 3.45
      vertex 3.45 22.9161 10.3364
    endloop
  endfacet
  facet normal -1 -0 0
    outer loop
      vertex 3.45 20.8987 12.4847
      vertex 3.45 3.4502 3.54372
      vertex 3.45 20.8554 12.8273
    endloop
  endfacet
  facet normal -1 0 0
    outer loop
      vertex 3.45 3.4502 3.54372
      vertex 3.45 20.8987 12.4847
      vertex 3.45 3.55 3.45
    endloop
  endfacet
  facet normal -1 -0 0
    outer loop
      vertex 3.45 20.9846 12.1502
      vertex 3.45 3.55 3.45
      vertex 3.45 20.8987 12.4847
    endloop
  endfacet
  facet normal -1 -0 0
    outer loop
      vertex 3.45 21.1117 11.8291
      vertex 3.45 3.55 3.45
      vertex 3.45 20.9846 12.1502
    endloop
  endfacet
  facet normal -1 -0 0
    outer loop
      vertex 3.45 21.2781 11.5265
      vertex 3.45 3.55 3.45
      vertex 3.45 21.1117 11.8291
    endloop
  endfacet
  facet normal -1 -0 0
    outer loop
      vertex 3.45 21.4811 11.2471
      vertex 3.45 3.55 3.45
      vertex 3.45 21.2781 11.5265
    endloop
  endfacet
  facet normal -1 -0 0
    outer loop
      vertex 3.45 21.7175 10.9953
      vertex 3.45 3.55 3.45
      vertex 3.45 21.4811 11.2471
    endloop
  endfacet
  facet normal -1 -0 0
    outer loop
      vertex 3.45 21.9836 10.7752
      vertex 3.45 3.55 3.45
      vertex 3.45 21.7175 10.9953
    endloop
  endfacet
  facet normal -1 -0 0
    outer loop
      vertex 3.45 22.2752 10.5902
      vertex 3.45 3.55 3.45
      vertex 3.45 21.9836 10.7752
    endloop
  endfacet
  facet normal -1 -0 0
    outer loop
      vertex 3.45 22.5877 10.4431
      vertex 3.45 3.55 3.45
      vertex 3.45 22.2752 10.5902
    endloop
  endfacet
  facet normal -1 -0 0
    outer loop
      vertex 3.45 22.9161 10.3364
      vertex 3.45 3.55 3.45
      vertex 3.45 22.5877 10.4431
    endloop
  endfacet
  facet normal -1 0 0
    outer loop
      vertex 3.45 43.7482 22.4687
      vertex 3.45 43.65 22.55
      vertex 3.45 43.7451 22.4809
    endloop
  endfacet
  facet normal -1 -0 0
    outer loop
      vertex 3.45 43.7498 22.4563
      vertex 3.45 26.3013 13.5153
      vertex 3.45 43.65 22.55
    endloop
  endfacet
  facet normal -1 0 0
    outer loop
      vertex 3.45 26.2154 13.8498
      vertex 3.45 43.65 22.55
      vertex 3.45 26.3013 13.5153
    endloop
  endfacet
  facet normal -1 0 0
    outer loop
      vertex 3.45 26.0883 14.1709
      vertex 3.45 43.65 22.55
      vertex 3.45 26.2154 13.8498
    endloop
  endfacet
  facet normal -1 0 0
    outer loop
      vertex 3.45 25.9219 14.4735
      vertex 3.45 43.65 22.55
      vertex 3.45 26.0883 14.1709
    endloop
  endfacet
  facet normal -1 0 0
    outer loop
      vertex 3.45 25.7189 14.7529
      vertex 3.45 43.65 22.55
      vertex 3.45 25.9219 14.4735
    endloop
  endfacet
  facet normal -1 0 0
    outer loop
      vertex 3.45 25.4825 15.0047
      vertex 3.45 43.65 22.55
      vertex 3.45 25.7189 14.7529
    endloop
  endfacet
  facet normal -1 0 0
    outer loop
      vertex 3.45 25.2164 15.2248
      vertex 3.45 43.65 22.55
      vertex 3.45 25.4825 15.0047
    endloop
  endfacet
  facet normal -1 0 0
    outer loop
      vertex 3.45 24.9248 15.4098
      vertex 3.45 43.65 22.55
      vertex 3.45 25.2164 15.2248
    endloop
  endfacet
  facet normal -1 0 0
    outer loop
      vertex 3.45 24.6123 15.5569
      vertex 3.45 43.65 22.55
      vertex 3.45 24.9248 15.4098
    endloop
  endfacet
  facet normal -1 0 0
    outer loop
      vertex 3.45 24.2839 15.6636
      vertex 3.45 43.65 22.55
      vertex 3.45 24.6123 15.5569
    endloop
  endfacet
  facet normal -1 0 0
    outer loop
      vertex 3.45 23.9447 15.7283
      vertex 3.45 43.65 22.55
      vertex 3.45 24.2839 15.6636
    endloop
  endfacet
  facet normal -1 0 0
    outer loop
      vertex 3.45 23.6 15.75
      vertex 3.45 43.65 22.55
      vertex 3.45 23.9447 15.7283
    endloop
  endfacet
  facet normal -1 0 0
    outer loop
      vertex 3.45 3.55 22.55
      vertex 3.45 23.6 15.75
      vertex 3.45 23.2553 15.7283
    endloop
  endfacet
  facet normal -1 0 0
    outer loop
      vertex 3.45 3.55 22.55
      vertex 3.45 23.2553 15.7283
      vertex 3.45 22.9161 15.6636
    endloop
  endfacet
  facet normal -1 0 0
    outer loop
      vertex 3.45 3.55 22.55
      vertex 3.45 22.9161 15.6636
      vertex 3.45 22.5877 15.5569
    endloop
  endfacet
  facet normal -1 -0 0
    outer loop
      vertex 3.45 20.8554 12.8273
      vertex 3.45 3.4502 3.54372
      vertex 3.45 20.8554 13.1727
    endloop
  endfacet
  facet normal -1 0 0
    outer loop
      vertex 3.45 3.4502 22.4563
      vertex 3.45 20.8554 13.1727
      vertex 3.45 3.4502 3.54372
    endloop
  endfacet
  facet normal -1 0 0
    outer loop
      vertex 3.45 20.8554 13.1727
      vertex 3.45 3.4502 22.4563
      vertex 3.45 20.8987 13.5153
    endloop
  endfacet
  facet normal -1 0 -0
    outer loop
      vertex 3.45 3.55 22.55
      vertex 3.45 20.8987 13.5153
      vertex 3.45 3.4502 22.4563
    endloop
  endfacet
  facet normal -1 0 0
    outer loop
      vertex 3.45 20.8987 13.5153
      vertex 3.45 3.55 22.55
      vertex 3.45 20.9846 13.8498
    endloop
  endfacet
  facet normal -1 0 0
    outer loop
      vertex 3.45 20.9846 13.8498
      vertex 3.45 3.55 22.55
      vertex 3.45 21.1117 14.1709
    endloop
  endfacet
  facet normal -1 0 0
    outer loop
      vertex 3.45 21.1117 14.1709
      vertex 3.45 3.55 22.55
      vertex 3.45 21.2781 14.4735
    endloop
  endfacet
  facet normal -1 0 0
    outer loop
      vertex 3.45 23.6 15.75
      vertex 3.45 3.55 22.55
      vertex 3.45 43.65 22.55
    endloop
  endfacet
  facet normal -1 0 0
    outer loop
      vertex 3.45 22.2752 15.4098
      vertex 3.45 3.55 22.55
      vertex 3.45 22.5877 15.5569
    endloop
  endfacet
  facet normal -1 0 0
    outer loop
      vertex 3.45 21.9836 15.2248
      vertex 3.45 3.55 22.55
      vertex 3.45 22.2752 15.4098
    endloop
  endfacet
  facet normal -1 0 0
    outer loop
      vertex 3.45 21.2781 14.4735
      vertex 3.45 3.55 22.55
      vertex 3.45 21.4811 14.7529
    endloop
  endfacet
  facet normal -1 0 0
    outer loop
      vertex 3.45 3.4502 3.54372
      vertex 3.45 3.55 3.45
      vertex 3.45 3.53747 3.45079
    endloop
  endfacet
  facet normal -1 0 0
    outer loop
      vertex 3.45 21.4811 14.7529
      vertex 3.45 3.55 22.55
      vertex 3.45 21.7175 15.0047
    endloop
  endfacet
  facet normal -1 0 0
    outer loop
      vertex 3.45 3.4502 3.54372
      vertex 3.45 3.53747 3.45079
      vertex 3.45 3.52513 3.45314
    endloop
  endfacet
  facet normal -1 0 0
    outer loop
      vertex 3.45 21.7175 15.0047
      vertex 3.45 3.55 22.55
      vertex 3.45 21.9836 15.2248
    endloop
  endfacet
  facet normal -1 0 0
    outer loop
      vertex 3.45 3.4502 3.54372
      vertex 3.45 3.52513 3.45314
      vertex 3.45 3.51319 3.45702
    endloop
  endfacet
  facet normal -1 0 0
    outer loop
      vertex 3.45 3.55 22.55
      vertex 3.45 3.4502 22.4563
      vertex 3.45 3.53747 22.5492
    endloop
  endfacet
  facet normal -1 0 0
    outer loop
      vertex 3.45 3.4502 3.54372
      vertex 3.45 3.51319 3.45702
      vertex 3.45 3.50182 3.46237
    endloop
  endfacet
  facet normal -1 0 0
    outer loop
      vertex 3.45 3.53747 22.5492
      vertex 3.45 3.4502 22.4563
      vertex 3.45 3.52513 22.5469
    endloop
  endfacet
  facet normal -1 0 0
    outer loop
      vertex 3.45 3.4502 3.54372
      vertex 3.45 3.50182 3.46237
      vertex 3.45 3.49122 3.4691
    endloop
  endfacet
  facet normal -1 0 0
    outer loop
      vertex 3.45 3.52513 22.5469
      vertex 3.45 3.4502 22.4563
      vertex 3.45 3.51319 22.543
    endloop
  endfacet
  facet normal -1 0 0
    outer loop
      vertex 3.45 3.4502 3.54372
      vertex 3.45 3.49122 3.4691
      vertex 3.45 3.48155 3.4771
    endloop
  endfacet
  facet normal -1 0 0
    outer loop
      vertex 3.45 3.51319 22.543
      vertex 3.45 3.4502 22.4563
      vertex 3.45 3.50182 22.5376
    endloop
  endfacet
  facet normal -1 0 0
    outer loop
      vertex 3.45 3.4502 3.54372
      vertex 3.45 3.48155 3.4771
      vertex 3.45 3.47295 3.48626
    endloop
  endfacet
  facet normal -1 0 0
    outer loop
      vertex 3.45 3.50182 22.5376
      vertex 3.45 3.4502 22.4563
      vertex 3.45 3.49122 22.5309
    endloop
  endfacet
  facet normal -1 0 0
    outer loop
      vertex 3.45 3.4502 3.54372
      vertex 3.45 3.47295 3.48626
      vertex 3.45 3.46557 3.49642
    endloop
  endfacet
  facet normal -1 0 0
    outer loop
      vertex 3.45 3.49122 22.5309
      vertex 3.45 3.4502 22.4563
      vertex 3.45 3.48155 22.5229
    endloop
  endfacet
  facet normal -1 0 0
    outer loop
      vertex 3.45 3.4502 3.54372
      vertex 3.45 3.46557 3.49642
      vertex 3.45 3.45952 3.50742
    endloop
  endfacet
  facet normal -1 0 0
    outer loop
      vertex 3.45 3.48155 22.5229
      vertex 3.45 3.4502 22.4563
      vertex 3.45 3.47295 22.5137
    endloop
  endfacet
  facet normal -1 0 0
    outer loop
      vertex 3.45 3.4502 3.54372
      vertex 3.45 3.45952 3.50742
      vertex 3.45 3.45489 3.5191
    endloop
  endfacet
  facet normal -1 0 0
    outer loop
      vertex 3.45 3.47295 22.5137
      vertex 3.45 3.4502 22.4563
      vertex 3.45 3.46557 22.5036
    endloop
  endfacet
  facet normal -1 0 0
    outer loop
      vertex 3.45 3.4502 3.54372
      vertex 3.45 3.45489 3.5191
      vertex 3.45 3.45177 3.53126
    endloop
  endfacet
  facet normal -1 0 0
    outer loop
      vertex 3.45 3.46557 22.5036
      vertex 3.45 3.4502 22.4563
      vertex 3.45 3.45952 22.4926
    endloop
  endfacet
  facet normal -1 0 0
    outer loop
      vertex 3.45 3.45952 22.4926
      vertex 3.45 3.4502 22.4563
      vertex 3.45 3.45489 22.4809
    endloop
  endfacet
  facet normal -1 0 0
    outer loop
      vertex 3.45 3.45489 22.4809
      vertex 3.45 3.4502 22.4563
      vertex 3.45 3.45177 22.4687
    endloop
  endfacet
  facet normal 0 0.810468 0.585783
    outer loop
      vertex 6.45 43.7344 22.5036
      vertex 3.45 43.7271 22.5137
      vertex 6.45 43.7271 22.5137
    endloop
  endfacet
  facet normal 0 0.810468 0.585783
    outer loop
      vertex 3.45 43.7271 22.5137
      vertex 6.45 43.7344 22.5036
      vertex 3.45 43.7344 22.5036
    endloop
  endfacet
  facet normal 0 -0.429008 0.903301
    outer loop
      vertex 3.45 3.51319 22.543
      vertex 6.45 3.50182 22.5376
      vertex 6.45 3.51319 22.543
    endloop
  endfacet
  facet normal 0 -0.429008 0.903301
    outer loop
      vertex 6.45 3.50182 22.5376
      vertex 3.45 3.51319 22.543
      vertex 3.45 3.50182 22.5376
    endloop
  endfacet
  facet normal 0 -0.637437 -0.770502
    outer loop
      vertex 3.45 3.48155 3.4771
      vertex 6.45 3.49122 3.4691
      vertex 6.45 3.48155 3.4771
    endloop
  endfacet
  facet normal -0 -0.637437 -0.770502
    outer loop
      vertex 6.45 3.49122 3.4691
      vertex 3.45 3.48155 3.4771
      vertex 3.45 3.49122 3.4691
    endloop
  endfacet
  facet normal -0 0.636265 0.771471
    outer loop
      vertex 3.45 43.7185 22.5229
      vertex 6.45 43.7088 22.5309
      vertex 6.45 43.7185 22.5229
    endloop
  endfacet
  facet normal 0 0.636265 0.771471
    outer loop
      vertex 6.45 43.7088 22.5309
      vertex 3.45 43.7185 22.5229
      vertex 3.45 43.7088 22.5309
    endloop
  endfacet
  facet normal -0 0.428086 0.903738
    outer loop
      vertex 3.45 43.6982 22.5376
      vertex 6.45 43.6868 22.543
      vertex 6.45 43.6982 22.5376
    endloop
  endfacet
  facet normal 0 0.428086 0.903738
    outer loop
      vertex 6.45 43.6868 22.543
      vertex 3.45 43.6982 22.5376
      vertex 3.45 43.6868 22.543
    endloop
  endfacet
  facet normal -0 0 1
    outer loop
      vertex 3.45 43.65 22.55
      vertex 6.45 3.55 22.55
      vertex 6.45 43.65 22.55
    endloop
  endfacet
  facet normal 0 0 1
    outer loop
      vertex 6.45 3.55 22.55
      vertex 3.45 43.65 22.55
      vertex 3.45 3.55 22.55
    endloop
  endfacet
  facet normal 0 0.535999 -0.844219
    outer loop
      vertex 3.45 43.6982 3.46237
      vertex 6.45 43.7088 3.4691
      vertex 6.45 43.6982 3.46237
    endloop
  endfacet
  facet normal 0 0.535999 -0.844219
    outer loop
      vertex 6.45 43.7088 3.4691
      vertex 3.45 43.6982 3.46237
      vertex 3.45 43.7088 3.4691
    endloop
  endfacet
  facet normal 0 -0.729041 -0.68447
    outer loop
      vertex 3.45 3.48155 3.4771
      vertex 6.45 3.47295 3.48626
      vertex 3.45 3.47295 3.48626
    endloop
  endfacet
  facet normal 0 -0.729041 -0.68447
    outer loop
      vertex 6.45 3.47295 3.48626
      vertex 3.45 3.48155 3.4771
      vertex 6.45 3.48155 3.4771
    endloop
  endfacet
  facet normal 0 0.729041 -0.68447
    outer loop
      vertex 6.45 43.7185 3.4771
      vertex 3.45 43.7271 3.48626
      vertex 6.45 43.7271 3.48626
    endloop
  endfacet
  facet normal 0 0.729041 -0.68447
    outer loop
      vertex 3.45 43.7271 3.48626
      vertex 6.45 43.7185 3.4771
      vertex 3.45 43.7185 3.4771
    endloop
  endfacet
  facet normal 0 0.81211 -0.583504
    outer loop
      vertex 6.45 43.7271 3.48626
      vertex 3.45 43.7344 3.49642
      vertex 6.45 43.7344 3.49642
    endloop
  endfacet
  facet normal 0 0.81211 -0.583504
    outer loop
      vertex 3.45 43.7344 3.49642
      vertex 6.45 43.7271 3.48626
      vertex 3.45 43.7271 3.48626
    endloop
  endfacet
  facet normal 0 -0.876216 -0.481919
    outer loop
      vertex 3.45 3.46557 3.49642
      vertex 6.45 3.45952 3.50742
      vertex 3.45 3.45952 3.50742
    endloop
  endfacet
  facet normal 0 -0.876216 -0.481919
    outer loop
      vertex 6.45 3.45952 3.50742
      vertex 3.45 3.46557 3.49642
      vertex 6.45 3.46557 3.49642
    endloop
  endfacet
  facet normal 0 -0.063717 0.997968
    outer loop
      vertex 3.45 3.55 22.55
      vertex 6.45 3.53747 22.5492
      vertex 6.45 3.55 22.55
    endloop
  endfacet
  facet normal 0 -0.063717 0.997968
    outer loop
      vertex 6.45 3.53747 22.5492
      vertex 3.45 3.55 22.55
      vertex 3.45 3.53747 22.5492
    endloop
  endfacet
  facet normal 0 -0.534293 0.845299
    outer loop
      vertex 3.45 3.50182 22.5376
      vertex 6.45 3.49122 22.5309
      vertex 6.45 3.50182 22.5376
    endloop
  endfacet
  facet normal 0 -0.534293 0.845299
    outer loop
      vertex 6.45 3.49122 22.5309
      vertex 3.45 3.50182 22.5376
      vertex 3.45 3.49122 22.5309
    endloop
  endfacet
  facet normal 0 -0.637437 0.770502
    outer loop
      vertex 3.45 3.49122 22.5309
      vertex 6.45 3.48155 22.5229
      vertex 6.45 3.49122 22.5309
    endloop
  endfacet
  facet normal 0 -0.637437 0.770502
    outer loop
      vertex 6.45 3.48155 22.5229
      vertex 3.45 3.49122 22.5309
      vertex 3.45 3.48155 22.5229
    endloop
  endfacet
  facet normal 0 -0.18323 0.98307
    outer loop
      vertex 3.45 3.53747 22.5492
      vertex 6.45 3.52513 22.5469
      vertex 6.45 3.53747 22.5492
    endloop
  endfacet
  facet normal 0 -0.18323 0.98307
    outer loop
      vertex 6.45 3.52513 22.5469
      vertex 3.45 3.53747 22.5492
      vertex 3.45 3.52513 22.5469
    endloop
  endfacet
  facet normal 0 0.930655 0.365898
    outer loop
      vertex 6.45 43.7451 22.4809
      vertex 3.45 43.7405 22.4926
      vertex 6.45 43.7405 22.4926
    endloop
  endfacet
  facet normal 0 0.930655 0.365898
    outer loop
      vertex 3.45 43.7405 22.4926
      vertex 6.45 43.7451 22.4809
      vertex 3.45 43.7451 22.4809
    endloop
  endfacet
  facet normal 0 0.991778 0.127971
    outer loop
      vertex 6.45 43.7498 22.4563
      vertex 3.45 43.7482 22.4687
      vertex 6.45 43.7482 22.4687
    endloop
  endfacet
  facet normal 0 0.991778 0.127971
    outer loop
      vertex 3.45 43.7482 22.4687
      vertex 6.45 43.7498 22.4563
      vertex 3.45 43.7498 22.4563
    endloop
  endfacet
  facet normal 0 -0.876216 0.481919
    outer loop
      vertex 3.45 3.45952 22.4926
      vertex 6.45 3.46557 22.5036
      vertex 3.45 3.46557 22.5036
    endloop
  endfacet
  facet normal 0 -0.876216 0.481919
    outer loop
      vertex 6.45 3.46557 22.5036
      vertex 3.45 3.45952 22.4926
      vertex 6.45 3.45952 22.4926
    endloop
  endfacet
  facet normal 0 -0.99208 0.12561
    outer loop
      vertex 3.45 3.4502 22.4563
      vertex 6.45 3.45177 22.4687
      vertex 3.45 3.45177 22.4687
    endloop
  endfacet
  facet normal 0 -0.99208 0.12561
    outer loop
      vertex 6.45 3.45177 22.4687
      vertex 3.45 3.4502 22.4563
      vertex 6.45 3.4502 22.4563
    endloop
  endfacet
  facet normal 0 -0.535999 -0.844219
    outer loop
      vertex 3.45 3.49122 3.4691
      vertex 6.45 3.50182 3.46237
      vertex 6.45 3.49122 3.4691
    endloop
  endfacet
  facet normal -0 -0.535999 -0.844219
    outer loop
      vertex 6.45 3.50182 3.46237
      vertex 3.45 3.49122 3.4691
      vertex 3.45 3.50182 3.46237
    endloop
  endfacet
  facet normal 0 0.874532 0.484968
    outer loop
      vertex 6.45 43.7405 22.4926
      vertex 3.45 43.7344 22.5036
      vertex 6.45 43.7344 22.5036
    endloop
  endfacet
  facet normal 0 0.874532 0.484968
    outer loop
      vertex 3.45 43.7344 22.5036
      vertex 6.45 43.7405 22.4926
      vertex 3.45 43.7405 22.4926
    endloop
  endfacet
  facet normal 0 -0.929625 -0.368507
    outer loop
      vertex 3.45 3.45952 3.50742
      vertex 6.45 3.45489 3.5191
      vertex 3.45 3.45489 3.5191
    endloop
  endfacet
  facet normal 0 -0.929625 -0.368507
    outer loop
      vertex 6.45 3.45489 3.5191
      vertex 3.45 3.45952 3.50742
      vertex 6.45 3.45952 3.50742
    endloop
  endfacet
  facet normal 0 0.0630742 -0.998009
    outer loop
      vertex 3.45 43.65 3.45
      vertex 6.45 43.6625 3.45079
      vertex 6.45 43.65 3.45
    endloop
  endfacet
  facet normal 0 0.0630742 -0.998009
    outer loop
      vertex 6.45 43.6625 3.45079
      vertex 3.45 43.65 3.45
      vertex 3.45 43.6625 3.45079
    endloop
  endfacet
  facet normal 0 0.186202 -0.982512
    outer loop
      vertex 3.45 43.6625 3.45079
      vertex 6.45 43.6749 3.45314
      vertex 6.45 43.6625 3.45079
    endloop
  endfacet
  facet normal 0 0.186202 -0.982512
    outer loop
      vertex 6.45 43.6749 3.45314
      vertex 3.45 43.6625 3.45079
      vertex 3.45 43.6749 3.45314
    endloop
  endfacet
  facet normal 0 -0.730527 0.682884
    outer loop
      vertex 3.45 3.47295 22.5137
      vertex 6.45 3.48155 22.5229
      vertex 3.45 3.48155 22.5229
    endloop
  endfacet
  facet normal 0 -0.730527 0.682884
    outer loop
      vertex 6.45 3.48155 22.5229
      vertex 3.45 3.47295 22.5137
      vertex 6.45 3.47295 22.5137
    endloop
  endfacet
  facet normal 0 -0.80908 -0.587698
    outer loop
      vertex 3.45 3.47295 3.48626
      vertex 6.45 3.46557 3.49642
      vertex 3.45 3.46557 3.49642
    endloop
  endfacet
  facet normal 0 -0.80908 -0.587698
    outer loop
      vertex 6.45 3.46557 3.49642
      vertex 3.45 3.47295 3.48626
      vertex 6.45 3.47295 3.48626
    endloop
  endfacet
  facet normal 0 0.930441 -0.366441
    outer loop
      vertex 6.45 43.7405 3.50742
      vertex 3.45 43.7451 3.5191
      vertex 6.45 43.7451 3.5191
    endloop
  endfacet
  facet normal 0 0.930441 -0.366441
    outer loop
      vertex 3.45 43.7451 3.5191
      vertex 6.45 43.7405 3.50742
      vertex 3.45 43.7405 3.50742
    endloop
  endfacet
  facet normal -0 0.182373 0.983229
    outer loop
      vertex 3.45 43.6749 22.5469
      vertex 6.45 43.6625 22.5492
      vertex 6.45 43.6749 22.5469
    endloop
  endfacet
  facet normal 0 0.182373 0.983229
    outer loop
      vertex 6.45 43.6625 22.5492
      vertex 3.45 43.6749 22.5469
      vertex 3.45 43.6625 22.5492
    endloop
  endfacet
  facet normal 0 -0.96882 0.247764
    outer loop
      vertex 3.45 3.45177 22.4687
      vertex 6.45 3.45489 22.4809
      vertex 3.45 3.45489 22.4809
    endloop
  endfacet
  facet normal 0 -0.96882 0.247764
    outer loop
      vertex 6.45 3.45489 22.4809
      vertex 3.45 3.45177 22.4687
      vertex 6.45 3.45177 22.4687
    endloop
  endfacet
  facet normal 0 -0.80742 0.589977
    outer loop
      vertex 3.45 3.46557 22.5036
      vertex 6.45 3.47295 22.5137
      vertex 3.45 3.47295 22.5137
    endloop
  endfacet
  facet normal 0 -0.80742 0.589977
    outer loop
      vertex 6.45 3.47295 22.5137
      vertex 3.45 3.46557 22.5036
      vertex 6.45 3.46557 22.5036
    endloop
  endfacet
  facet normal 0 -0.929841 0.367963
    outer loop
      vertex 3.45 3.45489 22.4809
      vertex 6.45 3.45952 22.4926
      vertex 3.45 3.45952 22.4926
    endloop
  endfacet
  facet normal 0 -0.929841 0.367963
    outer loop
      vertex 6.45 3.45952 22.4926
      vertex 3.45 3.45489 22.4809
      vertex 6.45 3.45489 22.4809
    endloop
  endfacet
  facet normal 0 -0.992155 -0.125015
    outer loop
      vertex 3.45 3.45177 3.53126
      vertex 6.45 3.4502 3.54372
      vertex 3.45 3.4502 3.54372
    endloop
  endfacet
  facet normal 0 -0.992155 -0.125015
    outer loop
      vertex 6.45 3.4502 3.54372
      vertex 3.45 3.45177 3.53126
      vertex 6.45 3.45177 3.53126
    endloop
  endfacet
  facet normal 1 0 0
    outer loop
      vertex 6.45 43.65 22.55
      vertex 6.45 43.7498 22.4563
      vertex 6.45 43.7482 22.4687
    endloop
  endfacet
  facet normal 1 0 0
    outer loop
      vertex 6.45 43.7498 22.4563
      vertex 6.45 26.3446 13.1727
      vertex 6.45 43.7498 3.54372
    endloop
  endfacet
  facet normal 1 0 0
    outer loop
      vertex 6.45 43.65 22.55
      vertex 6.45 43.7482 22.4687
      vertex 6.45 43.7451 22.4809
    endloop
  endfacet
  facet normal 1 -0 0
    outer loop
      vertex 6.45 26.3446 12.8273
      vertex 6.45 43.7498 3.54372
      vertex 6.45 26.3446 13.1727
    endloop
  endfacet
  facet normal 1 0 0
    outer loop
      vertex 6.45 43.65 22.55
      vertex 6.45 43.7451 22.4809
      vertex 6.45 43.7405 22.4926
    endloop
  endfacet
  facet normal 1 0 0
    outer loop
      vertex 6.45 26.3013 13.5153
      vertex 6.45 43.7498 22.4563
      vertex 6.45 43.65 22.55
    endloop
  endfacet
  facet normal 1 0 0
    outer loop
      vertex 6.45 43.65 22.55
      vertex 6.45 43.7405 22.4926
      vertex 6.45 43.7344 22.5036
    endloop
  endfacet
  facet normal 1 -0 0
    outer loop
      vertex 6.45 26.3013 12.4847
      vertex 6.45 43.7498 3.54372
      vertex 6.45 26.3446 12.8273
    endloop
  endfacet
  facet normal 1 0 0
    outer loop
      vertex 6.45 43.65 22.55
      vertex 6.45 43.7344 22.5036
      vertex 6.45 43.7271 22.5137
    endloop
  endfacet
  facet normal 1 0 0
    outer loop
      vertex 6.45 43.7451 3.5191
      vertex 6.45 43.65 3.45
      vertex 6.45 43.7405 3.50742
    endloop
  endfacet
  facet normal 1 0 0
    outer loop
      vertex 6.45 43.65 22.55
      vertex 6.45 43.7271 22.5137
      vertex 6.45 43.7185 22.5229
    endloop
  endfacet
  facet normal 1 0 0
    outer loop
      vertex 6.45 43.7405 3.50742
      vertex 6.45 43.65 3.45
      vertex 6.45 43.7344 3.49642
    endloop
  endfacet
  facet normal 1 0 0
    outer loop
      vertex 6.45 43.65 22.55
      vertex 6.45 43.7185 22.5229
      vertex 6.45 43.7088 22.5309
    endloop
  endfacet
  facet normal 1 0 0
    outer loop
      vertex 6.45 43.7344 3.49642
      vertex 6.45 43.65 3.45
      vertex 6.45 43.7271 3.48626
    endloop
  endfacet
  facet normal 1 0 0
    outer loop
      vertex 6.45 43.65 22.55
      vertex 6.45 43.7088 22.5309
      vertex 6.45 43.6982 22.5376
    endloop
  endfacet
  facet normal 1 0 0
    outer loop
      vertex 6.45 43.7271 3.48626
      vertex 6.45 43.65 3.45
      vertex 6.45 43.7185 3.4771
    endloop
  endfacet
  facet normal 1 0 0
    outer loop
      vertex 6.45 43.65 22.55
      vertex 6.45 43.6982 22.5376
      vertex 6.45 43.6868 22.543
    endloop
  endfacet
  facet normal 1 0 0
    outer loop
      vertex 6.45 43.7185 3.4771
      vertex 6.45 43.65 3.45
      vertex 6.45 43.7088 3.4691
    endloop
  endfacet
  facet normal 1 0 0
    outer loop
      vertex 6.45 43.65 22.55
      vertex 6.45 43.6868 22.543
      vertex 6.45 43.6749 22.5469
    endloop
  endfacet
  facet normal 1 0 0
    outer loop
      vertex 6.45 43.7088 3.4691
      vertex 6.45 43.65 3.45
      vertex 6.45 43.6982 3.46237
    endloop
  endfacet
  facet normal 1 0 0
    outer loop
      vertex 6.45 43.65 22.55
      vertex 6.45 43.6749 22.5469
      vertex 6.45 43.6625 22.5492
    endloop
  endfacet
  facet normal 1 0 0
    outer loop
      vertex 6.45 43.6982 3.46237
      vertex 6.45 43.65 3.45
      vertex 6.45 43.6868 3.45702
    endloop
  endfacet
  facet normal 1 0 0
    outer loop
      vertex 6.45 43.6868 3.45702
      vertex 6.45 43.65 3.45
      vertex 6.45 43.6749 3.45314
    endloop
  endfacet
  facet normal 1 0 0
    outer loop
      vertex 6.45 43.6749 3.45314
      vertex 6.45 43.65 3.45
      vertex 6.45 43.6625 3.45079
    endloop
  endfacet
  facet normal 1 0 0
    outer loop
      vertex 6.45 43.7498 3.54372
      vertex 6.45 43.65 3.45
      vertex 6.45 43.7482 3.53126
    endloop
  endfacet
  facet normal 1 0 0
    outer loop
      vertex 6.45 43.7498 22.4563
      vertex 6.45 26.3013 13.5153
      vertex 6.45 26.3446 13.1727
    endloop
  endfacet
  facet normal 1 0 0
    outer loop
      vertex 6.45 43.65 22.55
      vertex 6.45 26.2154 13.8498
      vertex 6.45 26.3013 13.5153
    endloop
  endfacet
  facet normal 1 0 0
    outer loop
      vertex 6.45 43.65 22.55
      vertex 6.45 26.0883 14.1709
      vertex 6.45 26.2154 13.8498
    endloop
  endfacet
  facet normal 1 0 0
    outer loop
      vertex 6.45 43.65 22.55
      vertex 6.45 25.9219 14.4735
      vertex 6.45 26.0883 14.1709
    endloop
  endfacet
  facet normal 1 0 0
    outer loop
      vertex 6.45 43.65 22.55
      vertex 6.45 25.7189 14.7529
      vertex 6.45 25.9219 14.4735
    endloop
  endfacet
  facet normal 1 0 0
    outer loop
      vertex 6.45 43.65 22.55
      vertex 6.45 25.4825 15.0047
      vertex 6.45 25.7189 14.7529
    endloop
  endfacet
  facet normal 1 0 0
    outer loop
      vertex 6.45 43.65 22.55
      vertex 6.45 25.2164 15.2248
      vertex 6.45 25.4825 15.0047
    endloop
  endfacet
  facet normal 1 0 0
    outer loop
      vertex 6.45 43.65 22.55
      vertex 6.45 24.9248 15.4098
      vertex 6.45 25.2164 15.2248
    endloop
  endfacet
  facet normal 1 0 0
    outer loop
      vertex 6.45 43.65 22.55
      vertex 6.45 24.6123 15.5569
      vertex 6.45 24.9248 15.4098
    endloop
  endfacet
  facet normal 1 0 0
    outer loop
      vertex 6.45 43.65 22.55
      vertex 6.45 24.2839 15.6636
      vertex 6.45 24.6123 15.5569
    endloop
  endfacet
  facet normal 1 0 0
    outer loop
      vertex 6.45 43.65 22.55
      vertex 6.45 23.9447 15.7283
      vertex 6.45 24.2839 15.6636
    endloop
  endfacet
  facet normal 1 0 0
    outer loop
      vertex 6.45 43.65 22.55
      vertex 6.45 23.6 15.75
      vertex 6.45 23.9447 15.7283
    endloop
  endfacet
  facet normal 1 -0 0
    outer loop
      vertex 6.45 3.55 22.55
      vertex 6.45 23.6 15.75
      vertex 6.45 43.65 22.55
    endloop
  endfacet
  facet normal 1 0 0
    outer loop
      vertex 6.45 23.6 15.75
      vertex 6.45 3.55 22.55
      vertex 6.45 23.2553 15.7283
    endloop
  endfacet
  facet normal 1 0 0
    outer loop
      vertex 6.45 23.2553 15.7283
      vertex 6.45 3.55 22.55
      vertex 6.45 22.9161 15.6636
    endloop
  endfacet
  facet normal 1 0 0
    outer loop
      vertex 6.45 20.8987 13.5153
      vertex 6.45 3.4502 22.4563
      vertex 6.45 20.8554 13.1727
    endloop
  endfacet
  facet normal 1 -0 0
    outer loop
      vertex 6.45 3.4502 22.4563
      vertex 6.45 20.8987 13.5153
      vertex 6.45 3.55 22.55
    endloop
  endfacet
  facet normal 1 0 0
    outer loop
      vertex 6.45 20.9846 13.8498
      vertex 6.45 3.55 22.55
      vertex 6.45 20.8987 13.5153
    endloop
  endfacet
  facet normal 1 0 0
    outer loop
      vertex 6.45 21.1117 14.1709
      vertex 6.45 3.55 22.55
      vertex 6.45 20.9846 13.8498
    endloop
  endfacet
  facet normal 1 0 0
    outer loop
      vertex 6.45 21.2781 14.4735
      vertex 6.45 3.55 22.55
      vertex 6.45 21.1117 14.1709
    endloop
  endfacet
  facet normal 1 0 0
    outer loop
      vertex 6.45 21.4811 14.7529
      vertex 6.45 3.55 22.55
      vertex 6.45 21.2781 14.4735
    endloop
  endfacet
  facet normal 1 0 0
    outer loop
      vertex 6.45 21.7175 15.0047
      vertex 6.45 3.55 22.55
      vertex 6.45 21.4811 14.7529
    endloop
  endfacet
  facet normal 1 0 0
    outer loop
      vertex 6.45 21.9836 15.2248
      vertex 6.45 3.55 22.55
      vertex 6.45 21.7175 15.0047
    endloop
  endfacet
  facet normal 1 0 0
    outer loop
      vertex 6.45 22.2752 15.4098
      vertex 6.45 3.55 22.55
      vertex 6.45 21.9836 15.2248
    endloop
  endfacet
  facet normal 1 0 0
    outer loop
      vertex 6.45 22.5877 15.5569
      vertex 6.45 3.55 22.55
      vertex 6.45 22.2752 15.4098
    endloop
  endfacet
  facet normal 1 0 0
    outer loop
      vertex 6.45 22.9161 15.6636
      vertex 6.45 3.55 22.55
      vertex 6.45 22.5877 15.5569
    endloop
  endfacet
  facet normal 1 0 0
    outer loop
      vertex 6.45 43.7482 3.53126
      vertex 6.45 43.65 3.45
      vertex 6.45 43.7451 3.5191
    endloop
  endfacet
  facet normal 1 0 0
    outer loop
      vertex 6.45 43.7498 3.54372
      vertex 6.45 26.3013 12.4847
      vertex 6.45 43.65 3.45
    endloop
  endfacet
  facet normal 1 -0 0
    outer loop
      vertex 6.45 26.2154 12.1502
      vertex 6.45 43.65 3.45
      vertex 6.45 26.3013 12.4847
    endloop
  endfacet
  facet normal 1 -0 0
    outer loop
      vertex 6.45 26.0883 11.8291
      vertex 6.45 43.65 3.45
      vertex 6.45 26.2154 12.1502
    endloop
  endfacet
  facet normal 1 -0 0
    outer loop
      vertex 6.45 25.9219 11.5265
      vertex 6.45 43.65 3.45
      vertex 6.45 26.0883 11.8291
    endloop
  endfacet
  facet normal 1 -0 0
    outer loop
      vertex 6.45 25.7189 11.2471
      vertex 6.45 43.65 3.45
      vertex 6.45 25.9219 11.5265
    endloop
  endfacet
  facet normal 1 -0 0
    outer loop
      vertex 6.45 25.4825 10.9953
      vertex 6.45 43.65 3.45
      vertex 6.45 25.7189 11.2471
    endloop
  endfacet
  facet normal 1 -0 0
    outer loop
      vertex 6.45 25.2164 10.7752
      vertex 6.45 43.65 3.45
      vertex 6.45 25.4825 10.9953
    endloop
  endfacet
  facet normal 1 -0 0
    outer loop
      vertex 6.45 24.9248 10.5902
      vertex 6.45 43.65 3.45
      vertex 6.45 25.2164 10.7752
    endloop
  endfacet
  facet normal 1 -0 0
    outer loop
      vertex 6.45 24.6123 10.4431
      vertex 6.45 43.65 3.45
      vertex 6.45 24.9248 10.5902
    endloop
  endfacet
  facet normal 1 -0 0
    outer loop
      vertex 6.45 24.2839 10.3364
      vertex 6.45 43.65 3.45
      vertex 6.45 24.6123 10.4431
    endloop
  endfacet
  facet normal 1 -0 0
    outer loop
      vertex 6.45 23.9447 10.2717
      vertex 6.45 43.65 3.45
      vertex 6.45 24.2839 10.3364
    endloop
  endfacet
  facet normal 1 -0 0
    outer loop
      vertex 6.45 23.6 10.25
      vertex 6.45 43.65 3.45
      vertex 6.45 23.9447 10.2717
    endloop
  endfacet
  facet normal 1 0 0
    outer loop
      vertex 6.45 3.55 3.45
      vertex 6.45 23.6 10.25
      vertex 6.45 23.2553 10.2717
    endloop
  endfacet
  facet normal 1 0 0
    outer loop
      vertex 6.45 3.55 3.45
      vertex 6.45 23.2553 10.2717
      vertex 6.45 22.9161 10.3364
    endloop
  endfacet
  facet normal 1 0 0
    outer loop
      vertex 6.45 3.55 3.45
      vertex 6.45 22.9161 10.3364
      vertex 6.45 22.5877 10.4431
    endloop
  endfacet
  facet normal 1 0 0
    outer loop
      vertex 6.45 20.8554 13.1727
      vertex 6.45 3.4502 22.4563
      vertex 6.45 20.8554 12.8273
    endloop
  endfacet
  facet normal 1 0 0
    outer loop
      vertex 6.45 3.4502 3.54372
      vertex 6.45 20.8554 12.8273
      vertex 6.45 3.4502 22.4563
    endloop
  endfacet
  facet normal 1 0 0
    outer loop
      vertex 6.45 20.8554 12.8273
      vertex 6.45 3.4502 3.54372
      vertex 6.45 20.8987 12.4847
    endloop
  endfacet
  facet normal 1 0 -0
    outer loop
      vertex 6.45 3.55 3.45
      vertex 6.45 20.8987 12.4847
      vertex 6.45 3.4502 3.54372
    endloop
  endfacet
  facet normal 1 0 0
    outer loop
      vertex 6.45 20.8987 12.4847
      vertex 6.45 3.55 3.45
      vertex 6.45 20.9846 12.1502
    endloop
  endfacet
  facet normal 1 0 0
    outer loop
      vertex 6.45 20.9846 12.1502
      vertex 6.45 3.55 3.45
      vertex 6.45 21.1117 11.8291
    endloop
  endfacet
  facet normal 1 0 0
    outer loop
      vertex 6.45 21.1117 11.8291
      vertex 6.45 3.55 3.45
      vertex 6.45 21.2781 11.5265
    endloop
  endfacet
  facet normal 1 0 0
    outer loop
      vertex 6.45 23.6 10.25
      vertex 6.45 3.55 3.45
      vertex 6.45 43.65 3.45
    endloop
  endfacet
  facet normal 1 0 0
    outer loop
      vertex 6.45 22.2752 10.5902
      vertex 6.45 3.55 3.45
      vertex 6.45 22.5877 10.4431
    endloop
  endfacet
  facet normal 1 0 0
    outer loop
      vertex 6.45 21.9836 10.7752
      vertex 6.45 3.55 3.45
      vertex 6.45 22.2752 10.5902
    endloop
  endfacet
  facet normal 1 0 0
    outer loop
      vertex 6.45 21.2781 11.5265
      vertex 6.45 3.55 3.45
      vertex 6.45 21.4811 11.2471
    endloop
  endfacet
  facet normal 1 0 0
    outer loop
      vertex 6.45 3.4502 22.4563
      vertex 6.45 3.55 22.55
      vertex 6.45 3.53747 22.5492
    endloop
  endfacet
  facet normal 1 0 0
    outer loop
      vertex 6.45 21.4811 11.2471
      vertex 6.45 3.55 3.45
      vertex 6.45 21.7175 10.9953
    endloop
  endfacet
  facet normal 1 0 0
    outer loop
      vertex 6.45 3.4502 22.4563
      vertex 6.45 3.53747 22.5492
      vertex 6.45 3.52513 22.5469
    endloop
  endfacet
  facet normal 1 0 0
    outer loop
      vertex 6.45 21.7175 10.9953
      vertex 6.45 3.55 3.45
      vertex 6.45 21.9836 10.7752
    endloop
  endfacet
  facet normal 1 0 0
    outer loop
      vertex 6.45 3.4502 22.4563
      vertex 6.45 3.52513 22.5469
      vertex 6.45 3.51319 22.543
    endloop
  endfacet
  facet normal 1 0 0
    outer loop
      vertex 6.45 3.55 3.45
      vertex 6.45 3.4502 3.54372
      vertex 6.45 3.53747 3.45079
    endloop
  endfacet
  facet normal 1 0 0
    outer loop
      vertex 6.45 3.4502 22.4563
      vertex 6.45 3.51319 22.543
      vertex 6.45 3.50182 22.5376
    endloop
  endfacet
  facet normal 1 0 0
    outer loop
      vertex 6.45 3.53747 3.45079
      vertex 6.45 3.4502 3.54372
      vertex 6.45 3.52513 3.45314
    endloop
  endfacet
  facet normal 1 0 0
    outer loop
      vertex 6.45 3.4502 22.4563
      vertex 6.45 3.50182 22.5376
      vertex 6.45 3.49122 22.5309
    endloop
  endfacet
  facet normal 1 0 0
    outer loop
      vertex 6.45 3.52513 3.45314
      vertex 6.45 3.4502 3.54372
      vertex 6.45 3.51319 3.45702
    endloop
  endfacet
  facet normal 1 0 0
    outer loop
      vertex 6.45 3.4502 22.4563
      vertex 6.45 3.49122 22.5309
      vertex 6.45 3.48155 22.5229
    endloop
  endfacet
  facet normal 1 0 0
    outer loop
      vertex 6.45 3.51319 3.45702
      vertex 6.45 3.4502 3.54372
      vertex 6.45 3.50182 3.46237
    endloop
  endfacet
  facet normal 1 0 0
    outer loop
      vertex 6.45 3.4502 22.4563
      vertex 6.45 3.48155 22.5229
      vertex 6.45 3.47295 22.5137
    endloop
  endfacet
  facet normal 1 0 0
    outer loop
      vertex 6.45 3.50182 3.46237
      vertex 6.45 3.4502 3.54372
      vertex 6.45 3.49122 3.4691
    endloop
  endfacet
  facet normal 1 0 0
    outer loop
      vertex 6.45 3.4502 22.4563
      vertex 6.45 3.47295 22.5137
      vertex 6.45 3.46557 22.5036
    endloop
  endfacet
  facet normal 1 0 0
    outer loop
      vertex 6.45 3.49122 3.4691
      vertex 6.45 3.4502 3.54372
      vertex 6.45 3.48155 3.4771
    endloop
  endfacet
  facet normal 1 0 0
    outer loop
      vertex 6.45 3.4502 22.4563
      vertex 6.45 3.46557 22.5036
      vertex 6.45 3.45952 22.4926
    endloop
  endfacet
  facet normal 1 0 0
    outer loop
      vertex 6.45 3.48155 3.4771
      vertex 6.45 3.4502 3.54372
      vertex 6.45 3.47295 3.48626
    endloop
  endfacet
  facet normal 1 0 0
    outer loop
      vertex 6.45 3.4502 22.4563
      vertex 6.45 3.45952 22.4926
      vertex 6.45 3.45489 22.4809
    endloop
  endfacet
  facet normal 1 0 0
    outer loop
      vertex 6.45 3.47295 3.48626
      vertex 6.45 3.4502 3.54372
      vertex 6.45 3.46557 3.49642
    endloop
  endfacet
  facet normal 1 0 0
    outer loop
      vertex 6.45 3.4502 22.4563
      vertex 6.45 3.45489 22.4809
      vertex 6.45 3.45177 22.4687
    endloop
  endfacet
  facet normal 1 0 0
    outer loop
      vertex 6.45 3.46557 3.49642
      vertex 6.45 3.4502 3.54372
      vertex 6.45 3.45952 3.50742
    endloop
  endfacet
  facet normal 1 0 0
    outer loop
      vertex 6.45 3.45952 3.50742
      vertex 6.45 3.4502 3.54372
      vertex 6.45 3.45489 3.5191
    endloop
  endfacet
  facet normal 1 0 0
    outer loop
      vertex 6.45 3.45489 3.5191
      vertex 6.45 3.4502 3.54372
      vertex 6.45 3.45177 3.53126
    endloop
  endfacet
  facet normal -0 0.425895 0.904773
    outer loop
      vertex 3.45 22.5877 10.4431
      vertex 6.45 22.2752 10.5902
      vertex 6.45 22.5877 10.4431
    endloop
  endfacet
  facet normal 0 0.425895 0.904773
    outer loop
      vertex 6.45 22.2752 10.5902
      vertex 3.45 22.5877 10.4431
      vertex 3.45 22.2752 10.5902
    endloop
  endfacet
  facet normal 0 -0.809011 0.587793
    outer loop
      vertex 3.45 25.7189 11.2471
      vertex 6.45 25.9219 11.5265
      vertex 3.45 25.9219 11.5265
    endloop
  endfacet
  facet normal 0 -0.809011 0.587793
    outer loop
      vertex 6.45 25.9219 11.5265
      vertex 3.45 25.7189 11.2471
      vertex 6.45 25.7189 11.2471
    endloop
  endfacet
  facet normal 0 0.929809 0.368043
    outer loop
      vertex 6.45 21.1117 11.8291
      vertex 3.45 20.9846 12.1502
      vertex 6.45 20.9846 12.1502
    endloop
  endfacet
  facet normal 0 0.929809 0.368043
    outer loop
      vertex 3.45 20.9846 12.1502
      vertex 6.45 21.1117 11.8291
      vertex 3.45 21.1117 11.8291
    endloop
  endfacet
  facet normal 0 -0.729049 0.684461
    outer loop
      vertex 3.45 25.4825 10.9953
      vertex 6.45 25.7189 11.2471
      vertex 3.45 25.7189 11.2471
    endloop
  endfacet
  facet normal 0 -0.729049 0.684461
    outer loop
      vertex 6.45 25.7189 11.2471
      vertex 3.45 25.4825 10.9953
      vertex 6.45 25.4825 10.9953
    endloop
  endfacet
  facet normal 0 0.968573 0.248731
    outer loop
      vertex 6.45 20.9846 12.1502
      vertex 3.45 20.8987 12.4847
      vertex 6.45 20.8987 12.4847
    endloop
  endfacet
  facet normal 0 0.968573 0.248731
    outer loop
      vertex 3.45 20.8987 12.4847
      vertex 6.45 20.9846 12.1502
      vertex 3.45 20.9846 12.1502
    endloop
  endfacet
  facet normal 0 -0.0628289 -0.998024
    outer loop
      vertex 3.45 23.6 15.75
      vertex 6.45 23.9447 15.7283
      vertex 6.45 23.6 15.75
    endloop
  endfacet
  facet normal -0 -0.0628289 -0.998024
    outer loop
      vertex 6.45 23.9447 15.7283
      vertex 3.45 23.6 15.75
      vertex 3.45 23.9447 15.7283
    endloop
  endfacet
  facet normal 0 -0.876253 0.481852
    outer loop
      vertex 3.45 25.9219 11.5265
      vertex 6.45 26.0883 11.8291
      vertex 3.45 26.0883 11.8291
    endloop
  endfacet
  facet normal 0 -0.876253 0.481852
    outer loop
      vertex 6.45 26.0883 11.8291
      vertex 3.45 25.9219 11.5265
      vertex 6.45 25.9219 11.5265
    endloop
  endfacet
  facet normal 0 0.876253 0.481852
    outer loop
      vertex 6.45 21.2781 11.5265
      vertex 3.45 21.1117 11.8291
      vertex 6.45 21.1117 11.8291
    endloop
  endfacet
  facet normal 0 0.876253 0.481852
    outer loop
      vertex 3.45 21.1117 11.8291
      vertex 6.45 21.2781 11.5265
      vertex 3.45 21.2781 11.5265
    endloop
  endfacet
  facet normal 0 0.309007 -0.95106
    outer loop
      vertex 3.45 22.5877 15.5569
      vertex 6.45 22.9161 15.6636
      vertex 6.45 22.5877 15.5569
    endloop
  endfacet
  facet normal 0 0.309007 -0.95106
    outer loop
      vertex 6.45 22.9161 15.6636
      vertex 3.45 22.5877 15.5569
      vertex 3.45 22.9161 15.6636
    endloop
  endfacet
  facet normal 0 0.729049 0.684461
    outer loop
      vertex 6.45 21.7175 10.9953
      vertex 3.45 21.4811 11.2471
      vertex 6.45 21.4811 11.2471
    endloop
  endfacet
  facet normal 0 0.729049 0.684461
    outer loop
      vertex 3.45 21.4811 11.2471
      vertex 6.45 21.7175 10.9953
      vertex 3.45 21.7175 10.9953
    endloop
  endfacet
  facet normal 0 -0.309007 -0.95106
    outer loop
      vertex 3.45 24.2839 15.6636
      vertex 6.45 24.6123 15.5569
      vertex 6.45 24.2839 15.6636
    endloop
  endfacet
  facet normal -0 -0.309007 -0.95106
    outer loop
      vertex 6.45 24.6123 15.5569
      vertex 3.45 24.2839 15.6636
      vertex 3.45 24.6123 15.5569
    endloop
  endfacet
  facet normal 0 0.535713 -0.8444
    outer loop
      vertex 3.45 21.9836 15.2248
      vertex 6.45 22.2752 15.4098
      vertex 6.45 21.9836 15.2248
    endloop
  endfacet
  facet normal 0 0.535713 -0.8444
    outer loop
      vertex 6.45 22.2752 15.4098
      vertex 3.45 21.9836 15.2248
      vertex 3.45 22.2752 15.4098
    endloop
  endfacet
  facet normal 0 0.968573 -0.248731
    outer loop
      vertex 6.45 20.8987 13.5153
      vertex 3.45 20.9846 13.8498
      vertex 6.45 20.9846 13.8498
    endloop
  endfacet
  facet normal 0 0.968573 -0.248731
    outer loop
      vertex 3.45 20.9846 13.8498
      vertex 6.45 20.8987 13.5153
      vertex 3.45 20.8987 13.5153
    endloop
  endfacet
  facet normal 0 -0.63736 0.770566
    outer loop
      vertex 3.45 25.4825 10.9953
      vertex 6.45 25.2164 10.7752
      vertex 6.45 25.4825 10.9953
    endloop
  endfacet
  facet normal 0 -0.63736 0.770566
    outer loop
      vertex 6.45 25.2164 10.7752
      vertex 3.45 25.4825 10.9953
      vertex 3.45 25.2164 10.7752
    endloop
  endfacet
  facet normal 0 0.809011 -0.587793
    outer loop
      vertex 6.45 21.2781 14.4735
      vertex 3.45 21.4811 14.7529
      vertex 6.45 21.4811 14.7529
    endloop
  endfacet
  facet normal 0 0.809011 -0.587793
    outer loop
      vertex 3.45 21.4811 14.7529
      vertex 6.45 21.2781 14.4735
      vertex 3.45 21.2781 14.4735
    endloop
  endfacet
  facet normal 0 0.425895 -0.904773
    outer loop
      vertex 3.45 22.2752 15.4098
      vertex 6.45 22.5877 15.5569
      vertex 6.45 22.2752 15.4098
    endloop
  endfacet
  facet normal 0 0.425895 -0.904773
    outer loop
      vertex 6.45 22.5877 15.5569
      vertex 3.45 22.2752 15.4098
      vertex 3.45 22.5877 15.5569
    endloop
  endfacet
  facet normal 0 -0.729049 -0.684461
    outer loop
      vertex 3.45 25.7189 14.7529
      vertex 6.45 25.4825 15.0047
      vertex 3.45 25.4825 15.0047
    endloop
  endfacet
  facet normal 0 -0.729049 -0.684461
    outer loop
      vertex 6.45 25.4825 15.0047
      vertex 3.45 25.7189 14.7529
      vertex 6.45 25.7189 14.7529
    endloop
  endfacet
  facet normal 0 -0.425895 -0.904773
    outer loop
      vertex 3.45 24.6123 15.5569
      vertex 6.45 24.9248 15.4098
      vertex 6.45 24.6123 15.5569
    endloop
  endfacet
  facet normal -0 -0.425895 -0.904773
    outer loop
      vertex 6.45 24.9248 15.4098
      vertex 3.45 24.6123 15.5569
      vertex 3.45 24.9248 15.4098
    endloop
  endfacet
  facet normal 0 0.929809 -0.368043
    outer loop
      vertex 6.45 20.9846 13.8498
      vertex 3.45 21.1117 14.1709
      vertex 6.45 21.1117 14.1709
    endloop
  endfacet
  facet normal 0 0.929809 -0.368043
    outer loop
      vertex 3.45 21.1117 14.1709
      vertex 6.45 20.9846 13.8498
      vertex 3.45 20.9846 13.8498
    endloop
  endfacet
  facet normal 0 -1 0
    outer loop
      vertex 3.45 26.3446 12.8273
      vertex 6.45 26.3446 13.1727
      vertex 3.45 26.3446 13.1727
    endloop
  endfacet
  facet normal 0 -1 -0
    outer loop
      vertex 6.45 26.3446 13.1727
      vertex 3.45 26.3446 12.8273
      vertex 6.45 26.3446 12.8273
    endloop
  endfacet
  facet normal 0 0.992108 -0.125389
    outer loop
      vertex 6.45 20.8554 13.1727
      vertex 3.45 20.8987 13.5153
      vertex 6.45 20.8987 13.5153
    endloop
  endfacet
  facet normal 0 0.992108 -0.125389
    outer loop
      vertex 3.45 20.8987 13.5153
      vertex 6.45 20.8554 13.1727
      vertex 3.45 20.8554 13.1727
    endloop
  endfacet
  facet normal 0 -0.425895 0.904773
    outer loop
      vertex 3.45 24.9248 10.5902
      vertex 6.45 24.6123 10.4431
      vertex 6.45 24.9248 10.5902
    endloop
  endfacet
  facet normal 0 -0.425895 0.904773
    outer loop
      vertex 6.45 24.6123 10.4431
      vertex 3.45 24.9248 10.5902
      vertex 3.45 24.6123 10.4431
    endloop
  endfacet
  facet normal 0 0.63736 -0.770566
    outer loop
      vertex 3.45 21.7175 15.0047
      vertex 6.45 21.9836 15.2248
      vertex 6.45 21.7175 15.0047
    endloop
  endfacet
  facet normal 0 0.63736 -0.770566
    outer loop
      vertex 6.45 21.9836 15.2248
      vertex 3.45 21.7175 15.0047
      vertex 3.45 21.9836 15.2248
    endloop
  endfacet
  facet normal 0 -0.535713 -0.8444
    outer loop
      vertex 3.45 24.9248 15.4098
      vertex 6.45 25.2164 15.2248
      vertex 6.45 24.9248 15.4098
    endloop
  endfacet
  facet normal -0 -0.535713 -0.8444
    outer loop
      vertex 6.45 25.2164 15.2248
      vertex 3.45 24.9248 15.4098
      vertex 3.45 25.2164 15.2248
    endloop
  endfacet
  facet normal 0 -0.535713 0.8444
    outer loop
      vertex 3.45 25.2164 10.7752
      vertex 6.45 24.9248 10.5902
      vertex 6.45 25.2164 10.7752
    endloop
  endfacet
  facet normal 0 -0.535713 0.8444
    outer loop
      vertex 6.45 24.9248 10.5902
      vertex 3.45 25.2164 10.7752
      vertex 3.45 24.9248 10.5902
    endloop
  endfacet
  facet normal -0 0.309007 0.95106
    outer loop
      vertex 3.45 22.9161 10.3364
      vertex 6.45 22.5877 10.4431
      vertex 6.45 22.9161 10.3364
    endloop
  endfacet
  facet normal 0 0.309007 0.95106
    outer loop
      vertex 6.45 22.5877 10.4431
      vertex 3.45 22.9161 10.3364
      vertex 3.45 22.5877 10.4431
    endloop
  endfacet
  facet normal 0 -0.187365 0.98229
    outer loop
      vertex 3.45 24.2839 10.3364
      vertex 6.45 23.9447 10.2717
      vertex 6.45 24.2839 10.3364
    endloop
  endfacet
  facet normal 0 -0.187365 0.98229
    outer loop
      vertex 6.45 23.9447 10.2717
      vertex 3.45 24.2839 10.3364
      vertex 3.45 23.9447 10.2717
    endloop
  endfacet
  facet normal 0 0.876253 -0.481852
    outer loop
      vertex 6.45 21.1117 14.1709
      vertex 3.45 21.2781 14.4735
      vertex 6.45 21.2781 14.4735
    endloop
  endfacet
  facet normal 0 0.876253 -0.481852
    outer loop
      vertex 3.45 21.2781 14.4735
      vertex 6.45 21.1117 14.1709
      vertex 3.45 21.1117 14.1709
    endloop
  endfacet
  facet normal 0 -0.63736 -0.770566
    outer loop
      vertex 3.45 25.2164 15.2248
      vertex 6.45 25.4825 15.0047
      vertex 6.45 25.2164 15.2248
    endloop
  endfacet
  facet normal -0 -0.63736 -0.770566
    outer loop
      vertex 6.45 25.4825 15.0047
      vertex 3.45 25.2164 15.2248
      vertex 3.45 25.4825 15.0047
    endloop
  endfacet
  facet normal 0 0.992108 0.125389
    outer loop
      vertex 6.45 20.8987 12.4847
      vertex 3.45 20.8554 12.8273
      vertex 6.45 20.8554 12.8273
    endloop
  endfacet
  facet normal 0 0.992108 0.125389
    outer loop
      vertex 3.45 20.8554 12.8273
      vertex 6.45 20.8987 12.4847
      vertex 3.45 20.8987 12.4847
    endloop
  endfacet
  facet normal 0 -0.968573 0.248731
    outer loop
      vertex 3.45 26.2154 12.1502
      vertex 6.45 26.3013 12.4847
      vertex 3.45 26.3013 12.4847
    endloop
  endfacet
  facet normal 0 -0.968573 0.248731
    outer loop
      vertex 6.45 26.3013 12.4847
      vertex 3.45 26.2154 12.1502
      vertex 6.45 26.2154 12.1502
    endloop
  endfacet
  facet normal 0 -0.929809 0.368043
    outer loop
      vertex 3.45 26.0883 11.8291
      vertex 6.45 26.2154 12.1502
      vertex 3.45 26.2154 12.1502
    endloop
  endfacet
  facet normal 0 -0.929809 0.368043
    outer loop
      vertex 6.45 26.2154 12.1502
      vertex 3.45 26.0883 11.8291
      vertex 6.45 26.0883 11.8291
    endloop
  endfacet
  facet normal 0 -0.992108 -0.125389
    outer loop
      vertex 3.45 26.3446 13.1727
      vertex 6.45 26.3013 13.5153
      vertex 3.45 26.3013 13.5153
    endloop
  endfacet
  facet normal 0 -0.992108 -0.125389
    outer loop
      vertex 6.45 26.3013 13.5153
      vertex 3.45 26.3446 13.1727
      vertex 6.45 26.3446 13.1727
    endloop
  endfacet
  facet normal 0 -0.876253 -0.481852
    outer loop
      vertex 3.45 26.0883 14.1709
      vertex 6.45 25.9219 14.4735
      vertex 3.45 25.9219 14.4735
    endloop
  endfacet
  facet normal 0 -0.876253 -0.481852
    outer loop
      vertex 6.45 25.9219 14.4735
      vertex 3.45 26.0883 14.1709
      vertex 6.45 26.0883 14.1709
    endloop
  endfacet
  facet normal 0 -0.187365 -0.98229
    outer loop
      vertex 3.45 23.9447 15.7283
      vertex 6.45 24.2839 15.6636
      vertex 6.45 23.9447 15.7283
    endloop
  endfacet
  facet normal -0 -0.187365 -0.98229
    outer loop
      vertex 6.45 24.2839 15.6636
      vertex 3.45 23.9447 15.7283
      vertex 3.45 24.2839 15.6636
    endloop
  endfacet
  facet normal 0 -0.929809 -0.368043
    outer loop
      vertex 3.45 26.2154 13.8498
      vertex 6.45 26.0883 14.1709
      vertex 3.45 26.0883 14.1709
    endloop
  endfacet
  facet normal 0 -0.929809 -0.368043
    outer loop
      vertex 6.45 26.0883 14.1709
      vertex 3.45 26.2154 13.8498
      vertex 6.45 26.2154 13.8498
    endloop
  endfacet
  facet normal 0 0.187365 -0.98229
    outer loop
      vertex 3.45 22.9161 15.6636
      vertex 6.45 23.2553 15.7283
      vertex 6.45 22.9161 15.6636
    endloop
  endfacet
  facet normal 0 0.187365 -0.98229
    outer loop
      vertex 6.45 23.2553 15.7283
      vertex 3.45 22.9161 15.6636
      vertex 3.45 23.2553 15.7283
    endloop
  endfacet
  facet normal -0 0.535713 0.8444
    outer loop
      vertex 3.45 22.2752 10.5902
      vertex 6.45 21.9836 10.7752
      vertex 6.45 22.2752 10.5902
    endloop
  endfacet
  facet normal 0 0.535713 0.8444
    outer loop
      vertex 6.45 21.9836 10.7752
      vertex 3.45 22.2752 10.5902
      vertex 3.45 21.9836 10.7752
    endloop
  endfacet
  facet normal 0 0.729049 -0.684461
    outer loop
      vertex 6.45 21.4811 14.7529
      vertex 3.45 21.7175 15.0047
      vertex 6.45 21.7175 15.0047
    endloop
  endfacet
  facet normal 0 0.729049 -0.684461
    outer loop
      vertex 3.45 21.7175 15.0047
      vertex 6.45 21.4811 14.7529
      vertex 3.45 21.4811 14.7529
    endloop
  endfacet
  facet normal 0 -0.0628289 0.998024
    outer loop
      vertex 3.45 23.9447 10.2717
      vertex 6.45 23.6 10.25
      vertex 6.45 23.9447 10.2717
    endloop
  endfacet
  facet normal 0 -0.0628289 0.998024
    outer loop
      vertex 6.45 23.6 10.25
      vertex 3.45 23.9447 10.2717
      vertex 3.45 23.6 10.25
    endloop
  endfacet
  facet normal 0 -0.809011 -0.587793
    outer loop
      vertex 3.45 25.9219 14.4735
      vertex 6.45 25.7189 14.7529
      vertex 3.45 25.7189 14.7529
    endloop
  endfacet
  facet normal 0 -0.809011 -0.587793
    outer loop
      vertex 6.45 25.7189 14.7529
      vertex 3.45 25.9219 14.4735
      vertex 6.45 25.9219 14.4735
    endloop
  endfacet
  facet normal 0 0.0628289 -0.998024
    outer loop
      vertex 3.45 23.2553 15.7283
      vertex 6.45 23.6 15.75
      vertex 6.45 23.2553 15.7283
    endloop
  endfacet
  facet normal 0 0.0628289 -0.998024
    outer loop
      vertex 6.45 23.6 15.75
      vertex 3.45 23.2553 15.7283
      vertex 3.45 23.6 15.75
    endloop
  endfacet
  facet normal 0 -0.968573 -0.248731
    outer loop
      vertex 3.45 26.3013 13.5153
      vertex 6.45 26.2154 13.8498
      vertex 3.45 26.2154 13.8498
    endloop
  endfacet
  facet normal 0 -0.968573 -0.248731
    outer loop
      vertex 6.45 26.2154 13.8498
      vertex 3.45 26.3013 13.5153
      vertex 6.45 26.3013 13.5153
    endloop
  endfacet
  facet normal -0 0.187365 0.98229
    outer loop
      vertex 3.45 23.2553 10.2717
      vertex 6.45 22.9161 10.3364
      vertex 6.45 23.2553 10.2717
    endloop
  endfacet
  facet normal 0 0.187365 0.98229
    outer loop
      vertex 6.45 22.9161 10.3364
      vertex 3.45 23.2553 10.2717
      vertex 3.45 22.9161 10.3364
    endloop
  endfacet
  facet normal 0 1 -0
    outer loop
      vertex 6.45 20.8554 12.8273
      vertex 3.45 20.8554 13.1727
      vertex 6.45 20.8554 13.1727
    endloop
  endfacet
  facet normal 0 1 0
    outer loop
      vertex 3.45 20.8554 13.1727
      vertex 6.45 20.8554 12.8273
      vertex 3.45 20.8554 12.8273
    endloop
  endfacet
  facet normal 0 -0.992108 0.125389
    outer loop
      vertex 3.45 26.3013 12.4847
      vertex 6.45 26.3446 12.8273
      vertex 3.45 26.3446 12.8273
    endloop
  endfacet
  facet normal 0 -0.992108 0.125389
    outer loop
      vertex 6.45 26.3446 12.8273
      vertex 3.45 26.3013 12.4847
      vertex 6.45 26.3013 12.4847
    endloop
  endfacet
  facet normal 0 0.809011 0.587793
    outer loop
      vertex 6.45 21.4811 11.2471
      vertex 3.45 21.2781 11.5265
      vertex 6.45 21.2781 11.5265
    endloop
  endfacet
  facet normal 0 0.809011 0.587793
    outer loop
      vertex 3.45 21.2781 11.5265
      vertex 6.45 21.4811 11.2471
      vertex 3.45 21.4811 11.2471
    endloop
  endfacet
  facet normal -0 0.63736 0.770566
    outer loop
      vertex 3.45 21.9836 10.7752
      vertex 6.45 21.7175 10.9953
      vertex 6.45 21.9836 10.7752
    endloop
  endfacet
  facet normal 0 0.63736 0.770566
    outer loop
      vertex 6.45 21.7175 10.9953
      vertex 3.45 21.9836 10.7752
      vertex 3.45 21.7175 10.9953
    endloop
  endfacet
  facet normal -0 0.0628289 0.998024
    outer loop
      vertex 3.45 23.6 10.25
      vertex 6.45 23.2553 10.2717
      vertex 6.45 23.6 10.25
    endloop
  endfacet
  facet normal 0 0.0628289 0.998024
    outer loop
      vertex 6.45 23.2553 10.2717
      vertex 3.45 23.6 10.25
      vertex 3.45 23.2553 10.2717
    endloop
  endfacet
  facet normal 0 -0.309007 0.95106
    outer loop
      vertex 3.45 24.6123 10.4431
      vertex 6.45 24.2839 10.3364
      vertex 6.45 24.6123 10.4431
    endloop
  endfacet
  facet normal 0 -0.309007 0.95106
    outer loop
      vertex 6.45 24.2839 10.3364
      vertex 3.45 24.6123 10.4431
      vertex 3.45 24.2839 10.3364
    endloop
  endfacet
endsolid OpenSCAD_Model
