solid OpenSCAD_Model
  facet normal 1 -0 0
    outer loop
      vertex 40.95 -18.8 16.2
      vertex 40.95 18.8 -16.2
      vertex 40.95 18.8 16.2
    endloop
  endfacet
  facet normal 1 0 0
    outer loop
      vertex 40.95 18.8 -16.2
      vertex 40.95 -18.8 16.2
      vertex 40.95 -18.8 -16.2
    endloop
  endfacet
  facet normal 0 0 1
    outer loop
      vertex -25.025 18.8 16.2
      vertex -35.75 13.6 16.2
      vertex -25.025 13.6 16.2
    endloop
  endfacet
  facet normal 0 0 1
    outer loop
      vertex -35.75 13.6 16.2
      vertex -40.95 18.8 16.2
      vertex -35.75 -13.6 16.2
    endloop
  endfacet
  facet normal -0 0 1
    outer loop
      vertex -40.95 18.8 16.2
      vertex -35.75 13.6 16.2
      vertex -25.025 18.8 16.2
    endloop
  endfacet
  facet normal -0 0 1
    outer loop
      vertex -35.75 -13.6 16.2
      vertex -25.025 -18.8 16.2
      vertex -25.025 -13.6 16.2
    endloop
  endfacet
  facet normal 0 0 1
    outer loop
      vertex -35.75 -13.6 16.2
      vertex -40.95 -18.8 16.2
      vertex -25.025 -18.8 16.2
    endloop
  endfacet
  facet normal 0 0 1
    outer loop
      vertex -40.95 -18.8 16.2
      vertex -35.75 -13.6 16.2
      vertex -40.95 18.8 16.2
    endloop
  endfacet
  facet normal 0 0 1
    outer loop
      vertex 40.95 18.8 16.2
      vertex 35.75 13.6 16.2
      vertex 40.95 -18.8 16.2
    endloop
  endfacet
  facet normal -0 0 1
    outer loop
      vertex 25.025 18.8 16.2
      vertex 35.75 13.6 16.2
      vertex 40.95 18.8 16.2
    endloop
  endfacet
  facet normal 0 0 1
    outer loop
      vertex 35.75 13.6 16.2
      vertex 25.025 18.8 16.2
      vertex 25.025 13.6 16.2
    endloop
  endfacet
  facet normal -0 0 1
    outer loop
      vertex 35.75 -13.6 16.2
      vertex 40.95 -18.8 16.2
      vertex 35.75 13.6 16.2
    endloop
  endfacet
  facet normal 0 0 1
    outer loop
      vertex 25.025 -18.8 16.2
      vertex 35.75 -13.6 16.2
      vertex 25.025 -13.6 16.2
    endloop
  endfacet
  facet normal 0 0 1
    outer loop
      vertex 35.75 -13.6 16.2
      vertex 25.025 -18.8 16.2
      vertex 40.95 -18.8 16.2
    endloop
  endfacet
  facet normal 0 0 -1
    outer loop
      vertex -40.95 -18.8 -16.2
      vertex 40.95 18.8 -16.2
      vertex 40.95 -18.8 -16.2
    endloop
  endfacet
  facet normal -0 0 -1
    outer loop
      vertex 40.95 18.8 -16.2
      vertex -40.95 -18.8 -16.2
      vertex -40.95 18.8 -16.2
    endloop
  endfacet
  facet normal -1 0 0
    outer loop
      vertex -40.95 -18.8 -16.2
      vertex -40.95 18.8 16.2
      vertex -40.95 18.8 -16.2
    endloop
  endfacet
  facet normal -1 -0 0
    outer loop
      vertex -40.95 18.8 16.2
      vertex -40.95 -18.8 -16.2
      vertex -40.95 -18.8 16.2
    endloop
  endfacet
  facet normal 0 1 0
    outer loop
      vertex 40.95 18.8 16.2
      vertex 24.964 18.8 14.4543
      vertex 25.025 18.8 16.2
    endloop
  endfacet
  facet normal 0 1 0
    outer loop
      vertex 40.95 18.8 16.2
      vertex 24.7815 18.8 12.7172
      vertex 24.964 18.8 14.4543
    endloop
  endfacet
  facet normal 0 1 -0
    outer loop
      vertex 35.75 18.8 2.11
      vertex 24.7815 18.8 12.7172
      vertex 40.95 18.8 16.2
    endloop
  endfacet
  facet normal 0 1 0
    outer loop
      vertex 24.7815 18.8 12.7172
      vertex 35.75 18.8 2.11
      vertex 24.4781 18.8 10.997
    endloop
  endfacet
  facet normal 0 1 0
    outer loop
      vertex 24.4781 18.8 10.997
      vertex 35.75 18.8 2.11
      vertex 24.0556 18.8 9.30217
    endloop
  endfacet
  facet normal 0 1 0
    outer loop
      vertex 24.0556 18.8 9.30217
      vertex 35.75 18.8 2.11
      vertex 23.5158 18.8 7.64095
    endloop
  endfacet
  facet normal 0 1 0
    outer loop
      vertex 23.5158 18.8 7.64095
      vertex 35.75 18.8 2.11
      vertex 22.8615 18.8 6.02141
    endloop
  endfacet
  facet normal 0 1 0
    outer loop
      vertex 22.8615 18.8 6.02141
      vertex 35.75 18.8 2.11
      vertex 22.0958 18.8 4.45147
    endloop
  endfacet
  facet normal 0 1 0
    outer loop
      vertex 35.75 18.8 2.11
      vertex 40.95 18.8 16.2
      vertex 39.97 18.8 2.11
    endloop
  endfacet
  facet normal 0 1 0
    outer loop
      vertex 40.95 18.8 16.2
      vertex 39.97 18.8 -2.11
      vertex 39.97 18.8 2.11
    endloop
  endfacet
  facet normal 0 1 0
    outer loop
      vertex 40.95 18.8 -16.2
      vertex 35.75 18.8 -2.11
      vertex 39.97 18.8 -2.11
    endloop
  endfacet
  facet normal 0 1 0
    outer loop
      vertex 35.75 18.8 -2.11
      vertex 40.95 18.8 -16.2
      vertex 16.745 18.8 -2.3972
    endloop
  endfacet
  facet normal 0 1 0
    outer loop
      vertex 16.745 18.8 -2.3972
      vertex 40.95 18.8 -16.2
      vertex 15.4069 18.8 -3.51997
    endloop
  endfacet
  facet normal 0 1 0
    outer loop
      vertex 15.4069 18.8 -3.51997
      vertex 40.95 18.8 -16.2
      vertex 13.9938 18.8 -4.54667
    endloop
  endfacet
  facet normal 0 1 0
    outer loop
      vertex 13.9938 18.8 -4.54667
      vertex 40.95 18.8 -16.2
      vertex 12.5125 18.8 -5.47229
    endloop
  endfacet
  facet normal 0 1 0
    outer loop
      vertex 12.5125 18.8 -5.47229
      vertex 40.95 18.8 -16.2
      vertex 10.9702 18.8 -6.29232
    endloop
  endfacet
  facet normal 0 1 0
    outer loop
      vertex 10.9702 18.8 -6.29232
      vertex 40.95 18.8 -16.2
      vertex 9.37453 18.8 -7.00278
    endloop
  endfacet
  facet normal 0 1 0
    outer loop
      vertex 9.37453 18.8 -7.00278
      vertex 40.95 18.8 -16.2
      vertex 7.73315 18.8 -7.60019
    endloop
  endfacet
  facet normal 0 1 0
    outer loop
      vertex 7.73315 18.8 -7.60019
      vertex 40.95 18.8 -16.2
      vertex 6.0541 18.8 -8.08165
    endloop
  endfacet
  facet normal 0 1 0
    outer loop
      vertex 0.87336 18.8 -8.80976
      vertex 40.95 18.8 -16.2
      vertex -0.87336 18.8 -8.80976
    endloop
  endfacet
  facet normal 0 1 0
    outer loop
      vertex 2.61582 18.8 -8.68791
      vertex 40.95 18.8 -16.2
      vertex 0.87336 18.8 -8.80976
    endloop
  endfacet
  facet normal 0 1 0
    outer loop
      vertex 4.34554 18.8 -8.44481
      vertex 40.95 18.8 -16.2
      vertex 2.61582 18.8 -8.68791
    endloop
  endfacet
  facet normal 0 1 0
    outer loop
      vertex 6.0541 18.8 -8.08165
      vertex 40.95 18.8 -16.2
      vertex 4.34554 18.8 -8.44481
    endloop
  endfacet
  facet normal 0 1 -0
    outer loop
      vertex 40.95 18.8 -16.2
      vertex 39.97 18.8 -2.11
      vertex 40.95 18.8 16.2
    endloop
  endfacet
  facet normal 0 1 -0
    outer loop
      vertex 35.75 18.8 -2.11
      vertex 22.0958 18.8 4.45147
      vertex 35.75 18.8 2.11
    endloop
  endfacet
  facet normal 0 1 0
    outer loop
      vertex 22.0958 18.8 4.45147
      vertex 35.75 18.8 -2.11
      vertex 21.2224 18.8 2.93877
    endloop
  endfacet
  facet normal 0 1 0
    outer loop
      vertex 21.2224 18.8 2.93877
      vertex 35.75 18.8 -2.11
      vertex 20.2456 18.8 1.49067
    endloop
  endfacet
  facet normal 0 1 0
    outer loop
      vertex 20.2456 18.8 1.49067
      vertex 35.75 18.8 -2.11
      vertex 19.1703 18.8 0.11424
    endloop
  endfacet
  facet normal 0 1 0
    outer loop
      vertex 19.1703 18.8 0.11424
      vertex 35.75 18.8 -2.11
      vertex 18.0015 18.8 -1.18383
    endloop
  endfacet
  facet normal 0 1 0
    outer loop
      vertex 18.0015 18.8 -1.18383
      vertex 35.75 18.8 -2.11
      vertex 16.745 18.8 -2.3972
    endloop
  endfacet
  facet normal 0 1 0
    outer loop
      vertex -35.75 18.8 -2.11
      vertex -21.2224 18.8 2.93877
      vertex -20.2456 18.8 1.49067
    endloop
  endfacet
  facet normal 0 1 0
    outer loop
      vertex -35.75 18.8 -2.11
      vertex -20.2456 18.8 1.49067
      vertex -19.1703 18.8 0.11424
    endloop
  endfacet
  facet normal 0 1 0
    outer loop
      vertex -35.75 18.8 -2.11
      vertex -19.1703 18.8 0.11424
      vertex -18.0015 18.8 -1.18383
    endloop
  endfacet
  facet normal 0 1 0
    outer loop
      vertex -21.2224 18.8 2.93877
      vertex -35.75 18.8 -2.11
      vertex -35.75 18.8 2.11
    endloop
  endfacet
  facet normal 0 1 0
    outer loop
      vertex -40.95 18.8 -16.2
      vertex -35.75 18.8 -2.11
      vertex -16.745 18.8 -2.3972
    endloop
  endfacet
  facet normal 0 1 0
    outer loop
      vertex -16.745 18.8 -2.3972
      vertex -35.75 18.8 -2.11
      vertex -18.0015 18.8 -1.18383
    endloop
  endfacet
  facet normal 0 1 0
    outer loop
      vertex -24.964 18.8 14.4543
      vertex -40.95 18.8 16.2
      vertex -25.025 18.8 16.2
    endloop
  endfacet
  facet normal 0 1 0
    outer loop
      vertex -24.7815 18.8 12.7172
      vertex -40.95 18.8 16.2
      vertex -24.964 18.8 14.4543
    endloop
  endfacet
  facet normal 0 1 0
    outer loop
      vertex -35.75 18.8 2.11
      vertex -24.7815 18.8 12.7172
      vertex -24.4781 18.8 10.997
    endloop
  endfacet
  facet normal 0 1 0
    outer loop
      vertex -35.75 18.8 2.11
      vertex -24.4781 18.8 10.997
      vertex -24.0556 18.8 9.30217
    endloop
  endfacet
  facet normal 0 1 0
    outer loop
      vertex -35.75 18.8 2.11
      vertex -24.0556 18.8 9.30217
      vertex -23.5158 18.8 7.64095
    endloop
  endfacet
  facet normal 0 1 0
    outer loop
      vertex -35.75 18.8 2.11
      vertex -23.5158 18.8 7.64095
      vertex -22.8615 18.8 6.02141
    endloop
  endfacet
  facet normal 0 1 0
    outer loop
      vertex -35.75 18.8 2.11
      vertex -22.8615 18.8 6.02141
      vertex -22.0958 18.8 4.45147
    endloop
  endfacet
  facet normal 0 1 0
    outer loop
      vertex -35.75 18.8 2.11
      vertex -22.0958 18.8 4.45147
      vertex -21.2224 18.8 2.93877
    endloop
  endfacet
  facet normal 0 1 0
    outer loop
      vertex -24.7815 18.8 12.7172
      vertex -35.75 18.8 2.11
      vertex -40.95 18.8 16.2
    endloop
  endfacet
  facet normal 0 1 -0
    outer loop
      vertex -39.97 18.8 2.11
      vertex -40.95 18.8 16.2
      vertex -35.75 18.8 2.11
    endloop
  endfacet
  facet normal 0 1 -0
    outer loop
      vertex -39.97 18.8 -2.11
      vertex -40.95 18.8 16.2
      vertex -39.97 18.8 2.11
    endloop
  endfacet
  facet normal 0 1 0
    outer loop
      vertex -40.95 18.8 -16.2
      vertex -16.745 18.8 -2.3972
      vertex -15.4069 18.8 -3.51997
    endloop
  endfacet
  facet normal 0 1 0
    outer loop
      vertex -40.95 18.8 -16.2
      vertex -15.4069 18.8 -3.51997
      vertex -13.9938 18.8 -4.54667
    endloop
  endfacet
  facet normal 0 1 0
    outer loop
      vertex -40.95 18.8 -16.2
      vertex -13.9938 18.8 -4.54667
      vertex -12.5125 18.8 -5.47229
    endloop
  endfacet
  facet normal 0 1 0
    outer loop
      vertex -40.95 18.8 -16.2
      vertex -12.5125 18.8 -5.47229
      vertex -10.9702 18.8 -6.29232
    endloop
  endfacet
  facet normal 0 1 0
    outer loop
      vertex -40.95 18.8 -16.2
      vertex -10.9702 18.8 -6.29232
      vertex -9.37453 18.8 -7.00278
    endloop
  endfacet
  facet normal 0 1 0
    outer loop
      vertex -40.95 18.8 -16.2
      vertex -9.37453 18.8 -7.00278
      vertex -7.73315 18.8 -7.60019
    endloop
  endfacet
  facet normal 0 1 0
    outer loop
      vertex -40.95 18.8 -16.2
      vertex -7.73315 18.8 -7.60019
      vertex -6.0541 18.8 -8.08165
    endloop
  endfacet
  facet normal 0 1 0
    outer loop
      vertex -40.95 18.8 -16.2
      vertex -6.0541 18.8 -8.08165
      vertex -4.34554 18.8 -8.44481
    endloop
  endfacet
  facet normal 0 1 0
    outer loop
      vertex -40.95 18.8 -16.2
      vertex -0.87336 18.8 -8.80976
      vertex 40.95 18.8 -16.2
    endloop
  endfacet
  facet normal 0 1 0
    outer loop
      vertex -0.87336 18.8 -8.80976
      vertex -40.95 18.8 -16.2
      vertex -2.61582 18.8 -8.68791
    endloop
  endfacet
  facet normal 0 1 0
    outer loop
      vertex -39.97 18.8 -2.11
      vertex -40.95 18.8 -16.2
      vertex -40.95 18.8 16.2
    endloop
  endfacet
  facet normal 0 1 0
    outer loop
      vertex -35.75 18.8 -2.11
      vertex -40.95 18.8 -16.2
      vertex -39.97 18.8 -2.11
    endloop
  endfacet
  facet normal 0 1 0
    outer loop
      vertex -2.61582 18.8 -8.68791
      vertex -40.95 18.8 -16.2
      vertex -4.34554 18.8 -8.44481
    endloop
  endfacet
  facet normal 0 -1 0
    outer loop
      vertex -40.95 -18.8 16.2
      vertex -24.964 -18.8 14.4543
      vertex -25.025 -18.8 16.2
    endloop
  endfacet
  facet normal 0 -1 0
    outer loop
      vertex -40.95 -18.8 16.2
      vertex -24.7815 -18.8 12.7172
      vertex -24.964 -18.8 14.4543
    endloop
  endfacet
  facet normal 0 -1 0
    outer loop
      vertex -40.95 -18.8 16.2
      vertex -24.4781 -18.8 10.997
      vertex -24.7815 -18.8 12.7172
    endloop
  endfacet
  facet normal 0 -1 0
    outer loop
      vertex -40.95 -18.8 16.2
      vertex -24.0556 -18.8 9.30217
      vertex -24.4781 -18.8 10.997
    endloop
  endfacet
  facet normal 0 -1 0
    outer loop
      vertex -40.95 -18.8 16.2
      vertex -23.5158 -18.8 7.64095
      vertex -24.0556 -18.8 9.30217
    endloop
  endfacet
  facet normal 0 -1 0
    outer loop
      vertex -40.95 -18.8 16.2
      vertex -22.8615 -18.8 6.02141
      vertex -23.5158 -18.8 7.64095
    endloop
  endfacet
  facet normal 0 -1 0
    outer loop
      vertex -40.95 -18.8 -16.2
      vertex -22.8615 -18.8 6.02141
      vertex -40.95 -18.8 16.2
    endloop
  endfacet
  facet normal 0 -1 -0
    outer loop
      vertex -22.8615 -18.8 6.02141
      vertex -40.95 -18.8 -16.2
      vertex -22.0958 -18.8 4.45147
    endloop
  endfacet
  facet normal 0 -1 -0
    outer loop
      vertex -22.0958 -18.8 4.45147
      vertex -40.95 -18.8 -16.2
      vertex -21.2224 -18.8 2.93877
    endloop
  endfacet
  facet normal 0 -1 -0
    outer loop
      vertex -21.2224 -18.8 2.93877
      vertex -40.95 -18.8 -16.2
      vertex -20.2456 -18.8 1.49067
    endloop
  endfacet
  facet normal 0 -1 -0
    outer loop
      vertex -20.2456 -18.8 1.49067
      vertex -40.95 -18.8 -16.2
      vertex -19.1703 -18.8 0.11424
    endloop
  endfacet
  facet normal 0 -1 -0
    outer loop
      vertex -19.1703 -18.8 0.11424
      vertex -40.95 -18.8 -16.2
      vertex -18.0015 -18.8 -1.18383
    endloop
  endfacet
  facet normal 0 -1 -0
    outer loop
      vertex -18.0015 -18.8 -1.18383
      vertex -40.95 -18.8 -16.2
      vertex -16.745 -18.8 -2.3972
    endloop
  endfacet
  facet normal 0 -1 -0
    outer loop
      vertex -0.87336 -18.8 -8.80976
      vertex -40.95 -18.8 -16.2
      vertex 0.87336 -18.8 -8.80976
    endloop
  endfacet
  facet normal 0 -1 -0
    outer loop
      vertex -2.61582 -18.8 -8.68791
      vertex -40.95 -18.8 -16.2
      vertex -0.87336 -18.8 -8.80976
    endloop
  endfacet
  facet normal 0 -1 -0
    outer loop
      vertex -4.34554 -18.8 -8.44481
      vertex -40.95 -18.8 -16.2
      vertex -2.61582 -18.8 -8.68791
    endloop
  endfacet
  facet normal 0 -1 -0
    outer loop
      vertex -6.0541 -18.8 -8.08165
      vertex -40.95 -18.8 -16.2
      vertex -4.34554 -18.8 -8.44481
    endloop
  endfacet
  facet normal 0 -1 -0
    outer loop
      vertex -7.73315 -18.8 -7.60019
      vertex -40.95 -18.8 -16.2
      vertex -6.0541 -18.8 -8.08165
    endloop
  endfacet
  facet normal 0 -1 -0
    outer loop
      vertex -9.37453 -18.8 -7.00278
      vertex -40.95 -18.8 -16.2
      vertex -7.73315 -18.8 -7.60019
    endloop
  endfacet
  facet normal 0 -1 -0
    outer loop
      vertex -10.9702 -18.8 -6.29232
      vertex -40.95 -18.8 -16.2
      vertex -9.37453 -18.8 -7.00278
    endloop
  endfacet
  facet normal 0 -1 -0
    outer loop
      vertex -12.5125 -18.8 -5.47229
      vertex -40.95 -18.8 -16.2
      vertex -10.9702 -18.8 -6.29232
    endloop
  endfacet
  facet normal 0 -1 -0
    outer loop
      vertex -13.9938 -18.8 -4.54667
      vertex -40.95 -18.8 -16.2
      vertex -12.5125 -18.8 -5.47229
    endloop
  endfacet
  facet normal 0 -1 -0
    outer loop
      vertex -15.4069 -18.8 -3.51997
      vertex -40.95 -18.8 -16.2
      vertex -13.9938 -18.8 -4.54667
    endloop
  endfacet
  facet normal 0 -1 -0
    outer loop
      vertex -16.745 -18.8 -2.3972
      vertex -40.95 -18.8 -16.2
      vertex -15.4069 -18.8 -3.51997
    endloop
  endfacet
  facet normal 0 -1 0
    outer loop
      vertex 24.964 -18.8 14.4543
      vertex 40.95 -18.8 16.2
      vertex 25.025 -18.8 16.2
    endloop
  endfacet
  facet normal 0 -1 0
    outer loop
      vertex 24.7815 -18.8 12.7172
      vertex 40.95 -18.8 16.2
      vertex 24.964 -18.8 14.4543
    endloop
  endfacet
  facet normal 0 -1 0
    outer loop
      vertex 24.4781 -18.8 10.997
      vertex 40.95 -18.8 16.2
      vertex 24.7815 -18.8 12.7172
    endloop
  endfacet
  facet normal 0 -1 0
    outer loop
      vertex 24.0556 -18.8 9.30217
      vertex 40.95 -18.8 16.2
      vertex 24.4781 -18.8 10.997
    endloop
  endfacet
  facet normal 0 -1 0
    outer loop
      vertex 23.5158 -18.8 7.64095
      vertex 40.95 -18.8 16.2
      vertex 24.0556 -18.8 9.30217
    endloop
  endfacet
  facet normal 0 -1 0
    outer loop
      vertex 22.8615 -18.8 6.02141
      vertex 40.95 -18.8 16.2
      vertex 23.5158 -18.8 7.64095
    endloop
  endfacet
  facet normal 0 -1 0
    outer loop
      vertex 40.95 -18.8 -16.2
      vertex 22.8615 -18.8 6.02141
      vertex 22.0958 -18.8 4.45147
    endloop
  endfacet
  facet normal 0 -1 0
    outer loop
      vertex 40.95 -18.8 -16.2
      vertex 22.0958 -18.8 4.45147
      vertex 21.2224 -18.8 2.93877
    endloop
  endfacet
  facet normal 0 -1 0
    outer loop
      vertex 40.95 -18.8 -16.2
      vertex 21.2224 -18.8 2.93877
      vertex 20.2456 -18.8 1.49067
    endloop
  endfacet
  facet normal 0 -1 0
    outer loop
      vertex 40.95 -18.8 -16.2
      vertex 20.2456 -18.8 1.49067
      vertex 19.1703 -18.8 0.11424
    endloop
  endfacet
  facet normal 0 -1 0
    outer loop
      vertex 40.95 -18.8 -16.2
      vertex 19.1703 -18.8 0.11424
      vertex 18.0015 -18.8 -1.18383
    endloop
  endfacet
  facet normal 0 -1 0
    outer loop
      vertex 40.95 -18.8 -16.2
      vertex 18.0015 -18.8 -1.18383
      vertex 16.745 -18.8 -2.3972
    endloop
  endfacet
  facet normal 0 -1 0
    outer loop
      vertex 40.95 -18.8 -16.2
      vertex 16.745 -18.8 -2.3972
      vertex 15.4069 -18.8 -3.51997
    endloop
  endfacet
  facet normal 0 -1 0
    outer loop
      vertex 40.95 -18.8 -16.2
      vertex 0.87336 -18.8 -8.80976
      vertex -40.95 -18.8 -16.2
    endloop
  endfacet
  facet normal 0 -1 0
    outer loop
      vertex 0.87336 -18.8 -8.80976
      vertex 40.95 -18.8 -16.2
      vertex 2.61582 -18.8 -8.68791
    endloop
  endfacet
  facet normal 0 -1 0
    outer loop
      vertex 22.8615 -18.8 6.02141
      vertex 40.95 -18.8 -16.2
      vertex 40.95 -18.8 16.2
    endloop
  endfacet
  facet normal 0 -1 0
    outer loop
      vertex 13.9938 -18.8 -4.54667
      vertex 40.95 -18.8 -16.2
      vertex 15.4069 -18.8 -3.51997
    endloop
  endfacet
  facet normal 0 -1 0
    outer loop
      vertex 12.5125 -18.8 -5.47229
      vertex 40.95 -18.8 -16.2
      vertex 13.9938 -18.8 -4.54667
    endloop
  endfacet
  facet normal 0 -1 0
    outer loop
      vertex 10.9702 -18.8 -6.29232
      vertex 40.95 -18.8 -16.2
      vertex 12.5125 -18.8 -5.47229
    endloop
  endfacet
  facet normal 0 -1 0
    outer loop
      vertex 9.37453 -18.8 -7.00278
      vertex 40.95 -18.8 -16.2
      vertex 10.9702 -18.8 -6.29232
    endloop
  endfacet
  facet normal 0 -1 0
    outer loop
      vertex 7.73315 -18.8 -7.60019
      vertex 40.95 -18.8 -16.2
      vertex 9.37453 -18.8 -7.00278
    endloop
  endfacet
  facet normal 0 -1 0
    outer loop
      vertex 6.0541 -18.8 -8.08165
      vertex 40.95 -18.8 -16.2
      vertex 7.73315 -18.8 -7.60019
    endloop
  endfacet
  facet normal 0 -1 0
    outer loop
      vertex 4.34554 -18.8 -8.44481
      vertex 40.95 -18.8 -16.2
      vertex 6.0541 -18.8 -8.08165
    endloop
  endfacet
  facet normal 0 -1 0
    outer loop
      vertex 2.61582 -18.8 -8.68791
      vertex 40.95 -18.8 -16.2
      vertex 4.34554 -18.8 -8.44481
    endloop
  endfacet
  facet normal -1 0 0
    outer loop
      vertex 35.75 13.6 -11
      vertex 35.75 0 -2.11
      vertex 35.75 13.6 -2.11
    endloop
  endfacet
  facet normal -1 -0 0
    outer loop
      vertex 35.75 0 -2.11
      vertex 35.75 -13.6 -11
      vertex 35.75 0 2.11
    endloop
  endfacet
  facet normal -1 0 0
    outer loop
      vertex 35.75 -13.6 -11
      vertex 35.75 0 -2.11
      vertex 35.75 13.6 -11
    endloop
  endfacet
  facet normal -1 0 0
    outer loop
      vertex 35.75 0 2.11
      vertex 35.75 13.6 16.2
      vertex 35.75 13.6 2.11
    endloop
  endfacet
  facet normal -1 0 0
    outer loop
      vertex 35.75 -13.6 16.2
      vertex 35.75 0 2.11
      vertex 35.75 -13.6 -11
    endloop
  endfacet
  facet normal -1 0 0
    outer loop
      vertex 35.75 0 2.11
      vertex 35.75 -13.6 16.2
      vertex 35.75 13.6 16.2
    endloop
  endfacet
  facet normal 1 -0 0
    outer loop
      vertex 35.75 13.6 2.11
      vertex 35.75 18.8 -2.11
      vertex 35.75 18.8 2.11
    endloop
  endfacet
  facet normal 1 0 0
    outer loop
      vertex 35.75 18.8 -2.11
      vertex 35.75 13.6 2.11
      vertex 35.75 13.6 -2.11
    endloop
  endfacet
  facet normal -0 0 1
    outer loop
      vertex -35.75 13.6 -11
      vertex 35.75 -13.6 -11
      vertex 35.75 13.6 -11
    endloop
  endfacet
  facet normal 0 0 1
    outer loop
      vertex 35.75 -13.6 -11
      vertex -35.75 13.6 -11
      vertex -35.75 -13.6 -11
    endloop
  endfacet
  facet normal 1 0 0
    outer loop
      vertex -35.75 13.6 16.2
      vertex -35.75 0 2.11
      vertex -35.75 13.6 2.11
    endloop
  endfacet
  facet normal 1 0 0
    outer loop
      vertex -35.75 -13.6 -11
      vertex -35.75 0 2.11
      vertex -35.75 -13.6 16.2
    endloop
  endfacet
  facet normal 1 -0 0
    outer loop
      vertex -35.75 -13.6 16.2
      vertex -35.75 0 2.11
      vertex -35.75 13.6 16.2
    endloop
  endfacet
  facet normal 1 -0 0
    outer loop
      vertex -35.75 0 -2.11
      vertex -35.75 13.6 -11
      vertex -35.75 13.6 -2.11
    endloop
  endfacet
  facet normal 1 0 0
    outer loop
      vertex -35.75 0 -2.11
      vertex -35.75 -13.6 -11
      vertex -35.75 13.6 -11
    endloop
  endfacet
  facet normal 1 0 0
    outer loop
      vertex -35.75 0 2.11
      vertex -35.75 -13.6 -11
      vertex -35.75 0 -2.11
    endloop
  endfacet
  facet normal -1 0 0
    outer loop
      vertex -35.75 13.6 -2.11
      vertex -35.75 18.8 2.11
      vertex -35.75 18.8 -2.11
    endloop
  endfacet
  facet normal -1 -0 0
    outer loop
      vertex -35.75 18.8 2.11
      vertex -35.75 13.6 -2.11
      vertex -35.75 13.6 2.11
    endloop
  endfacet
  facet normal 0 -1 0
    outer loop
      vertex -35.75 13.6 16.2
      vertex -24.964 13.6 14.4543
      vertex -25.025 13.6 16.2
    endloop
  endfacet
  facet normal 0 -1 0
    outer loop
      vertex -35.75 13.6 16.2
      vertex -24.7815 13.6 12.7172
      vertex -24.964 13.6 14.4543
    endloop
  endfacet
  facet normal 0 -1 0
    outer loop
      vertex -35.75 13.6 16.2
      vertex -24.4781 13.6 10.997
      vertex -24.7815 13.6 12.7172
    endloop
  endfacet
  facet normal 0 -1 0
    outer loop
      vertex -35.75 13.6 2.11
      vertex -24.4781 13.6 10.997
      vertex -35.75 13.6 16.2
    endloop
  endfacet
  facet normal 0 -1 -0
    outer loop
      vertex -24.4781 13.6 10.997
      vertex -35.75 13.6 2.11
      vertex -24.0556 13.6 9.30217
    endloop
  endfacet
  facet normal 0 -1 -0
    outer loop
      vertex -24.0556 13.6 9.30217
      vertex -35.75 13.6 2.11
      vertex -23.5158 13.6 7.64095
    endloop
  endfacet
  facet normal 0 -1 -0
    outer loop
      vertex -23.5158 13.6 7.64095
      vertex -35.75 13.6 2.11
      vertex -22.8615 13.6 6.02141
    endloop
  endfacet
  facet normal 0 -1 -0
    outer loop
      vertex -22.8615 13.6 6.02141
      vertex -35.75 13.6 2.11
      vertex -22.0958 13.6 4.45147
    endloop
  endfacet
  facet normal 0 -1 0
    outer loop
      vertex -35.75 13.6 -2.11
      vertex -22.0958 13.6 4.45147
      vertex -35.75 13.6 2.11
    endloop
  endfacet
  facet normal 0 -1 -0
    outer loop
      vertex -22.0958 13.6 4.45147
      vertex -35.75 13.6 -2.11
      vertex -21.2224 13.6 2.93877
    endloop
  endfacet
  facet normal 0 -1 -0
    outer loop
      vertex -21.2224 13.6 2.93877
      vertex -35.75 13.6 -2.11
      vertex -20.2456 13.6 1.49067
    endloop
  endfacet
  facet normal 0 -1 -0
    outer loop
      vertex -20.2456 13.6 1.49067
      vertex -35.75 13.6 -2.11
      vertex -19.1703 13.6 0.11424
    endloop
  endfacet
  facet normal 0 -1 0
    outer loop
      vertex -35.75 13.6 -11
      vertex -19.1703 13.6 0.11424
      vertex -35.75 13.6 -2.11
    endloop
  endfacet
  facet normal 0 -1 -0
    outer loop
      vertex -19.1703 13.6 0.11424
      vertex -35.75 13.6 -11
      vertex -18.0015 13.6 -1.18383
    endloop
  endfacet
  facet normal 0 -1 -0
    outer loop
      vertex -18.0015 13.6 -1.18383
      vertex -35.75 13.6 -11
      vertex -16.745 13.6 -2.3972
    endloop
  endfacet
  facet normal 0 -1 -0
    outer loop
      vertex -16.745 13.6 -2.3972
      vertex -35.75 13.6 -11
      vertex -15.4069 13.6 -3.51997
    endloop
  endfacet
  facet normal 0 -1 -0
    outer loop
      vertex -15.4069 13.6 -3.51997
      vertex -35.75 13.6 -11
      vertex -13.9938 13.6 -4.54667
    endloop
  endfacet
  facet normal 0 -1 -0
    outer loop
      vertex -13.9938 13.6 -4.54667
      vertex -35.75 13.6 -11
      vertex -12.5125 13.6 -5.47229
    endloop
  endfacet
  facet normal 0 -1 -0
    outer loop
      vertex -12.5125 13.6 -5.47229
      vertex -35.75 13.6 -11
      vertex -10.9702 13.6 -6.29232
    endloop
  endfacet
  facet normal 0 -1 -0
    outer loop
      vertex -10.9702 13.6 -6.29232
      vertex -35.75 13.6 -11
      vertex -9.37453 13.6 -7.00278
    endloop
  endfacet
  facet normal 0 -1 -0
    outer loop
      vertex -9.37453 13.6 -7.00278
      vertex -35.75 13.6 -11
      vertex -7.73315 13.6 -7.60019
    endloop
  endfacet
  facet normal 0 -1 -0
    outer loop
      vertex -7.73315 13.6 -7.60019
      vertex -35.75 13.6 -11
      vertex -6.0541 13.6 -8.08165
    endloop
  endfacet
  facet normal 0 -1 -0
    outer loop
      vertex -0.87336 13.6 -8.80976
      vertex -35.75 13.6 -11
      vertex 0.87336 13.6 -8.80976
    endloop
  endfacet
  facet normal 0 -1 -0
    outer loop
      vertex -2.61582 13.6 -8.68791
      vertex -35.75 13.6 -11
      vertex -0.87336 13.6 -8.80976
    endloop
  endfacet
  facet normal 0 -1 -0
    outer loop
      vertex -4.34554 13.6 -8.44481
      vertex -35.75 13.6 -11
      vertex -2.61582 13.6 -8.68791
    endloop
  endfacet
  facet normal 0 -1 -0
    outer loop
      vertex -6.0541 13.6 -8.08165
      vertex -35.75 13.6 -11
      vertex -4.34554 13.6 -8.44481
    endloop
  endfacet
  facet normal 0 -1 0
    outer loop
      vertex 24.964 13.6 14.4543
      vertex 35.75 13.6 16.2
      vertex 25.025 13.6 16.2
    endloop
  endfacet
  facet normal 0 -1 0
    outer loop
      vertex 24.7815 13.6 12.7172
      vertex 35.75 13.6 16.2
      vertex 24.964 13.6 14.4543
    endloop
  endfacet
  facet normal 0 -1 0
    outer loop
      vertex 24.4781 13.6 10.997
      vertex 35.75 13.6 16.2
      vertex 24.7815 13.6 12.7172
    endloop
  endfacet
  facet normal 0 -1 0
    outer loop
      vertex 35.75 13.6 2.11
      vertex 24.4781 13.6 10.997
      vertex 24.0556 13.6 9.30217
    endloop
  endfacet
  facet normal 0 -1 0
    outer loop
      vertex 35.75 13.6 2.11
      vertex 24.0556 13.6 9.30217
      vertex 23.5158 13.6 7.64095
    endloop
  endfacet
  facet normal 0 -1 0
    outer loop
      vertex 35.75 13.6 2.11
      vertex 23.5158 13.6 7.64095
      vertex 22.8615 13.6 6.02141
    endloop
  endfacet
  facet normal 0 -1 0
    outer loop
      vertex 35.75 13.6 2.11
      vertex 22.8615 13.6 6.02141
      vertex 22.0958 13.6 4.45147
    endloop
  endfacet
  facet normal 0 -1 0
    outer loop
      vertex 35.75 13.6 -2.11
      vertex 22.0958 13.6 4.45147
      vertex 21.2224 13.6 2.93877
    endloop
  endfacet
  facet normal 0 -1 0
    outer loop
      vertex 24.4781 13.6 10.997
      vertex 35.75 13.6 2.11
      vertex 35.75 13.6 16.2
    endloop
  endfacet
  facet normal 0 -1 0
    outer loop
      vertex 35.75 13.6 -2.11
      vertex 21.2224 13.6 2.93877
      vertex 20.2456 13.6 1.49067
    endloop
  endfacet
  facet normal 0 -1 0
    outer loop
      vertex 35.75 13.6 -2.11
      vertex 20.2456 13.6 1.49067
      vertex 19.1703 13.6 0.11424
    endloop
  endfacet
  facet normal 0 -1 0
    outer loop
      vertex 35.75 13.6 -11
      vertex 19.1703 13.6 0.11424
      vertex 18.0015 13.6 -1.18383
    endloop
  endfacet
  facet normal 0 -1 0
    outer loop
      vertex 22.0958 13.6 4.45147
      vertex 35.75 13.6 -2.11
      vertex 35.75 13.6 2.11
    endloop
  endfacet
  facet normal 0 -1 0
    outer loop
      vertex 35.75 13.6 -11
      vertex 18.0015 13.6 -1.18383
      vertex 16.745 13.6 -2.3972
    endloop
  endfacet
  facet normal 0 -1 0
    outer loop
      vertex 35.75 13.6 -11
      vertex 16.745 13.6 -2.3972
      vertex 15.4069 13.6 -3.51997
    endloop
  endfacet
  facet normal 0 -1 0
    outer loop
      vertex 35.75 13.6 -11
      vertex 15.4069 13.6 -3.51997
      vertex 13.9938 13.6 -4.54667
    endloop
  endfacet
  facet normal 0 -1 0
    outer loop
      vertex 35.75 13.6 -11
      vertex 13.9938 13.6 -4.54667
      vertex 12.5125 13.6 -5.47229
    endloop
  endfacet
  facet normal 0 -1 0
    outer loop
      vertex 35.75 13.6 -11
      vertex 12.5125 13.6 -5.47229
      vertex 10.9702 13.6 -6.29232
    endloop
  endfacet
  facet normal 0 -1 0
    outer loop
      vertex 35.75 13.6 -11
      vertex 10.9702 13.6 -6.29232
      vertex 9.37453 13.6 -7.00278
    endloop
  endfacet
  facet normal 0 -1 0
    outer loop
      vertex 35.75 13.6 -11
      vertex 9.37453 13.6 -7.00278
      vertex 7.73315 13.6 -7.60019
    endloop
  endfacet
  facet normal 0 -1 0
    outer loop
      vertex 35.75 13.6 -11
      vertex 7.73315 13.6 -7.60019
      vertex 6.0541 13.6 -8.08165
    endloop
  endfacet
  facet normal 0 -1 0
    outer loop
      vertex 35.75 13.6 -11
      vertex 6.0541 13.6 -8.08165
      vertex 4.34554 13.6 -8.44481
    endloop
  endfacet
  facet normal 0 -1 0
    outer loop
      vertex 19.1703 13.6 0.11424
      vertex 35.75 13.6 -11
      vertex 35.75 13.6 -2.11
    endloop
  endfacet
  facet normal 0 -1 0
    outer loop
      vertex 2.61582 13.6 -8.68791
      vertex 35.75 13.6 -11
      vertex 4.34554 13.6 -8.44481
    endloop
  endfacet
  facet normal 0 -1 0
    outer loop
      vertex 0.87336 13.6 -8.80976
      vertex 35.75 13.6 -11
      vertex 2.61582 13.6 -8.68791
    endloop
  endfacet
  facet normal 0 -1 0
    outer loop
      vertex 35.75 13.6 -11
      vertex 0.87336 13.6 -8.80976
      vertex -35.75 13.6 -11
    endloop
  endfacet
  facet normal 0 1 0
    outer loop
      vertex 35.75 -13.6 16.2
      vertex 24.964 -13.6 14.4543
      vertex 25.025 -13.6 16.2
    endloop
  endfacet
  facet normal 0 1 0
    outer loop
      vertex 35.75 -13.6 16.2
      vertex 24.7815 -13.6 12.7172
      vertex 24.964 -13.6 14.4543
    endloop
  endfacet
  facet normal 0 1 0
    outer loop
      vertex 35.75 -13.6 16.2
      vertex 24.4781 -13.6 10.997
      vertex 24.7815 -13.6 12.7172
    endloop
  endfacet
  facet normal 0 1 0
    outer loop
      vertex 35.75 -13.6 16.2
      vertex 24.0556 -13.6 9.30217
      vertex 24.4781 -13.6 10.997
    endloop
  endfacet
  facet normal 0 1 0
    outer loop
      vertex 35.75 -13.6 16.2
      vertex 23.5158 -13.6 7.64095
      vertex 24.0556 -13.6 9.30217
    endloop
  endfacet
  facet normal 0 1 -0
    outer loop
      vertex 35.75 -13.6 -11
      vertex 23.5158 -13.6 7.64095
      vertex 35.75 -13.6 16.2
    endloop
  endfacet
  facet normal 0 1 0
    outer loop
      vertex 23.5158 -13.6 7.64095
      vertex 35.75 -13.6 -11
      vertex 22.8615 -13.6 6.02141
    endloop
  endfacet
  facet normal 0 1 0
    outer loop
      vertex 22.8615 -13.6 6.02141
      vertex 35.75 -13.6 -11
      vertex 22.0958 -13.6 4.45147
    endloop
  endfacet
  facet normal 0 1 0
    outer loop
      vertex 22.0958 -13.6 4.45147
      vertex 35.75 -13.6 -11
      vertex 21.2224 -13.6 2.93877
    endloop
  endfacet
  facet normal 0 1 0
    outer loop
      vertex 21.2224 -13.6 2.93877
      vertex 35.75 -13.6 -11
      vertex 20.2456 -13.6 1.49067
    endloop
  endfacet
  facet normal 0 1 0
    outer loop
      vertex 20.2456 -13.6 1.49067
      vertex 35.75 -13.6 -11
      vertex 19.1703 -13.6 0.11424
    endloop
  endfacet
  facet normal 0 1 0
    outer loop
      vertex 0.87336 -13.6 -8.80976
      vertex 35.75 -13.6 -11
      vertex -0.87336 -13.6 -8.80976
    endloop
  endfacet
  facet normal 0 1 0
    outer loop
      vertex 2.61582 -13.6 -8.68791
      vertex 35.75 -13.6 -11
      vertex 0.87336 -13.6 -8.80976
    endloop
  endfacet
  facet normal 0 1 0
    outer loop
      vertex 4.34554 -13.6 -8.44481
      vertex 35.75 -13.6 -11
      vertex 2.61582 -13.6 -8.68791
    endloop
  endfacet
  facet normal 0 1 0
    outer loop
      vertex 6.0541 -13.6 -8.08165
      vertex 35.75 -13.6 -11
      vertex 4.34554 -13.6 -8.44481
    endloop
  endfacet
  facet normal 0 1 0
    outer loop
      vertex 7.73315 -13.6 -7.60019
      vertex 35.75 -13.6 -11
      vertex 6.0541 -13.6 -8.08165
    endloop
  endfacet
  facet normal 0 1 0
    outer loop
      vertex 9.37453 -13.6 -7.00278
      vertex 35.75 -13.6 -11
      vertex 7.73315 -13.6 -7.60019
    endloop
  endfacet
  facet normal 0 1 0
    outer loop
      vertex 10.9702 -13.6 -6.29232
      vertex 35.75 -13.6 -11
      vertex 9.37453 -13.6 -7.00278
    endloop
  endfacet
  facet normal 0 1 0
    outer loop
      vertex 12.5125 -13.6 -5.47229
      vertex 35.75 -13.6 -11
      vertex 10.9702 -13.6 -6.29232
    endloop
  endfacet
  facet normal 0 1 0
    outer loop
      vertex 13.9938 -13.6 -4.54667
      vertex 35.75 -13.6 -11
      vertex 12.5125 -13.6 -5.47229
    endloop
  endfacet
  facet normal 0 1 0
    outer loop
      vertex 15.4069 -13.6 -3.51997
      vertex 35.75 -13.6 -11
      vertex 13.9938 -13.6 -4.54667
    endloop
  endfacet
  facet normal 0 1 0
    outer loop
      vertex 16.745 -13.6 -2.3972
      vertex 35.75 -13.6 -11
      vertex 15.4069 -13.6 -3.51997
    endloop
  endfacet
  facet normal 0 1 0
    outer loop
      vertex 18.0015 -13.6 -1.18383
      vertex 35.75 -13.6 -11
      vertex 16.745 -13.6 -2.3972
    endloop
  endfacet
  facet normal 0 1 0
    outer loop
      vertex 19.1703 -13.6 0.11424
      vertex 35.75 -13.6 -11
      vertex 18.0015 -13.6 -1.18383
    endloop
  endfacet
  facet normal 0 1 0
    outer loop
      vertex -24.964 -13.6 14.4543
      vertex -35.75 -13.6 16.2
      vertex -25.025 -13.6 16.2
    endloop
  endfacet
  facet normal 0 1 0
    outer loop
      vertex -24.7815 -13.6 12.7172
      vertex -35.75 -13.6 16.2
      vertex -24.964 -13.6 14.4543
    endloop
  endfacet
  facet normal 0 1 0
    outer loop
      vertex -24.4781 -13.6 10.997
      vertex -35.75 -13.6 16.2
      vertex -24.7815 -13.6 12.7172
    endloop
  endfacet
  facet normal 0 1 0
    outer loop
      vertex -24.0556 -13.6 9.30217
      vertex -35.75 -13.6 16.2
      vertex -24.4781 -13.6 10.997
    endloop
  endfacet
  facet normal 0 1 0
    outer loop
      vertex -23.5158 -13.6 7.64095
      vertex -35.75 -13.6 16.2
      vertex -24.0556 -13.6 9.30217
    endloop
  endfacet
  facet normal 0 1 0
    outer loop
      vertex -35.75 -13.6 -11
      vertex -23.5158 -13.6 7.64095
      vertex -22.8615 -13.6 6.02141
    endloop
  endfacet
  facet normal 0 1 0
    outer loop
      vertex -35.75 -13.6 -11
      vertex -22.8615 -13.6 6.02141
      vertex -22.0958 -13.6 4.45147
    endloop
  endfacet
  facet normal 0 1 0
    outer loop
      vertex -35.75 -13.6 -11
      vertex -22.0958 -13.6 4.45147
      vertex -21.2224 -13.6 2.93877
    endloop
  endfacet
  facet normal 0 1 0
    outer loop
      vertex -35.75 -13.6 -11
      vertex -21.2224 -13.6 2.93877
      vertex -20.2456 -13.6 1.49067
    endloop
  endfacet
  facet normal 0 1 0
    outer loop
      vertex -35.75 -13.6 -11
      vertex -20.2456 -13.6 1.49067
      vertex -19.1703 -13.6 0.11424
    endloop
  endfacet
  facet normal 0 1 0
    outer loop
      vertex -35.75 -13.6 -11
      vertex -19.1703 -13.6 0.11424
      vertex -18.0015 -13.6 -1.18383
    endloop
  endfacet
  facet normal 0 1 0
    outer loop
      vertex -23.5158 -13.6 7.64095
      vertex -35.75 -13.6 -11
      vertex -35.75 -13.6 16.2
    endloop
  endfacet
  facet normal 0 1 0
    outer loop
      vertex -16.745 -13.6 -2.3972
      vertex -35.75 -13.6 -11
      vertex -18.0015 -13.6 -1.18383
    endloop
  endfacet
  facet normal 0 1 0
    outer loop
      vertex -15.4069 -13.6 -3.51997
      vertex -35.75 -13.6 -11
      vertex -16.745 -13.6 -2.3972
    endloop
  endfacet
  facet normal 0 1 0
    outer loop
      vertex -13.9938 -13.6 -4.54667
      vertex -35.75 -13.6 -11
      vertex -15.4069 -13.6 -3.51997
    endloop
  endfacet
  facet normal 0 1 0
    outer loop
      vertex -12.5125 -13.6 -5.47229
      vertex -35.75 -13.6 -11
      vertex -13.9938 -13.6 -4.54667
    endloop
  endfacet
  facet normal 0 1 0
    outer loop
      vertex -10.9702 -13.6 -6.29232
      vertex -35.75 -13.6 -11
      vertex -12.5125 -13.6 -5.47229
    endloop
  endfacet
  facet normal 0 1 0
    outer loop
      vertex -9.37453 -13.6 -7.00278
      vertex -35.75 -13.6 -11
      vertex -10.9702 -13.6 -6.29232
    endloop
  endfacet
  facet normal 0 1 0
    outer loop
      vertex -7.73315 -13.6 -7.60019
      vertex -35.75 -13.6 -11
      vertex -9.37453 -13.6 -7.00278
    endloop
  endfacet
  facet normal 0 1 0
    outer loop
      vertex -6.0541 -13.6 -8.08165
      vertex -35.75 -13.6 -11
      vertex -7.73315 -13.6 -7.60019
    endloop
  endfacet
  facet normal 0 1 0
    outer loop
      vertex -4.34554 -13.6 -8.44481
      vertex -35.75 -13.6 -11
      vertex -6.0541 -13.6 -8.08165
    endloop
  endfacet
  facet normal 0 1 0
    outer loop
      vertex -2.61582 -13.6 -8.68791
      vertex -35.75 -13.6 -11
      vertex -4.34554 -13.6 -8.44481
    endloop
  endfacet
  facet normal 0 1 0
    outer loop
      vertex -0.87336 -13.6 -8.80976
      vertex -35.75 -13.6 -11
      vertex -2.61582 -13.6 -8.68791
    endloop
  endfacet
  facet normal 0 1 0
    outer loop
      vertex -35.75 -13.6 -11
      vertex -0.87336 -13.6 -8.80976
      vertex 35.75 -13.6 -11
    endloop
  endfacet
  facet normal -0.99939 0 0.0349217
    outer loop
      vertex 24.964 13.6 14.4543
      vertex 25.025 18.8 16.2
      vertex 24.964 18.8 14.4543
    endloop
  endfacet
  facet normal -0.99939 0 0.0349217
    outer loop
      vertex 25.025 18.8 16.2
      vertex 24.964 13.6 14.4543
      vertex 25.025 13.6 16.2
    endloop
  endfacet
  facet normal 0.642778 0 0.766053
    outer loop
      vertex -16.745 18.8 -2.3972
      vertex -15.4069 13.6 -3.51997
      vertex -15.4069 18.8 -3.51997
    endloop
  endfacet
  facet normal 0.642778 0 0.766053
    outer loop
      vertex -15.4069 13.6 -3.51997
      vertex -16.745 18.8 -2.3972
      vertex -16.745 13.6 -2.3972
    endloop
  endfacet
  facet normal -0.0697595 0 0.997564
    outer loop
      vertex 0.87336 18.8 -8.80976
      vertex 2.61582 13.6 -8.68791
      vertex 2.61582 18.8 -8.68791
    endloop
  endfacet
  facet normal -0.0697595 0 0.997564
    outer loop
      vertex 2.61582 13.6 -8.68791
      vertex 0.87336 18.8 -8.80976
      vertex 0.87336 13.6 -8.80976
    endloop
  endfacet
  facet normal 0.95105 -0 0.309036
    outer loop
      vertex -24.0556 13.6 9.30217
      vertex -23.5158 18.8 7.64095
      vertex -24.0556 18.8 9.30217
    endloop
  endfacet
  facet normal 0.95105 0 0.309036
    outer loop
      vertex -23.5158 18.8 7.64095
      vertex -24.0556 13.6 9.30217
      vertex -23.5158 13.6 7.64095
    endloop
  endfacet
  facet normal 0.9848 -0 0.173694
    outer loop
      vertex -24.7815 13.6 12.7172
      vertex -24.4781 18.8 10.997
      vertex -24.7815 18.8 12.7172
    endloop
  endfacet
  facet normal 0.9848 0 0.173694
    outer loop
      vertex -24.4781 18.8 10.997
      vertex -24.7815 13.6 12.7172
      vertex -24.4781 13.6 10.997
    endloop
  endfacet
  facet normal -0.207909 0 0.978148
    outer loop
      vertex 4.34554 18.8 -8.44481
      vertex 6.0541 13.6 -8.08165
      vertex 6.0541 18.8 -8.08165
    endloop
  endfacet
  facet normal -0.207909 0 0.978148
    outer loop
      vertex 6.0541 13.6 -8.08165
      vertex 4.34554 18.8 -8.44481
      vertex 4.34554 13.6 -8.44481
    endloop
  endfacet
  facet normal -0.275637 0 0.961262
    outer loop
      vertex 6.0541 18.8 -8.08165
      vertex 7.73315 13.6 -7.60019
      vertex 7.73315 18.8 -7.60019
    endloop
  endfacet
  facet normal -0.275637 0 0.961262
    outer loop
      vertex 7.73315 13.6 -7.60019
      vertex 6.0541 18.8 -8.08165
      vertex 6.0541 13.6 -8.08165
    endloop
  endfacet
  facet normal -0.866015 0 0.500018
    outer loop
      vertex 21.2224 13.6 2.93877
      vertex 22.0958 18.8 4.45147
      vertex 21.2224 18.8 2.93877
    endloop
  endfacet
  facet normal -0.866015 0 0.500018
    outer loop
      vertex 22.0958 18.8 4.45147
      vertex 21.2224 13.6 2.93877
      vertex 22.0958 13.6 4.45147
    endloop
  endfacet
  facet normal 0.694653 0 0.719345
    outer loop
      vertex -18.0015 18.8 -1.18383
      vertex -16.745 13.6 -2.3972
      vertex -16.745 18.8 -2.3972
    endloop
  endfacet
  facet normal 0.694653 0 0.719345
    outer loop
      vertex -16.745 13.6 -2.3972
      vertex -18.0015 18.8 -1.18383
      vertex -18.0015 13.6 -1.18383
    endloop
  endfacet
  facet normal 0.970305 -0 0.241885
    outer loop
      vertex -24.4781 13.6 10.997
      vertex -24.0556 18.8 9.30217
      vertex -24.4781 18.8 10.997
    endloop
  endfacet
  facet normal 0.970305 0 0.241885
    outer loop
      vertex -24.0556 18.8 9.30217
      vertex -24.4781 13.6 10.997
      vertex -24.0556 13.6 9.30217
    endloop
  endfacet
  facet normal 0.52992 0 0.848048
    outer loop
      vertex -13.9938 18.8 -4.54667
      vertex -12.5125 13.6 -5.47229
      vertex -12.5125 18.8 -5.47229
    endloop
  endfacet
  facet normal 0.52992 0 0.848048
    outer loop
      vertex -12.5125 13.6 -5.47229
      vertex -13.9938 18.8 -4.54667
      vertex -13.9938 13.6 -4.54667
    endloop
  endfacet
  facet normal -0.642778 0 0.766053
    outer loop
      vertex 15.4069 18.8 -3.51997
      vertex 16.745 13.6 -2.3972
      vertex 16.745 18.8 -2.3972
    endloop
  endfacet
  facet normal -0.642778 0 0.766053
    outer loop
      vertex 16.745 13.6 -2.3972
      vertex 15.4069 18.8 -3.51997
      vertex 15.4069 13.6 -3.51997
    endloop
  endfacet
  facet normal -0.898797 0 0.438366
    outer loop
      vertex 22.0958 13.6 4.45147
      vertex 22.8615 18.8 6.02141
      vertex 22.0958 18.8 4.45147
    endloop
  endfacet
  facet normal -0.898797 0 0.438366
    outer loop
      vertex 22.8615 18.8 6.02141
      vertex 22.0958 13.6 4.45147
      vertex 22.8615 13.6 6.02141
    endloop
  endfacet
  facet normal 0.994526 -0 0.104485
    outer loop
      vertex -24.964 13.6 14.4543
      vertex -24.7815 18.8 12.7172
      vertex -24.964 18.8 14.4543
    endloop
  endfacet
  facet normal 0.994526 0 0.104485
    outer loop
      vertex -24.7815 18.8 12.7172
      vertex -24.964 13.6 14.4543
      vertex -24.7815 13.6 12.7172
    endloop
  endfacet
  facet normal -0.970305 0 0.241885
    outer loop
      vertex 24.0556 13.6 9.30217
      vertex 24.4781 18.8 10.997
      vertex 24.0556 18.8 9.30217
    endloop
  endfacet
  facet normal -0.970305 0 0.241885
    outer loop
      vertex 24.4781 18.8 10.997
      vertex 24.0556 13.6 9.30217
      vertex 24.4781 13.6 10.997
    endloop
  endfacet
  facet normal -0.9848 0 0.173694
    outer loop
      vertex 24.4781 13.6 10.997
      vertex 24.7815 18.8 12.7172
      vertex 24.4781 18.8 10.997
    endloop
  endfacet
  facet normal -0.9848 0 0.173694
    outer loop
      vertex 24.7815 18.8 12.7172
      vertex 24.4781 13.6 10.997
      vertex 24.7815 13.6 12.7172
    endloop
  endfacet
  facet normal -0.994526 0 0.104485
    outer loop
      vertex 24.7815 13.6 12.7172
      vertex 24.964 18.8 14.4543
      vertex 24.7815 18.8 12.7172
    endloop
  endfacet
  facet normal -0.994526 0 0.104485
    outer loop
      vertex 24.964 18.8 14.4543
      vertex 24.7815 13.6 12.7172
      vertex 24.964 13.6 14.4543
    endloop
  endfacet
  facet normal 0.0697595 0 0.997564
    outer loop
      vertex -2.61582 18.8 -8.68791
      vertex -0.87336 13.6 -8.80976
      vertex -0.87336 18.8 -8.80976
    endloop
  endfacet
  facet normal 0.0697595 0 0.997564
    outer loop
      vertex -0.87336 13.6 -8.80976
      vertex -2.61582 18.8 -8.68791
      vertex -2.61582 13.6 -8.68791
    endloop
  endfacet
  facet normal -0.788034 0 0.615631
    outer loop
      vertex 19.1703 13.6 0.11424
      vertex 20.2456 18.8 1.49067
      vertex 19.1703 18.8 0.11424
    endloop
  endfacet
  facet normal -0.788034 0 0.615631
    outer loop
      vertex 20.2456 18.8 1.49067
      vertex 19.1703 13.6 0.11424
      vertex 20.2456 13.6 1.49067
    endloop
  endfacet
  facet normal -0.587794 0 0.809011
    outer loop
      vertex 13.9938 18.8 -4.54667
      vertex 15.4069 13.6 -3.51997
      vertex 15.4069 18.8 -3.51997
    endloop
  endfacet
  facet normal -0.587794 0 0.809011
    outer loop
      vertex 15.4069 13.6 -3.51997
      vertex 13.9938 18.8 -4.54667
      vertex 13.9938 13.6 -4.54667
    endloop
  endfacet
  facet normal 0.99939 -0 0.0349217
    outer loop
      vertex -25.025 13.6 16.2
      vertex -24.964 18.8 14.4543
      vertex -25.025 18.8 16.2
    endloop
  endfacet
  facet normal 0.99939 0 0.0349217
    outer loop
      vertex -24.964 18.8 14.4543
      vertex -25.025 13.6 16.2
      vertex -24.964 13.6 14.4543
    endloop
  endfacet
  facet normal 0.788034 -0 0.615631
    outer loop
      vertex -20.2456 13.6 1.49067
      vertex -19.1703 18.8 0.11424
      vertex -20.2456 18.8 1.49067
    endloop
  endfacet
  facet normal 0.788034 0 0.615631
    outer loop
      vertex -19.1703 18.8 0.11424
      vertex -20.2456 13.6 1.49067
      vertex -19.1703 13.6 0.11424
    endloop
  endfacet
  facet normal 0.829026 -0 0.55921
    outer loop
      vertex -21.2224 13.6 2.93877
      vertex -20.2456 18.8 1.49067
      vertex -21.2224 18.8 2.93877
    endloop
  endfacet
  facet normal 0.829026 0 0.55921
    outer loop
      vertex -20.2456 18.8 1.49067
      vertex -21.2224 13.6 2.93877
      vertex -20.2456 13.6 1.49067
    endloop
  endfacet
  facet normal 0.406747 0 0.913541
    outer loop
      vertex -10.9702 18.8 -6.29232
      vertex -9.37453 13.6 -7.00278
      vertex -9.37453 18.8 -7.00278
    endloop
  endfacet
  facet normal 0.406747 0 0.913541
    outer loop
      vertex -9.37453 13.6 -7.00278
      vertex -10.9702 18.8 -6.29232
      vertex -10.9702 13.6 -6.29232
    endloop
  endfacet
  facet normal 0.743141 -0 0.669135
    outer loop
      vertex -19.1703 13.6 0.11424
      vertex -18.0015 18.8 -1.18383
      vertex -19.1703 18.8 0.11424
    endloop
  endfacet
  facet normal 0.743141 0 0.669135
    outer loop
      vertex -18.0015 18.8 -1.18383
      vertex -19.1703 13.6 0.11424
      vertex -18.0015 13.6 -1.18383
    endloop
  endfacet
  facet normal -0.46946 0 0.882954
    outer loop
      vertex 10.9702 18.8 -6.29232
      vertex 12.5125 13.6 -5.47229
      vertex 12.5125 18.8 -5.47229
    endloop
  endfacet
  facet normal -0.46946 0 0.882954
    outer loop
      vertex 12.5125 13.6 -5.47229
      vertex 10.9702 18.8 -6.29232
      vertex 10.9702 13.6 -6.29232
    endloop
  endfacet
  facet normal -0.139175 0 0.990268
    outer loop
      vertex 2.61582 18.8 -8.68791
      vertex 4.34554 13.6 -8.44481
      vertex 4.34554 18.8 -8.44481
    endloop
  endfacet
  facet normal -0.139175 0 0.990268
    outer loop
      vertex 4.34554 13.6 -8.44481
      vertex 2.61582 18.8 -8.68791
      vertex 2.61582 13.6 -8.68791
    endloop
  endfacet
  facet normal -0.52992 0 0.848048
    outer loop
      vertex 12.5125 18.8 -5.47229
      vertex 13.9938 13.6 -4.54667
      vertex 13.9938 18.8 -4.54667
    endloop
  endfacet
  facet normal -0.52992 0 0.848048
    outer loop
      vertex 13.9938 13.6 -4.54667
      vertex 12.5125 18.8 -5.47229
      vertex 12.5125 13.6 -5.47229
    endloop
  endfacet
  facet normal -0.829026 0 0.55921
    outer loop
      vertex 20.2456 13.6 1.49067
      vertex 21.2224 18.8 2.93877
      vertex 20.2456 18.8 1.49067
    endloop
  endfacet
  facet normal -0.829026 0 0.55921
    outer loop
      vertex 21.2224 18.8 2.93877
      vertex 20.2456 13.6 1.49067
      vertex 21.2224 13.6 2.93877
    endloop
  endfacet
  facet normal 0.46946 0 0.882954
    outer loop
      vertex -12.5125 18.8 -5.47229
      vertex -10.9702 13.6 -6.29232
      vertex -10.9702 18.8 -6.29232
    endloop
  endfacet
  facet normal 0.46946 0 0.882954
    outer loop
      vertex -10.9702 13.6 -6.29232
      vertex -12.5125 18.8 -5.47229
      vertex -12.5125 13.6 -5.47229
    endloop
  endfacet
  facet normal -0 0 1
    outer loop
      vertex -0.87336 18.8 -8.80976
      vertex 0.87336 13.6 -8.80976
      vertex 0.87336 18.8 -8.80976
    endloop
  endfacet
  facet normal 0 0 1
    outer loop
      vertex 0.87336 13.6 -8.80976
      vertex -0.87336 18.8 -8.80976
      vertex -0.87336 13.6 -8.80976
    endloop
  endfacet
  facet normal 0.207909 0 0.978148
    outer loop
      vertex -6.0541 18.8 -8.08165
      vertex -4.34554 13.6 -8.44481
      vertex -4.34554 18.8 -8.44481
    endloop
  endfacet
  facet normal 0.207909 0 0.978148
    outer loop
      vertex -4.34554 13.6 -8.44481
      vertex -6.0541 18.8 -8.08165
      vertex -6.0541 13.6 -8.08165
    endloop
  endfacet
  facet normal 0.927191 -0 0.374589
    outer loop
      vertex -23.5158 13.6 7.64095
      vertex -22.8615 18.8 6.02141
      vertex -23.5158 18.8 7.64095
    endloop
  endfacet
  facet normal 0.927191 0 0.374589
    outer loop
      vertex -22.8615 18.8 6.02141
      vertex -23.5158 13.6 7.64095
      vertex -22.8615 13.6 6.02141
    endloop
  endfacet
  facet normal 0.139175 0 0.990268
    outer loop
      vertex -4.34554 18.8 -8.44481
      vertex -2.61582 13.6 -8.68791
      vertex -2.61582 18.8 -8.68791
    endloop
  endfacet
  facet normal 0.139175 0 0.990268
    outer loop
      vertex -2.61582 13.6 -8.68791
      vertex -4.34554 18.8 -8.44481
      vertex -4.34554 13.6 -8.44481
    endloop
  endfacet
  facet normal -0.743141 0 0.669135
    outer loop
      vertex 18.0015 13.6 -1.18383
      vertex 19.1703 18.8 0.11424
      vertex 18.0015 18.8 -1.18383
    endloop
  endfacet
  facet normal -0.743141 0 0.669135
    outer loop
      vertex 19.1703 18.8 0.11424
      vertex 18.0015 13.6 -1.18383
      vertex 19.1703 13.6 0.11424
    endloop
  endfacet
  facet normal -0.927191 0 0.374589
    outer loop
      vertex 22.8615 13.6 6.02141
      vertex 23.5158 18.8 7.64095
      vertex 22.8615 18.8 6.02141
    endloop
  endfacet
  facet normal -0.927191 0 0.374589
    outer loop
      vertex 23.5158 18.8 7.64095
      vertex 22.8615 13.6 6.02141
      vertex 23.5158 13.6 7.64095
    endloop
  endfacet
  facet normal 0.898797 -0 0.438366
    outer loop
      vertex -22.8615 13.6 6.02141
      vertex -22.0958 18.8 4.45147
      vertex -22.8615 18.8 6.02141
    endloop
  endfacet
  facet normal 0.898797 0 0.438366
    outer loop
      vertex -22.0958 18.8 4.45147
      vertex -22.8615 13.6 6.02141
      vertex -22.0958 13.6 4.45147
    endloop
  endfacet
  facet normal -0.694653 0 0.719345
    outer loop
      vertex 16.745 18.8 -2.3972
      vertex 18.0015 13.6 -1.18383
      vertex 18.0015 18.8 -1.18383
    endloop
  endfacet
  facet normal -0.694653 0 0.719345
    outer loop
      vertex 18.0015 13.6 -1.18383
      vertex 16.745 18.8 -2.3972
      vertex 16.745 13.6 -2.3972
    endloop
  endfacet
  facet normal 0.342018 0 0.939693
    outer loop
      vertex -9.37453 18.8 -7.00278
      vertex -7.73315 13.6 -7.60019
      vertex -7.73315 18.8 -7.60019
    endloop
  endfacet
  facet normal 0.342018 0 0.939693
    outer loop
      vertex -7.73315 13.6 -7.60019
      vertex -9.37453 18.8 -7.00278
      vertex -9.37453 13.6 -7.00278
    endloop
  endfacet
  facet normal -0.406747 0 0.913541
    outer loop
      vertex 9.37453 18.8 -7.00278
      vertex 10.9702 13.6 -6.29232
      vertex 10.9702 18.8 -6.29232
    endloop
  endfacet
  facet normal -0.406747 0 0.913541
    outer loop
      vertex 10.9702 13.6 -6.29232
      vertex 9.37453 18.8 -7.00278
      vertex 9.37453 13.6 -7.00278
    endloop
  endfacet
  facet normal -0.95105 0 0.309036
    outer loop
      vertex 23.5158 13.6 7.64095
      vertex 24.0556 18.8 9.30217
      vertex 23.5158 18.8 7.64095
    endloop
  endfacet
  facet normal -0.95105 0 0.309036
    outer loop
      vertex 24.0556 18.8 9.30217
      vertex 23.5158 13.6 7.64095
      vertex 24.0556 13.6 9.30217
    endloop
  endfacet
  facet normal 0.275637 0 0.961262
    outer loop
      vertex -7.73315 18.8 -7.60019
      vertex -6.0541 13.6 -8.08165
      vertex -6.0541 18.8 -8.08165
    endloop
  endfacet
  facet normal 0.275637 0 0.961262
    outer loop
      vertex -6.0541 13.6 -8.08165
      vertex -7.73315 18.8 -7.60019
      vertex -7.73315 13.6 -7.60019
    endloop
  endfacet
  facet normal -0.342018 0 0.939693
    outer loop
      vertex 7.73315 18.8 -7.60019
      vertex 9.37453 13.6 -7.00278
      vertex 9.37453 18.8 -7.00278
    endloop
  endfacet
  facet normal -0.342018 0 0.939693
    outer loop
      vertex 9.37453 13.6 -7.00278
      vertex 7.73315 18.8 -7.60019
      vertex 7.73315 13.6 -7.60019
    endloop
  endfacet
  facet normal 0.866015 -0 0.500018
    outer loop
      vertex -22.0958 13.6 4.45147
      vertex -21.2224 18.8 2.93877
      vertex -22.0958 18.8 4.45147
    endloop
  endfacet
  facet normal 0.866015 0 0.500018
    outer loop
      vertex -21.2224 18.8 2.93877
      vertex -22.0958 13.6 4.45147
      vertex -21.2224 13.6 2.93877
    endloop
  endfacet
  facet normal 0.587794 0 0.809011
    outer loop
      vertex -15.4069 18.8 -3.51997
      vertex -13.9938 13.6 -4.54667
      vertex -13.9938 18.8 -4.54667
    endloop
  endfacet
  facet normal 0.587794 0 0.809011
    outer loop
      vertex -13.9938 13.6 -4.54667
      vertex -15.4069 18.8 -3.51997
      vertex -15.4069 13.6 -3.51997
    endloop
  endfacet
  facet normal -0.99939 0 0.0349217
    outer loop
      vertex 24.964 -18.8 14.4543
      vertex 25.025 -13.6 16.2
      vertex 24.964 -13.6 14.4543
    endloop
  endfacet
  facet normal -0.99939 0 0.0349217
    outer loop
      vertex 25.025 -13.6 16.2
      vertex 24.964 -18.8 14.4543
      vertex 25.025 -18.8 16.2
    endloop
  endfacet
  facet normal 0.642778 0 0.766053
    outer loop
      vertex -16.745 -13.6 -2.3972
      vertex -15.4069 -18.8 -3.51997
      vertex -15.4069 -13.6 -3.51997
    endloop
  endfacet
  facet normal 0.642778 0 0.766053
    outer loop
      vertex -15.4069 -18.8 -3.51997
      vertex -16.745 -13.6 -2.3972
      vertex -16.745 -18.8 -2.3972
    endloop
  endfacet
  facet normal -0.0697595 0 0.997564
    outer loop
      vertex 0.87336 -13.6 -8.80976
      vertex 2.61582 -18.8 -8.68791
      vertex 2.61582 -13.6 -8.68791
    endloop
  endfacet
  facet normal -0.0697595 0 0.997564
    outer loop
      vertex 2.61582 -18.8 -8.68791
      vertex 0.87336 -13.6 -8.80976
      vertex 0.87336 -18.8 -8.80976
    endloop
  endfacet
  facet normal 0.95105 -0 0.309036
    outer loop
      vertex -24.0556 -18.8 9.30217
      vertex -23.5158 -13.6 7.64095
      vertex -24.0556 -13.6 9.30217
    endloop
  endfacet
  facet normal 0.95105 0 0.309036
    outer loop
      vertex -23.5158 -13.6 7.64095
      vertex -24.0556 -18.8 9.30217
      vertex -23.5158 -18.8 7.64095
    endloop
  endfacet
  facet normal 0.9848 -0 0.173694
    outer loop
      vertex -24.7815 -18.8 12.7172
      vertex -24.4781 -13.6 10.997
      vertex -24.7815 -13.6 12.7172
    endloop
  endfacet
  facet normal 0.9848 0 0.173694
    outer loop
      vertex -24.4781 -13.6 10.997
      vertex -24.7815 -18.8 12.7172
      vertex -24.4781 -18.8 10.997
    endloop
  endfacet
  facet normal -0.207909 0 0.978148
    outer loop
      vertex 4.34554 -13.6 -8.44481
      vertex 6.0541 -18.8 -8.08165
      vertex 6.0541 -13.6 -8.08165
    endloop
  endfacet
  facet normal -0.207909 0 0.978148
    outer loop
      vertex 6.0541 -18.8 -8.08165
      vertex 4.34554 -13.6 -8.44481
      vertex 4.34554 -18.8 -8.44481
    endloop
  endfacet
  facet normal -0.275637 0 0.961262
    outer loop
      vertex 6.0541 -13.6 -8.08165
      vertex 7.73315 -18.8 -7.60019
      vertex 7.73315 -13.6 -7.60019
    endloop
  endfacet
  facet normal -0.275637 0 0.961262
    outer loop
      vertex 7.73315 -18.8 -7.60019
      vertex 6.0541 -13.6 -8.08165
      vertex 6.0541 -18.8 -8.08165
    endloop
  endfacet
  facet normal -0.866015 0 0.500018
    outer loop
      vertex 21.2224 -18.8 2.93877
      vertex 22.0958 -13.6 4.45147
      vertex 21.2224 -13.6 2.93877
    endloop
  endfacet
  facet normal -0.866015 0 0.500018
    outer loop
      vertex 22.0958 -13.6 4.45147
      vertex 21.2224 -18.8 2.93877
      vertex 22.0958 -18.8 4.45147
    endloop
  endfacet
  facet normal 0.694653 0 0.719345
    outer loop
      vertex -18.0015 -13.6 -1.18383
      vertex -16.745 -18.8 -2.3972
      vertex -16.745 -13.6 -2.3972
    endloop
  endfacet
  facet normal 0.694653 0 0.719345
    outer loop
      vertex -16.745 -18.8 -2.3972
      vertex -18.0015 -13.6 -1.18383
      vertex -18.0015 -18.8 -1.18383
    endloop
  endfacet
  facet normal 0.970305 -0 0.241885
    outer loop
      vertex -24.4781 -18.8 10.997
      vertex -24.0556 -13.6 9.30217
      vertex -24.4781 -13.6 10.997
    endloop
  endfacet
  facet normal 0.970305 0 0.241885
    outer loop
      vertex -24.0556 -13.6 9.30217
      vertex -24.4781 -18.8 10.997
      vertex -24.0556 -18.8 9.30217
    endloop
  endfacet
  facet normal 0.52992 0 0.848048
    outer loop
      vertex -13.9938 -13.6 -4.54667
      vertex -12.5125 -18.8 -5.47229
      vertex -12.5125 -13.6 -5.47229
    endloop
  endfacet
  facet normal 0.52992 0 0.848048
    outer loop
      vertex -12.5125 -18.8 -5.47229
      vertex -13.9938 -13.6 -4.54667
      vertex -13.9938 -18.8 -4.54667
    endloop
  endfacet
  facet normal -0.642778 0 0.766053
    outer loop
      vertex 15.4069 -13.6 -3.51997
      vertex 16.745 -18.8 -2.3972
      vertex 16.745 -13.6 -2.3972
    endloop
  endfacet
  facet normal -0.642778 0 0.766053
    outer loop
      vertex 16.745 -18.8 -2.3972
      vertex 15.4069 -13.6 -3.51997
      vertex 15.4069 -18.8 -3.51997
    endloop
  endfacet
  facet normal -0.898797 0 0.438366
    outer loop
      vertex 22.0958 -18.8 4.45147
      vertex 22.8615 -13.6 6.02141
      vertex 22.0958 -13.6 4.45147
    endloop
  endfacet
  facet normal -0.898797 0 0.438366
    outer loop
      vertex 22.8615 -13.6 6.02141
      vertex 22.0958 -18.8 4.45147
      vertex 22.8615 -18.8 6.02141
    endloop
  endfacet
  facet normal 0.994526 -0 0.104485
    outer loop
      vertex -24.964 -18.8 14.4543
      vertex -24.7815 -13.6 12.7172
      vertex -24.964 -13.6 14.4543
    endloop
  endfacet
  facet normal 0.994526 0 0.104485
    outer loop
      vertex -24.7815 -13.6 12.7172
      vertex -24.964 -18.8 14.4543
      vertex -24.7815 -18.8 12.7172
    endloop
  endfacet
  facet normal -0.9848 0 0.173694
    outer loop
      vertex 24.4781 -18.8 10.997
      vertex 24.7815 -13.6 12.7172
      vertex 24.4781 -13.6 10.997
    endloop
  endfacet
  facet normal -0.9848 0 0.173694
    outer loop
      vertex 24.7815 -13.6 12.7172
      vertex 24.4781 -18.8 10.997
      vertex 24.7815 -18.8 12.7172
    endloop
  endfacet
  facet normal -0.970305 0 0.241885
    outer loop
      vertex 24.0556 -18.8 9.30217
      vertex 24.4781 -13.6 10.997
      vertex 24.0556 -13.6 9.30217
    endloop
  endfacet
  facet normal -0.970305 0 0.241885
    outer loop
      vertex 24.4781 -13.6 10.997
      vertex 24.0556 -18.8 9.30217
      vertex 24.4781 -18.8 10.997
    endloop
  endfacet
  facet normal -0.994526 0 0.104485
    outer loop
      vertex 24.7815 -18.8 12.7172
      vertex 24.964 -13.6 14.4543
      vertex 24.7815 -13.6 12.7172
    endloop
  endfacet
  facet normal -0.994526 0 0.104485
    outer loop
      vertex 24.964 -13.6 14.4543
      vertex 24.7815 -18.8 12.7172
      vertex 24.964 -18.8 14.4543
    endloop
  endfacet
  facet normal 0.0697595 0 0.997564
    outer loop
      vertex -2.61582 -13.6 -8.68791
      vertex -0.87336 -18.8 -8.80976
      vertex -0.87336 -13.6 -8.80976
    endloop
  endfacet
  facet normal 0.0697595 0 0.997564
    outer loop
      vertex -0.87336 -18.8 -8.80976
      vertex -2.61582 -13.6 -8.68791
      vertex -2.61582 -18.8 -8.68791
    endloop
  endfacet
  facet normal -0.788034 0 0.615631
    outer loop
      vertex 19.1703 -18.8 0.11424
      vertex 20.2456 -13.6 1.49067
      vertex 19.1703 -13.6 0.11424
    endloop
  endfacet
  facet normal -0.788034 0 0.615631
    outer loop
      vertex 20.2456 -13.6 1.49067
      vertex 19.1703 -18.8 0.11424
      vertex 20.2456 -18.8 1.49067
    endloop
  endfacet
  facet normal -0.587794 0 0.809011
    outer loop
      vertex 13.9938 -13.6 -4.54667
      vertex 15.4069 -18.8 -3.51997
      vertex 15.4069 -13.6 -3.51997
    endloop
  endfacet
  facet normal -0.587794 0 0.809011
    outer loop
      vertex 15.4069 -18.8 -3.51997
      vertex 13.9938 -13.6 -4.54667
      vertex 13.9938 -18.8 -4.54667
    endloop
  endfacet
  facet normal 0.788034 -0 0.615631
    outer loop
      vertex -20.2456 -18.8 1.49067
      vertex -19.1703 -13.6 0.11424
      vertex -20.2456 -13.6 1.49067
    endloop
  endfacet
  facet normal 0.788034 0 0.615631
    outer loop
      vertex -19.1703 -13.6 0.11424
      vertex -20.2456 -18.8 1.49067
      vertex -19.1703 -18.8 0.11424
    endloop
  endfacet
  facet normal 0.829026 -0 0.55921
    outer loop
      vertex -21.2224 -18.8 2.93877
      vertex -20.2456 -13.6 1.49067
      vertex -21.2224 -13.6 2.93877
    endloop
  endfacet
  facet normal 0.829026 0 0.55921
    outer loop
      vertex -20.2456 -13.6 1.49067
      vertex -21.2224 -18.8 2.93877
      vertex -20.2456 -18.8 1.49067
    endloop
  endfacet
  facet normal 0.406747 0 0.913541
    outer loop
      vertex -10.9702 -13.6 -6.29232
      vertex -9.37453 -18.8 -7.00278
      vertex -9.37453 -13.6 -7.00278
    endloop
  endfacet
  facet normal 0.406747 0 0.913541
    outer loop
      vertex -9.37453 -18.8 -7.00278
      vertex -10.9702 -13.6 -6.29232
      vertex -10.9702 -18.8 -6.29232
    endloop
  endfacet
  facet normal 0.743141 -0 0.669135
    outer loop
      vertex -19.1703 -18.8 0.11424
      vertex -18.0015 -13.6 -1.18383
      vertex -19.1703 -13.6 0.11424
    endloop
  endfacet
  facet normal 0.743141 0 0.669135
    outer loop
      vertex -18.0015 -13.6 -1.18383
      vertex -19.1703 -18.8 0.11424
      vertex -18.0015 -18.8 -1.18383
    endloop
  endfacet
  facet normal -0.46946 0 0.882954
    outer loop
      vertex 10.9702 -13.6 -6.29232
      vertex 12.5125 -18.8 -5.47229
      vertex 12.5125 -13.6 -5.47229
    endloop
  endfacet
  facet normal -0.46946 0 0.882954
    outer loop
      vertex 12.5125 -18.8 -5.47229
      vertex 10.9702 -13.6 -6.29232
      vertex 10.9702 -18.8 -6.29232
    endloop
  endfacet
  facet normal -0.139175 0 0.990268
    outer loop
      vertex 2.61582 -13.6 -8.68791
      vertex 4.34554 -18.8 -8.44481
      vertex 4.34554 -13.6 -8.44481
    endloop
  endfacet
  facet normal -0.139175 0 0.990268
    outer loop
      vertex 4.34554 -18.8 -8.44481
      vertex 2.61582 -13.6 -8.68791
      vertex 2.61582 -18.8 -8.68791
    endloop
  endfacet
  facet normal -0.52992 0 0.848048
    outer loop
      vertex 12.5125 -13.6 -5.47229
      vertex 13.9938 -18.8 -4.54667
      vertex 13.9938 -13.6 -4.54667
    endloop
  endfacet
  facet normal -0.52992 0 0.848048
    outer loop
      vertex 13.9938 -18.8 -4.54667
      vertex 12.5125 -13.6 -5.47229
      vertex 12.5125 -18.8 -5.47229
    endloop
  endfacet
  facet normal -0.829026 0 0.55921
    outer loop
      vertex 20.2456 -18.8 1.49067
      vertex 21.2224 -13.6 2.93877
      vertex 20.2456 -13.6 1.49067
    endloop
  endfacet
  facet normal -0.829026 0 0.55921
    outer loop
      vertex 21.2224 -13.6 2.93877
      vertex 20.2456 -18.8 1.49067
      vertex 21.2224 -18.8 2.93877
    endloop
  endfacet
  facet normal 0.46946 0 0.882954
    outer loop
      vertex -12.5125 -13.6 -5.47229
      vertex -10.9702 -18.8 -6.29232
      vertex -10.9702 -13.6 -6.29232
    endloop
  endfacet
  facet normal 0.46946 0 0.882954
    outer loop
      vertex -10.9702 -18.8 -6.29232
      vertex -12.5125 -13.6 -5.47229
      vertex -12.5125 -18.8 -5.47229
    endloop
  endfacet
  facet normal -0 0 1
    outer loop
      vertex -0.87336 -13.6 -8.80976
      vertex 0.87336 -18.8 -8.80976
      vertex 0.87336 -13.6 -8.80976
    endloop
  endfacet
  facet normal 0 0 1
    outer loop
      vertex 0.87336 -18.8 -8.80976
      vertex -0.87336 -13.6 -8.80976
      vertex -0.87336 -18.8 -8.80976
    endloop
  endfacet
  facet normal 0.207909 0 0.978148
    outer loop
      vertex -6.0541 -13.6 -8.08165
      vertex -4.34554 -18.8 -8.44481
      vertex -4.34554 -13.6 -8.44481
    endloop
  endfacet
  facet normal 0.207909 0 0.978148
    outer loop
      vertex -4.34554 -18.8 -8.44481
      vertex -6.0541 -13.6 -8.08165
      vertex -6.0541 -18.8 -8.08165
    endloop
  endfacet
  facet normal 0.99939 -0 0.0349217
    outer loop
      vertex -25.025 -18.8 16.2
      vertex -24.964 -13.6 14.4543
      vertex -25.025 -13.6 16.2
    endloop
  endfacet
  facet normal 0.99939 0 0.0349217
    outer loop
      vertex -24.964 -13.6 14.4543
      vertex -25.025 -18.8 16.2
      vertex -24.964 -18.8 14.4543
    endloop
  endfacet
  facet normal 0.927191 -0 0.374589
    outer loop
      vertex -23.5158 -18.8 7.64095
      vertex -22.8615 -13.6 6.02141
      vertex -23.5158 -13.6 7.64095
    endloop
  endfacet
  facet normal 0.927191 0 0.374589
    outer loop
      vertex -22.8615 -13.6 6.02141
      vertex -23.5158 -18.8 7.64095
      vertex -22.8615 -18.8 6.02141
    endloop
  endfacet
  facet normal 0.139175 0 0.990268
    outer loop
      vertex -4.34554 -13.6 -8.44481
      vertex -2.61582 -18.8 -8.68791
      vertex -2.61582 -13.6 -8.68791
    endloop
  endfacet
  facet normal 0.139175 0 0.990268
    outer loop
      vertex -2.61582 -18.8 -8.68791
      vertex -4.34554 -13.6 -8.44481
      vertex -4.34554 -18.8 -8.44481
    endloop
  endfacet
  facet normal -0.743141 0 0.669135
    outer loop
      vertex 18.0015 -18.8 -1.18383
      vertex 19.1703 -13.6 0.11424
      vertex 18.0015 -13.6 -1.18383
    endloop
  endfacet
  facet normal -0.743141 0 0.669135
    outer loop
      vertex 19.1703 -13.6 0.11424
      vertex 18.0015 -18.8 -1.18383
      vertex 19.1703 -18.8 0.11424
    endloop
  endfacet
  facet normal -0.927191 0 0.374589
    outer loop
      vertex 22.8615 -18.8 6.02141
      vertex 23.5158 -13.6 7.64095
      vertex 22.8615 -13.6 6.02141
    endloop
  endfacet
  facet normal -0.927191 0 0.374589
    outer loop
      vertex 23.5158 -13.6 7.64095
      vertex 22.8615 -18.8 6.02141
      vertex 23.5158 -18.8 7.64095
    endloop
  endfacet
  facet normal 0.898797 -0 0.438366
    outer loop
      vertex -22.8615 -18.8 6.02141
      vertex -22.0958 -13.6 4.45147
      vertex -22.8615 -13.6 6.02141
    endloop
  endfacet
  facet normal 0.898797 0 0.438366
    outer loop
      vertex -22.0958 -13.6 4.45147
      vertex -22.8615 -18.8 6.02141
      vertex -22.0958 -18.8 4.45147
    endloop
  endfacet
  facet normal -0.694653 0 0.719345
    outer loop
      vertex 16.745 -13.6 -2.3972
      vertex 18.0015 -18.8 -1.18383
      vertex 18.0015 -13.6 -1.18383
    endloop
  endfacet
  facet normal -0.694653 0 0.719345
    outer loop
      vertex 18.0015 -18.8 -1.18383
      vertex 16.745 -13.6 -2.3972
      vertex 16.745 -18.8 -2.3972
    endloop
  endfacet
  facet normal 0.342018 0 0.939693
    outer loop
      vertex -9.37453 -13.6 -7.00278
      vertex -7.73315 -18.8 -7.60019
      vertex -7.73315 -13.6 -7.60019
    endloop
  endfacet
  facet normal 0.342018 0 0.939693
    outer loop
      vertex -7.73315 -18.8 -7.60019
      vertex -9.37453 -13.6 -7.00278
      vertex -9.37453 -18.8 -7.00278
    endloop
  endfacet
  facet normal -0.406747 0 0.913541
    outer loop
      vertex 9.37453 -13.6 -7.00278
      vertex 10.9702 -18.8 -6.29232
      vertex 10.9702 -13.6 -6.29232
    endloop
  endfacet
  facet normal -0.406747 0 0.913541
    outer loop
      vertex 10.9702 -18.8 -6.29232
      vertex 9.37453 -13.6 -7.00278
      vertex 9.37453 -18.8 -7.00278
    endloop
  endfacet
  facet normal -0.95105 0 0.309036
    outer loop
      vertex 23.5158 -18.8 7.64095
      vertex 24.0556 -13.6 9.30217
      vertex 23.5158 -13.6 7.64095
    endloop
  endfacet
  facet normal -0.95105 0 0.309036
    outer loop
      vertex 24.0556 -13.6 9.30217
      vertex 23.5158 -18.8 7.64095
      vertex 24.0556 -18.8 9.30217
    endloop
  endfacet
  facet normal 0.275637 0 0.961262
    outer loop
      vertex -7.73315 -13.6 -7.60019
      vertex -6.0541 -18.8 -8.08165
      vertex -6.0541 -13.6 -8.08165
    endloop
  endfacet
  facet normal 0.275637 0 0.961262
    outer loop
      vertex -6.0541 -18.8 -8.08165
      vertex -7.73315 -13.6 -7.60019
      vertex -7.73315 -18.8 -7.60019
    endloop
  endfacet
  facet normal -0.342018 0 0.939693
    outer loop
      vertex 7.73315 -13.6 -7.60019
      vertex 9.37453 -18.8 -7.00278
      vertex 9.37453 -13.6 -7.00278
    endloop
  endfacet
  facet normal -0.342018 0 0.939693
    outer loop
      vertex 9.37453 -18.8 -7.00278
      vertex 7.73315 -13.6 -7.60019
      vertex 7.73315 -18.8 -7.60019
    endloop
  endfacet
  facet normal 0.866015 -0 0.500018
    outer loop
      vertex -22.0958 -18.8 4.45147
      vertex -21.2224 -13.6 2.93877
      vertex -22.0958 -13.6 4.45147
    endloop
  endfacet
  facet normal 0.866015 0 0.500018
    outer loop
      vertex -21.2224 -13.6 2.93877
      vertex -22.0958 -18.8 4.45147
      vertex -21.2224 -18.8 2.93877
    endloop
  endfacet
  facet normal 0.587794 0 0.809011
    outer loop
      vertex -15.4069 -13.6 -3.51997
      vertex -13.9938 -18.8 -4.54667
      vertex -13.9938 -13.6 -4.54667
    endloop
  endfacet
  facet normal 0.587794 0 0.809011
    outer loop
      vertex -13.9938 -18.8 -4.54667
      vertex -15.4069 -13.6 -3.51997
      vertex -15.4069 -18.8 -3.51997
    endloop
  endfacet
  facet normal -1 0 0
    outer loop
      vertex 39.97 0 -2.11
      vertex 39.97 18.8 2.11
      vertex 39.97 18.8 -2.11
    endloop
  endfacet
  facet normal -1 -0 0
    outer loop
      vertex 39.97 18.8 2.11
      vertex 39.97 0 -2.11
      vertex 39.97 0 2.11
    endloop
  endfacet
  facet normal 0 0 -1
    outer loop
      vertex 35.75 13.6 2.11
      vertex 39.97 0 2.11
      vertex 35.75 0 2.11
    endloop
  endfacet
  facet normal 0 0 -1
    outer loop
      vertex 39.97 0 2.11
      vertex 35.75 13.6 2.11
      vertex 39.97 18.8 2.11
    endloop
  endfacet
  facet normal -0 0 -1
    outer loop
      vertex 39.97 18.8 2.11
      vertex 35.75 13.6 2.11
      vertex 35.75 18.8 2.11
    endloop
  endfacet
  facet normal 0 0 1
    outer loop
      vertex 35.75 13.6 -2.11
      vertex 39.97 18.8 -2.11
      vertex 35.75 18.8 -2.11
    endloop
  endfacet
  facet normal 0 0 1
    outer loop
      vertex 39.97 18.8 -2.11
      vertex 35.75 13.6 -2.11
      vertex 39.97 0 -2.11
    endloop
  endfacet
  facet normal 0 0 1
    outer loop
      vertex 39.97 0 -2.11
      vertex 35.75 13.6 -2.11
      vertex 35.75 0 -2.11
    endloop
  endfacet
  facet normal 0 1 -0
    outer loop
      vertex 39.97 0 -2.11
      vertex 35.75 0 2.11
      vertex 39.97 0 2.11
    endloop
  endfacet
  facet normal 0 1 0
    outer loop
      vertex 35.75 0 2.11
      vertex 39.97 0 -2.11
      vertex 35.75 0 -2.11
    endloop
  endfacet
  facet normal 0 0 -1
    outer loop
      vertex -39.97 0 2.11
      vertex -35.75 13.6 2.11
      vertex -35.75 0 2.11
    endloop
  endfacet
  facet normal 0 0 -1
    outer loop
      vertex -39.97 18.8 2.11
      vertex -35.75 13.6 2.11
      vertex -39.97 0 2.11
    endloop
  endfacet
  facet normal 0 0 -1
    outer loop
      vertex -35.75 13.6 2.11
      vertex -39.97 18.8 2.11
      vertex -35.75 18.8 2.11
    endloop
  endfacet
  facet normal -0 0 1
    outer loop
      vertex -39.97 18.8 -2.11
      vertex -35.75 13.6 -2.11
      vertex -35.75 18.8 -2.11
    endloop
  endfacet
  facet normal 0 0 1
    outer loop
      vertex -39.97 0 -2.11
      vertex -35.75 13.6 -2.11
      vertex -39.97 18.8 -2.11
    endloop
  endfacet
  facet normal 0 0 1
    outer loop
      vertex -35.75 13.6 -2.11
      vertex -39.97 0 -2.11
      vertex -35.75 0 -2.11
    endloop
  endfacet
  facet normal 1 -0 0
    outer loop
      vertex -39.97 0 2.11
      vertex -39.97 18.8 -2.11
      vertex -39.97 18.8 2.11
    endloop
  endfacet
  facet normal 1 0 0
    outer loop
      vertex -39.97 18.8 -2.11
      vertex -39.97 0 2.11
      vertex -39.97 0 -2.11
    endloop
  endfacet
  facet normal 0 1 -0
    outer loop
      vertex -35.75 0 -2.11
      vertex -39.97 0 2.11
      vertex -35.75 0 2.11
    endloop
  endfacet
  facet normal 0 1 0
    outer loop
      vertex -39.97 0 2.11
      vertex -35.75 0 -2.11
      vertex -39.97 0 -2.11
    endloop
  endfacet
endsolid OpenSCAD_Model
