solid OpenSCAD_Model
  facet normal 1 -0 0
    outer loop
      vertex 40.95 -18.95 16.35
      vertex 40.95 18.95 -16.35
      vertex 40.95 18.95 16.35
    endloop
  endfacet
  facet normal 1 0 0
    outer loop
      vertex 40.95 18.95 -16.35
      vertex 40.95 -18.95 16.35
      vertex 40.95 -18.95 -16.35
    endloop
  endfacet
  facet normal 0 0 1
    outer loop
      vertex -25.025 18.95 16.35
      vertex -35.75 13.75 16.35
      vertex -25.025 13.75 16.35
    endloop
  endfacet
  facet normal 0 0 1
    outer loop
      vertex -35.75 13.75 16.35
      vertex -40.95 18.95 16.35
      vertex -35.75 -13.75 16.35
    endloop
  endfacet
  facet normal -0 0 1
    outer loop
      vertex -40.95 18.95 16.35
      vertex -35.75 13.75 16.35
      vertex -25.025 18.95 16.35
    endloop
  endfacet
  facet normal -0 0 1
    outer loop
      vertex -35.75 -13.75 16.35
      vertex -25.025 -18.95 16.35
      vertex -25.025 -13.75 16.35
    endloop
  endfacet
  facet normal 0 0 1
    outer loop
      vertex -35.75 -13.75 16.35
      vertex -40.95 -18.95 16.35
      vertex -25.025 -18.95 16.35
    endloop
  endfacet
  facet normal 0 0 1
    outer loop
      vertex -40.95 -18.95 16.35
      vertex -35.75 -13.75 16.35
      vertex -40.95 18.95 16.35
    endloop
  endfacet
  facet normal 0 0 1
    outer loop
      vertex 40.95 18.95 16.35
      vertex 35.75 13.75 16.35
      vertex 40.95 -18.95 16.35
    endloop
  endfacet
  facet normal -0 0 1
    outer loop
      vertex 25.025 18.95 16.35
      vertex 35.75 13.75 16.35
      vertex 40.95 18.95 16.35
    endloop
  endfacet
  facet normal 0 0 1
    outer loop
      vertex 35.75 13.75 16.35
      vertex 25.025 18.95 16.35
      vertex 25.025 13.75 16.35
    endloop
  endfacet
  facet normal -0 0 1
    outer loop
      vertex 35.75 -13.75 16.35
      vertex 40.95 -18.95 16.35
      vertex 35.75 13.75 16.35
    endloop
  endfacet
  facet normal 0 0 1
    outer loop
      vertex 25.025 -18.95 16.35
      vertex 35.75 -13.75 16.35
      vertex 25.025 -13.75 16.35
    endloop
  endfacet
  facet normal 0 0 1
    outer loop
      vertex 35.75 -13.75 16.35
      vertex 25.025 -18.95 16.35
      vertex 40.95 -18.95 16.35
    endloop
  endfacet
  facet normal 0 0 -1
    outer loop
      vertex -40.95 -18.95 -16.35
      vertex 40.95 18.95 -16.35
      vertex 40.95 -18.95 -16.35
    endloop
  endfacet
  facet normal -0 0 -1
    outer loop
      vertex 40.95 18.95 -16.35
      vertex -40.95 -18.95 -16.35
      vertex -40.95 18.95 -16.35
    endloop
  endfacet
  facet normal -1 0 0
    outer loop
      vertex -40.95 -18.95 -16.35
      vertex -40.95 18.95 16.35
      vertex -40.95 18.95 -16.35
    endloop
  endfacet
  facet normal -1 -0 0
    outer loop
      vertex -40.95 18.95 16.35
      vertex -40.95 -18.95 -16.35
      vertex -40.95 -18.95 16.35
    endloop
  endfacet
  facet normal 0 1 0
    outer loop
      vertex 40.95 18.95 16.35
      vertex 24.964 18.95 14.6043
      vertex 25.025 18.95 16.35
    endloop
  endfacet
  facet normal 0 1 0
    outer loop
      vertex 40.95 18.95 16.35
      vertex 24.7815 18.95 12.8672
      vertex 24.964 18.95 14.6043
    endloop
  endfacet
  facet normal 0 1 -0
    outer loop
      vertex 35.75 18.95 2.11
      vertex 24.7815 18.95 12.8672
      vertex 40.95 18.95 16.35
    endloop
  endfacet
  facet normal 0 1 0
    outer loop
      vertex 24.7815 18.95 12.8672
      vertex 35.75 18.95 2.11
      vertex 24.4781 18.95 11.147
    endloop
  endfacet
  facet normal 0 1 0
    outer loop
      vertex 24.4781 18.95 11.147
      vertex 35.75 18.95 2.11
      vertex 24.0556 18.95 9.45218
    endloop
  endfacet
  facet normal 0 1 0
    outer loop
      vertex 24.0556 18.95 9.45218
      vertex 35.75 18.95 2.11
      vertex 23.5158 18.95 7.79095
    endloop
  endfacet
  facet normal 0 1 0
    outer loop
      vertex 23.5158 18.95 7.79095
      vertex 35.75 18.95 2.11
      vertex 22.8615 18.95 6.17142
    endloop
  endfacet
  facet normal 0 1 0
    outer loop
      vertex 22.8615 18.95 6.17142
      vertex 35.75 18.95 2.11
      vertex 22.0958 18.95 4.60147
    endloop
  endfacet
  facet normal 0 1 0
    outer loop
      vertex 35.75 18.95 2.11
      vertex 40.95 18.95 16.35
      vertex 39.97 18.95 2.11
    endloop
  endfacet
  facet normal 0 1 0
    outer loop
      vertex 40.95 18.95 16.35
      vertex 39.97 18.95 -2.11
      vertex 39.97 18.95 2.11
    endloop
  endfacet
  facet normal 0 1 0
    outer loop
      vertex 40.95 18.95 -16.35
      vertex 35.75 18.95 -2.11
      vertex 39.97 18.95 -2.11
    endloop
  endfacet
  facet normal 0 1 0
    outer loop
      vertex 35.75 18.95 -2.11
      vertex 40.95 18.95 -16.35
      vertex 16.745 18.95 -2.2472
    endloop
  endfacet
  facet normal 0 1 0
    outer loop
      vertex 16.745 18.95 -2.2472
      vertex 40.95 18.95 -16.35
      vertex 15.4069 18.95 -3.36997
    endloop
  endfacet
  facet normal 0 1 0
    outer loop
      vertex 15.4069 18.95 -3.36997
      vertex 40.95 18.95 -16.35
      vertex 13.9938 18.95 -4.39666
    endloop
  endfacet
  facet normal 0 1 0
    outer loop
      vertex 13.9938 18.95 -4.39666
      vertex 40.95 18.95 -16.35
      vertex 12.5125 18.95 -5.32229
    endloop
  endfacet
  facet normal 0 1 0
    outer loop
      vertex 12.5125 18.95 -5.32229
      vertex 40.95 18.95 -16.35
      vertex 10.9702 18.95 -6.14232
    endloop
  endfacet
  facet normal 0 1 0
    outer loop
      vertex 10.9702 18.95 -6.14232
      vertex 40.95 18.95 -16.35
      vertex 9.37453 18.95 -6.85278
    endloop
  endfacet
  facet normal 0 1 0
    outer loop
      vertex 9.37453 18.95 -6.85278
      vertex 40.95 18.95 -16.35
      vertex 7.73315 18.95 -7.45019
    endloop
  endfacet
  facet normal 0 1 0
    outer loop
      vertex 7.73315 18.95 -7.45019
      vertex 40.95 18.95 -16.35
      vertex 6.0541 18.95 -7.93165
    endloop
  endfacet
  facet normal 0 1 0
    outer loop
      vertex 0.87336 18.95 -8.65975
      vertex 40.95 18.95 -16.35
      vertex -0.87336 18.95 -8.65975
    endloop
  endfacet
  facet normal 0 1 0
    outer loop
      vertex 2.61582 18.95 -8.53791
      vertex 40.95 18.95 -16.35
      vertex 0.87336 18.95 -8.65975
    endloop
  endfacet
  facet normal 0 1 0
    outer loop
      vertex 4.34554 18.95 -8.29481
      vertex 40.95 18.95 -16.35
      vertex 2.61582 18.95 -8.53791
    endloop
  endfacet
  facet normal 0 1 0
    outer loop
      vertex 6.0541 18.95 -7.93165
      vertex 40.95 18.95 -16.35
      vertex 4.34554 18.95 -8.29481
    endloop
  endfacet
  facet normal 0 1 -0
    outer loop
      vertex 40.95 18.95 -16.35
      vertex 39.97 18.95 -2.11
      vertex 40.95 18.95 16.35
    endloop
  endfacet
  facet normal 0 1 0
    outer loop
      vertex 22.0958 18.95 4.60147
      vertex 35.75 18.95 2.11
      vertex 21.2224 18.95 3.08877
    endloop
  endfacet
  facet normal 0 1 -0
    outer loop
      vertex 35.75 18.95 -2.11
      vertex 21.2224 18.95 3.08877
      vertex 35.75 18.95 2.11
    endloop
  endfacet
  facet normal 0 1 0
    outer loop
      vertex 21.2224 18.95 3.08877
      vertex 35.75 18.95 -2.11
      vertex 20.2456 18.95 1.64067
    endloop
  endfacet
  facet normal 0 1 0
    outer loop
      vertex 20.2456 18.95 1.64067
      vertex 35.75 18.95 -2.11
      vertex 19.1703 18.95 0.264239
    endloop
  endfacet
  facet normal 0 1 0
    outer loop
      vertex 19.1703 18.95 0.264239
      vertex 35.75 18.95 -2.11
      vertex 18.0015 18.95 -1.03382
    endloop
  endfacet
  facet normal 0 1 0
    outer loop
      vertex 18.0015 18.95 -1.03382
      vertex 35.75 18.95 -2.11
      vertex 16.745 18.95 -2.2472
    endloop
  endfacet
  facet normal 0 1 0
    outer loop
      vertex -35.75 18.95 -2.11
      vertex -21.2224 18.95 3.08877
      vertex -20.2456 18.95 1.64067
    endloop
  endfacet
  facet normal 0 1 0
    outer loop
      vertex -35.75 18.95 -2.11
      vertex -20.2456 18.95 1.64067
      vertex -19.1703 18.95 0.264239
    endloop
  endfacet
  facet normal 0 1 0
    outer loop
      vertex -35.75 18.95 -2.11
      vertex -19.1703 18.95 0.264239
      vertex -18.0015 18.95 -1.03382
    endloop
  endfacet
  facet normal 0 1 0
    outer loop
      vertex -21.2224 18.95 3.08877
      vertex -35.75 18.95 -2.11
      vertex -35.75 18.95 2.11
    endloop
  endfacet
  facet normal 0 1 0
    outer loop
      vertex -40.95 18.95 -16.35
      vertex -35.75 18.95 -2.11
      vertex -16.745 18.95 -2.2472
    endloop
  endfacet
  facet normal 0 1 0
    outer loop
      vertex -16.745 18.95 -2.2472
      vertex -35.75 18.95 -2.11
      vertex -18.0015 18.95 -1.03382
    endloop
  endfacet
  facet normal 0 1 0
    outer loop
      vertex -24.964 18.95 14.6043
      vertex -40.95 18.95 16.35
      vertex -25.025 18.95 16.35
    endloop
  endfacet
  facet normal 0 1 0
    outer loop
      vertex -24.7815 18.95 12.8672
      vertex -40.95 18.95 16.35
      vertex -24.964 18.95 14.6043
    endloop
  endfacet
  facet normal 0 1 0
    outer loop
      vertex -35.75 18.95 2.11
      vertex -24.7815 18.95 12.8672
      vertex -24.4781 18.95 11.147
    endloop
  endfacet
  facet normal 0 1 0
    outer loop
      vertex -35.75 18.95 2.11
      vertex -24.4781 18.95 11.147
      vertex -24.0556 18.95 9.45218
    endloop
  endfacet
  facet normal 0 1 0
    outer loop
      vertex -35.75 18.95 2.11
      vertex -24.0556 18.95 9.45218
      vertex -23.5158 18.95 7.79095
    endloop
  endfacet
  facet normal 0 1 0
    outer loop
      vertex -35.75 18.95 2.11
      vertex -23.5158 18.95 7.79095
      vertex -22.8615 18.95 6.17142
    endloop
  endfacet
  facet normal 0 1 0
    outer loop
      vertex -35.75 18.95 2.11
      vertex -22.8615 18.95 6.17142
      vertex -22.0958 18.95 4.60147
    endloop
  endfacet
  facet normal 0 1 0
    outer loop
      vertex -35.75 18.95 2.11
      vertex -22.0958 18.95 4.60147
      vertex -21.2224 18.95 3.08877
    endloop
  endfacet
  facet normal 0 1 0
    outer loop
      vertex -24.7815 18.95 12.8672
      vertex -35.75 18.95 2.11
      vertex -40.95 18.95 16.35
    endloop
  endfacet
  facet normal 0 1 -0
    outer loop
      vertex -39.97 18.95 2.11
      vertex -40.95 18.95 16.35
      vertex -35.75 18.95 2.11
    endloop
  endfacet
  facet normal 0 1 -0
    outer loop
      vertex -39.97 18.95 -2.11
      vertex -40.95 18.95 16.35
      vertex -39.97 18.95 2.11
    endloop
  endfacet
  facet normal 0 1 0
    outer loop
      vertex -40.95 18.95 -16.35
      vertex -16.745 18.95 -2.2472
      vertex -15.4069 18.95 -3.36997
    endloop
  endfacet
  facet normal 0 1 0
    outer loop
      vertex -40.95 18.95 -16.35
      vertex -15.4069 18.95 -3.36997
      vertex -13.9938 18.95 -4.39666
    endloop
  endfacet
  facet normal 0 1 0
    outer loop
      vertex -40.95 18.95 -16.35
      vertex -13.9938 18.95 -4.39666
      vertex -12.5125 18.95 -5.32229
    endloop
  endfacet
  facet normal 0 1 0
    outer loop
      vertex -40.95 18.95 -16.35
      vertex -12.5125 18.95 -5.32229
      vertex -10.9702 18.95 -6.14232
    endloop
  endfacet
  facet normal 0 1 0
    outer loop
      vertex -40.95 18.95 -16.35
      vertex -10.9702 18.95 -6.14232
      vertex -9.37453 18.95 -6.85278
    endloop
  endfacet
  facet normal 0 1 0
    outer loop
      vertex -40.95 18.95 -16.35
      vertex -9.37453 18.95 -6.85278
      vertex -7.73315 18.95 -7.45019
    endloop
  endfacet
  facet normal 0 1 0
    outer loop
      vertex -40.95 18.95 -16.35
      vertex -7.73315 18.95 -7.45019
      vertex -6.0541 18.95 -7.93165
    endloop
  endfacet
  facet normal 0 1 0
    outer loop
      vertex -40.95 18.95 -16.35
      vertex -6.0541 18.95 -7.93165
      vertex -4.34554 18.95 -8.29481
    endloop
  endfacet
  facet normal 0 1 0
    outer loop
      vertex -40.95 18.95 -16.35
      vertex -0.87336 18.95 -8.65975
      vertex 40.95 18.95 -16.35
    endloop
  endfacet
  facet normal 0 1 0
    outer loop
      vertex -0.87336 18.95 -8.65975
      vertex -40.95 18.95 -16.35
      vertex -2.61582 18.95 -8.53791
    endloop
  endfacet
  facet normal 0 1 0
    outer loop
      vertex -2.61582 18.95 -8.53791
      vertex -40.95 18.95 -16.35
      vertex -4.34554 18.95 -8.29481
    endloop
  endfacet
  facet normal 0 1 0
    outer loop
      vertex -39.97 18.95 -2.11
      vertex -40.95 18.95 -16.35
      vertex -40.95 18.95 16.35
    endloop
  endfacet
  facet normal 0 1 0
    outer loop
      vertex -35.75 18.95 -2.11
      vertex -40.95 18.95 -16.35
      vertex -39.97 18.95 -2.11
    endloop
  endfacet
  facet normal 0 -1 0
    outer loop
      vertex -40.95 -18.95 16.35
      vertex -24.964 -18.95 14.6043
      vertex -25.025 -18.95 16.35
    endloop
  endfacet
  facet normal 0 -1 0
    outer loop
      vertex -40.95 -18.95 16.35
      vertex -24.7815 -18.95 12.8672
      vertex -24.964 -18.95 14.6043
    endloop
  endfacet
  facet normal 0 -1 0
    outer loop
      vertex -40.95 -18.95 16.35
      vertex -24.4781 -18.95 11.147
      vertex -24.7815 -18.95 12.8672
    endloop
  endfacet
  facet normal 0 -1 0
    outer loop
      vertex -40.95 -18.95 16.35
      vertex -24.0556 -18.95 9.45218
      vertex -24.4781 -18.95 11.147
    endloop
  endfacet
  facet normal 0 -1 0
    outer loop
      vertex -40.95 -18.95 16.35
      vertex -23.5158 -18.95 7.79095
      vertex -24.0556 -18.95 9.45218
    endloop
  endfacet
  facet normal 0 -1 0
    outer loop
      vertex -40.95 -18.95 16.35
      vertex -22.8615 -18.95 6.17142
      vertex -23.5158 -18.95 7.79095
    endloop
  endfacet
  facet normal 0 -1 0
    outer loop
      vertex -40.95 -18.95 -16.35
      vertex -22.8615 -18.95 6.17142
      vertex -40.95 -18.95 16.35
    endloop
  endfacet
  facet normal 0 -1 -0
    outer loop
      vertex -22.8615 -18.95 6.17142
      vertex -40.95 -18.95 -16.35
      vertex -22.0958 -18.95 4.60147
    endloop
  endfacet
  facet normal 0 -1 -0
    outer loop
      vertex -22.0958 -18.95 4.60147
      vertex -40.95 -18.95 -16.35
      vertex -21.2224 -18.95 3.08877
    endloop
  endfacet
  facet normal 0 -1 -0
    outer loop
      vertex -21.2224 -18.95 3.08877
      vertex -40.95 -18.95 -16.35
      vertex -20.2456 -18.95 1.64067
    endloop
  endfacet
  facet normal 0 -1 -0
    outer loop
      vertex -20.2456 -18.95 1.64067
      vertex -40.95 -18.95 -16.35
      vertex -19.1703 -18.95 0.264239
    endloop
  endfacet
  facet normal 0 -1 -0
    outer loop
      vertex -19.1703 -18.95 0.264239
      vertex -40.95 -18.95 -16.35
      vertex -18.0015 -18.95 -1.03382
    endloop
  endfacet
  facet normal 0 -1 -0
    outer loop
      vertex -18.0015 -18.95 -1.03382
      vertex -40.95 -18.95 -16.35
      vertex -16.745 -18.95 -2.2472
    endloop
  endfacet
  facet normal 0 -1 -0
    outer loop
      vertex -0.87336 -18.95 -8.65975
      vertex -40.95 -18.95 -16.35
      vertex 0.87336 -18.95 -8.65975
    endloop
  endfacet
  facet normal 0 -1 -0
    outer loop
      vertex -2.61582 -18.95 -8.53791
      vertex -40.95 -18.95 -16.35
      vertex -0.87336 -18.95 -8.65975
    endloop
  endfacet
  facet normal 0 -1 -0
    outer loop
      vertex -4.34554 -18.95 -8.29481
      vertex -40.95 -18.95 -16.35
      vertex -2.61582 -18.95 -8.53791
    endloop
  endfacet
  facet normal 0 -1 -0
    outer loop
      vertex -6.0541 -18.95 -7.93165
      vertex -40.95 -18.95 -16.35
      vertex -4.34554 -18.95 -8.29481
    endloop
  endfacet
  facet normal 0 -1 -0
    outer loop
      vertex -7.73315 -18.95 -7.45019
      vertex -40.95 -18.95 -16.35
      vertex -6.0541 -18.95 -7.93165
    endloop
  endfacet
  facet normal 0 -1 -0
    outer loop
      vertex -9.37453 -18.95 -6.85278
      vertex -40.95 -18.95 -16.35
      vertex -7.73315 -18.95 -7.45019
    endloop
  endfacet
  facet normal 0 -1 -0
    outer loop
      vertex -10.9702 -18.95 -6.14232
      vertex -40.95 -18.95 -16.35
      vertex -9.37453 -18.95 -6.85278
    endloop
  endfacet
  facet normal 0 -1 -0
    outer loop
      vertex -12.5125 -18.95 -5.32229
      vertex -40.95 -18.95 -16.35
      vertex -10.9702 -18.95 -6.14232
    endloop
  endfacet
  facet normal 0 -1 -0
    outer loop
      vertex -13.9938 -18.95 -4.39666
      vertex -40.95 -18.95 -16.35
      vertex -12.5125 -18.95 -5.32229
    endloop
  endfacet
  facet normal 0 -1 -0
    outer loop
      vertex -15.4069 -18.95 -3.36997
      vertex -40.95 -18.95 -16.35
      vertex -13.9938 -18.95 -4.39666
    endloop
  endfacet
  facet normal 0 -1 -0
    outer loop
      vertex -16.745 -18.95 -2.2472
      vertex -40.95 -18.95 -16.35
      vertex -15.4069 -18.95 -3.36997
    endloop
  endfacet
  facet normal 0 -1 0
    outer loop
      vertex 24.964 -18.95 14.6043
      vertex 40.95 -18.95 16.35
      vertex 25.025 -18.95 16.35
    endloop
  endfacet
  facet normal 0 -1 0
    outer loop
      vertex 24.7815 -18.95 12.8672
      vertex 40.95 -18.95 16.35
      vertex 24.964 -18.95 14.6043
    endloop
  endfacet
  facet normal 0 -1 0
    outer loop
      vertex 24.4781 -18.95 11.147
      vertex 40.95 -18.95 16.35
      vertex 24.7815 -18.95 12.8672
    endloop
  endfacet
  facet normal 0 -1 0
    outer loop
      vertex 24.0556 -18.95 9.45218
      vertex 40.95 -18.95 16.35
      vertex 24.4781 -18.95 11.147
    endloop
  endfacet
  facet normal 0 -1 0
    outer loop
      vertex 23.5158 -18.95 7.79095
      vertex 40.95 -18.95 16.35
      vertex 24.0556 -18.95 9.45218
    endloop
  endfacet
  facet normal 0 -1 0
    outer loop
      vertex 22.8615 -18.95 6.17142
      vertex 40.95 -18.95 16.35
      vertex 23.5158 -18.95 7.79095
    endloop
  endfacet
  facet normal 0 -1 0
    outer loop
      vertex 40.95 -18.95 -16.35
      vertex 22.8615 -18.95 6.17142
      vertex 22.0958 -18.95 4.60147
    endloop
  endfacet
  facet normal 0 -1 0
    outer loop
      vertex 40.95 -18.95 -16.35
      vertex 22.0958 -18.95 4.60147
      vertex 21.2224 -18.95 3.08877
    endloop
  endfacet
  facet normal 0 -1 0
    outer loop
      vertex 40.95 -18.95 -16.35
      vertex 21.2224 -18.95 3.08877
      vertex 20.2456 -18.95 1.64067
    endloop
  endfacet
  facet normal 0 -1 0
    outer loop
      vertex 40.95 -18.95 -16.35
      vertex 20.2456 -18.95 1.64067
      vertex 19.1703 -18.95 0.264239
    endloop
  endfacet
  facet normal 0 -1 0
    outer loop
      vertex 40.95 -18.95 -16.35
      vertex 19.1703 -18.95 0.264239
      vertex 18.0015 -18.95 -1.03382
    endloop
  endfacet
  facet normal 0 -1 0
    outer loop
      vertex 40.95 -18.95 -16.35
      vertex 18.0015 -18.95 -1.03382
      vertex 16.745 -18.95 -2.2472
    endloop
  endfacet
  facet normal 0 -1 0
    outer loop
      vertex 40.95 -18.95 -16.35
      vertex 16.745 -18.95 -2.2472
      vertex 15.4069 -18.95 -3.36997
    endloop
  endfacet
  facet normal 0 -1 0
    outer loop
      vertex 40.95 -18.95 -16.35
      vertex 0.87336 -18.95 -8.65975
      vertex -40.95 -18.95 -16.35
    endloop
  endfacet
  facet normal 0 -1 0
    outer loop
      vertex 0.87336 -18.95 -8.65975
      vertex 40.95 -18.95 -16.35
      vertex 2.61582 -18.95 -8.53791
    endloop
  endfacet
  facet normal 0 -1 0
    outer loop
      vertex 22.8615 -18.95 6.17142
      vertex 40.95 -18.95 -16.35
      vertex 40.95 -18.95 16.35
    endloop
  endfacet
  facet normal 0 -1 0
    outer loop
      vertex 13.9938 -18.95 -4.39666
      vertex 40.95 -18.95 -16.35
      vertex 15.4069 -18.95 -3.36997
    endloop
  endfacet
  facet normal 0 -1 0
    outer loop
      vertex 12.5125 -18.95 -5.32229
      vertex 40.95 -18.95 -16.35
      vertex 13.9938 -18.95 -4.39666
    endloop
  endfacet
  facet normal 0 -1 0
    outer loop
      vertex 10.9702 -18.95 -6.14232
      vertex 40.95 -18.95 -16.35
      vertex 12.5125 -18.95 -5.32229
    endloop
  endfacet
  facet normal 0 -1 0
    outer loop
      vertex 9.37453 -18.95 -6.85278
      vertex 40.95 -18.95 -16.35
      vertex 10.9702 -18.95 -6.14232
    endloop
  endfacet
  facet normal 0 -1 0
    outer loop
      vertex 7.73315 -18.95 -7.45019
      vertex 40.95 -18.95 -16.35
      vertex 9.37453 -18.95 -6.85278
    endloop
  endfacet
  facet normal 0 -1 0
    outer loop
      vertex 6.0541 -18.95 -7.93165
      vertex 40.95 -18.95 -16.35
      vertex 7.73315 -18.95 -7.45019
    endloop
  endfacet
  facet normal 0 -1 0
    outer loop
      vertex 4.34554 -18.95 -8.29481
      vertex 40.95 -18.95 -16.35
      vertex 6.0541 -18.95 -7.93165
    endloop
  endfacet
  facet normal 0 -1 0
    outer loop
      vertex 2.61582 -18.95 -8.53791
      vertex 40.95 -18.95 -16.35
      vertex 4.34554 -18.95 -8.29481
    endloop
  endfacet
  facet normal -1 0 0
    outer loop
      vertex 35.75 13.75 -11.15
      vertex 35.75 0 -2.11
      vertex 35.75 13.75 -2.11
    endloop
  endfacet
  facet normal -1 -0 0
    outer loop
      vertex 35.75 0 -2.11
      vertex 35.75 -13.75 -11.15
      vertex 35.75 0 2.11
    endloop
  endfacet
  facet normal -1 0 0
    outer loop
      vertex 35.75 -13.75 -11.15
      vertex 35.75 0 -2.11
      vertex 35.75 13.75 -11.15
    endloop
  endfacet
  facet normal -1 0 0
    outer loop
      vertex 35.75 0 2.11
      vertex 35.75 13.75 16.35
      vertex 35.75 13.75 2.11
    endloop
  endfacet
  facet normal -1 0 0
    outer loop
      vertex 35.75 -13.75 16.35
      vertex 35.75 0 2.11
      vertex 35.75 -13.75 -11.15
    endloop
  endfacet
  facet normal -1 0 0
    outer loop
      vertex 35.75 0 2.11
      vertex 35.75 -13.75 16.35
      vertex 35.75 13.75 16.35
    endloop
  endfacet
  facet normal 1 -0 0
    outer loop
      vertex 35.75 13.75 2.11
      vertex 35.75 18.95 -2.11
      vertex 35.75 18.95 2.11
    endloop
  endfacet
  facet normal 1 0 0
    outer loop
      vertex 35.75 18.95 -2.11
      vertex 35.75 13.75 2.11
      vertex 35.75 13.75 -2.11
    endloop
  endfacet
  facet normal -0 0 1
    outer loop
      vertex -35.75 13.75 -11.15
      vertex 35.75 -13.75 -11.15
      vertex 35.75 13.75 -11.15
    endloop
  endfacet
  facet normal 0 0 1
    outer loop
      vertex 35.75 -13.75 -11.15
      vertex -35.75 13.75 -11.15
      vertex -35.75 -13.75 -11.15
    endloop
  endfacet
  facet normal 1 0 0
    outer loop
      vertex -35.75 13.75 16.35
      vertex -35.75 0 2.11
      vertex -35.75 13.75 2.11
    endloop
  endfacet
  facet normal 1 0 0
    outer loop
      vertex -35.75 -13.75 -11.15
      vertex -35.75 0 2.11
      vertex -35.75 -13.75 16.35
    endloop
  endfacet
  facet normal 1 -0 0
    outer loop
      vertex -35.75 -13.75 16.35
      vertex -35.75 0 2.11
      vertex -35.75 13.75 16.35
    endloop
  endfacet
  facet normal 1 -0 0
    outer loop
      vertex -35.75 0 -2.11
      vertex -35.75 13.75 -11.15
      vertex -35.75 13.75 -2.11
    endloop
  endfacet
  facet normal 1 0 0
    outer loop
      vertex -35.75 0 -2.11
      vertex -35.75 -13.75 -11.15
      vertex -35.75 13.75 -11.15
    endloop
  endfacet
  facet normal 1 0 0
    outer loop
      vertex -35.75 0 2.11
      vertex -35.75 -13.75 -11.15
      vertex -35.75 0 -2.11
    endloop
  endfacet
  facet normal -1 0 0
    outer loop
      vertex -35.75 13.75 -2.11
      vertex -35.75 18.95 2.11
      vertex -35.75 18.95 -2.11
    endloop
  endfacet
  facet normal -1 -0 0
    outer loop
      vertex -35.75 18.95 2.11
      vertex -35.75 13.75 -2.11
      vertex -35.75 13.75 2.11
    endloop
  endfacet
  facet normal 0 -1 0
    outer loop
      vertex -35.75 13.75 16.35
      vertex -24.964 13.75 14.6043
      vertex -25.025 13.75 16.35
    endloop
  endfacet
  facet normal 0 -1 0
    outer loop
      vertex -35.75 13.75 16.35
      vertex -24.7815 13.75 12.8672
      vertex -24.964 13.75 14.6043
    endloop
  endfacet
  facet normal 0 -1 0
    outer loop
      vertex -35.75 13.75 16.35
      vertex -24.4781 13.75 11.147
      vertex -24.7815 13.75 12.8672
    endloop
  endfacet
  facet normal 0 -1 0
    outer loop
      vertex -35.75 13.75 2.11
      vertex -24.4781 13.75 11.147
      vertex -35.75 13.75 16.35
    endloop
  endfacet
  facet normal 0 -1 -0
    outer loop
      vertex -24.4781 13.75 11.147
      vertex -35.75 13.75 2.11
      vertex -24.0556 13.75 9.45218
    endloop
  endfacet
  facet normal 0 -1 -0
    outer loop
      vertex -24.0556 13.75 9.45218
      vertex -35.75 13.75 2.11
      vertex -23.5158 13.75 7.79095
    endloop
  endfacet
  facet normal 0 -1 -0
    outer loop
      vertex -23.5158 13.75 7.79095
      vertex -35.75 13.75 2.11
      vertex -22.8615 13.75 6.17142
    endloop
  endfacet
  facet normal 0 -1 -0
    outer loop
      vertex -22.8615 13.75 6.17142
      vertex -35.75 13.75 2.11
      vertex -22.0958 13.75 4.60147
    endloop
  endfacet
  facet normal 0 -1 -0
    outer loop
      vertex -22.0958 13.75 4.60147
      vertex -35.75 13.75 2.11
      vertex -21.2224 13.75 3.08877
    endloop
  endfacet
  facet normal 0 -1 0
    outer loop
      vertex -35.75 13.75 -2.11
      vertex -21.2224 13.75 3.08877
      vertex -35.75 13.75 2.11
    endloop
  endfacet
  facet normal 0 -1 -0
    outer loop
      vertex -21.2224 13.75 3.08877
      vertex -35.75 13.75 -2.11
      vertex -20.2456 13.75 1.64067
    endloop
  endfacet
  facet normal 0 -1 -0
    outer loop
      vertex -20.2456 13.75 1.64067
      vertex -35.75 13.75 -2.11
      vertex -19.1703 13.75 0.264239
    endloop
  endfacet
  facet normal 0 -1 0
    outer loop
      vertex -35.75 13.75 -11.15
      vertex -19.1703 13.75 0.264239
      vertex -35.75 13.75 -2.11
    endloop
  endfacet
  facet normal 0 -1 -0
    outer loop
      vertex -19.1703 13.75 0.264239
      vertex -35.75 13.75 -11.15
      vertex -18.0015 13.75 -1.03382
    endloop
  endfacet
  facet normal 0 -1 -0
    outer loop
      vertex -18.0015 13.75 -1.03382
      vertex -35.75 13.75 -11.15
      vertex -16.745 13.75 -2.2472
    endloop
  endfacet
  facet normal 0 -1 -0
    outer loop
      vertex -16.745 13.75 -2.2472
      vertex -35.75 13.75 -11.15
      vertex -15.4069 13.75 -3.36997
    endloop
  endfacet
  facet normal 0 -1 -0
    outer loop
      vertex -15.4069 13.75 -3.36997
      vertex -35.75 13.75 -11.15
      vertex -13.9938 13.75 -4.39666
    endloop
  endfacet
  facet normal 0 -1 -0
    outer loop
      vertex -13.9938 13.75 -4.39666
      vertex -35.75 13.75 -11.15
      vertex -12.5125 13.75 -5.32229
    endloop
  endfacet
  facet normal 0 -1 -0
    outer loop
      vertex -12.5125 13.75 -5.32229
      vertex -35.75 13.75 -11.15
      vertex -10.9702 13.75 -6.14232
    endloop
  endfacet
  facet normal 0 -1 -0
    outer loop
      vertex -10.9702 13.75 -6.14232
      vertex -35.75 13.75 -11.15
      vertex -9.37453 13.75 -6.85278
    endloop
  endfacet
  facet normal 0 -1 -0
    outer loop
      vertex -9.37453 13.75 -6.85278
      vertex -35.75 13.75 -11.15
      vertex -7.73315 13.75 -7.45019
    endloop
  endfacet
  facet normal 0 -1 -0
    outer loop
      vertex -7.73315 13.75 -7.45019
      vertex -35.75 13.75 -11.15
      vertex -6.0541 13.75 -7.93165
    endloop
  endfacet
  facet normal 0 -1 -0
    outer loop
      vertex -0.87336 13.75 -8.65975
      vertex -35.75 13.75 -11.15
      vertex 0.87336 13.75 -8.65975
    endloop
  endfacet
  facet normal 0 -1 -0
    outer loop
      vertex -2.61582 13.75 -8.53791
      vertex -35.75 13.75 -11.15
      vertex -0.87336 13.75 -8.65975
    endloop
  endfacet
  facet normal 0 -1 -0
    outer loop
      vertex -4.34554 13.75 -8.29481
      vertex -35.75 13.75 -11.15
      vertex -2.61582 13.75 -8.53791
    endloop
  endfacet
  facet normal 0 -1 -0
    outer loop
      vertex -6.0541 13.75 -7.93165
      vertex -35.75 13.75 -11.15
      vertex -4.34554 13.75 -8.29481
    endloop
  endfacet
  facet normal 0 -1 0
    outer loop
      vertex 24.964 13.75 14.6043
      vertex 35.75 13.75 16.35
      vertex 25.025 13.75 16.35
    endloop
  endfacet
  facet normal 0 -1 0
    outer loop
      vertex 24.7815 13.75 12.8672
      vertex 35.75 13.75 16.35
      vertex 24.964 13.75 14.6043
    endloop
  endfacet
  facet normal 0 -1 0
    outer loop
      vertex 24.4781 13.75 11.147
      vertex 35.75 13.75 16.35
      vertex 24.7815 13.75 12.8672
    endloop
  endfacet
  facet normal 0 -1 0
    outer loop
      vertex 35.75 13.75 2.11
      vertex 24.4781 13.75 11.147
      vertex 24.0556 13.75 9.45218
    endloop
  endfacet
  facet normal 0 -1 0
    outer loop
      vertex 35.75 13.75 2.11
      vertex 24.0556 13.75 9.45218
      vertex 23.5158 13.75 7.79095
    endloop
  endfacet
  facet normal 0 -1 0
    outer loop
      vertex 35.75 13.75 2.11
      vertex 23.5158 13.75 7.79095
      vertex 22.8615 13.75 6.17142
    endloop
  endfacet
  facet normal 0 -1 0
    outer loop
      vertex 35.75 13.75 2.11
      vertex 22.8615 13.75 6.17142
      vertex 22.0958 13.75 4.60147
    endloop
  endfacet
  facet normal 0 -1 0
    outer loop
      vertex 35.75 13.75 2.11
      vertex 22.0958 13.75 4.60147
      vertex 21.2224 13.75 3.08877
    endloop
  endfacet
  facet normal 0 -1 0
    outer loop
      vertex 24.4781 13.75 11.147
      vertex 35.75 13.75 2.11
      vertex 35.75 13.75 16.35
    endloop
  endfacet
  facet normal 0 -1 0
    outer loop
      vertex 35.75 13.75 -2.11
      vertex 21.2224 13.75 3.08877
      vertex 20.2456 13.75 1.64067
    endloop
  endfacet
  facet normal 0 -1 0
    outer loop
      vertex 35.75 13.75 -2.11
      vertex 20.2456 13.75 1.64067
      vertex 19.1703 13.75 0.264239
    endloop
  endfacet
  facet normal 0 -1 0
    outer loop
      vertex 35.75 13.75 -11.15
      vertex 19.1703 13.75 0.264239
      vertex 18.0015 13.75 -1.03382
    endloop
  endfacet
  facet normal 0 -1 0
    outer loop
      vertex 21.2224 13.75 3.08877
      vertex 35.75 13.75 -2.11
      vertex 35.75 13.75 2.11
    endloop
  endfacet
  facet normal 0 -1 0
    outer loop
      vertex 35.75 13.75 -11.15
      vertex 18.0015 13.75 -1.03382
      vertex 16.745 13.75 -2.2472
    endloop
  endfacet
  facet normal 0 -1 0
    outer loop
      vertex 35.75 13.75 -11.15
      vertex 16.745 13.75 -2.2472
      vertex 15.4069 13.75 -3.36997
    endloop
  endfacet
  facet normal 0 -1 0
    outer loop
      vertex 35.75 13.75 -11.15
      vertex 15.4069 13.75 -3.36997
      vertex 13.9938 13.75 -4.39666
    endloop
  endfacet
  facet normal 0 -1 0
    outer loop
      vertex 35.75 13.75 -11.15
      vertex 13.9938 13.75 -4.39666
      vertex 12.5125 13.75 -5.32229
    endloop
  endfacet
  facet normal 0 -1 0
    outer loop
      vertex 35.75 13.75 -11.15
      vertex 12.5125 13.75 -5.32229
      vertex 10.9702 13.75 -6.14232
    endloop
  endfacet
  facet normal 0 -1 0
    outer loop
      vertex 35.75 13.75 -11.15
      vertex 10.9702 13.75 -6.14232
      vertex 9.37453 13.75 -6.85278
    endloop
  endfacet
  facet normal 0 -1 0
    outer loop
      vertex 35.75 13.75 -11.15
      vertex 9.37453 13.75 -6.85278
      vertex 7.73315 13.75 -7.45019
    endloop
  endfacet
  facet normal 0 -1 0
    outer loop
      vertex 35.75 13.75 -11.15
      vertex 7.73315 13.75 -7.45019
      vertex 6.0541 13.75 -7.93165
    endloop
  endfacet
  facet normal 0 -1 0
    outer loop
      vertex 35.75 13.75 -11.15
      vertex 6.0541 13.75 -7.93165
      vertex 4.34554 13.75 -8.29481
    endloop
  endfacet
  facet normal 0 -1 0
    outer loop
      vertex 19.1703 13.75 0.264239
      vertex 35.75 13.75 -11.15
      vertex 35.75 13.75 -2.11
    endloop
  endfacet
  facet normal 0 -1 0
    outer loop
      vertex 2.61582 13.75 -8.53791
      vertex 35.75 13.75 -11.15
      vertex 4.34554 13.75 -8.29481
    endloop
  endfacet
  facet normal 0 -1 0
    outer loop
      vertex 0.87336 13.75 -8.65975
      vertex 35.75 13.75 -11.15
      vertex 2.61582 13.75 -8.53791
    endloop
  endfacet
  facet normal 0 -1 0
    outer loop
      vertex 35.75 13.75 -11.15
      vertex 0.87336 13.75 -8.65975
      vertex -35.75 13.75 -11.15
    endloop
  endfacet
  facet normal 0 1 0
    outer loop
      vertex 35.75 -13.75 16.35
      vertex 24.964 -13.75 14.6043
      vertex 25.025 -13.75 16.35
    endloop
  endfacet
  facet normal 0 1 0
    outer loop
      vertex 35.75 -13.75 16.35
      vertex 24.7815 -13.75 12.8672
      vertex 24.964 -13.75 14.6043
    endloop
  endfacet
  facet normal 0 1 0
    outer loop
      vertex 35.75 -13.75 16.35
      vertex 24.4781 -13.75 11.147
      vertex 24.7815 -13.75 12.8672
    endloop
  endfacet
  facet normal 0 1 0
    outer loop
      vertex 35.75 -13.75 16.35
      vertex 24.0556 -13.75 9.45218
      vertex 24.4781 -13.75 11.147
    endloop
  endfacet
  facet normal 0 1 0
    outer loop
      vertex 35.75 -13.75 16.35
      vertex 23.5158 -13.75 7.79095
      vertex 24.0556 -13.75 9.45218
    endloop
  endfacet
  facet normal 0 1 -0
    outer loop
      vertex 35.75 -13.75 -11.15
      vertex 23.5158 -13.75 7.79095
      vertex 35.75 -13.75 16.35
    endloop
  endfacet
  facet normal 0 1 0
    outer loop
      vertex 23.5158 -13.75 7.79095
      vertex 35.75 -13.75 -11.15
      vertex 22.8615 -13.75 6.17142
    endloop
  endfacet
  facet normal 0 1 0
    outer loop
      vertex 22.8615 -13.75 6.17142
      vertex 35.75 -13.75 -11.15
      vertex 22.0958 -13.75 4.60147
    endloop
  endfacet
  facet normal 0 1 0
    outer loop
      vertex 22.0958 -13.75 4.60147
      vertex 35.75 -13.75 -11.15
      vertex 21.2224 -13.75 3.08877
    endloop
  endfacet
  facet normal 0 1 0
    outer loop
      vertex 21.2224 -13.75 3.08877
      vertex 35.75 -13.75 -11.15
      vertex 20.2456 -13.75 1.64067
    endloop
  endfacet
  facet normal 0 1 0
    outer loop
      vertex 20.2456 -13.75 1.64067
      vertex 35.75 -13.75 -11.15
      vertex 19.1703 -13.75 0.264239
    endloop
  endfacet
  facet normal 0 1 0
    outer loop
      vertex 0.87336 -13.75 -8.65975
      vertex 35.75 -13.75 -11.15
      vertex -0.87336 -13.75 -8.65975
    endloop
  endfacet
  facet normal 0 1 0
    outer loop
      vertex 2.61582 -13.75 -8.53791
      vertex 35.75 -13.75 -11.15
      vertex 0.87336 -13.75 -8.65975
    endloop
  endfacet
  facet normal 0 1 0
    outer loop
      vertex 4.34554 -13.75 -8.29481
      vertex 35.75 -13.75 -11.15
      vertex 2.61582 -13.75 -8.53791
    endloop
  endfacet
  facet normal 0 1 0
    outer loop
      vertex 6.0541 -13.75 -7.93165
      vertex 35.75 -13.75 -11.15
      vertex 4.34554 -13.75 -8.29481
    endloop
  endfacet
  facet normal 0 1 0
    outer loop
      vertex 7.73315 -13.75 -7.45019
      vertex 35.75 -13.75 -11.15
      vertex 6.0541 -13.75 -7.93165
    endloop
  endfacet
  facet normal 0 1 0
    outer loop
      vertex 9.37453 -13.75 -6.85278
      vertex 35.75 -13.75 -11.15
      vertex 7.73315 -13.75 -7.45019
    endloop
  endfacet
  facet normal 0 1 0
    outer loop
      vertex 10.9702 -13.75 -6.14232
      vertex 35.75 -13.75 -11.15
      vertex 9.37453 -13.75 -6.85278
    endloop
  endfacet
  facet normal 0 1 0
    outer loop
      vertex 12.5125 -13.75 -5.32229
      vertex 35.75 -13.75 -11.15
      vertex 10.9702 -13.75 -6.14232
    endloop
  endfacet
  facet normal 0 1 0
    outer loop
      vertex 13.9938 -13.75 -4.39666
      vertex 35.75 -13.75 -11.15
      vertex 12.5125 -13.75 -5.32229
    endloop
  endfacet
  facet normal 0 1 0
    outer loop
      vertex 15.4069 -13.75 -3.36997
      vertex 35.75 -13.75 -11.15
      vertex 13.9938 -13.75 -4.39666
    endloop
  endfacet
  facet normal 0 1 0
    outer loop
      vertex 16.745 -13.75 -2.2472
      vertex 35.75 -13.75 -11.15
      vertex 15.4069 -13.75 -3.36997
    endloop
  endfacet
  facet normal 0 1 0
    outer loop
      vertex 18.0015 -13.75 -1.03382
      vertex 35.75 -13.75 -11.15
      vertex 16.745 -13.75 -2.2472
    endloop
  endfacet
  facet normal 0 1 0
    outer loop
      vertex 19.1703 -13.75 0.264239
      vertex 35.75 -13.75 -11.15
      vertex 18.0015 -13.75 -1.03382
    endloop
  endfacet
  facet normal 0 1 0
    outer loop
      vertex -24.964 -13.75 14.6043
      vertex -35.75 -13.75 16.35
      vertex -25.025 -13.75 16.35
    endloop
  endfacet
  facet normal 0 1 0
    outer loop
      vertex -24.7815 -13.75 12.8672
      vertex -35.75 -13.75 16.35
      vertex -24.964 -13.75 14.6043
    endloop
  endfacet
  facet normal 0 1 0
    outer loop
      vertex -24.4781 -13.75 11.147
      vertex -35.75 -13.75 16.35
      vertex -24.7815 -13.75 12.8672
    endloop
  endfacet
  facet normal 0 1 0
    outer loop
      vertex -24.0556 -13.75 9.45218
      vertex -35.75 -13.75 16.35
      vertex -24.4781 -13.75 11.147
    endloop
  endfacet
  facet normal 0 1 0
    outer loop
      vertex -23.5158 -13.75 7.79095
      vertex -35.75 -13.75 16.35
      vertex -24.0556 -13.75 9.45218
    endloop
  endfacet
  facet normal 0 1 0
    outer loop
      vertex -35.75 -13.75 -11.15
      vertex -23.5158 -13.75 7.79095
      vertex -22.8615 -13.75 6.17142
    endloop
  endfacet
  facet normal 0 1 0
    outer loop
      vertex -35.75 -13.75 -11.15
      vertex -22.8615 -13.75 6.17142
      vertex -22.0958 -13.75 4.60147
    endloop
  endfacet
  facet normal 0 1 0
    outer loop
      vertex -35.75 -13.75 -11.15
      vertex -22.0958 -13.75 4.60147
      vertex -21.2224 -13.75 3.08877
    endloop
  endfacet
  facet normal 0 1 0
    outer loop
      vertex -35.75 -13.75 -11.15
      vertex -21.2224 -13.75 3.08877
      vertex -20.2456 -13.75 1.64067
    endloop
  endfacet
  facet normal 0 1 0
    outer loop
      vertex -35.75 -13.75 -11.15
      vertex -20.2456 -13.75 1.64067
      vertex -19.1703 -13.75 0.264239
    endloop
  endfacet
  facet normal 0 1 0
    outer loop
      vertex -35.75 -13.75 -11.15
      vertex -19.1703 -13.75 0.264239
      vertex -18.0015 -13.75 -1.03382
    endloop
  endfacet
  facet normal 0 1 0
    outer loop
      vertex -23.5158 -13.75 7.79095
      vertex -35.75 -13.75 -11.15
      vertex -35.75 -13.75 16.35
    endloop
  endfacet
  facet normal 0 1 0
    outer loop
      vertex -16.745 -13.75 -2.2472
      vertex -35.75 -13.75 -11.15
      vertex -18.0015 -13.75 -1.03382
    endloop
  endfacet
  facet normal 0 1 0
    outer loop
      vertex -15.4069 -13.75 -3.36997
      vertex -35.75 -13.75 -11.15
      vertex -16.745 -13.75 -2.2472
    endloop
  endfacet
  facet normal 0 1 0
    outer loop
      vertex -13.9938 -13.75 -4.39666
      vertex -35.75 -13.75 -11.15
      vertex -15.4069 -13.75 -3.36997
    endloop
  endfacet
  facet normal 0 1 0
    outer loop
      vertex -12.5125 -13.75 -5.32229
      vertex -35.75 -13.75 -11.15
      vertex -13.9938 -13.75 -4.39666
    endloop
  endfacet
  facet normal 0 1 0
    outer loop
      vertex -10.9702 -13.75 -6.14232
      vertex -35.75 -13.75 -11.15
      vertex -12.5125 -13.75 -5.32229
    endloop
  endfacet
  facet normal 0 1 0
    outer loop
      vertex -9.37453 -13.75 -6.85278
      vertex -35.75 -13.75 -11.15
      vertex -10.9702 -13.75 -6.14232
    endloop
  endfacet
  facet normal 0 1 0
    outer loop
      vertex -7.73315 -13.75 -7.45019
      vertex -35.75 -13.75 -11.15
      vertex -9.37453 -13.75 -6.85278
    endloop
  endfacet
  facet normal 0 1 0
    outer loop
      vertex -6.0541 -13.75 -7.93165
      vertex -35.75 -13.75 -11.15
      vertex -7.73315 -13.75 -7.45019
    endloop
  endfacet
  facet normal 0 1 0
    outer loop
      vertex -4.34554 -13.75 -8.29481
      vertex -35.75 -13.75 -11.15
      vertex -6.0541 -13.75 -7.93165
    endloop
  endfacet
  facet normal 0 1 0
    outer loop
      vertex -2.61582 -13.75 -8.53791
      vertex -35.75 -13.75 -11.15
      vertex -4.34554 -13.75 -8.29481
    endloop
  endfacet
  facet normal 0 1 0
    outer loop
      vertex -0.87336 -13.75 -8.65975
      vertex -35.75 -13.75 -11.15
      vertex -2.61582 -13.75 -8.53791
    endloop
  endfacet
  facet normal 0 1 0
    outer loop
      vertex -35.75 -13.75 -11.15
      vertex -0.87336 -13.75 -8.65975
      vertex 35.75 -13.75 -11.15
    endloop
  endfacet
  facet normal -0.788035 0 0.615631
    outer loop
      vertex 19.1703 13.75 0.264239
      vertex 20.2456 18.95 1.64067
      vertex 19.1703 18.95 0.264239
    endloop
  endfacet
  facet normal -0.788035 0 0.615631
    outer loop
      vertex 20.2456 18.95 1.64067
      vertex 19.1703 13.75 0.264239
      vertex 20.2456 13.75 1.64067
    endloop
  endfacet
  facet normal 0.92719 -0 0.374591
    outer loop
      vertex -23.5158 13.75 7.79095
      vertex -22.8615 18.95 6.17142
      vertex -23.5158 18.95 7.79095
    endloop
  endfacet
  facet normal 0.92719 0 0.374591
    outer loop
      vertex -22.8615 18.95 6.17142
      vertex -23.5158 13.75 7.79095
      vertex -22.8615 13.75 6.17142
    endloop
  endfacet
  facet normal 0.743138 -0 0.669138
    outer loop
      vertex -19.1703 13.75 0.264239
      vertex -18.0015 18.95 -1.03382
      vertex -19.1703 18.95 0.264239
    endloop
  endfacet
  facet normal 0.743138 0 0.669138
    outer loop
      vertex -18.0015 18.95 -1.03382
      vertex -19.1703 13.75 0.264239
      vertex -18.0015 13.75 -1.03382
    endloop
  endfacet
  facet normal 0.139175 0 0.990268
    outer loop
      vertex -4.34554 18.95 -8.29481
      vertex -2.61582 13.75 -8.53791
      vertex -2.61582 18.95 -8.53791
    endloop
  endfacet
  facet normal 0.139175 0 0.990268
    outer loop
      vertex -2.61582 13.75 -8.53791
      vertex -4.34554 18.95 -8.29481
      vertex -4.34554 13.75 -8.29481
    endloop
  endfacet
  facet normal -0.92719 0 0.374591
    outer loop
      vertex 22.8615 13.75 6.17142
      vertex 23.5158 18.95 7.79095
      vertex 22.8615 18.95 6.17142
    endloop
  endfacet
  facet normal -0.92719 0 0.374591
    outer loop
      vertex 23.5158 18.95 7.79095
      vertex 22.8615 13.75 6.17142
      vertex 23.5158 13.75 7.79095
    endloop
  endfacet
  facet normal -0.743138 0 0.669138
    outer loop
      vertex 18.0015 13.75 -1.03382
      vertex 19.1703 18.95 0.264239
      vertex 18.0015 18.95 -1.03382
    endloop
  endfacet
  facet normal -0.743138 0 0.669138
    outer loop
      vertex 19.1703 18.95 0.264239
      vertex 18.0015 13.75 -1.03382
      vertex 19.1703 13.75 0.264239
    endloop
  endfacet
  facet normal -0.275637 0 0.961262
    outer loop
      vertex 6.0541 18.95 -7.93165
      vertex 7.73315 13.75 -7.45019
      vertex 7.73315 18.95 -7.45019
    endloop
  endfacet
  facet normal -0.275637 0 0.961262
    outer loop
      vertex 7.73315 13.75 -7.45019
      vertex 6.0541 18.95 -7.93165
      vertex 6.0541 13.75 -7.93165
    endloop
  endfacet
  facet normal 0.994526 -0 0.104485
    outer loop
      vertex -24.964 13.75 14.6043
      vertex -24.7815 18.95 12.8672
      vertex -24.964 18.95 14.6043
    endloop
  endfacet
  facet normal 0.994526 0 0.104485
    outer loop
      vertex -24.7815 18.95 12.8672
      vertex -24.964 13.75 14.6043
      vertex -24.7815 13.75 12.8672
    endloop
  endfacet
  facet normal -0.970305 0 0.241886
    outer loop
      vertex 24.0556 13.75 9.45218
      vertex 24.4781 18.95 11.147
      vertex 24.0556 18.95 9.45218
    endloop
  endfacet
  facet normal -0.970305 0 0.241886
    outer loop
      vertex 24.4781 18.95 11.147
      vertex 24.0556 13.75 9.45218
      vertex 24.4781 13.75 11.147
    endloop
  endfacet
  facet normal 0.642778 0 0.766053
    outer loop
      vertex -16.745 18.95 -2.2472
      vertex -15.4069 13.75 -3.36997
      vertex -15.4069 18.95 -3.36997
    endloop
  endfacet
  facet normal 0.642778 0 0.766053
    outer loop
      vertex -15.4069 13.75 -3.36997
      vertex -16.745 18.95 -2.2472
      vertex -16.745 13.75 -2.2472
    endloop
  endfacet
  facet normal 0.9848 -0 0.173694
    outer loop
      vertex -24.7815 13.75 12.8672
      vertex -24.4781 18.95 11.147
      vertex -24.7815 18.95 12.8672
    endloop
  endfacet
  facet normal 0.9848 0 0.173694
    outer loop
      vertex -24.4781 18.95 11.147
      vertex -24.7815 13.75 12.8672
      vertex -24.4781 13.75 11.147
    endloop
  endfacet
  facet normal -0.0697538 0 0.997564
    outer loop
      vertex 0.87336 18.95 -8.65975
      vertex 2.61582 13.75 -8.53791
      vertex 2.61582 18.95 -8.53791
    endloop
  endfacet
  facet normal -0.0697538 0 0.997564
    outer loop
      vertex 2.61582 13.75 -8.53791
      vertex 0.87336 18.95 -8.65975
      vertex 0.87336 13.75 -8.65975
    endloop
  endfacet
  facet normal 0.342018 0 0.939693
    outer loop
      vertex -9.37453 18.95 -6.85278
      vertex -7.73315 13.75 -7.45019
      vertex -7.73315 18.95 -7.45019
    endloop
  endfacet
  facet normal 0.342018 0 0.939693
    outer loop
      vertex -7.73315 13.75 -7.45019
      vertex -9.37453 18.95 -6.85278
      vertex -9.37453 13.75 -6.85278
    endloop
  endfacet
  facet normal -0.642778 0 0.766053
    outer loop
      vertex 15.4069 18.95 -3.36997
      vertex 16.745 13.75 -2.2472
      vertex 16.745 18.95 -2.2472
    endloop
  endfacet
  facet normal -0.642778 0 0.766053
    outer loop
      vertex 16.745 13.75 -2.2472
      vertex 15.4069 18.95 -3.36997
      vertex 15.4069 13.75 -3.36997
    endloop
  endfacet
  facet normal -0.406747 0 0.913541
    outer loop
      vertex 9.37453 18.95 -6.85278
      vertex 10.9702 13.75 -6.14232
      vertex 10.9702 18.95 -6.14232
    endloop
  endfacet
  facet normal -0.406747 0 0.913541
    outer loop
      vertex 10.9702 13.75 -6.14232
      vertex 9.37453 18.95 -6.85278
      vertex 9.37453 13.75 -6.85278
    endloop
  endfacet
  facet normal -0.46946 0 0.882954
    outer loop
      vertex 10.9702 18.95 -6.14232
      vertex 12.5125 13.75 -5.32229
      vertex 12.5125 18.95 -5.32229
    endloop
  endfacet
  facet normal -0.46946 0 0.882954
    outer loop
      vertex 12.5125 13.75 -5.32229
      vertex 10.9702 18.95 -6.14232
      vertex 10.9702 13.75 -6.14232
    endloop
  endfacet
  facet normal 0.694656 0 0.719342
    outer loop
      vertex -18.0015 18.95 -1.03382
      vertex -16.745 13.75 -2.2472
      vertex -16.745 18.95 -2.2472
    endloop
  endfacet
  facet normal 0.694656 0 0.719342
    outer loop
      vertex -16.745 13.75 -2.2472
      vertex -18.0015 18.95 -1.03382
      vertex -18.0015 13.75 -1.03382
    endloop
  endfacet
  facet normal -0.829026 0 0.55921
    outer loop
      vertex 20.2456 13.75 1.64067
      vertex 21.2224 18.95 3.08877
      vertex 20.2456 18.95 1.64067
    endloop
  endfacet
  facet normal -0.829026 0 0.55921
    outer loop
      vertex 21.2224 18.95 3.08877
      vertex 20.2456 13.75 1.64067
      vertex 21.2224 13.75 3.08877
    endloop
  endfacet
  facet normal -0.342018 0 0.939693
    outer loop
      vertex 7.73315 18.95 -7.45019
      vertex 9.37453 13.75 -6.85278
      vertex 9.37453 18.95 -6.85278
    endloop
  endfacet
  facet normal -0.342018 0 0.939693
    outer loop
      vertex 9.37453 13.75 -6.85278
      vertex 7.73315 18.95 -7.45019
      vertex 7.73315 13.75 -7.45019
    endloop
  endfacet
  facet normal 0.207909 0 0.978148
    outer loop
      vertex -6.0541 18.95 -7.93165
      vertex -4.34554 13.75 -8.29481
      vertex -4.34554 18.95 -8.29481
    endloop
  endfacet
  facet normal 0.207909 0 0.978148
    outer loop
      vertex -4.34554 13.75 -8.29481
      vertex -6.0541 18.95 -7.93165
      vertex -6.0541 13.75 -7.93165
    endloop
  endfacet
  facet normal -0.9848 0 0.173694
    outer loop
      vertex 24.4781 13.75 11.147
      vertex 24.7815 18.95 12.8672
      vertex 24.4781 18.95 11.147
    endloop
  endfacet
  facet normal -0.9848 0 0.173694
    outer loop
      vertex 24.7815 18.95 12.8672
      vertex 24.4781 13.75 11.147
      vertex 24.7815 13.75 12.8672
    endloop
  endfacet
  facet normal 0.788035 -0 0.615631
    outer loop
      vertex -20.2456 13.75 1.64067
      vertex -19.1703 18.95 0.264239
      vertex -20.2456 18.95 1.64067
    endloop
  endfacet
  facet normal 0.788035 0 0.615631
    outer loop
      vertex -19.1703 18.95 0.264239
      vertex -20.2456 13.75 1.64067
      vertex -19.1703 13.75 0.264239
    endloop
  endfacet
  facet normal -0 0 1
    outer loop
      vertex -0.87336 18.95 -8.65975
      vertex 0.87336 13.75 -8.65975
      vertex 0.87336 18.95 -8.65975
    endloop
  endfacet
  facet normal 0 0 1
    outer loop
      vertex 0.87336 13.75 -8.65975
      vertex -0.87336 18.95 -8.65975
      vertex -0.87336 13.75 -8.65975
    endloop
  endfacet
  facet normal -0.99939 0 0.0349217
    outer loop
      vertex 24.964 13.75 14.6043
      vertex 25.025 18.95 16.35
      vertex 24.964 18.95 14.6043
    endloop
  endfacet
  facet normal -0.99939 0 0.0349217
    outer loop
      vertex 25.025 18.95 16.35
      vertex 24.964 13.75 14.6043
      vertex 25.025 13.75 16.35
    endloop
  endfacet
  facet normal -0.694656 0 0.719342
    outer loop
      vertex 16.745 18.95 -2.2472
      vertex 18.0015 13.75 -1.03382
      vertex 18.0015 18.95 -1.03382
    endloop
  endfacet
  facet normal -0.694656 0 0.719342
    outer loop
      vertex 18.0015 13.75 -1.03382
      vertex 16.745 18.95 -2.2472
      vertex 16.745 13.75 -2.2472
    endloop
  endfacet
  facet normal 0.46946 0 0.882954
    outer loop
      vertex -12.5125 18.95 -5.32229
      vertex -10.9702 13.75 -6.14232
      vertex -10.9702 18.95 -6.14232
    endloop
  endfacet
  facet normal 0.46946 0 0.882954
    outer loop
      vertex -10.9702 13.75 -6.14232
      vertex -12.5125 18.95 -5.32229
      vertex -12.5125 13.75 -5.32229
    endloop
  endfacet
  facet normal -0.898798 0 0.438364
    outer loop
      vertex 22.0958 13.75 4.60147
      vertex 22.8615 18.95 6.17142
      vertex 22.0958 18.95 4.60147
    endloop
  endfacet
  facet normal -0.898798 0 0.438364
    outer loop
      vertex 22.8615 18.95 6.17142
      vertex 22.0958 13.75 4.60147
      vertex 22.8615 13.75 6.17142
    endloop
  endfacet
  facet normal -0.866015 0 0.500018
    outer loop
      vertex 21.2224 13.75 3.08877
      vertex 22.0958 18.95 4.60147
      vertex 21.2224 18.95 3.08877
    endloop
  endfacet
  facet normal -0.866015 0 0.500018
    outer loop
      vertex 22.0958 18.95 4.60147
      vertex 21.2224 13.75 3.08877
      vertex 22.0958 13.75 4.60147
    endloop
  endfacet
  facet normal 0.529924 0 0.848045
    outer loop
      vertex -13.9938 18.95 -4.39666
      vertex -12.5125 13.75 -5.32229
      vertex -12.5125 18.95 -5.32229
    endloop
  endfacet
  facet normal 0.529924 0 0.848045
    outer loop
      vertex -12.5125 13.75 -5.32229
      vertex -13.9938 18.95 -4.39666
      vertex -13.9938 13.75 -4.39666
    endloop
  endfacet
  facet normal 0.406747 0 0.913541
    outer loop
      vertex -10.9702 18.95 -6.14232
      vertex -9.37453 13.75 -6.85278
      vertex -9.37453 18.95 -6.85278
    endloop
  endfacet
  facet normal 0.406747 0 0.913541
    outer loop
      vertex -9.37453 13.75 -6.85278
      vertex -10.9702 18.95 -6.14232
      vertex -10.9702 13.75 -6.14232
    endloop
  endfacet
  facet normal 0.898798 -0 0.438364
    outer loop
      vertex -22.8615 13.75 6.17142
      vertex -22.0958 18.95 4.60147
      vertex -22.8615 18.95 6.17142
    endloop
  endfacet
  facet normal 0.898798 0 0.438364
    outer loop
      vertex -22.0958 18.95 4.60147
      vertex -22.8615 13.75 6.17142
      vertex -22.0958 13.75 4.60147
    endloop
  endfacet
  facet normal 0.866015 -0 0.500018
    outer loop
      vertex -22.0958 13.75 4.60147
      vertex -21.2224 18.95 3.08877
      vertex -22.0958 18.95 4.60147
    endloop
  endfacet
  facet normal 0.866015 0 0.500018
    outer loop
      vertex -21.2224 18.95 3.08877
      vertex -22.0958 13.75 4.60147
      vertex -21.2224 13.75 3.08877
    endloop
  endfacet
  facet normal -0.994526 0 0.104485
    outer loop
      vertex 24.7815 13.75 12.8672
      vertex 24.964 18.95 14.6043
      vertex 24.7815 18.95 12.8672
    endloop
  endfacet
  facet normal -0.994526 0 0.104485
    outer loop
      vertex 24.964 18.95 14.6043
      vertex 24.7815 13.75 12.8672
      vertex 24.964 13.75 14.6043
    endloop
  endfacet
  facet normal -0.529924 0 0.848045
    outer loop
      vertex 12.5125 18.95 -5.32229
      vertex 13.9938 13.75 -4.39666
      vertex 13.9938 18.95 -4.39666
    endloop
  endfacet
  facet normal -0.529924 0 0.848045
    outer loop
      vertex 13.9938 13.75 -4.39666
      vertex 12.5125 18.95 -5.32229
      vertex 12.5125 13.75 -5.32229
    endloop
  endfacet
  facet normal 0.99939 -0 0.0349217
    outer loop
      vertex -25.025 13.75 16.35
      vertex -24.964 18.95 14.6043
      vertex -25.025 18.95 16.35
    endloop
  endfacet
  facet normal 0.99939 0 0.0349217
    outer loop
      vertex -24.964 18.95 14.6043
      vertex -25.025 13.75 16.35
      vertex -24.964 13.75 14.6043
    endloop
  endfacet
  facet normal 0.0697538 0 0.997564
    outer loop
      vertex -2.61582 18.95 -8.53791
      vertex -0.87336 13.75 -8.65975
      vertex -0.87336 18.95 -8.65975
    endloop
  endfacet
  facet normal 0.0697538 0 0.997564
    outer loop
      vertex -0.87336 13.75 -8.65975
      vertex -2.61582 18.95 -8.53791
      vertex -2.61582 13.75 -8.53791
    endloop
  endfacet
  facet normal 0.970305 -0 0.241886
    outer loop
      vertex -24.4781 13.75 11.147
      vertex -24.0556 18.95 9.45218
      vertex -24.4781 18.95 11.147
    endloop
  endfacet
  facet normal 0.970305 0 0.241886
    outer loop
      vertex -24.0556 18.95 9.45218
      vertex -24.4781 13.75 11.147
      vertex -24.0556 13.75 9.45218
    endloop
  endfacet
  facet normal -0.58779 0 0.809014
    outer loop
      vertex 13.9938 18.95 -4.39666
      vertex 15.4069 13.75 -3.36997
      vertex 15.4069 18.95 -3.36997
    endloop
  endfacet
  facet normal -0.58779 0 0.809014
    outer loop
      vertex 15.4069 13.75 -3.36997
      vertex 13.9938 18.95 -4.39666
      vertex 13.9938 13.75 -4.39666
    endloop
  endfacet
  facet normal -0.139175 0 0.990268
    outer loop
      vertex 2.61582 18.95 -8.53791
      vertex 4.34554 13.75 -8.29481
      vertex 4.34554 18.95 -8.29481
    endloop
  endfacet
  facet normal -0.139175 0 0.990268
    outer loop
      vertex 4.34554 13.75 -8.29481
      vertex 2.61582 18.95 -8.53791
      vertex 2.61582 13.75 -8.53791
    endloop
  endfacet
  facet normal 0.829026 -0 0.55921
    outer loop
      vertex -21.2224 13.75 3.08877
      vertex -20.2456 18.95 1.64067
      vertex -21.2224 18.95 3.08877
    endloop
  endfacet
  facet normal 0.829026 0 0.55921
    outer loop
      vertex -20.2456 18.95 1.64067
      vertex -21.2224 13.75 3.08877
      vertex -20.2456 13.75 1.64067
    endloop
  endfacet
  facet normal -0.207909 0 0.978148
    outer loop
      vertex 4.34554 18.95 -8.29481
      vertex 6.0541 13.75 -7.93165
      vertex 6.0541 18.95 -7.93165
    endloop
  endfacet
  facet normal -0.207909 0 0.978148
    outer loop
      vertex 6.0541 13.75 -7.93165
      vertex 4.34554 18.95 -8.29481
      vertex 4.34554 13.75 -8.29481
    endloop
  endfacet
  facet normal -0.951051 0 0.309034
    outer loop
      vertex 23.5158 13.75 7.79095
      vertex 24.0556 18.95 9.45218
      vertex 23.5158 18.95 7.79095
    endloop
  endfacet
  facet normal -0.951051 0 0.309034
    outer loop
      vertex 24.0556 18.95 9.45218
      vertex 23.5158 13.75 7.79095
      vertex 24.0556 13.75 9.45218
    endloop
  endfacet
  facet normal 0.58779 0 0.809014
    outer loop
      vertex -15.4069 18.95 -3.36997
      vertex -13.9938 13.75 -4.39666
      vertex -13.9938 18.95 -4.39666
    endloop
  endfacet
  facet normal 0.58779 0 0.809014
    outer loop
      vertex -13.9938 13.75 -4.39666
      vertex -15.4069 18.95 -3.36997
      vertex -15.4069 13.75 -3.36997
    endloop
  endfacet
  facet normal 0.275637 0 0.961262
    outer loop
      vertex -7.73315 18.95 -7.45019
      vertex -6.0541 13.75 -7.93165
      vertex -6.0541 18.95 -7.93165
    endloop
  endfacet
  facet normal 0.275637 0 0.961262
    outer loop
      vertex -6.0541 13.75 -7.93165
      vertex -7.73315 18.95 -7.45019
      vertex -7.73315 13.75 -7.45019
    endloop
  endfacet
  facet normal 0.951051 -0 0.309034
    outer loop
      vertex -24.0556 13.75 9.45218
      vertex -23.5158 18.95 7.79095
      vertex -24.0556 18.95 9.45218
    endloop
  endfacet
  facet normal 0.951051 0 0.309034
    outer loop
      vertex -23.5158 18.95 7.79095
      vertex -24.0556 13.75 9.45218
      vertex -23.5158 13.75 7.79095
    endloop
  endfacet
  facet normal 0.406747 0 0.913541
    outer loop
      vertex -10.9702 -13.75 -6.14232
      vertex -9.37453 -18.95 -6.85278
      vertex -9.37453 -13.75 -6.85278
    endloop
  endfacet
  facet normal 0.406747 0 0.913541
    outer loop
      vertex -9.37453 -18.95 -6.85278
      vertex -10.9702 -13.75 -6.14232
      vertex -10.9702 -18.95 -6.14232
    endloop
  endfacet
  facet normal -0.994526 0 0.104485
    outer loop
      vertex 24.7815 -18.95 12.8672
      vertex 24.964 -13.75 14.6043
      vertex 24.7815 -13.75 12.8672
    endloop
  endfacet
  facet normal -0.994526 0 0.104485
    outer loop
      vertex 24.964 -13.75 14.6043
      vertex 24.7815 -18.95 12.8672
      vertex 24.964 -18.95 14.6043
    endloop
  endfacet
  facet normal -0.866015 0 0.500018
    outer loop
      vertex 21.2224 -18.95 3.08877
      vertex 22.0958 -13.75 4.60147
      vertex 21.2224 -13.75 3.08877
    endloop
  endfacet
  facet normal -0.866015 0 0.500018
    outer loop
      vertex 22.0958 -13.75 4.60147
      vertex 21.2224 -18.95 3.08877
      vertex 22.0958 -18.95 4.60147
    endloop
  endfacet
  facet normal 0.9848 -0 0.173694
    outer loop
      vertex -24.7815 -18.95 12.8672
      vertex -24.4781 -13.75 11.147
      vertex -24.7815 -13.75 12.8672
    endloop
  endfacet
  facet normal 0.9848 0 0.173694
    outer loop
      vertex -24.4781 -13.75 11.147
      vertex -24.7815 -18.95 12.8672
      vertex -24.4781 -18.95 11.147
    endloop
  endfacet
  facet normal -0.275637 0 0.961262
    outer loop
      vertex 6.0541 -13.75 -7.93165
      vertex 7.73315 -18.95 -7.45019
      vertex 7.73315 -13.75 -7.45019
    endloop
  endfacet
  facet normal -0.275637 0 0.961262
    outer loop
      vertex 7.73315 -18.95 -7.45019
      vertex 6.0541 -13.75 -7.93165
      vertex 6.0541 -18.95 -7.93165
    endloop
  endfacet
  facet normal -0.743138 0 0.669138
    outer loop
      vertex 18.0015 -18.95 -1.03382
      vertex 19.1703 -13.75 0.264239
      vertex 18.0015 -13.75 -1.03382
    endloop
  endfacet
  facet normal -0.743138 0 0.669138
    outer loop
      vertex 19.1703 -13.75 0.264239
      vertex 18.0015 -18.95 -1.03382
      vertex 19.1703 -18.95 0.264239
    endloop
  endfacet
  facet normal -0.58779 0 0.809014
    outer loop
      vertex 13.9938 -13.75 -4.39666
      vertex 15.4069 -18.95 -3.36997
      vertex 15.4069 -13.75 -3.36997
    endloop
  endfacet
  facet normal -0.58779 0 0.809014
    outer loop
      vertex 15.4069 -18.95 -3.36997
      vertex 13.9938 -13.75 -4.39666
      vertex 13.9938 -18.95 -4.39666
    endloop
  endfacet
  facet normal 0.0697538 0 0.997564
    outer loop
      vertex -2.61582 -13.75 -8.53791
      vertex -0.87336 -18.95 -8.65975
      vertex -0.87336 -13.75 -8.65975
    endloop
  endfacet
  facet normal 0.0697538 0 0.997564
    outer loop
      vertex -0.87336 -18.95 -8.65975
      vertex -2.61582 -13.75 -8.53791
      vertex -2.61582 -18.95 -8.53791
    endloop
  endfacet
  facet normal -0.529924 0 0.848045
    outer loop
      vertex 12.5125 -13.75 -5.32229
      vertex 13.9938 -18.95 -4.39666
      vertex 13.9938 -13.75 -4.39666
    endloop
  endfacet
  facet normal -0.529924 0 0.848045
    outer loop
      vertex 13.9938 -18.95 -4.39666
      vertex 12.5125 -13.75 -5.32229
      vertex 12.5125 -18.95 -5.32229
    endloop
  endfacet
  facet normal -0.92719 0 0.374591
    outer loop
      vertex 22.8615 -18.95 6.17142
      vertex 23.5158 -13.75 7.79095
      vertex 22.8615 -13.75 6.17142
    endloop
  endfacet
  facet normal -0.92719 0 0.374591
    outer loop
      vertex 23.5158 -13.75 7.79095
      vertex 22.8615 -18.95 6.17142
      vertex 23.5158 -18.95 7.79095
    endloop
  endfacet
  facet normal -0.0697538 0 0.997564
    outer loop
      vertex 0.87336 -13.75 -8.65975
      vertex 2.61582 -18.95 -8.53791
      vertex 2.61582 -13.75 -8.53791
    endloop
  endfacet
  facet normal -0.0697538 0 0.997564
    outer loop
      vertex 2.61582 -18.95 -8.53791
      vertex 0.87336 -13.75 -8.65975
      vertex 0.87336 -18.95 -8.65975
    endloop
  endfacet
  facet normal -0.406747 0 0.913541
    outer loop
      vertex 9.37453 -13.75 -6.85278
      vertex 10.9702 -18.95 -6.14232
      vertex 10.9702 -13.75 -6.14232
    endloop
  endfacet
  facet normal -0.406747 0 0.913541
    outer loop
      vertex 10.9702 -18.95 -6.14232
      vertex 9.37453 -13.75 -6.85278
      vertex 9.37453 -18.95 -6.85278
    endloop
  endfacet
  facet normal 0.642778 0 0.766053
    outer loop
      vertex -16.745 -13.75 -2.2472
      vertex -15.4069 -18.95 -3.36997
      vertex -15.4069 -13.75 -3.36997
    endloop
  endfacet
  facet normal 0.642778 0 0.766053
    outer loop
      vertex -15.4069 -18.95 -3.36997
      vertex -16.745 -13.75 -2.2472
      vertex -16.745 -18.95 -2.2472
    endloop
  endfacet
  facet normal -0.829026 0 0.55921
    outer loop
      vertex 20.2456 -18.95 1.64067
      vertex 21.2224 -13.75 3.08877
      vertex 20.2456 -13.75 1.64067
    endloop
  endfacet
  facet normal -0.829026 0 0.55921
    outer loop
      vertex 21.2224 -13.75 3.08877
      vertex 20.2456 -18.95 1.64067
      vertex 21.2224 -18.95 3.08877
    endloop
  endfacet
  facet normal -0.99939 0 0.0349217
    outer loop
      vertex 24.964 -18.95 14.6043
      vertex 25.025 -13.75 16.35
      vertex 24.964 -13.75 14.6043
    endloop
  endfacet
  facet normal -0.99939 0 0.0349217
    outer loop
      vertex 25.025 -13.75 16.35
      vertex 24.964 -18.95 14.6043
      vertex 25.025 -18.95 16.35
    endloop
  endfacet
  facet normal 0.529924 0 0.848045
    outer loop
      vertex -13.9938 -13.75 -4.39666
      vertex -12.5125 -18.95 -5.32229
      vertex -12.5125 -13.75 -5.32229
    endloop
  endfacet
  facet normal 0.529924 0 0.848045
    outer loop
      vertex -12.5125 -18.95 -5.32229
      vertex -13.9938 -13.75 -4.39666
      vertex -13.9938 -18.95 -4.39666
    endloop
  endfacet
  facet normal 0.829026 -0 0.55921
    outer loop
      vertex -21.2224 -18.95 3.08877
      vertex -20.2456 -13.75 1.64067
      vertex -21.2224 -13.75 3.08877
    endloop
  endfacet
  facet normal 0.829026 0 0.55921
    outer loop
      vertex -20.2456 -13.75 1.64067
      vertex -21.2224 -18.95 3.08877
      vertex -20.2456 -18.95 1.64067
    endloop
  endfacet
  facet normal -0.342018 0 0.939693
    outer loop
      vertex 7.73315 -13.75 -7.45019
      vertex 9.37453 -18.95 -6.85278
      vertex 9.37453 -13.75 -6.85278
    endloop
  endfacet
  facet normal -0.342018 0 0.939693
    outer loop
      vertex 9.37453 -18.95 -6.85278
      vertex 7.73315 -13.75 -7.45019
      vertex 7.73315 -18.95 -7.45019
    endloop
  endfacet
  facet normal -0.139175 0 0.990268
    outer loop
      vertex 2.61582 -13.75 -8.53791
      vertex 4.34554 -18.95 -8.29481
      vertex 4.34554 -13.75 -8.29481
    endloop
  endfacet
  facet normal -0.139175 0 0.990268
    outer loop
      vertex 4.34554 -18.95 -8.29481
      vertex 2.61582 -13.75 -8.53791
      vertex 2.61582 -18.95 -8.53791
    endloop
  endfacet
  facet normal -0.694656 0 0.719342
    outer loop
      vertex 16.745 -13.75 -2.2472
      vertex 18.0015 -18.95 -1.03382
      vertex 18.0015 -13.75 -1.03382
    endloop
  endfacet
  facet normal -0.694656 0 0.719342
    outer loop
      vertex 18.0015 -18.95 -1.03382
      vertex 16.745 -13.75 -2.2472
      vertex 16.745 -18.95 -2.2472
    endloop
  endfacet
  facet normal 0.866015 -0 0.500018
    outer loop
      vertex -22.0958 -18.95 4.60147
      vertex -21.2224 -13.75 3.08877
      vertex -22.0958 -13.75 4.60147
    endloop
  endfacet
  facet normal 0.866015 0 0.500018
    outer loop
      vertex -21.2224 -13.75 3.08877
      vertex -22.0958 -18.95 4.60147
      vertex -21.2224 -18.95 3.08877
    endloop
  endfacet
  facet normal -0 0 1
    outer loop
      vertex -0.87336 -13.75 -8.65975
      vertex 0.87336 -18.95 -8.65975
      vertex 0.87336 -13.75 -8.65975
    endloop
  endfacet
  facet normal 0 0 1
    outer loop
      vertex 0.87336 -18.95 -8.65975
      vertex -0.87336 -13.75 -8.65975
      vertex -0.87336 -18.95 -8.65975
    endloop
  endfacet
  facet normal -0.642778 0 0.766053
    outer loop
      vertex 15.4069 -13.75 -3.36997
      vertex 16.745 -18.95 -2.2472
      vertex 16.745 -13.75 -2.2472
    endloop
  endfacet
  facet normal -0.642778 0 0.766053
    outer loop
      vertex 16.745 -18.95 -2.2472
      vertex 15.4069 -13.75 -3.36997
      vertex 15.4069 -18.95 -3.36997
    endloop
  endfacet
  facet normal 0.99939 -0 0.0349217
    outer loop
      vertex -25.025 -18.95 16.35
      vertex -24.964 -13.75 14.6043
      vertex -25.025 -13.75 16.35
    endloop
  endfacet
  facet normal 0.99939 0 0.0349217
    outer loop
      vertex -24.964 -13.75 14.6043
      vertex -25.025 -18.95 16.35
      vertex -24.964 -18.95 14.6043
    endloop
  endfacet
  facet normal 0.46946 0 0.882954
    outer loop
      vertex -12.5125 -13.75 -5.32229
      vertex -10.9702 -18.95 -6.14232
      vertex -10.9702 -13.75 -6.14232
    endloop
  endfacet
  facet normal 0.46946 0 0.882954
    outer loop
      vertex -10.9702 -18.95 -6.14232
      vertex -12.5125 -13.75 -5.32229
      vertex -12.5125 -18.95 -5.32229
    endloop
  endfacet
  facet normal -0.788035 0 0.615631
    outer loop
      vertex 19.1703 -18.95 0.264239
      vertex 20.2456 -13.75 1.64067
      vertex 19.1703 -13.75 0.264239
    endloop
  endfacet
  facet normal -0.788035 0 0.615631
    outer loop
      vertex 20.2456 -13.75 1.64067
      vertex 19.1703 -18.95 0.264239
      vertex 20.2456 -18.95 1.64067
    endloop
  endfacet
  facet normal 0.898798 -0 0.438364
    outer loop
      vertex -22.8615 -18.95 6.17142
      vertex -22.0958 -13.75 4.60147
      vertex -22.8615 -13.75 6.17142
    endloop
  endfacet
  facet normal 0.898798 0 0.438364
    outer loop
      vertex -22.0958 -13.75 4.60147
      vertex -22.8615 -18.95 6.17142
      vertex -22.0958 -18.95 4.60147
    endloop
  endfacet
  facet normal 0.694656 0 0.719342
    outer loop
      vertex -18.0015 -13.75 -1.03382
      vertex -16.745 -18.95 -2.2472
      vertex -16.745 -13.75 -2.2472
    endloop
  endfacet
  facet normal 0.694656 0 0.719342
    outer loop
      vertex -16.745 -18.95 -2.2472
      vertex -18.0015 -13.75 -1.03382
      vertex -18.0015 -18.95 -1.03382
    endloop
  endfacet
  facet normal -0.46946 0 0.882954
    outer loop
      vertex 10.9702 -13.75 -6.14232
      vertex 12.5125 -18.95 -5.32229
      vertex 12.5125 -13.75 -5.32229
    endloop
  endfacet
  facet normal -0.46946 0 0.882954
    outer loop
      vertex 12.5125 -18.95 -5.32229
      vertex 10.9702 -13.75 -6.14232
      vertex 10.9702 -18.95 -6.14232
    endloop
  endfacet
  facet normal 0.92719 -0 0.374591
    outer loop
      vertex -23.5158 -18.95 7.79095
      vertex -22.8615 -13.75 6.17142
      vertex -23.5158 -13.75 7.79095
    endloop
  endfacet
  facet normal 0.92719 0 0.374591
    outer loop
      vertex -22.8615 -13.75 6.17142
      vertex -23.5158 -18.95 7.79095
      vertex -22.8615 -18.95 6.17142
    endloop
  endfacet
  facet normal 0.275637 0 0.961262
    outer loop
      vertex -7.73315 -13.75 -7.45019
      vertex -6.0541 -18.95 -7.93165
      vertex -6.0541 -13.75 -7.93165
    endloop
  endfacet
  facet normal 0.275637 0 0.961262
    outer loop
      vertex -6.0541 -18.95 -7.93165
      vertex -7.73315 -13.75 -7.45019
      vertex -7.73315 -18.95 -7.45019
    endloop
  endfacet
  facet normal 0.743138 -0 0.669138
    outer loop
      vertex -19.1703 -18.95 0.264239
      vertex -18.0015 -13.75 -1.03382
      vertex -19.1703 -13.75 0.264239
    endloop
  endfacet
  facet normal 0.743138 0 0.669138
    outer loop
      vertex -18.0015 -13.75 -1.03382
      vertex -19.1703 -18.95 0.264239
      vertex -18.0015 -18.95 -1.03382
    endloop
  endfacet
  facet normal -0.898798 0 0.438364
    outer loop
      vertex 22.0958 -18.95 4.60147
      vertex 22.8615 -13.75 6.17142
      vertex 22.0958 -13.75 4.60147
    endloop
  endfacet
  facet normal -0.898798 0 0.438364
    outer loop
      vertex 22.8615 -13.75 6.17142
      vertex 22.0958 -18.95 4.60147
      vertex 22.8615 -18.95 6.17142
    endloop
  endfacet
  facet normal -0.951051 0 0.309034
    outer loop
      vertex 23.5158 -18.95 7.79095
      vertex 24.0556 -13.75 9.45218
      vertex 23.5158 -13.75 7.79095
    endloop
  endfacet
  facet normal -0.951051 0 0.309034
    outer loop
      vertex 24.0556 -13.75 9.45218
      vertex 23.5158 -18.95 7.79095
      vertex 24.0556 -18.95 9.45218
    endloop
  endfacet
  facet normal 0.970305 -0 0.241886
    outer loop
      vertex -24.4781 -18.95 11.147
      vertex -24.0556 -13.75 9.45218
      vertex -24.4781 -13.75 11.147
    endloop
  endfacet
  facet normal 0.970305 0 0.241886
    outer loop
      vertex -24.0556 -13.75 9.45218
      vertex -24.4781 -18.95 11.147
      vertex -24.0556 -18.95 9.45218
    endloop
  endfacet
  facet normal 0.342018 0 0.939693
    outer loop
      vertex -9.37453 -13.75 -6.85278
      vertex -7.73315 -18.95 -7.45019
      vertex -7.73315 -13.75 -7.45019
    endloop
  endfacet
  facet normal 0.342018 0 0.939693
    outer loop
      vertex -7.73315 -18.95 -7.45019
      vertex -9.37453 -13.75 -6.85278
      vertex -9.37453 -18.95 -6.85278
    endloop
  endfacet
  facet normal -0.9848 0 0.173694
    outer loop
      vertex 24.4781 -18.95 11.147
      vertex 24.7815 -13.75 12.8672
      vertex 24.4781 -13.75 11.147
    endloop
  endfacet
  facet normal -0.9848 0 0.173694
    outer loop
      vertex 24.7815 -13.75 12.8672
      vertex 24.4781 -18.95 11.147
      vertex 24.7815 -18.95 12.8672
    endloop
  endfacet
  facet normal -0.207909 0 0.978148
    outer loop
      vertex 4.34554 -13.75 -8.29481
      vertex 6.0541 -18.95 -7.93165
      vertex 6.0541 -13.75 -7.93165
    endloop
  endfacet
  facet normal -0.207909 0 0.978148
    outer loop
      vertex 6.0541 -18.95 -7.93165
      vertex 4.34554 -13.75 -8.29481
      vertex 4.34554 -18.95 -8.29481
    endloop
  endfacet
  facet normal 0.788035 -0 0.615631
    outer loop
      vertex -20.2456 -18.95 1.64067
      vertex -19.1703 -13.75 0.264239
      vertex -20.2456 -13.75 1.64067
    endloop
  endfacet
  facet normal 0.788035 0 0.615631
    outer loop
      vertex -19.1703 -13.75 0.264239
      vertex -20.2456 -18.95 1.64067
      vertex -19.1703 -18.95 0.264239
    endloop
  endfacet
  facet normal 0.139175 0 0.990268
    outer loop
      vertex -4.34554 -13.75 -8.29481
      vertex -2.61582 -18.95 -8.53791
      vertex -2.61582 -13.75 -8.53791
    endloop
  endfacet
  facet normal 0.139175 0 0.990268
    outer loop
      vertex -2.61582 -18.95 -8.53791
      vertex -4.34554 -13.75 -8.29481
      vertex -4.34554 -18.95 -8.29481
    endloop
  endfacet
  facet normal 0.994526 -0 0.104485
    outer loop
      vertex -24.964 -18.95 14.6043
      vertex -24.7815 -13.75 12.8672
      vertex -24.964 -13.75 14.6043
    endloop
  endfacet
  facet normal 0.994526 0 0.104485
    outer loop
      vertex -24.7815 -13.75 12.8672
      vertex -24.964 -18.95 14.6043
      vertex -24.7815 -18.95 12.8672
    endloop
  endfacet
  facet normal 0.207909 0 0.978148
    outer loop
      vertex -6.0541 -13.75 -7.93165
      vertex -4.34554 -18.95 -8.29481
      vertex -4.34554 -13.75 -8.29481
    endloop
  endfacet
  facet normal 0.207909 0 0.978148
    outer loop
      vertex -4.34554 -18.95 -8.29481
      vertex -6.0541 -13.75 -7.93165
      vertex -6.0541 -18.95 -7.93165
    endloop
  endfacet
  facet normal -0.970305 0 0.241886
    outer loop
      vertex 24.0556 -18.95 9.45218
      vertex 24.4781 -13.75 11.147
      vertex 24.0556 -13.75 9.45218
    endloop
  endfacet
  facet normal -0.970305 0 0.241886
    outer loop
      vertex 24.4781 -13.75 11.147
      vertex 24.0556 -18.95 9.45218
      vertex 24.4781 -18.95 11.147
    endloop
  endfacet
  facet normal 0.58779 0 0.809014
    outer loop
      vertex -15.4069 -13.75 -3.36997
      vertex -13.9938 -18.95 -4.39666
      vertex -13.9938 -13.75 -4.39666
    endloop
  endfacet
  facet normal 0.58779 0 0.809014
    outer loop
      vertex -13.9938 -18.95 -4.39666
      vertex -15.4069 -13.75 -3.36997
      vertex -15.4069 -18.95 -3.36997
    endloop
  endfacet
  facet normal 0.951051 -0 0.309034
    outer loop
      vertex -24.0556 -18.95 9.45218
      vertex -23.5158 -13.75 7.79095
      vertex -24.0556 -13.75 9.45218
    endloop
  endfacet
  facet normal 0.951051 0 0.309034
    outer loop
      vertex -23.5158 -13.75 7.79095
      vertex -24.0556 -18.95 9.45218
      vertex -23.5158 -18.95 7.79095
    endloop
  endfacet
  facet normal -1 0 0
    outer loop
      vertex 39.97 0 -2.11
      vertex 39.97 18.95 2.11
      vertex 39.97 18.95 -2.11
    endloop
  endfacet
  facet normal -1 -0 0
    outer loop
      vertex 39.97 18.95 2.11
      vertex 39.97 0 -2.11
      vertex 39.97 0 2.11
    endloop
  endfacet
  facet normal 0 0 -1
    outer loop
      vertex 35.75 13.75 2.11
      vertex 39.97 0 2.11
      vertex 35.75 0 2.11
    endloop
  endfacet
  facet normal 0 0 -1
    outer loop
      vertex 39.97 0 2.11
      vertex 35.75 13.75 2.11
      vertex 39.97 18.95 2.11
    endloop
  endfacet
  facet normal -0 0 -1
    outer loop
      vertex 39.97 18.95 2.11
      vertex 35.75 13.75 2.11
      vertex 35.75 18.95 2.11
    endloop
  endfacet
  facet normal 0 0 1
    outer loop
      vertex 35.75 13.75 -2.11
      vertex 39.97 18.95 -2.11
      vertex 35.75 18.95 -2.11
    endloop
  endfacet
  facet normal 0 0 1
    outer loop
      vertex 39.97 18.95 -2.11
      vertex 35.75 13.75 -2.11
      vertex 39.97 0 -2.11
    endloop
  endfacet
  facet normal 0 0 1
    outer loop
      vertex 39.97 0 -2.11
      vertex 35.75 13.75 -2.11
      vertex 35.75 0 -2.11
    endloop
  endfacet
  facet normal 0 1 -0
    outer loop
      vertex 39.97 0 -2.11
      vertex 35.75 0 2.11
      vertex 39.97 0 2.11
    endloop
  endfacet
  facet normal 0 1 0
    outer loop
      vertex 35.75 0 2.11
      vertex 39.97 0 -2.11
      vertex 35.75 0 -2.11
    endloop
  endfacet
  facet normal 0 0 -1
    outer loop
      vertex -39.97 0 2.11
      vertex -35.75 13.75 2.11
      vertex -35.75 0 2.11
    endloop
  endfacet
  facet normal 0 0 -1
    outer loop
      vertex -39.97 18.95 2.11
      vertex -35.75 13.75 2.11
      vertex -39.97 0 2.11
    endloop
  endfacet
  facet normal 0 0 -1
    outer loop
      vertex -35.75 13.75 2.11
      vertex -39.97 18.95 2.11
      vertex -35.75 18.95 2.11
    endloop
  endfacet
  facet normal -0 0 1
    outer loop
      vertex -39.97 18.95 -2.11
      vertex -35.75 13.75 -2.11
      vertex -35.75 18.95 -2.11
    endloop
  endfacet
  facet normal 0 0 1
    outer loop
      vertex -39.97 0 -2.11
      vertex -35.75 13.75 -2.11
      vertex -39.97 18.95 -2.11
    endloop
  endfacet
  facet normal 0 0 1
    outer loop
      vertex -35.75 13.75 -2.11
      vertex -39.97 0 -2.11
      vertex -35.75 0 -2.11
    endloop
  endfacet
  facet normal 1 -0 0
    outer loop
      vertex -39.97 0 2.11
      vertex -39.97 18.95 -2.11
      vertex -39.97 18.95 2.11
    endloop
  endfacet
  facet normal 1 0 0
    outer loop
      vertex -39.97 18.95 -2.11
      vertex -39.97 0 2.11
      vertex -39.97 0 -2.11
    endloop
  endfacet
  facet normal 0 1 -0
    outer loop
      vertex -35.75 0 -2.11
      vertex -39.97 0 2.11
      vertex -35.75 0 2.11
    endloop
  endfacet
  facet normal 0 1 0
    outer loop
      vertex -39.97 0 2.11
      vertex -35.75 0 -2.11
      vertex -39.97 0 -2.11
    endloop
  endfacet
endsolid OpenSCAD_Model
